<svg width="60" height="60" viewBox="0 0 60 60" fill="none" xmlns="http://www.w3.org/2000/svg">
<path d="M15.1432 31.5171C17.6373 34.0037 22.0665 33.6376 25.0143 30.7011C25.3352 30.3764 25.6335 30.0272 25.899 29.6667C26.9651 28.2206 28.2439 26.944 29.6919 25.8804C30.0469 25.6175 30.3825 25.3294 30.6961 25.0183C33.6326 22.0724 33.994 17.6432 31.499 15.1482C30.6991 14.3607 29.6855 13.8256 28.5841 13.6093C23.8472 12.6578 19.2665 10.078 15.339 6.15051L10.1879 0.997564C9.77661 0.587211 9.23073 0.361328 8.65002 0.361328C8.06932 0.361328 7.52343 0.587211 7.11308 0.997564L0.991668 7.11898C0.580374 7.52933 0.354492 8.07521 0.354492 8.65592C0.354492 9.23662 0.580374 9.78251 0.991668 10.1929L6.14367 15.3458C10.027 19.2291 12.6105 23.8258 13.6138 28.6371C13.8304 29.7262 14.3622 30.7277 15.1432 31.5171ZM59.0077 49.8296L53.8557 44.6766C49.9714 40.7924 47.3879 36.1966 46.3855 31.3853C46.1687 30.2963 45.6369 29.2949 44.8561 28.5053C42.3611 26.0187 37.9319 26.3839 34.9851 29.3213C34.6651 29.646 34.3658 29.9943 34.1004 30.3566C33.0341 31.8027 31.7554 33.0792 30.3074 34.143C29.9521 34.4055 29.6162 34.6933 29.3023 35.0042C26.3658 37.95 26.0053 42.3792 28.5004 44.8743C29.3005 45.6613 30.314 46.1963 31.4152 46.4131C36.1521 47.3646 40.7328 49.9444 44.6604 53.8719L49.8124 59.0249C50.6331 59.8456 52.0655 59.8456 52.8872 59.0249L59.0077 52.9044C59.419 52.494 59.6448 51.9472 59.6448 51.3665C59.6448 50.7858 59.419 50.2399 59.0077 49.8296ZM31.3606 25.6846C31.0114 26.031 30.6387 26.351 30.25 26.6371C28.8786 27.6444 27.6674 28.8534 26.6575 30.223C26.3658 30.6211 26.0364 31.006 25.6806 31.3646C24.9277 32.1157 24.0834 32.7058 23.1987 33.15L26.858 36.8093C27.3013 35.9284 27.8905 35.087 28.6387 34.3378C28.9888 33.9905 29.3615 33.6714 29.7493 33.3853C31.1209 32.3782 32.3321 31.1692 33.3418 29.7994C33.6335 29.4004 33.963 29.0164 34.3178 28.6569C35.0707 27.9077 35.9131 27.3176 36.7959 26.8733L33.1385 23.2169C32.6803 24.1286 32.0808 24.9617 31.3606 25.6846ZM39.6514 18.5703C39.6514 18.6107 39.6608 18.6503 39.6627 18.6898C39.691 19.1745 39.882 19.6517 40.2519 20.0216C40.3244 20.0931 40.4044 20.1514 40.4834 20.2098C40.8341 20.478 41.2636 20.6229 41.7051 20.622C42.0119 20.622 42.315 20.5467 42.5964 20.4103C42.8055 20.3132 42.9965 20.1811 43.1611 20.0197L43.9592 19.2197L46.7978 16.3811C47.1856 15.9933 47.4001 15.4776 47.4001 14.9279C47.4001 14.3783 47.1856 13.8644 46.7978 13.4757C46.6153 13.2958 46.3991 13.1538 46.1615 13.0578C45.6518 12.8461 45.0799 12.8394 44.5653 13.039C44.3131 13.1363 44.084 13.285 43.8924 13.4757L41.5281 15.8399L40.2538 17.1105C40.1954 17.1698 40.1503 17.2366 40.1013 17.3006C39.8126 17.6603 39.654 18.1071 39.6514 18.5684V18.5703ZM34.347 13.7279C34.3939 13.9019 34.4642 14.0688 34.5559 14.2239C34.634 14.3557 34.7244 14.4799 34.8336 14.5929C34.8467 14.607 34.8543 14.6239 34.8674 14.6371C34.9427 14.7124 35.0293 14.7717 35.114 14.8329C35.2175 14.9091 35.3277 14.974 35.4453 15.0277C35.515 15.0616 35.579 15.102 35.6524 15.1265C35.8736 15.2027 36.0975 15.2394 36.3178 15.2394C36.4976 15.2394 36.6717 15.2018 36.842 15.1566C37.1687 15.0742 37.4698 14.9122 37.7186 14.6851C37.9675 14.458 38.1562 14.1728 38.2679 13.855L39.4001 10.5402L39.9347 8.9825C40.0332 8.69432 40.0664 8.38788 40.0321 8.08528C39.9977 7.78269 39.8966 7.4915 39.7361 7.23272C39.5756 6.97394 39.3596 6.75402 39.1037 6.58885C38.8479 6.42367 38.5585 6.31735 38.2566 6.27756C37.8571 6.22649 37.4514 6.29359 37.0896 6.47055C36.7278 6.64752 36.4258 6.92661 36.2208 7.27333C36.1936 7.31945 36.1766 7.37215 36.1531 7.42015C36.1164 7.49545 36.0759 7.56698 36.0477 7.64792V7.65074L36.0467 7.65262L35.9752 7.85968L34.3761 12.5166C34.3686 12.5411 34.3695 12.5665 34.362 12.5919C34.3237 12.7225 34.2978 12.8564 34.2848 12.9919C34.2792 13.0437 34.2726 13.0936 34.2717 13.1453C34.2717 13.1623 34.2679 13.1792 34.2679 13.1962C34.2679 13.3383 34.2848 13.4785 34.3131 13.6169C34.3215 13.6545 34.3366 13.6903 34.347 13.7279ZM45.5037 22.6531C45.4848 22.6776 45.4623 22.7002 45.4434 22.7256C45.3681 22.8272 45.2994 22.9345 45.242 23.0493C45.2015 23.134 45.1743 23.2225 45.146 23.311C45.0019 23.7351 45.0019 24.195 45.146 24.6192C45.1771 24.7114 45.2251 24.7933 45.2684 24.878C45.3164 24.974 45.3719 25.0663 45.434 25.1529C45.4961 25.2394 45.5583 25.3279 45.6345 25.4042V25.4051C45.9059 25.6786 46.249 25.8698 46.6243 25.9567C46.9997 26.0436 47.3919 26.0227 47.7559 25.8964L50.9531 24.799L52.6303 24.2258C53.1479 24.047 53.562 23.6799 53.8067 23.1811C53.8463 23.0992 53.8726 23.0117 53.9008 22.926C54.042 22.5006 54.0495 22.046 53.9008 21.615C53.7233 21.1004 53.349 20.6771 52.86 20.4379C52.371 20.1987 51.8071 20.163 51.2919 20.3387L50.2416 20.6983L46.4185 22.0056C46.0591 22.1317 45.7422 22.3561 45.5037 22.6531ZM25.3098 45.5745C25.108 45.389 24.8708 45.2462 24.6124 45.1547C24.2346 45.0257 23.8274 45.0094 23.4405 45.1078C23.0536 45.2063 22.7037 45.4152 22.4335 45.7091L22.4147 45.726C22.2359 45.9256 22.0938 46.1618 22.0006 46.431L20.33 51.2997L20.3291 51.3034C20.1597 51.8046 20.1902 52.3518 20.4143 52.831C20.6384 53.3101 21.0387 53.6844 21.5319 53.8757C21.5583 53.8851 21.5799 53.9011 21.6063 53.9096L21.6081 53.9105C21.8246 53.9858 22.0505 54.0234 22.267 54.0234C22.8364 54.0234 23.3663 53.7703 23.7531 53.3599C23.9488 53.1529 24.1183 52.9194 24.2171 52.6333L24.9634 50.4573L25.8914 47.7656C26.1455 47.0126 25.9573 46.2032 25.402 45.6479C25.3738 45.6197 25.339 45.6009 25.3098 45.5745ZM20.6208 41.7129C20.6208 41.4164 20.5474 41.1237 20.4166 40.8507C20.3181 40.6316 20.1814 40.4318 20.0128 40.2606C19.6271 39.8763 19.1047 39.6605 18.5601 39.6605C18.0156 39.6605 17.4932 39.8763 17.1074 40.2606L14.7921 42.5759L13.4679 43.8973C13.3879 43.9783 13.3211 44.0667 13.2561 44.1571C13.0028 44.5042 12.866 44.9227 12.8656 45.3524V45.3562C12.8656 45.4766 12.8797 45.5943 12.9004 45.7119C12.9032 45.727 12.9023 45.742 12.9051 45.7571C12.9098 45.7806 12.9201 45.8023 12.9258 45.8258C13.0431 46.3359 13.3526 46.7812 13.7898 47.0691C14.1314 47.2959 14.5211 47.4079 14.9173 47.4079C15.4444 47.4079 15.9714 47.2103 16.3761 46.8056L17.1545 46.0244L20.0128 43.166C20.1768 42.999 20.3106 42.8047 20.4081 42.5919C20.5437 42.3143 20.6208 42.0178 20.6208 41.7129ZM14.6397 37.7599C14.7733 37.6234 14.8891 37.471 14.9804 37.2987C14.9926 37.2762 15.0096 37.2554 15.0218 37.2319C15.141 36.9897 15.211 36.7262 15.2276 36.4567C15.2442 36.1872 15.2072 35.9171 15.1187 35.662C15.082 35.5547 15.0284 35.4587 14.9766 35.3609C14.8874 35.1847 14.7722 35.0229 14.635 34.8809H14.6331L14.6303 34.8771C14.4213 34.6761 14.1721 34.5218 13.899 34.4244C13.4548 34.2467 12.9622 34.2314 12.5079 34.3811L8.67826 35.6997L7.6392 36.0573C7.38226 36.1449 7.15637 36.2813 6.96155 36.4498C6.95496 36.4564 6.94461 36.4611 6.93708 36.4686C6.91826 36.4865 6.9032 36.5082 6.88437 36.5251C6.60269 36.795 6.4039 37.1396 6.31137 37.5186C6.21883 37.8976 6.23641 38.2951 6.36202 38.6644C6.44952 38.9204 6.58666 39.1567 6.76559 39.3596C6.94452 39.5626 7.16172 39.7282 7.40475 39.8471C7.64779 39.966 7.91189 40.0358 8.18193 40.0525C8.45198 40.0692 8.72266 40.0324 8.97849 39.9444L11.0519 39.2291L13.8425 38.2719C14.1512 38.1665 14.4185 37.9858 14.6397 37.7599Z" fill="url(#paint0_linear_2241_36)"/>
<defs>
<linearGradient id="paint0_linear_2241_36" x1="29.9997" y1="0.361328" x2="29.9997" y2="59.6404" gradientUnits="userSpaceOnUse">
<stop stop-color="#E4CCB0"/>
<stop offset="1" stop-color="#C2A68B"/>
</linearGradient>
</defs>
</svg>
