<svg width="54" height="60" viewBox="0 0 54 60" fill="none" xmlns="http://www.w3.org/2000/svg">
<path d="M52.3097 34.4682C51.57 35.3242 50.6556 36.0118 49.6279 36.4848C48.6002 36.9578 47.4832 37.2052 46.3519 37.2104C46.2675 37.2104 46.1878 37.2104 46.1034 37.2057C45.9791 37.2038 45.8606 37.1525 45.7741 37.0633C45.6876 36.974 45.64 36.854 45.6419 36.7297C45.6439 36.6054 45.6951 36.4869 45.7844 36.4004C45.8736 36.3138 45.9936 36.2663 46.118 36.2682H46.1316C46.2066 36.2729 46.2769 36.2729 46.3519 36.2729C50.2894 36.2729 53.4909 32.9354 53.4909 28.8338C53.5017 27.84 53.3136 26.854 52.9376 25.934C52.5617 25.014 52.0055 24.1784 51.3019 23.4765C51.2717 23.4445 51.2464 23.4081 51.2269 23.3687C51.2269 23.364 51.2222 23.3593 51.2222 23.3546C51.1891 23.2939 51.1703 23.2266 51.167 23.1575C51.1638 23.0885 51.1762 23.0197 51.2034 22.9562C51.4433 22.2013 51.565 21.4139 51.5644 20.6218C51.5644 16.5109 48.3581 13.1738 44.4211 13.1738C40.4841 13.1738 37.2773 16.5109 37.2773 20.6218C37.2773 20.7461 37.2279 20.8653 37.14 20.9532C37.0521 21.0412 36.9329 21.0905 36.8086 21.0905C36.6843 21.0905 36.565 21.0412 36.4771 20.9532C36.3892 20.8653 36.3398 20.7461 36.3398 20.6218C36.3398 15.9952 39.9633 12.2363 44.4211 12.2363H44.4586C44.7027 11.5582 44.8279 10.843 44.8289 10.1223C44.8289 6.96757 42.5273 4.39882 39.7055 4.39882C38.7641 4.4219 37.8478 4.70639 37.0588 5.22046C36.2699 5.73454 35.6396 6.45793 35.2383 7.30976C35.2115 7.36536 35.1737 7.41498 35.1273 7.45565C35.0809 7.49632 35.0267 7.5272 34.9681 7.54646C34.9094 7.56571 34.8475 7.57294 34.786 7.56771C34.7245 7.56248 34.6647 7.54489 34.6101 7.51601C34.4997 7.45981 34.4161 7.3622 34.3774 7.2445C34.3388 7.1268 34.3483 6.99859 34.4039 6.88789C34.8707 5.90838 35.5939 5.07342 36.4967 4.47149C37.3995 3.86957 38.4483 3.52311 39.532 3.46882C37.313 1.92195 33.0117 -0.667896 30.0637 0.161791C28.845 0.508666 27.9966 1.3946 27.4669 2.88054V13.9337C27.9371 13.2814 28.5825 12.7758 29.3284 12.4755C30.0742 12.1752 30.8899 12.0924 31.6809 12.2368C31.8046 12.2523 31.9171 12.3164 31.9936 12.4148C32.07 12.5133 32.1043 12.6381 32.0887 12.7618C32.0732 12.8855 32.0092 12.9979 31.9107 13.0744C31.8122 13.1509 31.6874 13.1851 31.5637 13.1696C28.3387 12.7618 27.5559 15.6769 27.4669 16.0519V50.5782C27.4669 55.7715 31.2778 60.0001 35.9648 60.0001C39.0305 60.0001 41.843 58.1344 43.3008 55.1344C43.3055 55.1251 43.3148 55.1204 43.3195 55.111C43.3353 55.0854 43.3542 55.0618 43.3758 55.0407C43.3936 55.0166 43.414 54.9946 43.4367 54.9751C43.4584 54.9583 43.482 54.9441 43.507 54.9329C43.5345 54.9156 43.5646 54.903 43.5961 54.8954L43.6242 54.8813C45.2672 54.4904 46.7287 53.5531 47.7693 52.223C48.8099 50.8928 49.3679 49.2487 49.3519 47.5599C49.3475 46.9852 49.2783 46.4129 49.1456 45.8537C49.148 45.8366 49.148 45.8192 49.1456 45.8021C49.1433 45.7725 49.1433 45.7427 49.1456 45.713C49.1461 45.6878 49.1493 45.6626 49.155 45.638C49.1657 45.5972 49.1815 45.5578 49.2019 45.5209C49.2063 45.509 49.2126 45.4979 49.2206 45.488C49.2503 45.445 49.2867 45.407 49.3284 45.3755L49.3378 45.3662C49.3612 45.3521 49.3753 45.3334 49.3987 45.3193C50.3357 44.8313 51.161 44.154 51.8222 43.3302C52.4835 42.5063 52.9663 41.5541 53.24 40.5338C53.5137 39.5135 53.5723 38.4474 53.4122 37.4032C53.252 36.3591 52.8766 35.3596 52.3097 34.4682ZM41.2758 44.574C40.6343 44.5949 39.9966 44.6813 39.3726 44.8318C39.2867 44.9099 39.1748 44.9534 39.0586 44.9537H39.0473C39.0169 44.9519 38.9868 44.9456 38.9583 44.9349C36.7505 45.549 33.7598 47.2084 33.7973 51.6849C33.7972 51.8096 33.7479 51.9293 33.6602 52.0179C33.5724 52.1065 33.4533 52.157 33.3286 52.1584C33.2673 52.1587 33.2066 52.147 33.1498 52.1239C33.0931 52.1007 33.0415 52.0666 32.998 52.0235C32.9544 51.9804 32.9198 51.9292 32.8961 51.8727C32.8724 51.8162 32.8601 51.7556 32.8598 51.6943C32.8181 46.7396 36.1083 44.8318 38.5833 44.0959C38.4942 36.3573 31.5759 35.6354 31.2759 35.6073C31.1521 35.5949 31.038 35.5345 30.9583 35.4389C30.8785 35.3434 30.8394 35.2204 30.8494 35.0963C30.8612 34.9726 30.9217 34.8587 31.0175 34.7796C31.1133 34.7005 31.2366 34.6627 31.3603 34.6744C31.44 34.6791 39.2864 35.4666 39.5166 43.8619C40.0917 43.7364 40.6768 43.6611 41.265 43.6369H41.2697C41.394 43.6363 41.5135 43.6851 41.6018 43.7726C41.6902 43.8601 41.7402 43.979 41.7408 44.1034C41.7414 44.2277 41.6926 44.3471 41.6051 44.4355C41.5177 44.5238 41.3987 44.5738 41.2744 44.5744L41.2758 44.574ZM44.4211 32.4666H44.3883C39.5976 32.1244 38.5476 28.3323 38.332 27.0624C36.2606 26.8689 34.3426 25.8873 32.9742 24.3202C32.8973 24.2258 32.8601 24.1051 32.8706 23.9837C32.8811 23.8624 32.9384 23.7499 33.0304 23.67C33.1224 23.5902 33.2419 23.5493 33.3635 23.5561C33.4852 23.5628 33.5994 23.6167 33.682 23.7062C34.3614 24.4829 35.1998 25.1046 36.1403 25.5292C37.0809 25.9538 38.1017 26.1713 39.1336 26.1671C40.9895 26.1949 42.7807 25.4857 44.1145 24.1949C45.4483 22.9041 46.2158 21.137 46.2487 19.2812C46.2487 19.1568 46.2981 19.0376 46.386 18.9497C46.4739 18.8618 46.5932 18.8124 46.7175 18.8124C46.8418 18.8124 46.961 18.8618 47.0489 18.9497C47.1369 19.0376 47.1862 19.1568 47.1862 19.2812C47.1536 21.3589 46.3075 23.341 44.8295 24.8018C43.3516 26.2626 41.3597 27.0855 39.2817 27.0938C39.5114 28.3027 40.477 31.2465 44.452 31.5277C44.5763 31.5321 44.6938 31.5856 44.7787 31.6766C44.8635 31.7676 44.9087 31.8886 44.9044 32.0129C44.9 32.1372 44.8465 32.2547 44.7555 32.3395C44.6645 32.4244 44.5435 32.4696 44.4192 32.4652L44.4211 32.4666ZM22.32 12.2344C23.1108 12.0892 23.9267 12.1718 24.6724 12.4725C25.4181 12.7733 26.063 13.2799 26.5317 13.9332V2.88007C26.0067 1.3946 25.1536 0.508666 23.9395 0.161323C20.9841 -0.672584 16.6814 1.92195 14.4642 3.46882C15.5482 3.52345 16.5973 3.86978 17.5007 4.47126C18.4042 5.07273 19.1285 5.90702 19.597 6.88601C19.653 6.99728 19.6624 7.12621 19.6233 7.24445C19.5842 7.36268 19.4997 7.46053 19.3884 7.51648C19.2772 7.57242 19.1482 7.58188 19.03 7.54276C18.9118 7.50364 18.8139 7.41915 18.758 7.30789C18.3571 6.45666 17.7275 5.73364 16.9395 5.21959C16.1515 4.70555 15.236 4.42073 14.2955 4.39695C11.4689 4.39695 9.17202 6.9657 9.17202 10.1204C9.17068 10.8413 9.29603 11.5569 9.54234 12.2344H9.57984C14.033 12.2344 17.6611 15.9934 17.6611 20.6199C17.6611 20.7442 17.6117 20.8635 17.5238 20.9514C17.4359 21.0393 17.3167 21.0887 17.1923 21.0887C17.068 21.0887 16.9488 21.0393 16.8609 20.9514C16.773 20.8635 16.7236 20.7442 16.7236 20.6199C16.7236 16.509 13.5173 13.1719 9.57984 13.1719C5.64234 13.1719 2.43187 16.5109 2.43187 20.6218C2.4312 21.4139 2.55295 22.2013 2.79281 22.9562C2.82068 23.0193 2.83389 23.088 2.83146 23.157C2.82902 23.226 2.811 23.2936 2.77874 23.3546C2.77524 23.3617 2.77047 23.368 2.76468 23.3734C2.74847 23.4121 2.72455 23.4472 2.69437 23.4765C1.99126 24.1786 1.43577 25.0143 1.06062 25.9343C0.685472 26.8544 0.498254 27.8403 0.509994 28.8338C0.509994 32.9354 3.71156 36.2729 7.64906 36.2729C7.7189 36.2729 7.7939 36.2729 7.86421 36.2682C7.98701 36.2698 8.10475 36.3173 8.19416 36.4015C8.28356 36.4857 8.33811 36.6004 8.34702 36.7229C8.34947 36.7845 8.3396 36.8461 8.31799 36.9039C8.29639 36.9617 8.26348 37.0146 8.2212 37.0596C8.17891 37.1045 8.12809 37.1406 8.07171 37.1657C8.01532 37.1908 7.95451 37.2044 7.89281 37.2057C7.81265 37.2104 7.72827 37.2104 7.64906 37.2104C6.51732 37.2051 5.39982 36.9576 4.37164 36.4846C3.34345 36.0117 2.42841 35.3241 1.68796 34.4682C1.12268 35.36 0.74857 36.3595 0.589295 37.4033C0.430019 38.4471 0.489039 39.5126 0.762623 40.5324C1.03621 41.5523 1.5184 42.5042 2.17873 43.3282C2.83905 44.1521 3.66314 44.8301 4.5989 45.3193C4.62007 45.3338 4.64041 45.3494 4.65984 45.3662C4.66453 45.3709 4.66921 45.3709 4.6739 45.3755C4.71448 45.4083 4.75071 45.4461 4.78171 45.488C4.78615 45.4999 4.79248 45.511 4.80046 45.5209C4.81937 45.558 4.83354 45.5974 4.84265 45.638C4.85002 45.6625 4.85473 45.6876 4.85671 45.713C4.85749 45.7428 4.85592 45.7726 4.85203 45.8021C4.85437 45.8192 4.85437 45.8366 4.85203 45.8537C4.72167 46.4133 4.65251 46.9854 4.64577 47.5599C4.62993 49.2491 5.1884 50.8936 6.22964 52.2238C7.27089 53.554 8.73313 54.4911 10.3767 54.8813C10.3856 54.8869 10.395 54.8917 10.4048 54.8954C10.4338 54.9059 10.462 54.9184 10.4892 54.9329C10.5152 54.9451 10.5402 54.9592 10.5642 54.9751C10.5842 54.9942 10.603 55.0145 10.6205 55.036C10.6444 55.0596 10.6649 55.0864 10.6814 55.1157C10.6861 55.1204 10.6955 55.1251 10.6955 55.1344C12.158 58.1344 14.9658 60.0001 18.0361 60.0001C22.7184 60.0001 26.5317 55.7719 26.5317 50.5782V16.0515C26.4473 15.6765 25.6645 12.766 22.4348 13.1691C22.3111 13.1841 22.1866 13.1492 22.0886 13.0723C21.9905 12.9954 21.9271 12.8827 21.9122 12.759C21.8973 12.6353 21.9321 12.5107 22.009 12.4127C22.0859 12.3147 22.1986 12.2512 22.3223 12.2363L22.32 12.2344ZM9.61265 32.4666H9.57984C9.45552 32.471 9.33456 32.4258 9.24358 32.3409C9.15259 32.2561 9.09903 32.1386 9.09468 32.0143C9.09033 31.89 9.13554 31.769 9.22037 31.678C9.30521 31.587 9.4227 31.5335 9.54703 31.5291C13.5173 31.2479 14.4877 28.3041 14.7173 27.0952C12.6387 27.0874 10.646 26.2645 9.1675 24.8034C7.68896 23.3423 6.84251 21.3596 6.80999 19.2812C6.80999 19.1568 6.85938 19.0376 6.94729 18.9497C7.03519 18.8618 7.15442 18.8124 7.27874 18.8124C7.40306 18.8124 7.52229 18.8618 7.6102 18.9497C7.69811 19.0376 7.74749 19.1568 7.74749 19.2812C7.78054 21.137 8.54814 22.9041 9.88201 24.1949C11.2159 25.4857 13.0072 26.1949 14.8631 26.1671C15.8952 26.1723 16.9163 25.9551 17.857 25.5305C18.7977 25.1059 19.6359 24.4836 20.3147 23.7062C20.3541 23.6568 20.4031 23.6159 20.4587 23.5859C20.5143 23.5559 20.5755 23.5375 20.6384 23.5318C20.7013 23.526 20.7647 23.5331 20.8249 23.5524C20.885 23.5718 20.9406 23.6032 20.9883 23.6446C21.036 23.686 21.0749 23.7367 21.1025 23.7935C21.1302 23.8503 21.1461 23.9121 21.1492 23.9752C21.1524 24.0383 21.1427 24.1014 21.1209 24.1607C21.099 24.22 21.0654 24.2743 21.022 24.3202C19.6557 25.8872 17.7393 26.869 15.6694 27.0624C15.4486 28.3323 14.4033 32.1244 9.61265 32.4666ZM22.6411 34.6744C22.7022 34.6682 22.7639 34.6742 22.8226 34.6921C22.8813 34.7101 22.9358 34.7396 22.983 34.7789C23.0302 34.8182 23.069 34.8665 23.0972 34.921C23.1254 34.9755 23.1425 35.0351 23.1473 35.0963C23.1582 35.2206 23.1194 35.344 23.0394 35.4398C22.9595 35.5355 22.845 35.5957 22.7208 35.6073C22.4255 35.6354 15.502 36.3573 15.4134 44.0959C17.8884 44.8318 21.1791 46.7396 21.1411 51.6943C21.1399 51.8178 21.0899 51.9358 21.0021 52.0227C20.9144 52.1096 20.7959 52.1584 20.6723 52.1584H20.6677C20.6061 52.1577 20.5453 52.145 20.4886 52.1209C20.432 52.0968 20.3807 52.0617 20.3376 52.0177C20.2945 51.9738 20.2605 51.9218 20.2375 51.8647C20.2145 51.8076 20.203 51.7465 20.2036 51.6849C20.2364 47.2037 17.2603 45.549 15.0473 44.9349C15.0151 44.9439 14.9822 44.9501 14.9489 44.9537H14.9442C14.8836 44.9545 14.8234 44.9433 14.7671 44.9208C14.7107 44.8983 14.6594 44.8648 14.6161 44.8224C13.9965 44.6754 13.3635 44.5922 12.727 44.574C12.6027 44.5734 12.4837 44.5234 12.3963 44.435C12.3088 44.3467 12.26 44.2272 12.2606 44.1029C12.2612 43.9786 12.3112 43.8596 12.3996 43.7721C12.4879 43.6846 12.6074 43.6359 12.7317 43.6365H12.7364C13.3231 43.6606 13.9066 43.7359 14.4802 43.8615C14.7127 35.4666 22.5544 34.6791 22.6411 34.6744Z" fill="url(#paint0_linear_2243_71)"/>
<defs>
<linearGradient id="paint0_linear_2243_71" x1="27.0011" y1="0" x2="27.0011" y2="60.0001" gradientUnits="userSpaceOnUse">
<stop stop-color="#E4CCB0"/>
<stop offset="1" stop-color="#C2A68B"/>
</linearGradient>
</defs>
</svg>
