<svg width="42" height="64" viewBox="0 0 42 64" fill="none" xmlns="http://www.w3.org/2000/svg">
<path fill-rule="evenodd" clip-rule="evenodd" d="M41.0504 53.975C27.3879 39.075 18.6879 28.4375 13.7254 20.5125C10.6254 15.575 8.93789 11.65 8.57539 8.425C6.18789 12.725 4.87539 17.5125 4.73789 22.5C4.68789 24.35 6.16289 28.625 13.5004 38.475C18.6129 45.3375 24.9879 52.8125 29.6379 58.275C31.6129 60.6 33.2754 62.5375 34.4629 64L41.0504 53.975ZM19.6129 49.7125C17.0504 52.8 14.5754 55.7125 12.3879 58.275C10.4129 60.6 8.75039 62.5375 7.56289 64L0.962891 53.975C5.51289 48.9875 7.55039 46.5 11.1379 42.1375C11.5379 41.65 11.9629 41.1375 12.4004 40.6C14.5754 43.5 17.0254 46.5625 19.6129 49.7125ZM21.0004 11.5625C18.0254 11.5625 15.0879 12.4625 12.6129 14.1C10.6754 9.9875 10.1879 6.9 11.1129 4.5625C13.5879 1.6625 17.1754 0 21.0004 0C24.8254 0 28.4129 1.6625 30.8879 4.5625C31.4379 6.0375 31.2379 8.75 28.7754 13.7125C26.4254 12.3 23.7504 11.5625 21.0004 11.5625ZM21.9504 28.425C26.3629 22.4125 29.5254 17.3375 31.3379 13.3375C32.2754 11.275 32.8754 9.475 33.1379 7.9C35.7129 12.325 37.1379 17.3125 37.2754 22.5125C37.3254 24.2875 35.9629 28.325 29.2754 37.45C26.5004 34.1625 24.0629 31.1625 21.9504 28.425Z" fill="url(#paint0_linear_2243_74)"/>
<defs>
<linearGradient id="paint0_linear_2243_74" x1="21.0066" y1="0" x2="21.0066" y2="64" gradientUnits="userSpaceOnUse">
<stop stop-color="#E4CCB0"/>
<stop offset="1" stop-color="#C2A68B"/>
</linearGradient>
</defs>
</svg>
