<svg width="60" height="60" viewBox="0 0 60 60" fill="none" xmlns="http://www.w3.org/2000/svg">
<path d="M47.5 17.5H42.5V15C42.5 13.0109 41.7098 11.1032 40.3033 9.6967C38.8968 8.29018 36.9891 7.5 35 7.5H25C23.0109 7.5 21.1032 8.29018 19.6967 9.6967C18.2902 11.1032 17.5 13.0109 17.5 15V17.5H12.5C11.1751 17.504 9.90566 18.032 8.96884 18.9688C8.03201 19.9057 7.50396 21.1751 7.5 22.5V47.5C7.50396 48.8249 8.03201 50.0943 8.96884 51.0312C9.90566 51.968 11.1751 52.496 12.5 52.5H47.5C48.8249 52.496 50.0943 51.968 51.0312 51.0312C51.968 50.0943 52.496 48.8249 52.5 47.5V22.5C52.496 21.1751 51.968 19.9057 51.0312 18.9688C50.0943 18.032 48.8249 17.504 47.5 17.5ZM22.5 15C22.5 14.337 22.7634 13.7011 23.2322 13.2322C23.7011 12.7634 24.337 12.5 25 12.5H35C35.663 12.5 36.2989 12.7634 36.7678 13.2322C37.2366 13.7011 37.5 14.337 37.5 15V17.5H22.5V15ZM37.5 37.5H32.5V42.5H27.5V37.5H22.5V32.5H27.5V27.5H32.5V32.5H37.5V37.5Z" fill="url(#paint0_linear_2252_82)"/>
<defs>
<linearGradient id="paint0_linear_2252_82" x1="30" y1="7.5" x2="30" y2="52.5" gradientUnits="userSpaceOnUse">
<stop stop-color="#E4CCB0"/>
<stop offset="1" stop-color="#C2A68B"/>
</linearGradient>
</defs>
</svg>
