<svg width="52" height="52" viewBox="0 0 52 52" fill="none" xmlns="http://www.w3.org/2000/svg">
<g clip-path="url(#clip0_2252_86)">
<path fill-rule="evenodd" clip-rule="evenodd" d="M51.4744 12.6601C52.1744 11.9599 52.1744 10.8248 51.4744 10.1247L41.979 0.629089C41.8155 0.450008 41.6174 0.305947 41.3966 0.205616C41.1758 0.105286 40.937 0.0507705 40.6946 0.0453672C40.4522 0.0399638 40.2112 0.0837845 39.9862 0.174179C39.7612 0.264574 39.5568 0.399666 39.3855 0.571284C39.2142 0.742902 39.0795 0.947482 38.9895 1.17265C38.8995 1.39782 38.8561 1.6389 38.862 1.88132C38.8678 2.12374 38.9227 2.36245 39.0235 2.58302C39.1242 2.8036 39.2686 3.00145 39.448 3.16462L41.52 5.23662C41.5472 5.25256 41.5735 5.26992 41.5989 5.28862C41.6213 5.31198 41.6303 5.34245 41.65 5.36662L46.5936 10.3102C46.6178 10.3299 46.6474 10.3389 46.6698 10.3604C46.6878 10.3849 46.7046 10.4104 46.7199 10.4366L48.9434 12.66C49.6522 13.3349 50.7657 13.3349 51.4744 12.6601ZM27.7928 34.286V26.1353C27.7933 25.8795 27.8486 25.6267 27.9549 25.394C28.0612 25.1613 28.216 24.9541 28.4091 24.7862C28.6021 24.6183 28.8288 24.4936 29.074 24.4206C29.3192 24.3475 29.5772 24.3278 29.8306 24.3627C32.5189 24.8362 35.288 24.4431 37.7383 23.2403L28.1603 13.6551L26.256 15.5576L28.7897 18.0913C28.8777 18.1733 28.9483 18.2723 28.9973 18.3821C29.0462 18.492 29.0726 18.6106 29.0747 18.7309C29.0769 18.8512 29.0548 18.9707 29.0099 19.0823C28.9649 19.1938 28.8979 19.2952 28.813 19.3804C28.728 19.4655 28.6267 19.5327 28.5153 19.5779C28.4038 19.6232 28.2843 19.6455 28.1641 19.6436C28.0438 19.6417 27.9251 19.6156 27.8151 19.5668C27.7051 19.5181 27.6061 19.4477 27.5238 19.3599L24.9901 16.8253L23.0858 18.7269L25.6204 21.2623C25.7349 21.3729 25.8179 21.5119 25.8609 21.6652C25.9039 21.8184 25.9053 21.9803 25.865 22.1343C25.8247 22.2883 25.7441 22.4287 25.6316 22.5413C25.519 22.6538 25.3785 22.7343 25.2245 22.7746C25.0706 22.8149 24.9087 22.8135 24.7554 22.7705C24.6022 22.7276 24.4632 22.6446 24.3526 22.5301L21.818 19.9947L19.9146 21.8963L22.4509 24.4317C22.5654 24.5423 22.6484 24.6813 22.6914 24.8345C22.7344 24.9878 22.7358 25.1497 22.6955 25.3037C22.6552 25.4577 22.5746 25.5981 22.4621 25.7107C22.3495 25.8232 22.209 25.9037 22.055 25.944C21.9011 25.9843 21.7392 25.9829 21.5859 25.94C21.4327 25.897 21.2937 25.814 21.1831 25.6995L18.6477 23.1641L16.7452 25.0657L19.2815 27.602C19.396 27.7126 19.4791 27.8516 19.522 28.0049C19.565 28.1581 19.5664 28.32 19.5261 28.474C19.4858 28.628 19.4052 28.7684 19.2927 28.881C19.1801 28.9935 19.0396 29.074 18.8857 29.1143C18.7317 29.1546 18.5698 29.1532 18.4166 29.1102C18.2633 29.0673 18.1243 28.9843 18.0137 28.8698L15.4774 26.3326L13.5749 28.2351L16.1122 30.7714C16.2267 30.882 16.3097 31.021 16.3526 31.1742C16.3956 31.3275 16.397 31.4894 16.3567 31.6434C16.3164 31.7974 16.2358 31.9378 16.1233 32.0504C16.0107 32.1629 15.8702 32.2434 15.7163 32.2837C15.5623 32.324 15.4004 32.3226 15.2472 32.2796C15.0939 32.2367 14.9549 32.1537 14.8443 32.0392L12.3062 29.5029L10.4046 31.4035L12.9419 33.9408C13.0564 34.0513 13.1394 34.1904 13.1824 34.3436C13.2254 34.4969 13.2268 34.6588 13.1865 34.8128C13.1462 34.9668 13.0656 35.1073 12.9531 35.2198C12.8405 35.3323 12.7 35.4128 12.546 35.4531C12.392 35.4934 12.2301 35.492 12.0769 35.449C11.9236 35.4061 11.7846 35.3231 11.674 35.2086L9.13617 32.6712L8.03613 33.7696L18.1816 43.9141L27.7928 34.286Z" fill="url(#paint0_linear_2252_86)"/>
<path d="M29.5867 38.1176C29.5867 41.7782 29.5867 45.9257 39.4373 50.3108C49.3111 45.9231 49.3111 41.7747 49.3111 38.1176V26.135C45.9071 26.7563 42.3935 26.1071 39.4363 24.3105C38.2484 25.1175 34.8638 26.8998 29.5742 26.1422L29.5868 34.6408V38.1176H29.5867ZM32.5391 38.0279C32.7072 37.8599 32.9352 37.7654 33.1729 37.7654C33.4106 37.7654 33.6386 37.8599 33.8068 38.0279L36.7888 41.0099L46.018 32.6128C46.1943 32.4553 46.4257 32.3738 46.6618 32.386C46.898 32.3983 47.1197 32.5033 47.2788 32.6782C47.4379 32.8531 47.5214 33.0838 47.5113 33.32C47.5012 33.5562 47.3982 33.7789 47.2247 33.9396L37.3626 42.9052C37.1921 43.0602 36.9685 43.1436 36.7381 43.1381C36.5077 43.1326 36.2883 43.0386 36.1254 42.8756L32.5392 39.2894C32.3711 39.1213 32.2767 38.8933 32.2767 38.6556C32.2767 38.4179 32.3711 38.1899 32.5392 38.0217V38.0279H32.5391Z" fill="url(#paint1_linear_2252_86)"/>
<path fill-rule="evenodd" clip-rule="evenodd" d="M35.1216 11.7397L31.9648 8.58291C31.2604 7.88649 30.1266 7.88649 29.4222 8.58291L28.7946 9.21047C28.6253 9.37612 28.4908 9.5739 28.399 9.79222C28.3072 10.0105 28.2599 10.245 28.2599 10.4818C28.2599 10.7187 28.3072 10.9531 28.399 11.1715C28.4908 11.3898 28.6253 11.5876 28.7946 11.7532L32.7753 15.7339L32.7816 15.7428L39.5676 22.5343C39.8728 22.5505 40.1686 22.646 40.4257 22.8113C40.9568 23.1562 41.5219 23.4458 42.1121 23.6757C42.3788 23.5944 42.6223 23.4505 42.8221 23.2561L43.4587 22.6195C43.6269 22.4532 43.7605 22.2553 43.8516 22.037C43.9428 21.8188 43.9897 21.5846 43.9897 21.3481C43.9897 21.1116 43.9428 20.8775 43.8516 20.6592C43.7605 20.441 43.6269 20.243 43.4587 20.0767L40.2132 16.8321L40.2024 16.8241L35.1305 11.7522L35.1216 11.7397ZM37.029 11.1193L40.9412 7.20703L44.7443 11.0103L40.8321 14.9225L37.029 11.1193ZM0.896331 51.9549C1.13408 51.9548 1.36206 51.8603 1.53019 51.6922L8.76628 44.457H16.188L7.49136 35.7603V43.1928L0.262473 50.4244C0.137136 50.5498 0.0517866 50.7096 0.0172135 50.8834C-0.0173596 51.0573 0.000395643 51.2376 0.068235 51.4014C0.136074 51.5652 0.250952 51.7052 0.398348 51.8037C0.545743 51.9022 0.719039 51.9548 0.896331 51.9549Z" fill="url(#paint2_linear_2252_86)"/>
</g>
<defs>
<linearGradient id="paint0_linear_2252_86" x1="30.0178" y1="0.0449219" x2="30.0178" y2="43.9141" gradientUnits="userSpaceOnUse">
<stop stop-color="#E4CCB0"/>
<stop offset="1" stop-color="#C2A68B"/>
</linearGradient>
<linearGradient id="paint1_linear_2252_86" x1="39.4426" y1="24.3105" x2="39.4426" y2="50.3108" gradientUnits="userSpaceOnUse">
<stop stop-color="#E4CCB0"/>
<stop offset="1" stop-color="#C2A68B"/>
</linearGradient>
<linearGradient id="paint2_linear_2252_86" x1="22.3722" y1="7.20703" x2="22.3722" y2="51.9549" gradientUnits="userSpaceOnUse">
<stop stop-color="#E4CCB0"/>
<stop offset="1" stop-color="#C2A68B"/>
</linearGradient>
<clipPath id="clip0_2252_86">
<rect width="52" height="52" fill="white"/>
</clipPath>
</defs>
</svg>
