<svg width="60" height="60" viewBox="0 0 60 60" fill="none" xmlns="http://www.w3.org/2000/svg">
<path fill-rule="evenodd" clip-rule="evenodd" d="M30.0002 1.875C31.7796 1.875 33.5416 2.22549 35.1856 2.90645C36.8296 3.58742 38.3234 4.58552 39.5816 5.84378C40.8399 7.10204 41.838 8.59581 42.519 10.2398C43.1999 11.8838 43.5504 13.6458 43.5504 15.4253C43.5504 15.4566 43.5495 15.4877 43.5493 15.519L30.0939 28.9744C30.0626 28.9744 30.0316 28.9755 30.0002 28.9755C28.2207 28.9755 26.4587 28.6251 24.8147 27.9441C23.1707 27.2631 21.6769 26.265 20.4187 25.0068C19.1604 23.7485 18.1623 22.2547 17.4813 20.6107C16.8004 18.9667 16.4499 17.2047 16.4499 15.4253C16.4499 13.6458 16.8004 11.8838 17.4813 10.2398C18.1623 8.59581 19.1604 7.10204 20.4187 5.84378C21.6769 4.58552 23.1707 3.58742 24.8147 2.90645C26.4587 2.22549 28.2207 1.875 30.0002 1.875ZM23.6325 37.7558L25.7309 35.6582L30.9537 40.881L28.8554 42.9786C28.7453 43.0882 28.5963 43.1498 28.441 43.1498C28.2857 43.1498 28.1368 43.0882 28.0267 42.9786L23.6322 38.5841C23.5226 38.4741 23.4611 38.3251 23.4611 38.1698C23.4611 38.0145 23.5226 37.8655 23.6322 37.7555L23.6325 37.7558ZM26.8904 34.498L32.1132 39.7208L52.1518 19.6822C52.8431 18.9894 53.2311 18.0504 53.2306 17.0717C53.23 16.0929 52.841 15.1544 52.1489 14.4623C51.4568 13.7702 50.5182 13.3812 49.5395 13.3807C48.5607 13.3801 47.6218 13.7682 46.9289 14.4595L26.8908 34.4975L26.8904 34.498ZM48.827 16.6243L40.5925 24.8589C40.4386 25.0127 40.3522 25.2214 40.3522 25.4389C40.3522 25.6565 40.4386 25.8652 40.5925 26.019C40.7463 26.1729 40.955 26.2593 41.1726 26.2593C41.3901 26.2593 41.5988 26.1729 41.7527 26.019L49.9872 17.7845C50.0634 17.7083 50.1238 17.6179 50.165 17.5183C50.2062 17.4188 50.2275 17.3121 50.2275 17.2044C50.2275 17.0967 50.2062 16.99 50.165 16.8905C50.1238 16.7909 50.0634 16.7005 49.9872 16.6243C49.911 16.5482 49.8206 16.4877 49.721 16.4465C49.6215 16.4053 49.5148 16.3841 49.4071 16.3841C49.2994 16.3841 49.1927 16.4053 49.0932 16.4465C48.9936 16.4877 48.9032 16.5482 48.827 16.6243ZM26.2025 43.4745L23.1367 40.4087L6.77148 56.7739C8.60055 58.603 14.2267 58.7725 16.951 56.0482L22.6326 50.3672C22.7545 50.2453 22.7636 47.5334 22.8637 46.8138L26.2025 43.475V43.4745ZM26.9977 7.66676V12.4228H22.2423V18.4277H26.9983V23.1838H33.0032V18.4277H37.7593V12.4228H33.0026V7.66676H26.9977Z" fill="url(#paint0_linear_2252_92)"/>
<defs>
<linearGradient id="paint0_linear_2252_92" x1="30.001" y1="1.875" x2="30.001" y2="58.125" gradientUnits="userSpaceOnUse">
<stop stop-color="#E4CCB0"/>
<stop offset="1" stop-color="#C2A68B"/>
</linearGradient>
</defs>
</svg>
