<svg width="53" height="55" viewBox="0 0 53 55" fill="none" xmlns="http://www.w3.org/2000/svg">
<path d="M41.4219 1.04463H46.7751V6.84725C46.7751 6.898 46.7955 6.94545 46.8327 6.98086C46.8698 7.0162 46.9187 7.03512 46.9707 7.03356C47.0732 7.03078 47.1556 6.94828 47.1556 6.84725V0.671875H41.4219V1.04463Z" fill="url(#paint0_linear_2252_109)"/>
<path d="M41.6123 2.34961H45.4433V3.8655H41.6123V2.34961ZM44.0986 4.98378H45.4433V6.10206H44.0986V4.98378Z" fill="url(#paint1_linear_2252_109)"/>
<path d="M46.4272 7.03422C46.4057 6.97433 46.3948 6.9113 46.3949 6.84784V1.41797H40.6611V6.84784C40.6611 6.95061 40.7465 7.03422 40.8514 7.03422H46.4272ZM45.8241 6.47508H43.7183V4.61128H45.8241V6.47508ZM41.232 1.97711H45.8241V4.23852H41.232V1.97711ZM41.232 4.61128H43.3377V4.98404H41.232V4.61128ZM41.232 5.3568H43.3377V5.72956H41.232V5.3568ZM41.232 6.10232H43.3377V6.47508H41.232V6.10232Z" fill="url(#paint2_linear_2252_109)"/>
<path d="M7.78565 22.3828H2.50369C1.663 22.3828 0.981445 23.0504 0.981445 23.8738V54.749H7.78565V22.3828ZM51.4183 22.3828H46.1364V54.749H52.9406V23.8738C52.9406 23.0504 52.259 22.3828 51.4183 22.3828ZM29.6081 44.7861V54.749H24.3139V44.7861H29.6081Z" fill="url(#paint3_linear_2252_109)"/>
<path d="M41.5696 9.97965H36.7772V5.34651C36.7772 4.52306 36.0956 3.85547 35.2549 3.85547H18.8825C18.0418 3.85547 17.3603 4.52306 17.3603 5.34651V9.97965H12.3523C11.5116 9.97965 10.8301 10.6472 10.8301 11.4707V54.7495H21.2694V43.2956C21.2694 42.4721 21.951 41.8045 22.7916 41.8045H31.1303C31.9709 41.8045 32.6525 42.4721 32.6525 43.2956V54.7495H43.0918V11.4707C43.0918 10.6472 42.4103 9.97965 41.5696 9.97965ZM20.0679 36.6518H18.4286C17.5879 36.6518 16.9064 35.9842 16.9064 35.1608C16.9064 34.3373 17.5879 33.6697 18.4286 33.6697H20.0679C20.9086 33.6697 21.5902 34.3373 21.5902 35.1608C21.5902 35.9842 20.9086 36.6518 20.0679 36.6518ZM20.0679 30.6877H18.4286C17.5879 30.6877 16.9064 30.0201 16.9064 29.1966C16.9064 28.3732 17.5879 27.7056 18.4286 27.7056H20.0679C20.9086 27.7056 21.5902 28.3732 21.5902 29.1966C21.5902 30.0201 20.9086 30.6877 20.0679 30.6877ZM20.0679 24.7235H18.4286C17.5879 24.7235 16.9064 24.0559 16.9064 23.2325C16.9064 22.409 17.5879 21.7414 18.4286 21.7414H20.0679C20.9086 21.7414 21.5902 22.409 21.5902 23.2325C21.5902 24.0559 20.9086 24.7235 20.0679 24.7235ZM27.7806 36.6518H26.1413C25.3006 36.6518 24.619 35.9842 24.619 35.1608C24.619 34.3373 25.3006 33.6697 26.1413 33.6697H27.7806C28.6213 33.6697 29.3029 34.3373 29.3029 35.1608C29.3029 35.9842 28.6213 36.6518 27.7806 36.6518ZM27.7806 30.6877H26.1413C25.3006 30.6877 24.619 30.0201 24.619 29.1966C24.619 28.3732 25.3006 27.7056 26.1413 27.7056H27.7806C28.6213 27.7056 29.3029 28.3732 29.3029 29.1966C29.3029 30.0201 28.6213 30.6877 27.7806 30.6877ZM27.7806 24.7235H26.1413C25.3006 24.7235 24.619 24.0559 24.619 23.2325C24.619 22.409 25.3006 21.7414 26.1413 21.7414H27.7806C28.6213 21.7414 29.3029 22.409 29.3029 23.2325C29.3029 24.0559 28.6213 24.7235 27.7806 24.7235ZM30.0289 15.8067H28.4832V17.3207C28.4832 18.1442 27.8016 18.8118 26.9609 18.8118C26.1203 18.8118 25.4387 18.1442 25.4387 17.3207V15.8067H23.893C23.0523 15.8067 22.3708 15.1391 22.3708 14.3157C22.3708 13.4922 23.0523 12.8247 23.893 12.8247H25.4387V11.3107C25.4387 10.4872 26.1203 9.81962 26.9609 9.81962C27.8016 9.81962 28.4832 10.4872 28.4832 11.3107V12.8247H30.0289C30.8696 12.8247 31.5511 13.4922 31.5511 14.3157C31.5511 15.1391 30.8696 15.8067 30.0289 15.8067ZM35.4933 36.6518H33.854C33.0133 36.6518 32.3317 35.9842 32.3317 35.1608C32.3317 34.3373 33.0133 33.6697 33.854 33.6697H35.4933C36.334 33.6697 37.0155 34.3373 37.0155 35.1608C37.0155 35.9842 36.334 36.6518 35.4933 36.6518ZM35.4933 30.6877H33.854C33.0133 30.6877 32.3317 30.0201 32.3317 29.1966C32.3317 28.3732 33.0133 27.7056 33.854 27.7056H35.4933C36.334 27.7056 37.0155 28.3732 37.0155 29.1966C37.0155 30.0201 36.334 30.6877 35.4933 30.6877ZM35.4933 24.7235H33.854C33.0133 24.7235 32.3317 24.0559 32.3317 23.2325C32.3317 22.409 33.0133 21.7414 33.854 21.7414H35.4933C36.334 21.7414 37.0155 22.409 37.0155 23.2325C37.0155 24.0559 36.334 24.7235 35.4933 24.7235Z" fill="url(#paint4_linear_2252_109)"/>
<defs>
<linearGradient id="paint0_linear_2252_109" x1="44.2888" y1="0.671875" x2="44.2888" y2="7.03365" gradientUnits="userSpaceOnUse">
<stop stop-color="#E4CCB0"/>
<stop offset="1" stop-color="#C2A68B"/>
</linearGradient>
<linearGradient id="paint1_linear_2252_109" x1="43.5278" y1="2.34961" x2="43.5278" y2="6.10206" gradientUnits="userSpaceOnUse">
<stop stop-color="#E4CCB0"/>
<stop offset="1" stop-color="#C2A68B"/>
</linearGradient>
<linearGradient id="paint2_linear_2252_109" x1="43.5442" y1="1.41797" x2="43.5442" y2="7.03422" gradientUnits="userSpaceOnUse">
<stop stop-color="#E4CCB0"/>
<stop offset="1" stop-color="#C2A68B"/>
</linearGradient>
<linearGradient id="paint3_linear_2252_109" x1="26.961" y1="22.3828" x2="26.961" y2="54.749" gradientUnits="userSpaceOnUse">
<stop stop-color="#E4CCB0"/>
<stop offset="1" stop-color="#C2A68B"/>
</linearGradient>
<linearGradient id="paint4_linear_2252_109" x1="26.9609" y1="3.85547" x2="26.9609" y2="54.7495" gradientUnits="userSpaceOnUse">
<stop stop-color="#E4CCB0"/>
<stop offset="1" stop-color="#C2A68B"/>
</linearGradient>
</defs>
</svg>
