<svg width="53" height="55" viewBox="0 0 53 55" fill="none" xmlns="http://www.w3.org/2000/svg">
<path d="M46.1893 11.9266C46.1893 5.78772 41.4093 0.6875 35.5336 0.6875C29.658 0.6875 24.8779 5.78772 24.8779 11.9266C24.8779 14.0894 25.4868 16.189 26.5828 18.0021L35.5336 32.3477L44.4844 18.0021C45.5804 16.1889 46.1893 14.0894 46.1893 11.9266ZM35.5336 16.6979C33.0065 16.6979 30.9669 14.5665 30.9669 11.9266C30.9669 9.28626 33.0065 7.15529 35.5336 7.15529C38.0607 7.15529 40.1003 9.28626 40.1003 11.9266C40.1003 14.5665 38.0607 16.6979 35.5336 16.6979Z" fill="url(#paint0_linear_2252_103)"/>
<path d="M35.5329 10.3359C34.6803 10.3359 34.0107 11.0355 34.0107 11.9264C34.0107 12.8168 34.6803 13.5168 35.5329 13.5168C36.3856 13.5168 37.0552 12.8168 37.0552 11.9264C37.0552 11.0355 36.3856 10.3359 35.5329 10.3359ZM0.419922 54.9743L15.7438 49.3759V14.0258L0.419922 20.3875V54.9743ZM22.1677 15.1391L18.7883 13.9621V49.2169L34.0107 54.5289V35.7192L24.0246 19.7515C23.1722 18.2882 22.5328 16.7297 22.1678 15.1393L22.1677 15.1391ZM47.0715 19.6877L37.0552 35.719V54.4653L52.379 48.1036V12.7535L49.0504 14.0892C48.7764 16.0615 48.1063 17.97 47.0715 19.6877Z" fill="url(#paint1_linear_2252_103)"/>
<defs>
<linearGradient id="paint0_linear_2252_103" x1="35.5336" y1="0.6875" x2="35.5336" y2="32.3477" gradientUnits="userSpaceOnUse">
<stop stop-color="#E4CCB0"/>
<stop offset="1" stop-color="#C2A68B"/>
</linearGradient>
<linearGradient id="paint1_linear_2252_103" x1="26.3995" y1="10.3359" x2="26.3995" y2="54.9743" gradientUnits="userSpaceOnUse">
<stop stop-color="#E4CCB0"/>
<stop offset="1" stop-color="#C2A68B"/>
</linearGradient>
</defs>
</svg>
