<svg width="53" height="39" viewBox="0 0 53 39" fill="none" xmlns="http://www.w3.org/2000/svg">
<path d="M0.609375 33.9722V37.1664C0.609375 37.9899 1.29093 38.6574 2.13161 38.6574C2.9723 38.6574 3.65385 37.9899 3.65385 37.1664V35.4633H49.524V37.1664C49.524 37.9899 50.2056 38.6574 51.0463 38.6574C51.8869 38.6574 52.5685 37.9899 52.5685 37.1664V29.075H0.609375V33.9722ZM46.9701 16.5105H6.20777C3.12087 16.5105 0.609375 18.9705 0.609375 21.9942V26.0929H52.5685V21.9942C52.5685 18.9705 50.057 16.5105 46.9701 16.5105ZM20.8824 9.91016C19.474 9.91016 18.3282 11.0323 18.3282 12.4117V13.5283H34.8496V12.4117C34.8496 11.0323 33.704 9.91016 32.2957 9.91016H20.8824Z" fill="url(#paint0_linear_2252_106)"/>
<path d="M15.2841 12.411C15.2841 9.38727 17.7956 6.92736 20.8827 6.92736H32.2962C35.3832 6.92736 37.8946 9.38727 37.8946 12.411V13.5276H46.0471V6.0227C46.0471 2.99897 43.5356 0.539062 40.4485 0.539062H12.7302C9.64323 0.539062 7.13184 2.99897 7.13184 6.0227V13.5276H15.2841V12.411Z" fill="url(#paint1_linear_2252_106)"/>
<defs>
<linearGradient id="paint0_linear_2252_106" x1="26.5889" y1="9.91016" x2="26.5889" y2="38.6574" gradientUnits="userSpaceOnUse">
<stop stop-color="#E4CCB0"/>
<stop offset="1" stop-color="#C2A68B"/>
</linearGradient>
<linearGradient id="paint1_linear_2252_106" x1="26.5895" y1="0.539062" x2="26.5895" y2="13.5276" gradientUnits="userSpaceOnUse">
<stop stop-color="#E4CCB0"/>
<stop offset="1" stop-color="#C2A68B"/>
</linearGradient>
</defs>
</svg>
