<svg width="53" height="52" viewBox="0 0 53 52" fill="none" xmlns="http://www.w3.org/2000/svg">
<path d="M51.2409 9.59961H46.6742V45.5833C46.6742 47.317 47.4414 48.8665 48.6541 49.9515C49.2586 50.4922 50.181 50.4907 50.7851 49.9498C51.9968 48.865 52.7632 47.3161 52.7632 45.5833V11.0906C52.7632 10.2665 52.0823 9.59961 51.2409 9.59961ZM9.9375 27.492H19.0709V36.4383H9.9375V27.492ZM9.9375 9.59961H34.2933V18.5458H9.9375V9.59961Z" fill="url(#paint0_linear_2252_116)"/>
<path d="M43.4274 45.5862V2.14729C43.4274 1.32314 42.7466 0.65625 41.9052 0.65625H2.32693C1.48553 0.65625 0.804688 1.32314 0.804688 2.14729V44.0951C0.804688 48.2057 4.21927 51.5503 8.41589 51.5503H45.8029C44.3424 49.9639 43.4274 47.8857 43.4274 45.5862ZM6.89365 26.0039C6.89365 25.1797 7.57449 24.5128 8.41589 24.5128H20.5938C21.4352 24.5128 22.116 25.1797 22.116 26.0039V37.9322C22.116 38.7563 21.4352 39.4232 20.5938 39.4232H8.41589C7.57449 39.4232 6.89365 38.7563 6.89365 37.9322V26.0039ZM35.8162 45.5862H8.41589C6.40927 45.5862 6.40105 42.6041 8.41589 42.6041H35.8162C37.8228 42.6041 37.831 45.5862 35.8162 45.5862ZM35.8162 39.4232H26.6828C24.6761 39.4232 24.6679 36.4411 26.6828 36.4411H35.8162C37.8228 36.4411 37.831 39.4232 35.8162 39.4232ZM35.8162 33.4591H26.6828C24.6761 33.4591 24.6679 30.477 26.6828 30.477H35.8162C37.8228 30.477 37.831 33.4591 35.8162 33.4591ZM35.8162 27.4949H26.6828C24.6761 27.4949 24.6679 24.5128 26.6828 24.5128H35.8162C37.8228 24.5128 37.831 27.4949 35.8162 27.4949ZM37.3384 20.0397C37.3384 20.8639 36.6576 21.5308 35.8162 21.5308H8.41589C7.57449 21.5308 6.89365 20.8639 6.89365 20.0397V8.11143C6.89365 7.28729 7.57449 6.6204 8.41589 6.6204H35.8162C36.6576 6.6204 37.3384 7.28729 37.3384 8.11143V20.0397Z" fill="url(#paint1_linear_2252_116)"/>
<defs>
<linearGradient id="paint0_linear_2252_116" x1="31.3503" y1="9.59961" x2="31.3503" y2="50.3562" gradientUnits="userSpaceOnUse">
<stop stop-color="#E4CCB0"/>
<stop offset="1" stop-color="#C2A68B"/>
</linearGradient>
<linearGradient id="paint1_linear_2252_116" x1="23.3038" y1="0.65625" x2="23.3038" y2="51.5503" gradientUnits="userSpaceOnUse">
<stop stop-color="#E4CCB0"/>
<stop offset="1" stop-color="#C2A68B"/>
</linearGradient>
</defs>
</svg>
