<svg width="58" height="53" viewBox="0 0 58 53" fill="none" xmlns="http://www.w3.org/2000/svg">
<path d="M57.3936 13.1729C56.4276 9.38467 54.3686 6.11809 51.4393 3.72639C48.5856 1.39653 45.0899 0.113281 41.5956 0.113281C38.9167 0.113281 36.3616 0.834543 34.0009 2.25679C32.1366 3.38031 30.4596 4.90825 28.9948 6.81545C25.6634 2.47316 21.2649 0.113281 16.3999 0.113281C12.9072 0.113281 9.41271 1.39653 6.5595 3.72639C3.63106 6.11809 1.57252 9.38422 0.606567 13.1723C-0.101894 15.9509 -0.424519 19.8503 0.973371 24.5399H9.75131L12.9209 18.2001C13.062 17.9179 13.2789 17.6805 13.5473 17.5146C13.8157 17.3487 14.125 17.2607 14.4406 17.2607C15.0844 17.2607 15.6725 17.6244 15.9601 18.2001L21.7197 29.719L27.4794 18.2001C27.6204 17.9178 27.8373 17.6804 28.1057 17.5145C28.3741 17.3485 28.6834 17.2606 28.9989 17.2607C29.6424 17.2607 30.2304 17.6244 30.5185 18.2001L33.6881 24.5399H45.523C46.4617 24.5399 47.2218 25.3006 47.2218 26.2387C47.2218 27.1772 46.4617 27.9379 45.523 27.9379H32.6381C31.9946 27.9379 31.4067 27.5742 31.1185 26.9984L28.999 22.7588L23.2393 34.2777C23.0981 34.5598 22.8812 34.7971 22.6128 34.963C22.3445 35.1289 22.0352 35.2167 21.7197 35.2167C21.4042 35.2167 21.0949 35.1289 20.8266 34.963C20.5582 34.7971 20.3413 34.5598 20.2001 34.2777L14.4409 22.7588L12.321 26.9989C12.1798 27.281 11.9629 27.5182 11.6945 27.6841C11.4261 27.8499 11.1169 27.9378 10.8014 27.9379H2.24597C2.81374 29.1972 3.50759 30.5009 4.35006 31.8438C8.97511 39.2202 16.9934 46.0546 28.1808 52.1572C28.4303 52.2934 28.71 52.3647 28.9943 52.3648C29.2785 52.3649 29.5583 52.2937 29.8079 52.1576C40.9988 46.054 49.0192 39.2201 53.6464 31.8444C58.6459 23.8749 58.4437 17.2923 57.3936 13.1729Z" fill="url(#paint0_linear_2243_76)"/>
<defs>
<linearGradient id="paint0_linear_2243_76" x1="28.9999" y1="0.113281" x2="28.9999" y2="52.3648" gradientUnits="userSpaceOnUse">
<stop stop-color="#E4CCB0"/>
<stop offset="1" stop-color="#C2A68B"/>
</linearGradient>
</defs>
</svg>
