<svg width="54" height="64" viewBox="0 0 54 64" fill="none" xmlns="http://www.w3.org/2000/svg">
<path fill-rule="evenodd" clip-rule="evenodd" d="M26.9997 0.125C29.0164 0.125 31.0133 0.52222 32.8765 1.29398C34.7397 2.06574 36.4327 3.19693 37.8587 4.62295C39.2847 6.04898 40.4159 7.74192 41.1877 9.60512C41.9594 11.4683 42.3566 13.4653 42.3566 15.482C42.3566 15.5174 42.3556 15.5528 42.3553 15.5882L27.1059 30.8376C27.0704 30.8376 27.0352 30.839 26.9997 30.839C24.983 30.839 22.986 30.4417 21.1228 29.67C19.2596 28.8982 17.5667 27.767 16.1406 26.341C14.7146 24.915 13.5834 23.222 12.8117 21.3588C12.0399 19.4956 11.6427 17.4987 11.6427 15.482C11.6427 13.4653 12.0399 11.4683 12.8117 9.60512C13.5834 7.74192 14.7146 6.04898 16.1406 4.62295C17.5667 3.19693 19.2596 2.06574 21.1228 1.29398C22.986 0.52222 24.983 0.125 26.9997 0.125ZM19.783 40.7899L22.1612 38.4126L28.0804 44.3318L25.7022 46.7091C25.5775 46.8333 25.4087 46.9031 25.2327 46.9031C25.0566 46.9031 24.8878 46.8333 24.7631 46.7091L19.7826 41.7286C19.6584 41.6039 19.5887 41.4351 19.5887 41.2591C19.5887 41.0831 19.6584 40.9142 19.7826 40.7895L19.783 40.7899ZM23.4752 37.0977L29.3944 43.0169L52.1048 20.3065C52.8883 19.5213 53.3281 18.4572 53.3274 17.3479C53.3268 16.2386 52.8859 15.175 52.1015 14.3906C51.3172 13.6062 50.2535 13.1653 49.1442 13.1648C48.035 13.1642 46.9708 13.6039 46.1856 14.3875L23.4757 37.0972L23.4752 37.0977ZM48.3368 16.8409L39.0043 26.1734C38.83 26.3477 38.732 26.5842 38.732 26.8308C38.732 27.0774 38.83 27.3139 39.0043 27.4882C39.1787 27.6626 39.4152 27.7605 39.6617 27.7605C39.9083 27.7605 40.1448 27.6626 40.3192 27.4882L49.6516 18.1558C49.738 18.0694 49.8064 17.9669 49.8532 17.8541C49.8999 17.7413 49.9239 17.6204 49.9239 17.4983C49.9239 17.3762 49.8999 17.2553 49.8532 17.1425C49.8064 17.0297 49.738 16.9272 49.6516 16.8409C49.5653 16.7546 49.4628 16.6861 49.35 16.6394C49.2372 16.5926 49.1163 16.5686 48.9942 16.5686C48.8721 16.5686 48.7512 16.5926 48.6384 16.6394C48.5256 16.6861 48.4231 16.7546 48.3368 16.8409ZM22.6956 47.271L19.2211 43.7965L0.673828 62.3438C2.74677 64.4167 9.12309 64.6088 12.2106 61.5213L18.6497 55.0828C18.7879 54.9447 18.7982 51.8711 18.9116 51.0557L22.6956 47.2717V47.271ZM23.5969 6.68899V12.0792H18.2075V18.8848H23.5975V24.275H30.4031V18.8848H35.7933V12.0792H30.4024V6.68899H23.5969Z" fill="url(#paint0_linear_2241_56)"/>
<defs>
<linearGradient id="paint0_linear_2241_56" x1="27.0006" y1="0.125" x2="27.0006" y2="63.875" gradientUnits="userSpaceOnUse">
<stop stop-color="#E4CCB0"/>
<stop offset="1" stop-color="#C2A68B"/>
</linearGradient>
</defs>
</svg>
