<svg width="60" height="50" viewBox="0 0 60 50" fill="none" xmlns="http://www.w3.org/2000/svg">
<path d="M57.8521 28.707L57.7106 28.5757C57.6235 28.4966 57.5381 28.4157 57.4544 28.3331L43.9762 14.8587C43.9467 14.8292 43.9159 14.801 43.884 14.7742C43.2176 14.2154 42.4385 13.8072 41.5998 13.5775V10.2765C41.5998 9.89295 41.4474 9.52515 41.1763 9.25396C40.9051 8.98278 40.5373 8.83043 40.1538 8.83043H33.5983C33.2148 8.83043 32.847 8.98278 32.5758 9.25396C32.3046 9.52515 32.1523 9.89295 32.1523 10.2765V13.3611H4.27274C1.91657 13.3611 0 15.278 0 17.6339V43.233C0 43.6165 0.15235 43.9843 0.423534 44.2555C0.694718 44.5267 1.06252 44.6791 1.44603 44.6791H5.22307C5.88189 47.552 8.45727 49.7023 11.5275 49.7023C14.5977 49.7023 17.1731 47.552 17.8319 44.6791H42.6158C43.2746 47.552 45.85 49.7023 48.9199 49.7023C51.993 49.7023 54.5707 47.5477 55.2264 44.6704C57.8735 44.5784 60 42.4021 60 39.733V33.6695C59.9985 32.7397 59.8073 31.82 59.4379 30.9667C59.0686 30.1134 58.5289 29.3445 57.8521 28.707ZM35.0446 11.7225H38.708V13.3611H35.0446V11.7225ZM11.5272 46.8102C9.55481 46.8102 7.95001 45.2054 7.95001 43.233C7.95001 41.2606 9.55481 39.6558 11.5272 39.6558C13.4996 39.6558 15.1044 41.2606 15.1044 43.233C15.1044 45.2054 13.4999 46.8102 11.5272 46.8102ZM18.9662 26.0709C18.9662 26.4544 18.8138 26.8222 18.5426 27.0934C18.2715 27.3646 17.9037 27.5169 17.5201 27.5169H15.1735V29.8636C15.1735 30.2471 15.0212 30.6149 14.75 30.8861C14.4788 31.1573 14.111 31.3096 13.7275 31.3096H10.932C10.5485 31.3096 10.1807 31.1573 9.90952 30.8861C9.63833 30.6149 9.48598 30.2471 9.48598 29.8636V27.5169H7.13936C6.75585 27.5169 6.38804 27.3646 6.11686 27.0934C5.84567 26.8222 5.69333 26.4544 5.69333 26.0709V23.2754C5.69333 22.8919 5.84567 22.5241 6.11686 22.2529C6.38804 21.9818 6.75585 21.8294 7.13936 21.8294H9.48598V19.4828C9.48598 19.0993 9.63833 18.7315 9.90952 18.4603C10.1807 18.1891 10.5485 18.0367 10.932 18.0367H13.7278C13.9177 18.0367 14.1057 18.0742 14.2812 18.1468C14.4566 18.2195 14.616 18.326 14.7503 18.4603C14.8846 18.5946 14.9911 18.754 15.0637 18.9294C15.1364 19.1049 15.1738 19.2929 15.1738 19.4828V21.8294H17.5204C17.9039 21.8294 18.2718 21.9818 18.5429 22.2529C18.8141 22.5241 18.9665 22.8919 18.9665 23.2754L18.9662 26.0709ZM36.5876 27.4776C36.2499 27.4772 35.9261 27.3429 35.6874 27.1041C35.4486 26.8654 35.3143 26.5416 35.3139 26.2039V19.379C35.3139 18.9877 35.632 18.6698 36.0233 18.6698H40.5769C41.0266 18.6698 41.4494 18.8448 41.7675 19.1629L48.7247 26.1204C49.0636 26.4593 48.9581 26.839 48.8971 26.9868C48.836 27.1343 48.642 27.4776 48.1622 27.4776H36.5876ZM48.9199 46.8102C46.9475 46.8102 45.3427 45.2054 45.3427 43.233C45.3427 41.2606 46.9472 39.6558 48.9199 39.6558C50.8926 39.6558 52.4971 41.2606 52.4971 43.233C52.4971 45.2054 50.8923 46.8102 48.9199 46.8102ZM36.8762 7.23979C36.4927 7.23979 36.1249 7.08744 35.8537 6.81626C35.5825 6.54507 35.4301 6.17727 35.4301 5.79376V1.74486C35.4301 1.55497 35.4676 1.36693 35.5402 1.19149C35.6129 1.01605 35.7194 0.856638 35.8537 0.722362C35.988 0.588085 36.1474 0.481571 36.3228 0.408901C36.4982 0.336231 36.6863 0.298828 36.8762 0.298828C37.0661 0.298828 37.2541 0.336231 37.4296 0.408901C37.605 0.481571 37.7644 0.588085 37.8987 0.722362C38.033 0.856638 38.1395 1.01605 38.2121 1.19149C38.2848 1.36693 38.3222 1.55497 38.3222 1.74486V5.79376C38.3222 6.17727 38.1699 6.54507 37.8987 6.81626C37.6275 7.08744 37.2597 7.23979 36.8762 7.23979ZM43.8967 8.46892C43.6106 8.46919 43.3308 8.38456 43.0929 8.22573C42.8549 8.0669 42.6694 7.84102 42.5599 7.57671C42.4504 7.31239 42.4218 7.02152 42.4777 6.74094C42.5336 6.46036 42.6716 6.20268 42.874 6.00054L45.4251 3.44945C45.5588 3.31237 45.7183 3.20318 45.8944 3.12823C46.0706 3.05328 46.2599 3.01406 46.4513 3.01283C46.6428 3.0116 46.8325 3.0484 47.0096 3.12109C47.1867 3.19378 47.3476 3.3009 47.483 3.43626C47.6184 3.57162 47.7255 3.73251 47.7983 3.9096C47.871 4.08669 47.9078 4.27646 47.9066 4.46789C47.9054 4.65933 47.8662 4.84862 47.7913 5.02479C47.7163 5.20095 47.6072 5.36049 47.4701 5.49414L44.919 8.04523C44.785 8.1798 44.6256 8.28652 44.4502 8.35923C44.2747 8.43195 44.0866 8.46923 43.8967 8.46892ZM30.5359 8.46892C30.3459 8.46917 30.1578 8.43187 29.9823 8.35916C29.8068 8.28644 29.6474 8.17976 29.5133 8.04523L26.9622 5.49414C26.8251 5.36049 26.716 5.20095 26.641 5.02479C26.5661 4.84862 26.5269 4.65933 26.5257 4.46789C26.5245 4.27646 26.5613 4.08669 26.634 3.9096C26.7067 3.73251 26.8139 3.57162 26.9493 3.43626C27.0847 3.3009 27.2456 3.19378 27.4227 3.12109C27.5998 3.0484 27.7895 3.0116 27.981 3.01283C28.1724 3.01406 28.3617 3.05328 28.5378 3.12823C28.714 3.20318 28.8735 3.31237 29.0072 3.44945L31.5582 6.00054C31.6925 6.13477 31.7991 6.29415 31.8718 6.46957C31.9445 6.64499 31.9819 6.83301 31.9819 7.02289C31.9819 7.21277 31.9445 7.40079 31.8718 7.5762C31.7991 7.75162 31.6925 7.911 31.5582 8.04523C31.4242 8.1798 31.2649 8.28652 31.0894 8.35923C30.9139 8.43195 30.7258 8.46923 30.5359 8.46892Z" fill="url(#paint0_linear_2241_47)"/>
<defs>
<linearGradient id="paint0_linear_2241_47" x1="30" y1="0.298828" x2="30" y2="49.7023" gradientUnits="userSpaceOnUse">
<stop stop-color="#E4CCB0"/>
<stop offset="1" stop-color="#C2A68B"/>
</linearGradient>
</defs>
</svg>
