<svg width="80" height="80" viewBox="0 0 80 80" fill="none" xmlns="http://www.w3.org/2000/svg">
<g clip-path="url(#clip0_1908_1151)">
<path d="M25.6744 3.56011C24.9773 3.89309 24.2421 4.13762 23.5458 4.47234C23.1429 4.68132 22.6839 4.95186 22.6002 5.44266C22.4363 6.29159 22.3137 7.14919 22.1351 7.99552C21.7003 7.5368 21.3137 7.033 20.8996 6.5552C20.7357 6.3653 20.476 6.19881 20.2206 6.30894C19.8073 6.46762 19.4794 6.77806 19.1205 7.02693C18.5182 7.4657 17.9229 7.91487 17.3232 8.35798C17.0963 8.53575 16.7762 8.79675 16.9634 9.11846C17.2309 9.53555 17.5864 9.88848 17.8987 10.2718C18.0661 10.4409 18.2421 10.7183 18.5174 10.6603C18.8625 10.5657 19.0903 10.2596 19.4026 10.0992C20.0161 10.8267 20.6485 11.5369 21.2654 12.261C21.4164 12.4674 21.6942 12.4492 21.8927 12.3278C22.4087 12.0529 22.8927 11.7216 23.4069 11.4424C23.7262 11.2404 24.0981 11.1112 24.3742 10.8458C24.5208 10.6065 24.5165 10.3125 24.5769 10.0455C24.8349 8.80889 25.0204 7.55675 25.249 6.31674C25.8565 7.29834 26.3319 8.36145 26.9298 9.35085C27.0359 9.53642 27.2767 9.46185 27.4371 9.40635C28.0782 9.16616 28.7012 8.87566 29.3414 8.63286C29.5036 8.55482 29.7642 8.45857 29.7193 8.23138C29.6632 7.88626 29.476 7.58102 29.3621 7.25324C28.9212 6.20401 28.4691 5.15738 27.9652 4.13676C27.7874 3.84193 27.6606 3.45605 27.3086 3.33032C26.7624 3.12567 26.1783 3.33552 25.6744 3.56011ZM51.0205 2.65829C50.7133 3.08752 50.715 3.64509 50.5596 4.13415C50.4838 4.39083 50.3742 4.75329 50.6417 4.93625C50.8962 5.15824 51.3087 5.08454 51.5433 5.30826C51.3311 6.28205 51.0791 7.24718 50.847 8.21577C50.8065 8.3996 51.0196 8.51233 51.1508 8.59645C51.9549 8.98059 52.7832 9.31096 53.5899 9.68991C53.7504 9.75841 53.9385 9.83818 54.1033 9.73239C55.4174 9.09071 56.753 8.49065 58.0705 7.85678C57.5658 8.90948 57.0378 9.95178 56.5494 11.0123C56.4476 11.1918 56.602 11.3644 56.7487 11.4511C57.4183 11.882 58.0895 12.3139 58.7824 12.7058C59.0481 12.8194 59.2267 12.5177 59.3372 12.3243C60.0256 11.1641 60.7487 10.022 61.3725 8.8245C61.5399 8.47851 61.766 8.06228 61.546 7.68682C61.3113 7.1015 60.7289 6.80754 60.2302 6.4867C59.6512 6.14418 59.0938 5.76611 58.5089 5.43313C58.1283 5.23108 57.6762 5.03424 57.2474 5.20767C56.4233 5.53805 55.6486 5.98029 54.8333 6.33148C54.9877 5.75484 55.1137 5.17038 55.2543 4.5894C55.2957 4.38302 55.3647 4.14889 55.2465 3.95552C55.0731 3.67891 54.7358 3.59219 54.4502 3.4838C53.5037 3.19244 52.5691 2.8664 51.6288 2.55943C51.4286 2.49006 51.1525 2.45017 51.0205 2.65829ZM34.1024 1.28647C33.7849 1.29254 33.4035 1.5128 33.4423 1.87526C33.5303 2.34265 33.646 2.8057 33.7383 3.27222C33.7814 3.50548 33.8694 3.77429 34.1041 3.87488C34.4423 3.94512 34.7832 3.82458 35.1145 3.76302C35.3716 4.63189 35.4872 5.53718 35.709 6.41559C35.7745 6.59336 35.8021 6.83529 35.9963 6.92027C36.5416 7.00438 37.0886 6.87171 37.6356 6.88038C38.1257 6.83875 38.6227 6.88905 39.1093 6.80927C39.3181 6.78152 39.4329 6.58121 39.5623 6.43727C40.1102 5.71841 40.6796 5.0169 41.2361 4.30411C41.5182 3.94599 41.772 3.56271 42.0938 3.23753C42.0938 4.40557 42.055 5.57707 42.1447 6.7425C42.1318 7.01132 42.4526 6.9879 42.6374 7.02606C43.4605 7.07809 44.2784 7.24111 45.105 7.22203C45.1533 7.03126 45.1921 6.83702 45.206 6.63931C45.3164 5.34381 45.4509 4.04917 45.495 2.74933C45.4829 2.42502 45.5442 2.07903 45.4148 1.77207C45.1585 1.40007 44.7211 1.16247 44.2758 1.11305C43.4173 0.993384 42.5502 0.94742 41.69 0.843363C41.1515 0.809546 40.4915 0.79394 40.1317 1.2752C39.6072 1.93162 39.0644 2.57678 38.5778 3.26095C38.3 2.57764 38.2732 1.82236 38.0247 1.13038C37.8996 0.848566 37.5485 0.832956 37.2853 0.859839C36.2206 0.974302 35.1662 1.16768 34.1024 1.28647ZM36.2491 0.180876C38.199 -0.00295819 40.1619 -0.0601901 42.1179 0.0724812C46.3078 0.236372 50.4545 1.14686 54.363 2.66262C57.168 3.7214 59.8255 5.15217 62.3225 6.81274C66.6487 9.74627 70.4019 13.5279 73.2975 17.8922C76.4157 22.5851 78.546 27.9492 79.4476 33.5223C79.7186 35.0424 79.8661 36.5825 79.9662 38.1225C80.0102 39.3955 80.0102 40.6701 79.9722 41.9431C79.8998 43.1883 79.7738 44.4292 79.6357 45.6683C79.6168 45.7256 79.5788 45.84 79.559 45.8973C78.1802 45.8964 76.8005 45.8756 75.4218 45.8634C74.1145 45.879 72.8083 45.8001 71.501 45.8409C71.7272 44.4084 71.9092 42.9655 71.9446 41.5147C71.9386 40.847 72.0671 40.1828 71.9679 39.5169C71.8756 33.5657 70.0576 27.6553 66.8083 22.6805C64.558 19.1972 61.6383 16.1501 58.2387 13.7872C55.3501 11.7372 52.0973 10.2163 48.7004 9.24073C47.0938 8.74646 45.4312 8.47677 43.7694 8.25566C39.7426 7.75705 35.6253 8.0779 31.7046 9.11413C31.0239 9.32051 30.3388 9.51301 29.6606 9.72893C26.9505 10.7001 24.3267 11.9584 21.9703 13.6259C19.9393 15.0419 18.0627 16.6808 16.3879 18.5078C15.9004 19.0906 15.3871 19.6516 14.9211 20.2517C11.6433 24.3844 9.40517 29.3471 8.5087 34.556C8.06694 36.9918 7.92113 39.4804 8.0609 41.9526C8.17307 43.2794 8.26453 44.6121 8.5458 45.9155C6.56651 45.8704 4.58548 45.9137 2.60532 45.9007C1.86589 45.8842 1.12646 45.9441 0.387023 45.9189C0.148023 43.8499 -0.053015 41.7722 0.012559 39.6868C0.0168731 37.2051 0.313683 34.732 0.774426 32.2962C1.64328 27.9267 3.24121 23.7046 5.48281 19.8606C7.35426 16.6582 9.66574 13.716 12.3353 11.1484C14.9306 8.6476 17.8823 6.53353 21.0316 4.79665C23.2637 3.62255 25.5838 2.61059 27.9833 1.83277C30.6701 0.992514 33.4415 0.4098 36.2491 0.180876Z" fill="white"/>
<path fill-rule="evenodd" clip-rule="evenodd" d="M34.7703 29.459C34.8707 29.5877 34.9585 29.7273 35.0463 29.867C35.2153 30.1355 35.3843 30.4041 35.6426 30.5958C35.9096 30.7896 36.2072 30.9275 36.505 31.0655C36.6922 31.1522 36.8795 31.2391 37.0594 31.3398C37.86 31.7292 38.6418 32.1549 39.4019 32.6189C39.5469 32.7056 39.703 32.7897 39.8773 32.7888C40.1431 32.7975 40.4103 32.7592 40.6772 32.7209C41.1061 32.6594 41.5343 32.598 41.955 32.7316C42.2653 32.8526 42.5597 33.0091 42.8539 33.1654C43.0382 33.2633 43.2225 33.3613 43.4105 33.4504C43.7916 33.6313 44.1677 33.8218 44.5438 34.0123C44.8907 34.188 45.2377 34.3637 45.5883 34.5318C45.4574 34.7308 45.2966 34.9116 45.136 35.0919C44.9175 35.3374 44.6997 35.5821 44.5589 35.8715C44.5999 36.0307 44.6441 36.19 44.6885 36.3496C44.8657 36.9873 45.0445 37.6307 45.0197 38.2986C44.9118 40.2636 44.9092 42.232 44.9636 44.1985C44.9791 44.7198 45.0111 45.2409 45.0697 45.7594C45.0869 45.9101 45.0927 46.0633 45.0984 46.2166C45.1115 46.5645 45.1247 46.9131 45.2708 47.2345C45.4545 47.1928 45.6193 47.1001 45.779 47.0029C45.958 47.3683 46.103 47.748 46.2481 48.1279C46.3785 48.4693 46.509 48.8109 46.6642 49.1422C46.7112 49.3924 46.5675 49.5954 46.4234 49.799C46.3373 49.9207 46.251 50.0426 46.2052 50.1749C46.4011 50.8418 46.8989 51.4045 47.5115 51.7193C48.0442 52.0156 48.6464 52.1141 49.2414 52.2114C49.3412 52.2278 49.4409 52.2441 49.54 52.2613C49.9175 52.3296 50.2995 52.3473 50.6818 52.3651C50.8771 52.3742 51.0724 52.3833 51.2673 52.3991C53.016 52.4616 54.7661 52.4566 56.5159 52.4517C57.1239 52.45 57.732 52.4483 58.3398 52.4494C58.9767 52.4341 59.6136 52.4295 60.2505 52.4249C61.1666 52.4182 62.0825 52.4115 62.9982 52.3731C63.3096 52.3691 63.6211 52.3657 63.9325 52.3623C65.1617 52.3489 66.3904 52.3355 67.6185 52.2829C67.15 53.4423 66.5374 54.5375 65.9136 55.6188L65.8306 55.7509C65.3139 56.5727 64.7956 57.3972 64.1871 58.1561C64.1223 58.2613 63.999 58.2628 63.8837 58.2642C63.847 58.2646 63.8111 58.265 63.7782 58.2688C63.2773 58.253 62.7777 58.277 62.2777 58.3009C62.173 58.306 62.0684 58.311 61.9637 58.3156C60.2501 58.3196 58.5368 58.3494 56.8236 58.3793C55.5159 58.4021 54.2083 58.4249 52.9006 58.4362C52.3786 58.4846 51.8547 58.483 51.331 58.4813C50.9641 58.4802 50.5972 58.479 50.2311 58.4951C49.8195 58.5162 49.4075 58.5133 48.9955 58.5103C48.6292 58.5077 48.263 58.5051 47.8972 58.5194C47.8329 58.5199 47.7679 58.5256 47.7027 58.5312C47.541 58.5453 47.3786 58.5594 47.2268 58.4951C45.6366 57.8933 44.1017 57.099 42.7833 56.0125C41.7505 55.0335 40.9903 53.7744 40.5719 52.4121C40.4112 51.9715 40.3601 51.5077 40.3091 51.0444C40.2861 50.8359 40.2631 50.6274 40.2302 50.4212C40.1924 50.1733 40.0881 49.9489 39.9837 49.7244C39.895 49.5335 39.8062 49.3426 39.7582 49.137C39.7051 48.9247 39.8114 48.7382 39.914 48.5583C39.943 48.5074 39.9717 48.4571 39.9964 48.4068C40.2483 47.9212 40.3327 47.3845 40.417 46.8488C40.4566 46.5974 40.4961 46.346 40.5529 46.1003C40.6811 45.3684 40.8528 44.6461 41.0245 43.9238C41.1834 43.2555 41.3422 42.587 41.4666 41.9111C41.499 41.7674 41.5326 41.6233 41.5663 41.4788C41.8218 40.3815 42.0826 39.2619 41.892 38.1347C41.7962 37.6838 41.4468 37.3508 41.1129 37.0621C41.0056 36.9681 40.8869 36.8873 40.7683 36.8065C40.5585 36.6636 40.349 36.5208 40.2035 36.3059C40.0642 36.1397 39.996 35.9371 39.9279 35.7347C39.8588 35.5296 39.7898 35.3246 39.6469 35.1578C39.4751 34.9624 39.2732 34.7999 39.0712 34.6373C38.9507 34.5403 38.8301 34.4433 38.716 34.3393C38.3551 34.0229 37.9965 33.7039 37.638 33.3849C37.0228 32.8377 36.4075 32.2901 35.7807 31.7561C35.7015 31.6946 35.6286 31.6187 35.5554 31.5425C35.3758 31.3555 35.1946 31.1668 34.9144 31.1846C34.8152 31.9919 34.8065 32.8157 34.9472 33.6187C35.2649 33.8042 35.2399 34.166 35.2177 34.4878C35.2157 34.5164 35.2138 34.5447 35.2121 34.5725C35.2671 34.6459 35.331 34.7132 35.3949 34.7805C35.5183 34.9106 35.6419 35.0408 35.7021 35.2151C35.8333 35.5862 35.8143 36.005 35.7073 36.3805C35.5906 36.7066 35.4558 37.0255 35.321 37.3443C35.1988 37.6334 35.0766 37.9227 34.9679 38.2171C34.8588 38.0247 34.7683 37.8235 34.6777 37.6223C34.6071 37.4654 34.5365 37.3084 34.4571 37.1557C34.4258 37.0888 34.3931 37.0216 34.3602 36.9541C34.1541 36.5306 33.9408 36.0925 34.0093 35.6079C34.0102 35.1708 34.2889 34.8179 34.5744 34.5179C34.4994 34.315 34.4588 34.1034 34.4839 33.8875C34.5762 33.8042 34.6685 33.7201 34.7608 33.636L34.7459 33.4787C34.6823 32.8108 34.6179 32.1347 34.7315 31.469C34.8316 30.8031 34.8143 30.1284 34.7703 29.459ZM28.8115 15.4354C28.7807 15.4741 28.7501 15.5127 28.7168 15.5483C28.596 15.6896 28.4398 15.7883 28.2839 15.8869C28.1058 15.9995 27.9281 16.1119 27.8039 16.2871C27.5316 16.6346 27.5069 17.086 27.4836 17.5125C27.4809 17.5616 27.4782 17.6107 27.4752 17.6589C27.3982 18.6823 27.3628 19.7083 27.3274 20.734L27.3121 21.1743C26.193 21.1771 25.0737 21.1754 23.9544 21.1736C22.3105 21.1711 20.6666 21.1685 19.023 21.1804C19.0308 21.287 19.0403 21.3946 19.0507 21.5021C21.7841 21.4943 24.5166 21.4908 27.25 21.5038C27.25 21.5598 27.2501 21.6159 27.2503 21.672C27.2514 22.0704 27.2526 22.4717 27.1974 22.8661C27.0902 22.9478 26.9747 23.0171 26.859 23.0865C26.7782 23.135 26.6974 23.1836 26.6193 23.2364C26.5413 24.1549 26.519 25.0772 26.4968 25.9996C26.4795 26.7195 26.4621 27.4393 26.4182 28.1574C26.3891 28.411 26.3056 28.6523 26.2226 28.8922L26.2019 28.9523L26.1775 29.0236C26.0162 29.476 25.8465 29.9255 25.6768 30.3751C25.4799 30.8969 25.283 31.4187 25.099 31.945C25.0425 32.1632 24.8572 32.2568 24.6726 32.3501C24.5864 32.3936 24.5004 32.4371 24.4277 32.4931C24.3464 32.5789 24.3155 32.6952 24.2854 32.8089C24.2765 32.8423 24.2677 32.8755 24.2577 32.9075C23.941 34.2702 23.5123 35.601 23.0837 36.9318C22.9076 37.4786 22.7315 38.0254 22.5632 38.5743C22.5494 38.609 22.5371 38.6451 22.5246 38.6815C22.4863 38.7936 22.447 38.9085 22.363 38.9922C22.2694 39.0485 22.1685 39.0921 22.0675 39.1357C21.9088 39.2042 21.7502 39.2726 21.621 39.3903C21.4525 39.541 21.3199 39.7239 21.1876 39.9065C21.141 39.9708 21.0944 40.0351 21.0463 40.0978C20.055 41.3977 19.1128 42.7348 18.2094 44.098C18.1845 44.1284 18.1607 44.163 18.1364 44.1983C18.0512 44.3219 17.9603 44.4539 17.7978 44.4431C17.4079 44.4604 16.9877 44.4223 16.6503 44.2089C16.4554 44.0074 16.3499 43.751 16.2442 43.4941C16.1698 43.3132 16.0953 43.1321 15.9894 42.9698C15.8713 42.7393 15.708 42.5379 15.545 42.337C15.3365 42.0799 15.1285 41.8233 15.0161 41.5069C14.8329 40.9403 14.8373 40.3401 14.8416 39.7504C14.842 39.6906 14.8425 39.6302 14.8427 39.5706C14.7521 39.438 14.6684 39.2975 14.6477 39.1362C14.5533 38.6001 14.5756 38.0571 14.598 37.5151C14.6075 37.2848 14.617 37.0547 14.6175 36.8253C14.6173 36.7378 14.6247 36.6466 14.6322 36.5543C14.6559 36.2641 14.6803 35.9635 14.4708 35.7379C14.3552 35.5419 14.0515 35.5133 13.9195 35.7067C13.6475 35.9963 13.6437 36.3916 13.6401 36.7725C13.6391 36.8785 13.6381 36.9834 13.6313 37.0845C13.6092 37.3312 13.6056 37.5798 13.6021 37.8283C13.5949 38.3265 13.5877 38.8242 13.4311 39.3044C13.3673 39.3547 13.3026 39.4059 13.2396 39.4579C13.2448 40.1273 13.2163 40.8132 12.9721 41.4436C12.8445 41.7442 12.6574 42.0087 12.47 42.2736C12.3319 42.4689 12.1937 42.6643 12.0791 42.8744C11.939 43.0882 11.8319 43.3194 11.7249 43.5505C11.6513 43.7094 11.5776 43.8683 11.4933 44.0216C11.1865 44.2374 10.8356 44.3744 10.4854 44.5111C10.3135 44.5782 10.1418 44.6452 9.97559 44.7214C10.005 44.8067 10.0335 44.8925 10.062 44.9783C10.1582 45.2675 10.2545 45.5574 10.3863 45.8322C11.2326 45.897 12.0834 45.8958 12.9334 45.8946C13.1422 45.8943 13.3511 45.894 13.5597 45.8947C16.6739 45.9002 19.7884 45.899 22.9028 45.8979C24.7059 45.8973 26.5091 45.8966 28.3121 45.8973C29.8652 45.9485 31.4191 45.9554 32.9722 45.9268C33.6046 45.9493 34.2379 45.9424 34.8704 45.9268C35.7226 45.9515 36.5748 45.9436 37.4268 45.9358C38.1905 45.9287 38.9542 45.9216 39.7177 45.938C39.9437 45.37 40.0904 44.7674 40.2017 44.1665C39.6842 44.1487 39.1686 44.1917 38.653 44.2347C38.2608 44.2674 37.8685 44.3001 37.4752 44.3061C37.2815 44.3103 37.179 44.1245 37.097 43.9759L37.0921 43.967C36.7335 43.2876 36.3618 42.6152 35.9901 41.9427C35.6929 41.4051 35.3956 40.8672 35.1051 40.3259C35.0505 40.2303 34.9977 40.1337 34.9448 40.0371C34.8348 39.8359 34.7248 39.6348 34.5994 39.4432C34.5201 39.3076 34.3837 39.2376 34.2478 39.1679C34.1029 39.0936 33.9585 39.0195 33.8842 38.8665C33.7828 38.6419 33.7271 38.4021 33.6713 38.1624C33.6416 38.0347 33.6119 37.9071 33.5753 37.7817C33.241 36.3211 32.8641 34.8719 32.4871 33.4224L32.3397 32.8555C32.2996 32.6908 32.1612 32.6107 32.0242 32.5314C31.9607 32.4946 31.8975 32.458 31.8445 32.4133C31.401 31.1152 31.099 29.7659 30.923 28.4054C30.8835 27.4915 30.8886 26.5762 30.8937 25.661C30.898 24.8983 30.9023 24.1357 30.8807 23.3742C30.8733 23.1671 30.6845 23.1107 30.5055 23.0574C30.4343 23.0362 30.3647 23.0154 30.3087 22.9858C30.2828 22.4924 30.2862 21.9981 30.2949 21.5038L32.4288 21.5024H32.4305C37.4066 21.4988 42.3838 21.4952 47.3596 21.5194C47.3683 21.4724 47.3821 21.3996 47.3953 21.33L47.4226 21.1856C46.8703 21.1591 46.3171 21.1637 45.7638 21.1683C45.4122 21.1712 45.0604 21.1742 44.7091 21.1691C42.8311 21.1661 40.9531 21.1684 39.075 21.1708H39.0734C36.1422 21.1745 33.2111 21.1782 30.2802 21.1613C30.2693 20.3636 30.2698 19.5658 30.2704 18.7681C30.2707 18.3692 30.271 17.9703 30.2698 17.5714C30.2862 17.1144 30.212 16.6426 29.9756 16.2455C29.8655 16.04 29.6844 15.9032 29.5034 15.7665C29.3071 15.6181 29.1109 15.47 29.0058 15.2344C28.9284 15.2884 28.8699 15.362 28.8115 15.4354ZM48.5997 19.4284C48.5018 19.4304 48.4039 19.4324 48.3079 19.4267C48.378 19.7454 48.4998 20.0469 48.6217 20.3484C48.7157 20.581 48.8097 20.8138 48.8799 21.0544C48.8745 21.1686 48.8373 21.2768 48.8001 21.385C48.7846 21.4305 48.769 21.4759 48.7557 21.5217C49.3174 21.6302 49.8741 21.7616 50.4307 21.893C51.2052 22.0758 51.9798 22.2588 52.7669 22.3793C54.7499 22.6638 56.7578 22.602 58.7531 22.5405L58.8619 22.5372C59.0036 22.5239 59.1461 22.5138 59.2889 22.5038C59.7598 22.4707 60.2326 22.4374 60.6815 22.2857C61.1483 22.14 61.6108 21.9666 62.0353 21.7195C62.1687 21.6469 62.2495 21.5176 62.3288 21.3908C62.3489 21.3586 62.3691 21.3264 62.3899 21.2954C62.1569 21.0656 61.8386 20.9937 61.5271 20.9468C61.3539 20.924 61.2044 20.84 61.0549 20.756C60.9035 20.6709 60.7521 20.5858 60.5763 20.5644C59.9865 20.4682 59.3886 20.4791 58.7923 20.4899C58.6148 20.4932 58.4374 20.4964 58.2605 20.4968C57.9183 20.511 57.576 20.5218 57.2337 20.5326L57.2324 20.5327C56.4508 20.5573 55.6695 20.582 54.8903 20.6477C54.4408 20.6605 53.9928 20.6962 53.5449 20.7319C52.901 20.7832 52.2575 20.8345 51.6108 20.8176C51.5486 20.8168 51.4856 20.8169 51.422 20.8171C51.022 20.818 50.6015 20.819 50.2665 20.5766C50.058 20.4203 49.89 20.2214 49.7221 20.0226C49.5591 19.8297 49.3963 19.6368 49.1966 19.4831C49.0048 19.42 48.8017 19.4242 48.5997 19.4284ZM47.8264 35.5965C47.5271 35.8358 47.263 36.1774 47.2743 36.5815C47.2693 36.9411 47.2504 37.3006 47.2314 37.6602C47.2036 38.1877 47.1758 38.7152 47.1923 39.2428C47.163 39.3009 47.1291 39.3579 47.0951 39.415C46.9957 39.582 46.8953 39.7505 46.9076 39.9547C46.9257 40.5565 46.873 41.1843 46.5727 41.7184C46.5388 41.7756 46.5045 41.8327 46.4702 41.8898C46.2412 42.2709 46.0112 42.6539 45.8739 43.0807C45.7208 43.4584 45.7672 43.8621 45.8127 44.2587C45.8242 44.3583 45.8355 44.4575 45.8437 44.5557C45.869 44.756 45.8869 44.9571 45.9049 45.1583C45.9242 45.3752 45.9436 45.5923 45.9722 45.8087C46.7554 45.8326 47.5393 45.8291 48.3231 45.8256C49.2479 45.8215 50.1727 45.8173 51.0965 45.8582C52.5853 45.8615 54.0744 45.8606 55.5635 45.8597C56.432 45.8592 57.3006 45.8587 58.169 45.859C59.8333 45.855 61.4973 45.8662 63.1615 45.8775C65.0337 45.8902 66.9061 45.9029 68.779 45.8937C68.9234 45.8882 69.069 45.8939 69.2146 45.8996C69.4607 45.9092 69.707 45.9188 69.9481 45.8746C70.2364 45.5555 70.2651 45.0883 70.2912 44.6645C70.2944 44.6127 70.2975 44.5616 70.3011 44.5115C70.1792 44.4917 70.0562 44.4774 69.9333 44.4632C69.6304 44.428 69.3278 44.3928 69.0431 44.2756C68.7963 44.1731 68.5342 44.1503 68.272 44.1275C68.1062 44.1131 67.9403 44.0987 67.7782 44.0641C67.6604 44.0407 67.594 43.9415 67.5306 43.8469C67.5117 43.8188 67.4931 43.791 67.4735 43.7658C66.9326 42.9012 65.974 42.3619 64.9878 42.1945C64.4572 42.2016 63.9741 42.4414 63.5029 42.6752C63.3995 42.7265 63.2967 42.7776 63.1941 42.8258C62.6996 43.0556 62.3485 43.4996 62.0965 43.9713C61.968 44.2488 61.6651 44.4283 61.3657 44.43C61.1257 44.4218 60.9595 44.2706 60.7919 44.1182C60.675 44.0119 60.5575 43.9051 60.414 43.8456C60.3018 43.7822 60.1751 43.7453 60.049 43.7085C59.8734 43.6573 59.6989 43.6065 59.5659 43.4848C59.5477 43.3829 59.5364 43.2776 59.525 43.1717C59.4928 42.8713 59.46 42.5667 59.2674 42.3237C59.0786 42.1112 58.8222 41.9873 58.5692 41.8651C58.495 41.8292 58.4211 41.7935 58.3493 41.7557C58.2806 41.7259 58.212 41.6929 58.1429 41.6597C57.8744 41.5307 57.5998 41.3987 57.2958 41.4401C57.0353 41.4514 56.8265 41.6291 56.641 41.7948C56.4309 41.9728 56.3256 42.2189 56.2201 42.4657C56.1487 42.6326 56.0772 42.7997 55.9731 42.9463C55.5901 43.5394 54.9188 44.0129 54.1958 43.9956C53.8713 43.9273 53.6108 43.7291 53.35 43.5307C53.1439 43.374 52.9377 43.2171 52.6996 43.1241C52.373 43.03 52.1025 43.2237 51.846 43.4074C51.7787 43.4556 51.7123 43.5032 51.6461 43.5446C51.593 43.5766 51.54 43.609 51.4869 43.6415C51.1696 43.8355 50.8489 44.0316 50.4942 44.143C50.1916 44.1616 50.0699 43.8778 49.9649 43.6328C49.9427 43.5809 49.9212 43.5308 49.8989 43.4857C49.8079 43.293 49.6762 43.1279 49.5445 42.9626C49.4188 42.8051 49.2932 42.6475 49.2026 42.4659C49.1455 42.3525 49.0762 42.2423 49.0067 42.1318C48.834 41.8568 48.6598 41.5796 48.666 41.245C48.6599 40.7689 48.646 40.2938 48.5952 39.8212C48.5875 39.7317 48.5399 39.6573 48.4925 39.5832C48.4448 39.5086 48.3972 39.4343 48.3906 39.3451C48.3963 38.897 48.3933 38.4488 48.3902 38.0004C48.3868 37.4934 48.3833 36.9863 48.3925 36.4792C48.4234 36.1072 48.1862 35.7075 47.8264 35.5965Z" fill="white"/>
<path fill-rule="evenodd" clip-rule="evenodd" d="M39.6491 73.9096C39.6595 73.4699 39.67 73.0303 39.6614 72.5907C40.0419 72.57 40.4241 72.5751 40.8055 72.5829C40.8798 73.0655 40.8651 73.5522 40.8504 74.0392C40.8417 74.3266 40.833 74.614 40.8426 74.9008C40.853 75.0915 40.8322 75.2832 40.8003 75.473C40.7123 75.4766 40.6242 75.4806 40.5361 75.4845C40.2391 75.4978 39.9418 75.5111 39.645 75.5103C39.6237 74.9765 39.6364 74.443 39.6491 73.9096ZM39.6516 71.7057C39.3591 71.7076 39.0666 71.7094 38.7744 71.7037C38.7828 72.2774 38.7818 72.851 38.7808 73.4247C38.7797 74.0997 38.7786 74.7747 38.7925 75.4497C38.6907 75.4904 38.5906 75.533 38.4906 75.5763L38.487 75.5847C38.4519 75.6678 38.4161 75.7526 38.3818 75.8372C38.4018 75.9221 38.4231 76.0082 38.4445 76.095L38.4552 76.1381C38.6045 76.217 38.7511 76.3003 38.8952 76.3897C38.7871 76.748 38.7918 77.1194 38.7965 77.4902C38.7984 77.637 38.8003 77.7838 38.7951 77.9296C38.7867 78.2234 38.7859 78.5171 38.7851 78.8109C38.7841 79.2065 38.783 79.6022 38.7632 79.9978C39.0454 79.9995 39.3275 79.9987 39.6096 79.9978C39.6123 79.5785 39.6093 79.1591 39.6063 78.7397C39.6006 77.9307 39.5948 77.1216 39.6295 76.3142C39.737 76.3142 39.8445 76.314 39.952 76.3138C40.2385 76.3133 40.5248 76.3127 40.8115 76.3159C40.8152 76.4572 40.8154 76.5988 40.8157 76.7405C40.816 76.9336 40.8164 77.127 40.8253 77.32C40.8484 77.724 40.8371 78.1281 40.8259 78.5321C40.8124 79.0215 40.7988 79.5107 40.846 79.9995L40.973 79.9991C41.2059 79.9984 41.439 79.9978 41.6726 79.9978C41.6621 79.3373 41.6635 78.6766 41.6649 78.0159C41.6661 77.4362 41.6674 76.8565 41.6605 76.277C41.6618 76.1409 41.5731 76.0412 41.4869 75.9443C41.4555 75.9091 41.4245 75.8742 41.3982 75.8381C41.4173 75.8147 41.4373 75.7915 41.4575 75.768C41.5655 75.6426 41.6779 75.512 41.6649 75.3352C41.6718 74.7871 41.6685 74.239 41.6653 73.6909C41.6629 73.28 41.6604 72.869 41.6623 72.4581C41.6847 72.099 41.3844 71.7131 41.01 71.7254C40.5576 71.7 40.1045 71.7029 39.6516 71.7057ZM42.2998 71.6007C42.5371 71.5608 42.7761 71.5296 43.0168 71.5131C43.0976 72.47 43.237 73.4199 43.3765 74.3699C43.4321 74.7491 43.4878 75.1283 43.5397 75.5081C43.584 75.8346 43.6293 76.1611 43.6747 76.4876L43.675 76.4902C43.832 77.6202 43.989 78.7504 44.1014 79.8854C43.8615 79.9053 43.6217 79.9287 43.3835 79.9582C43.0729 77.5493 42.7571 75.1403 42.4172 72.7349C42.3645 72.3585 42.3145 71.9805 42.2998 71.6007ZM36.0053 73.4205C36.026 73.044 36.0468 72.6653 36.2593 72.3416C36.2808 72.3364 36.3026 72.3309 36.3245 72.3253C36.4905 72.283 36.6658 72.2384 36.8236 72.3363C37.0142 72.4207 37.0215 72.6378 37.0278 72.8235C37.0286 72.848 37.0294 72.8719 37.0306 72.8949C37.0262 73.0554 37.0226 73.2161 37.0191 73.3769L37.019 73.3784C37.0046 74.0286 36.9902 74.6795 36.9176 75.3272C36.9031 75.8054 36.884 76.2836 36.8648 76.7619C36.8373 77.45 36.8097 78.1383 36.796 78.8269C36.5535 79.2951 35.8313 79.2536 35.6208 78.7801C35.5888 78.3931 35.6254 78.0068 35.662 77.6208C35.6806 77.4248 35.6992 77.2288 35.7088 77.0328C35.7623 76.5177 35.7988 76.0005 35.8352 75.4832C35.8733 74.9417 35.9116 74.3996 35.9694 73.86C35.9891 73.7162 35.9972 73.5684 36.0053 73.4205ZM37.6174 72.2175C37.3533 71.6731 36.6777 71.4502 36.1143 71.5672C35.5975 71.7138 35.3689 72.2826 35.2981 72.7691C35.2527 73.2705 35.203 73.7714 35.1533 74.2722L35.1532 74.2732C35.064 75.171 34.9749 76.0687 34.9107 76.9686L34.891 77.1396C34.827 77.6898 34.7626 78.2444 34.8158 78.7974C34.8986 79.2258 35.179 79.6325 35.5975 79.7868C36.1394 80.0036 36.8443 79.9932 37.2843 79.5657C37.4453 79.419 37.5179 79.2168 37.5898 79.0164C37.6172 78.9398 37.6447 78.8634 37.6769 78.7905C37.6787 77.8269 37.6966 76.8641 37.7144 75.9013C37.7297 75.0743 37.745 74.2468 37.7502 73.4195C37.7525 73.3503 37.7565 73.2801 37.7607 73.2094C37.7805 72.8691 37.8009 72.5177 37.6174 72.2175ZM32.4447 70.9823C32.6492 71.0193 32.854 71.0565 33.054 71.1148C32.7665 72.0395 32.5055 72.9718 32.2444 73.904C32.1748 74.1527 32.1051 74.4015 32.035 74.6501C32.2787 74.7033 32.5208 74.7648 32.763 74.8263C32.923 74.8669 33.0832 74.9075 33.2438 74.9458C33.4168 74.2445 33.5727 73.5389 33.7286 72.8334C33.8347 72.3534 33.9408 71.8734 34.0522 71.3948C34.1459 71.4208 34.2418 71.4403 34.3378 71.4599C34.5143 71.4958 34.6912 71.5318 34.8555 71.6082C34.6726 72.417 34.497 73.2283 34.3213 74.0397L34.3211 74.0407C34.2069 74.5686 34.0926 75.0966 33.9763 75.6239C33.7347 76.6159 33.5087 77.6114 33.3024 78.612C33.2435 78.9348 33.1718 79.2554 33.0999 79.5764L33.085 79.6431C32.8201 79.5667 32.5527 79.4991 32.2835 79.4445C32.4601 78.5399 32.6477 77.6377 32.8353 76.7357L32.8356 76.7347C32.9045 76.4034 32.9735 76.0713 33.0419 75.7401C32.9581 75.717 32.8745 75.6931 32.7909 75.6692C32.4699 75.5775 32.1491 75.4858 31.8184 75.4383L31.7279 75.7564C31.4197 76.839 31.1118 77.9208 30.821 79.0083C30.5552 78.9563 30.2904 78.9051 30.0246 78.8557C30.3341 77.7121 30.659 76.5732 30.984 75.4338L31.0419 75.2311C31.0133 75.2102 30.9799 75.192 30.9463 75.1735C30.8471 75.1192 30.7451 75.0634 30.7528 74.9345C30.6952 74.7532 30.818 74.6203 30.9315 74.4976C30.9504 74.4771 30.9691 74.4569 30.9866 74.4368C31.0824 74.4298 31.1791 74.4238 31.2766 74.4186C31.3079 74.2751 31.3402 74.1321 31.3724 73.9896L31.406 73.841C31.5421 73.4128 31.6637 72.9801 31.7854 72.5473C31.936 72.0118 32.0865 71.4762 32.2645 70.9491C32.3245 70.9606 32.3846 70.9714 32.4447 70.9823ZM46.5173 71.3801C46.4966 71.1174 46.4621 70.8573 46.3983 70.6031C45.5208 70.819 44.6364 71.0133 43.7468 71.1676C43.7849 71.3562 43.8281 71.5442 43.8715 71.7326L43.9004 71.8587C44.1998 71.8492 44.4932 71.7894 44.7796 71.7035C44.8729 72.0687 44.9532 72.4374 45.0334 72.8058C45.0586 72.9212 45.0837 73.0365 45.1092 73.1517C45.3555 74.3355 45.619 75.5151 45.8826 76.6947C46.0879 77.6138 46.2934 78.5337 46.4906 79.4549C46.5372 79.4419 46.6312 79.4168 46.6787 79.4046C46.909 79.337 47.1463 79.2988 47.3836 79.265C47.3474 79.2008 47.3111 79.1375 47.2757 79.0759C47.0841 77.9706 46.8326 76.8777 46.5811 75.7848C46.4068 75.0275 46.2325 74.2702 46.0781 73.5089C45.997 73.0423 45.8922 72.581 45.7874 72.1199C45.744 71.929 45.7005 71.7378 45.6588 71.5466C45.94 71.4703 46.2274 71.4182 46.5173 71.3801ZM49.4889 69.6129C49.243 69.7204 48.9997 69.8314 48.7572 69.9441C48.8117 70.1841 48.8998 70.413 48.9877 70.6418C49.043 70.7858 49.0985 70.9299 49.1455 71.0766C49.4595 72.0001 49.7624 72.9288 50.0532 73.8592C50.249 74.4715 49.1015 74.807 48.9289 74.2079C48.6664 73.4975 48.4496 72.7722 48.2328 72.0468C48.0513 71.4396 47.8698 70.8324 47.6614 70.2338L46.9841 70.4783C47.0161 70.6569 47.055 70.8356 47.1092 71.0107C47.271 71.5236 47.4183 72.0407 47.5657 72.5577C47.713 73.0747 47.8603 73.5917 48.0221 74.1046C48.0393 74.1603 48.0559 74.2175 48.0726 74.2754C48.1763 74.634 48.2868 75.0164 48.6174 75.2233C48.8839 75.4207 49.222 75.3691 49.5322 75.3217C49.5706 75.3158 49.6086 75.31 49.6459 75.3048C49.7845 75.7661 49.948 76.2196 50.1114 76.6731C50.3498 77.3347 50.5882 77.9961 50.7495 78.6814C50.9342 78.6199 51.1123 78.5402 51.2904 78.4605C51.3584 78.43 51.4265 78.3996 51.4949 78.3701C51.4872 78.3458 51.4725 78.2973 51.4656 78.2721C51.3188 77.7605 51.1477 77.2569 50.9767 76.7533C50.788 76.1977 50.5993 75.6421 50.4432 75.0759C50.7106 74.8556 50.9669 74.5608 50.9764 74.1948C51.004 73.7349 50.8349 73.311 50.6666 72.8893C50.5986 72.7188 50.5306 72.5485 50.4759 72.3765C50.3381 71.9582 50.1825 71.5463 50.0269 71.1344C49.8368 70.631 49.6464 70.1274 49.4889 69.6129ZM26.0522 68.4688L26.1646 68.5099C26.2987 68.559 26.4328 68.6081 26.569 68.6535C26.567 68.6767 26.5655 68.7001 26.564 68.7235C26.5576 68.8222 26.5511 68.9224 26.5086 69.0143C26.215 69.6453 25.9346 70.2826 25.6542 70.9199C25.4765 71.3237 25.2988 71.7276 25.1178 72.1299C25.0678 72.2411 25.0155 72.3512 24.9633 72.4615C24.9354 72.5202 24.9072 72.5799 24.8796 72.6389C24.684 73.1202 24.4662 73.5918 24.2484 74.0633C24.0868 74.4133 23.9252 74.7633 23.7726 75.1172C23.588 75.5265 23.6354 76.116 24.091 76.3182C24.1825 76.3189 24.2731 76.3208 24.3654 76.3251C24.7532 76.1821 24.9155 75.7841 25.0603 75.4288L25.0608 75.4276C25.2434 74.9361 25.4516 74.455 25.6598 73.9739C25.8373 73.5637 26.0148 73.1535 26.1764 72.7369C26.3183 72.373 26.474 72.015 26.6297 71.6571C26.7894 71.2901 26.949 70.9231 27.0936 70.55C27.1867 70.3587 27.2635 70.1599 27.3402 69.9612C27.4447 69.6903 27.5492 69.4196 27.695 69.1685C27.8077 69.2151 27.9171 69.2681 28.0269 69.3213C28.097 69.3553 28.1673 69.3893 28.2386 69.4217C28.1523 69.6837 28.0548 69.942 27.9512 70.1978C27.7852 70.6631 27.5998 71.1209 27.4145 71.5786C27.2588 71.963 27.1031 72.3473 26.959 72.736C26.9254 72.8218 26.8934 72.9085 26.8632 72.997C26.7159 73.4169 26.5483 73.8289 26.3807 74.2409C26.2548 74.5503 26.1289 74.8599 26.0116 75.1727C25.9788 75.2542 25.9478 75.3374 25.9167 75.4215C25.8648 75.5479 25.8198 75.6798 25.7747 75.8123C25.6419 76.2017 25.5074 76.5963 25.1894 76.8713C24.8986 77.1358 24.4983 77.2235 24.1152 77.2L24.1505 77.1272C23.5319 77.057 22.9366 76.6545 22.7597 76.0346C22.739 75.7432 22.7312 75.4483 22.8002 75.164C23.3979 73.8817 24.0236 72.6128 24.6491 71.3442C25.1208 70.3876 25.5927 69.4309 26.0522 68.4688ZM53.2654 69.7724C53.1584 69.5209 53.2913 69.2287 53.5458 69.1411C53.8202 68.9841 54.0713 69.2096 54.1636 69.461C54.8671 70.9833 55.5326 72.5235 56.198 74.0635L56.3931 74.5148C56.4137 74.5658 56.4395 74.6169 56.4656 74.6685C56.5424 74.8203 56.6215 74.9765 56.5751 75.1487C56.4129 75.512 55.8875 75.6663 55.57 75.4261C55.4093 75.1876 55.3058 74.9187 55.2026 74.6503C55.15 74.5138 55.0975 74.3772 55.0376 74.245C54.845 73.8053 54.6723 73.3575 54.4995 72.9096C54.3194 72.4426 54.1392 71.9756 53.9367 71.518C53.6977 70.9422 53.4725 70.3603 53.2654 69.7724ZM54.337 68.5973C54.0583 68.3988 53.6968 68.3789 53.3715 68.4405C52.8409 68.5428 52.4026 69.0509 52.4621 69.6058C52.5193 70.0283 52.6743 70.4235 52.8293 70.8185C52.9011 71.0017 52.973 71.1848 53.035 71.3705C53.3134 72.0406 53.5697 72.7193 53.8259 73.3981C54.0605 74.0194 54.2951 74.6407 54.5467 75.2553C54.733 75.8163 55.243 76.2768 55.8341 76.3384C56.5122 76.3261 57.2887 75.9239 57.425 75.1998C57.5173 74.7419 57.3107 74.3203 57.1125 73.9159C57.0697 73.8287 57.0273 73.7422 56.9884 73.6563C56.6888 73.0014 56.3788 72.3515 56.069 71.7017C55.7517 71.0361 55.4342 70.3708 55.1282 69.7004C55.0927 69.6317 55.0585 69.5608 55.0241 69.4895C54.8572 69.144 54.6845 68.7864 54.337 68.5973ZM22.5893 69.3795L22.5887 69.3803C22.39 69.6919 22.1912 70.0038 21.9978 70.3188C22.2446 70.4834 22.4983 70.637 22.7614 70.7748C22.7735 70.7709 22.7918 70.7646 22.8101 70.7584C22.8285 70.7521 22.8468 70.7458 22.8589 70.7419C23.066 70.2549 23.3283 69.7957 23.5906 69.3363C23.8234 68.9287 24.0563 68.5209 24.2506 68.0937L24.1782 68.0633C24.0401 67.8465 23.7994 67.7875 23.5578 67.8066C23.2516 68.3408 22.9205 68.86 22.5893 69.3795ZM22.8011 67.5065C22.9832 67.216 23.305 66.9915 23.6587 67.0202C24.0841 67.0027 24.4681 67.2629 24.7433 67.5681C25.0384 67.8769 24.9426 68.3477 24.8632 68.725C24.4168 69.5037 23.9926 70.2951 23.5684 71.0864C23.2973 71.5921 23.0262 72.0977 22.7493 72.6001C22.5592 72.9636 22.3624 73.3235 22.1655 73.6833C21.8665 74.2296 21.5672 74.7767 21.292 75.3359C21.0306 75.2267 20.7821 75.0888 20.5431 74.937C20.7985 74.4089 21.0837 73.8961 21.3689 73.3833C21.7185 72.7547 22.0682 72.126 22.3628 71.4694C22.2486 71.4137 22.1412 71.3446 22.034 71.2757C21.8876 71.1816 21.7414 71.0876 21.5785 71.028C21.1953 71.6459 20.8038 72.2588 20.4122 72.8715C20.1171 73.3335 19.8216 73.7959 19.5302 74.2599C19.4646 74.2511 19.399 74.2433 19.3343 74.2373C19.1886 74.1364 19.0396 74.0405 18.8908 73.9448L18.7769 73.8713C19.2026 73.244 19.6062 72.6013 20.0096 71.9589L20.0102 71.958C20.2639 71.554 20.5179 71.1496 20.7769 70.7496C20.8667 70.5487 20.7078 70.4772 20.5604 70.4107C20.5392 70.4011 20.5182 70.3917 20.4982 70.382C20.5138 70.1695 20.6009 69.9762 20.7027 69.7941C20.9202 69.7958 21.1359 69.8175 21.3516 69.8478C21.8235 69.0605 22.3007 68.2757 22.8011 67.5065ZM56.4474 67.0214C56.0412 67.2128 55.6352 67.4041 55.2456 67.6272C55.3048 67.8695 55.4232 68.0877 55.5417 68.3061C55.6081 68.4283 55.6744 68.5506 55.7305 68.6772C56.1296 69.517 56.5418 70.3504 56.9541 71.1841C57.1237 71.527 57.2933 71.87 57.462 72.2134C57.6775 72.6173 57.8724 73.0314 58.0673 73.4454C58.3188 73.9799 58.5703 74.5143 58.8659 75.0264C59.0494 74.9547 59.2282 74.8726 59.4074 74.7902C59.4709 74.761 59.5346 74.7318 59.5985 74.703L59.4929 74.4956C59.2526 74.0238 59.012 73.5514 58.7848 73.0736C58.6399 72.769 58.4856 72.4689 58.3313 72.1688C58.0815 71.6831 57.8318 71.1974 57.6218 70.6925C57.7547 70.6252 57.8888 70.5599 58.0228 70.4946C58.2497 70.3841 58.4767 70.2736 58.6985 70.1531C58.6097 69.9069 58.5044 69.6674 58.3819 69.4377L58.2623 69.4989C57.9453 69.6612 57.628 69.8235 57.2939 69.9476C56.903 69.3198 56.5821 68.646 56.3146 67.9575C56.6194 67.7628 56.9472 67.6123 57.2752 67.4618C57.4977 67.3597 57.7203 67.2575 57.9358 67.1415C57.8702 66.9758 57.8004 66.812 57.7174 66.6568L57.7065 66.6372C57.6607 66.5543 57.5924 66.4307 57.488 66.5059C57.148 66.6914 56.7977 66.8564 56.4474 67.0214ZM18.0919 62.9698C17.9734 63.0173 17.8531 63.0656 17.7571 63.1526C17.565 63.3311 17.3736 63.5104 17.1822 63.6897C16.659 64.1797 16.1357 64.67 15.5975 65.1436C15.1051 65.6351 14.5894 66.1029 14.0738 66.5707C13.3996 67.1824 12.7254 67.7939 12.104 68.4579C12.1988 68.5263 12.292 68.5966 12.3854 68.667C12.4611 68.724 12.5371 68.7814 12.6139 68.8377L12.4991 68.9712C12.5845 68.9695 12.623 68.893 12.6571 68.825L12.6674 68.8047C13.1826 68.3339 13.7019 67.8673 14.2213 67.4007C14.8508 66.8351 15.4805 66.2694 16.1031 65.6959C15.8166 66.3516 15.477 66.9804 15.1374 67.6092C14.9012 68.0466 14.6649 68.484 14.4465 68.9304C14.3607 69.1095 14.2615 69.2818 14.1624 69.4541C14.0023 69.7323 13.8424 70.0103 13.739 70.316C14.2837 69.8899 14.8341 69.471 15.3846 69.052C15.9799 68.5989 16.5754 68.1457 17.1635 67.6834C17.3041 67.5707 17.4655 67.5083 17.6493 67.4978C17.2653 68.0582 16.9045 68.6334 16.5437 69.2088C16.298 69.6005 16.0524 69.9924 15.7994 70.3794C15.734 70.4924 15.6629 70.6025 15.5919 70.7128C15.4502 70.9325 15.3083 71.1526 15.2101 71.3957C15.3861 71.4859 15.5544 71.5908 15.7071 71.7174C15.7355 71.7209 15.7916 71.727 15.8192 71.7295C16.3556 70.8372 16.8959 69.9472 17.4363 69.0572C18.2729 67.6793 19.1095 66.3013 19.9314 64.9146C20.0586 64.7785 19.9598 64.65 19.8662 64.5283C19.8346 64.4872 19.8037 64.447 19.7821 64.4075C19.5277 64.472 19.3338 64.6427 19.141 64.8125C19.0644 64.8799 18.988 64.9471 18.9081 65.0075C18.7243 65.147 18.553 65.301 18.3816 65.4551C18.2642 65.5607 18.1468 65.6662 18.0255 65.767C17.7288 65.9975 17.4477 66.2465 17.1667 66.4954C16.8175 66.8047 16.4684 67.114 16.0893 67.3878L16.1058 67.3544C16.2521 67.0576 16.3986 66.7605 16.569 66.4773C16.8592 65.9936 17.1317 65.4995 17.404 65.0057C17.573 64.6993 17.7419 64.393 17.915 64.0892C17.9508 64.0255 17.9894 63.963 18.0279 63.9005C18.1268 63.7402 18.2257 63.5796 18.2791 63.398C18.3073 63.2771 18.2581 63.1638 18.2104 63.054C18.1938 63.0159 18.1772 62.9777 18.1644 62.9403C18.1404 62.9503 18.1162 62.96 18.0919 62.9698ZM64.464 62.4983C64.7301 62.7813 64.9964 63.0646 65.2766 63.3331C65.535 63.5772 65.7774 63.837 66.0198 64.0968C66.2776 64.3732 66.5354 64.6495 66.8124 64.9069C67.1669 65.2594 67.5136 65.6198 67.8603 65.9804C68.2934 66.4308 68.7267 66.8814 69.1758 67.3167L69.157 67.3347C68.9552 67.5282 68.7528 67.7224 68.5251 67.8856C68.1082 67.444 67.6775 67.0157 67.2468 66.5873C66.8165 66.1594 66.386 65.7314 65.9695 65.2902H65.8047C65.6718 65.4281 65.5337 65.5608 65.3957 65.6934C65.2576 65.8261 65.1196 65.9588 64.9867 66.0967C65.7232 66.922 66.4349 67.7687 67.1464 68.6152L67.4026 68.92C67.328 68.9934 67.2519 69.0652 67.1759 69.1369C67.0867 69.2211 66.9975 69.3052 66.9109 69.3918L66.7624 69.4126C66.3982 68.9567 66.0148 68.5165 65.6315 68.0764C65.2302 67.6158 64.8291 67.1552 64.45 66.6768C64.3569 66.6801 64.2654 66.6836 64.1749 66.6889C64.1455 66.7219 64.0859 66.7878 64.0566 66.8198C64.026 66.7867 63.9939 66.7547 63.9617 66.7227C63.8768 66.6382 63.7917 66.5534 63.7348 66.4478C63.7236 66.3757 63.7328 66.2987 63.742 66.2219C63.759 66.0791 63.7759 65.9373 63.6614 65.8296C63.456 65.5781 63.2404 65.3354 63.0247 65.0927C62.7913 64.8299 62.5577 64.567 62.337 64.293C62.2453 64.1839 62.1485 64.0787 62.0517 63.9735C61.8507 63.7552 61.6491 63.536 61.4932 63.2828C61.6269 63.0842 61.7943 62.9056 61.9876 62.7651C62.0696 62.7353 62.1226 62.8024 62.1721 62.865C62.1903 62.888 62.208 62.9105 62.2266 62.9273C62.5383 63.3147 62.868 63.6871 63.1977 64.0594C63.6037 64.5177 64.0096 64.9761 64.3819 65.4628C64.605 65.3086 64.801 65.1225 64.9971 64.9365C65.1042 64.8348 65.2116 64.7329 65.3232 64.6364C64.9595 64.2238 64.5737 63.8309 64.188 63.4379C63.726 62.9672 63.2633 62.4958 62.8392 61.9916C63.0317 61.8094 63.2179 61.6222 63.3931 61.4245C63.7708 61.7609 64.1174 62.1296 64.464 62.4983ZM16.8805 61.2728C16.752 61.3048 16.6243 61.3378 16.4983 61.3759C16.2248 61.4548 15.9556 61.5546 15.7149 61.7089C15.1839 62.0152 14.9004 62.5898 14.6387 63.1201L14.6303 63.1372C14.5488 63.3335 14.4786 63.5361 14.4083 63.7389C14.2412 64.2212 14.0735 64.7052 13.7528 65.1099C13.1842 65.905 12.2015 66.2987 11.2532 66.3525L11.264 66.483L11.2748 66.6134L11.2032 66.6186C11.1972 66.819 11.1877 67.0201 11.1773 67.2222C11.8926 67.1537 12.6355 67.0792 13.2731 66.7176C13.7088 66.4478 14.0678 66.0672 14.3775 65.6613C14.6327 65.313 14.7711 64.9065 14.9093 64.5007C14.9721 64.3165 15.0348 64.1324 15.1083 63.9539C15.1534 63.8449 15.1932 63.7337 15.2329 63.6227C15.2958 63.4469 15.3587 63.2714 15.4422 63.105C15.7571 62.5309 16.3085 62.0618 16.9677 61.9682C16.9467 61.8196 16.9289 61.6714 16.9112 61.5234C16.9011 61.4398 16.8911 61.3563 16.8805 61.2728ZM64.8383 60.5615C64.6976 60.3699 64.8892 60.1557 65.0333 60.0334C65.2004 59.8662 65.3874 60.0319 65.533 60.1609C65.5566 60.1817 65.579 60.2016 65.6002 60.219C65.8472 60.4623 66.1105 60.6892 66.3738 60.9161C66.7646 61.2528 67.1556 61.5896 67.4933 61.9802C67.2732 62.1891 67.0619 62.4077 66.8643 62.6383C66.8568 62.6242 66.8443 62.5974 66.8361 62.5796L66.8323 62.5715C66.6193 62.3818 66.422 62.1762 66.2248 61.9707C66.0507 61.7892 65.8765 61.6076 65.6917 61.4372C65.6188 61.3645 65.5451 61.2924 65.4713 61.2204C65.2533 61.0075 65.0349 60.7941 64.8383 60.5615ZM64.9884 59.2175C64.5096 59.4827 64.0101 59.899 64.0186 60.5008C64.0288 60.9559 64.3488 61.2639 64.6609 61.5643C64.7728 61.672 64.8837 61.7787 64.9789 61.8908C65.1902 62.0722 65.3862 62.2698 65.5822 62.4674C65.8033 62.6903 66.0243 62.9132 66.2672 63.1126C66.2641 63.204 66.2191 63.2906 66.1749 63.3758C66.1074 63.5057 66.0419 63.632 66.1299 63.7656C66.2025 63.8939 66.3258 63.9997 66.4682 64.0448C66.5938 64.0727 66.6873 63.991 66.7786 63.9111C66.8177 63.877 66.8564 63.8431 66.897 63.8184C67.206 64.0685 67.4808 64.3553 67.7558 64.6423C67.9261 64.8199 68.0964 64.9978 68.2749 65.1669C68.4372 65.3191 68.5933 65.4786 68.7495 65.6382C69.0514 65.9468 69.3541 66.2561 69.702 66.5127C69.8548 66.3037 70.0351 66.1181 70.2189 65.9369C69.7669 65.518 69.3431 65.0709 68.9194 64.6238C68.45 64.1286 67.9808 63.6334 67.4733 63.1768L67.4921 63.1532C67.6653 62.9354 67.8396 62.7164 68.0419 62.5246C68.1337 62.501 68.2006 62.5625 68.2654 62.6221C68.2883 62.6432 68.311 62.664 68.3345 62.6808C68.5829 62.8998 68.8315 63.1185 69.0802 63.3372C69.7323 63.9107 70.3845 64.4843 71.0317 65.0637L71.1056 64.9876C71.2789 64.8095 71.452 64.6315 71.6105 64.4402C69.7262 62.771 67.8392 61.1052 65.9367 59.4577C65.7041 59.2303 65.3759 59.2245 65.0709 59.2191C65.0432 59.2186 65.0157 59.2181 64.9884 59.2175ZM11.5665 59.5559C11.909 59.2862 12.2516 59.0164 12.6095 58.7671C12.6954 58.7106 12.7752 58.6416 12.855 58.5726C13.0237 58.4267 13.1927 58.2806 13.4206 58.2511C13.4932 58.3634 13.5746 58.4698 13.656 58.5763C13.7689 58.7239 13.8818 58.8714 13.9711 59.0342C13.9723 59.1929 13.8413 59.285 13.716 59.3731C13.6675 59.4072 13.6198 59.4407 13.5811 59.4772C13.3143 59.6557 13.0633 59.8572 12.8125 60.0586C12.4664 60.3365 12.1205 60.6141 11.7338 60.8309C11.5793 60.6511 11.4313 60.4658 11.2833 60.2804C11.2006 60.1768 11.1178 60.0733 11.034 59.9707C11.2125 59.8346 11.3888 59.6958 11.5651 59.5569L11.5665 59.5559ZM10.9148 58.9045L10.575 59.1625C10.4748 59.2338 10.3836 59.1652 10.2981 59.1009C10.2651 59.0761 10.2329 59.0519 10.2014 59.0367C10.0749 59.1099 9.95006 59.1849 9.82523 59.2599L9.81405 59.2666C9.81146 59.452 9.81664 59.6367 9.8244 59.8233C9.3887 60.1572 8.94333 60.4778 8.49799 60.7984C7.96626 61.1812 7.43436 61.5641 6.9193 61.9694C7.10481 62.1862 7.28427 62.4091 7.45597 62.638C7.68978 62.46 7.92387 62.2826 8.1579 62.1053L8.15881 62.1046L8.16038 62.1034L8.16166 62.1024C8.75545 61.6525 9.3489 61.2027 9.93657 60.745C9.98301 60.7134 10.0259 60.673 10.0689 60.6325C10.1601 60.5465 10.2519 60.4601 10.3792 60.4554C10.6164 60.7163 10.8382 60.9982 11.0366 61.2905C11.034 61.3217 11.0289 61.3832 11.0254 61.4144C10.3908 61.922 9.7421 62.4137 9.09331 62.9055C8.79557 63.1312 8.49782 63.3568 8.20145 63.584C8.34381 63.8268 8.50688 64.0566 8.69584 64.2656C8.92641 64.0893 9.15572 63.9115 9.385 63.7337C9.8369 63.3832 10.2889 63.0326 10.7502 62.6944C10.8726 62.5761 11.0159 62.4743 11.1592 62.3723C11.4732 62.149 11.7876 61.9255 11.8848 61.5289C12.11 61.5307 12.3343 61.4804 12.5094 61.3321C12.6991 61.1857 12.8907 61.0417 13.0822 60.8979C13.4314 60.6356 13.7811 60.3726 14.1186 60.0955C14.1921 60.0362 14.2735 59.9803 14.356 59.9238C14.6259 59.7385 14.9068 59.5457 14.9564 59.2024C14.9967 58.8634 14.778 58.5963 14.5756 58.349C14.5481 58.3155 14.521 58.2823 14.4948 58.2493C14.1591 57.8072 13.8244 57.3632 13.4913 56.9191C12.6424 57.5929 11.778 58.2492 10.9148 58.9045ZM67.0429 56.1822C67.6935 56.598 68.341 57.0189 68.9885 57.4398C70.2634 58.2685 71.5391 59.0977 72.8384 59.8883C73.0076 59.9924 73.2086 60.1112 73.414 60.0323C73.5705 59.8716 73.6931 59.6839 73.8156 59.4963C73.8795 59.3985 73.9433 59.3007 74.0119 59.2068C74.2052 59.316 74.3959 59.4331 74.5804 59.5597C74.4177 59.8886 74.2207 60.198 74.0237 60.5076C73.8311 60.8101 73.6385 61.1126 73.4778 61.4336C72.3528 60.6426 71.2158 59.8686 70.0791 59.0947C69.5471 58.7325 69.0152 58.3704 68.4846 58.0067C68.2403 57.8508 68.0024 57.685 67.7645 57.5191C67.4093 57.2715 67.0542 57.024 66.678 56.81C66.7584 56.6014 66.8838 56.4167 67.0081 56.2334L67.0429 56.1822ZM8.96195 55.4928C8.21675 55.9063 7.47125 56.3201 6.73122 56.7429C6.62586 56.8031 6.5171 56.8609 6.40772 56.9191C5.95813 57.1581 5.49802 57.4027 5.22043 57.8441C5.06253 58.125 4.91327 58.4425 4.96072 58.7746C5.05908 59.4725 5.6294 60.0597 6.31362 60.1992C6.80111 60.1976 7.24287 59.9418 7.62251 59.6547C8.03518 59.3449 8.46434 59.0597 8.89346 58.7746C9.26168 58.5299 9.63065 58.2847 9.98835 58.0245C10.4269 57.7369 10.8588 57.4391 11.2907 57.1413C11.8094 56.7836 12.3283 56.4257 12.8589 56.0856C12.7718 55.8844 12.6656 55.6919 12.544 55.5107C10.6846 56.7299 8.8106 57.9283 6.93743 59.1257C6.91065 59.1384 6.88289 59.1523 6.85436 59.1664C6.62839 59.2789 6.35461 59.4152 6.13933 59.2281C5.93743 59.0902 5.74416 58.8275 5.85115 58.5743C5.99095 58.1243 6.40806 57.8981 6.79973 57.6858C6.87459 57.6452 6.94851 57.6051 7.0194 57.5641C8.20935 56.8258 9.40869 56.1031 10.6077 55.3805L10.6089 55.3798L10.6101 55.3791C10.8639 55.2261 11.1177 55.0732 11.3714 54.9201C11.4268 54.8812 11.4911 54.8488 11.556 54.8162C11.6992 54.7442 11.8452 54.6707 11.9046 54.5221C11.8592 54.368 11.7766 54.2303 11.6946 54.0939C11.6738 54.0592 11.6529 54.0245 11.6328 53.9897C10.7486 54.5012 9.8552 54.997 8.96195 55.4928ZM70.1025 54.8141C70.5288 55.0867 70.9554 55.3594 71.3914 55.617C71.4359 55.5372 71.4939 55.4587 71.5527 55.3791C71.6899 55.1935 71.8311 55.0023 71.8143 54.7759C71.3158 54.4932 70.8116 54.2193 70.3077 53.9455L70.3067 53.945C70.0057 53.7815 69.7048 53.6179 69.4053 53.4527C69.0307 53.2263 68.6563 53.9738 69.048 54.1516C69.4021 54.3663 69.7509 54.5894 70.0998 54.8124L70.1008 54.813L70.1025 54.8141ZM69.0817 52.661C69.4506 52.5912 69.7976 52.7666 70.1216 52.9303L70.1932 52.9664L70.224 52.9818C70.9201 53.3546 71.6144 53.731 72.3088 54.1074C73.6671 54.8438 75.0255 55.5801 76.3974 56.2899C76.2974 56.5665 76.155 56.8258 75.9808 57.0625C75.3595 56.7044 74.7282 56.3652 74.0969 56.0259L74.0957 56.0253L74.0948 56.0248L74.0938 56.0243L74.0929 56.0238C73.7611 55.8455 73.4293 55.6672 73.0989 55.4861C72.9168 55.3794 72.7262 55.2875 72.5208 55.2407C72.416 55.4427 72.3017 55.6394 72.1873 55.8362L72.1855 55.8394L72.1385 55.9203L72.0903 56.0038C73.1106 56.6612 74.1409 57.3028 75.1717 57.9447L75.1727 57.9453L75.1738 57.946L75.3871 58.0788C75.281 58.3182 75.1619 58.5575 74.9851 58.7517C74.7919 58.7045 74.6307 58.5899 74.4703 58.4758C74.3921 58.4202 74.3141 58.3648 74.2326 58.3173C73.4803 57.8612 72.7331 57.3964 71.9919 56.9238C71.8875 56.8536 71.7677 56.8162 71.6486 56.7868C71.6174 56.8202 71.5906 56.8649 71.5634 56.9102C71.4968 57.0215 71.4276 57.137 71.2835 57.1007C71.1275 57.053 70.9643 56.9724 70.8728 56.8328C70.8035 56.6973 70.8661 56.5653 70.9264 56.4383L70.9269 56.4374C70.9458 56.3975 70.9648 56.3574 70.979 56.3185C70.5795 56.045 70.1668 55.792 69.7542 55.539C69.3416 55.286 68.9289 55.033 68.5294 54.7594C68.2767 54.5886 68.0851 54.3068 68.0877 53.9929C68.1196 53.4058 68.5148 52.8379 69.0817 52.661ZM6.19146 53.5912C7.27255 53.0903 8.35349 52.5895 9.44391 52.1105C9.84771 51.8564 10.3705 52.3862 10.1246 52.7947C9.94835 52.9793 9.71727 53.0853 9.4865 53.1911C9.36608 53.2463 9.24572 53.3015 9.1333 53.3678C8.69746 53.6069 8.24934 53.8205 7.80131 54.034C7.4352 54.2085 7.0689 54.3831 6.70965 54.5714C6.33622 54.7669 5.95682 54.9507 5.57743 55.1344C5.26519 55.2857 4.95296 55.4369 4.64407 55.5947C4.16176 55.8669 3.61732 55.0657 3.98143 54.6781C4.12465 54.5307 4.31303 54.4495 4.49905 54.3693C4.54725 54.3486 4.59529 54.3279 4.64235 54.3061C5.15945 54.0694 5.67547 53.8303 6.19146 53.5912ZM10.4525 51.4879C10.1462 51.2434 9.72692 51.2633 9.36885 51.357C9.1694 51.4064 8.98121 51.4883 8.79325 51.5701C8.73732 51.5945 8.68129 51.6188 8.6251 51.6422C7.80799 51.992 6.99489 52.3509 6.18179 52.7098C5.53539 52.9951 4.88871 53.2805 4.24027 53.5612C3.93311 53.6887 3.63803 53.8621 3.4275 54.1266C2.71999 54.8611 3.25321 56.1964 4.15572 56.4878C4.57073 56.5598 4.99783 56.4618 5.35934 56.2493C5.88496 55.967 6.41189 55.687 6.93886 55.4071L6.93994 55.4065L6.94081 55.406L6.94196 55.4054L6.94283 55.4049L6.94412 55.4043L6.94509 55.4037C8.07166 54.8051 9.19846 54.2065 10.3127 53.5846C11.0435 53.1545 11.0651 52.029 10.4525 51.4879ZM72.7095 50.116L72.7129 50.1173L72.714 50.1177C74.3191 50.7054 75.9242 51.2931 77.5338 51.8682C77.553 51.8768 77.5729 51.8849 77.5931 51.8931C77.6703 51.9243 77.7509 51.957 77.8022 52.0277C77.793 52.1307 77.7708 52.2316 77.7485 52.3329C77.7415 52.3646 77.7346 52.3964 77.728 52.4283C77.1114 52.4166 76.4956 52.3812 75.8798 52.3459C75.2693 52.3108 74.6588 52.2757 74.0472 52.2637C73.8877 52.2649 73.7279 52.2538 73.5683 52.2428C73.2858 52.2232 73.0036 52.2036 72.7236 52.2524C72.8713 52.4473 73.0941 52.534 73.3149 52.6199C73.3857 52.6474 73.4564 52.6749 73.5242 52.7058C74.141 52.9589 74.7442 53.2422 75.3475 53.5256C75.5089 53.6014 75.6706 53.6773 75.8323 53.7525C75.9696 53.8166 76.1104 53.8737 76.2513 53.9308C76.4973 54.0305 76.7435 54.1303 76.9713 54.2675C76.9463 54.4774 76.8746 54.6873 76.7443 54.8555C76.2125 54.6503 75.6972 54.405 75.182 54.1598C74.8263 53.9905 74.4705 53.8211 74.1093 53.665C73.4995 53.3812 72.8866 53.1041 72.2737 52.8271C71.3025 52.3881 70.3308 51.9488 69.3724 51.4832C69.3086 51.3323 69.3837 51.2057 69.5511 51.2239C70.0932 51.2554 70.6357 51.2841 71.1782 51.3127C71.9635 51.3541 72.749 51.3956 73.5338 51.4459C73.6632 51.4468 73.7918 51.4399 73.9212 51.4242C73.8327 51.1912 73.6098 51.1151 73.3926 51.041C73.3196 51.0161 73.2473 50.9915 73.1809 50.9611C72.9187 50.8603 72.6563 50.7597 72.3939 50.6591L72.3928 50.6586C71.6222 50.3631 70.8517 50.0676 70.0834 49.7663C70.1092 49.5755 70.1714 49.3925 70.2474 49.2165C71.0675 49.5148 71.887 49.8149 72.7066 50.115L72.7085 50.1157L72.7095 50.116ZM8.45864 47.8559L8.45602 47.8572C8.42655 47.8715 8.39722 47.8857 8.36799 47.8994C8.38862 47.9513 8.41002 48.0031 8.43144 48.0549C8.5238 48.2785 8.61668 48.5033 8.65099 48.7448C7.45468 49.2041 6.25739 49.6605 5.05993 50.117L5.0588 50.1174L5.05772 50.1178C4.30505 50.4047 3.552 50.6917 2.79938 50.9794C2.68887 51.0266 2.57377 51.0651 2.45856 51.1036C2.23469 51.1785 2.01032 51.2536 1.81836 51.3921C1.86177 51.6255 1.95917 51.8431 2.05613 52.0596C2.07481 52.1013 2.09346 52.143 2.11172 52.1848C2.50174 52.0001 2.90612 51.8509 3.31044 51.7018C3.52505 51.6227 3.73969 51.5434 3.9521 51.459C4.54896 51.2461 5.14085 51.0198 5.73273 50.7935C6.27198 50.5873 6.81122 50.3811 7.35418 50.1851C7.56675 50.1097 7.77641 50.0257 7.98607 49.9418C8.32359 49.8067 8.66112 49.6715 9.01079 49.5721L9.0354 49.6392C9.12898 49.8945 9.22294 50.1508 9.33003 50.4018C9.56126 50.3264 9.78646 50.2362 10.0064 50.1331C9.89105 49.7864 9.7597 49.4456 9.62838 49.1049C9.51134 48.8012 9.39433 48.4976 9.28861 48.1899L9.27374 48.1464C9.2177 47.9825 9.16088 47.8162 9.05307 47.6791C8.8406 47.6709 8.64668 47.7648 8.45864 47.8559ZM73.5281 48.5704C73.0579 48.4194 72.588 48.2684 72.1264 48.0936C72.4009 47.8378 72.727 47.6192 73.0997 47.5464C74.041 47.392 75.0437 47.5751 75.8375 48.1188C76.388 48.4725 77.0186 48.9798 76.9764 49.7081C76.4643 49.5938 75.9714 49.4119 75.4785 49.23C75.1452 49.107 74.8118 48.984 74.4724 48.8818C74.1592 48.7732 73.8436 48.6718 73.5281 48.5704ZM76.2999 47.4753C75.3223 46.9255 74.18 46.589 73.0566 46.7772C72.067 46.9368 71.1783 47.5412 70.6028 48.3572C70.9936 48.4188 71.3724 48.5401 71.7451 48.6736C72.267 48.8629 72.7954 49.0331 73.3238 49.2033C73.7905 49.3536 74.2572 49.5039 74.7193 49.6674C75.8426 50.0663 76.9773 50.4305 78.1127 50.7895C78.1102 50.2778 78.0428 49.7646 77.872 49.2806C77.5985 48.5045 76.9867 47.8975 76.2999 47.4753ZM65.7235 58.1761L65.7822 58.0968L65.7829 58.0959C65.9062 57.9291 66.0296 57.7621 66.1618 57.6021C67.322 58.5042 68.4993 59.3836 69.6767 60.2629L69.6778 60.2637L69.6788 60.2645C70.703 61.0294 71.7271 61.7943 72.7399 62.5743L72.7378 62.5768C72.5687 62.7779 72.3994 62.9793 72.2422 63.1899C71.8238 62.8295 71.3821 62.4997 70.9404 62.1699C70.7882 62.0563 70.6359 61.9426 70.4846 61.8277C69.6842 61.2077 68.8769 60.5971 68.0698 59.9866C67.8597 59.8277 67.6497 59.6688 67.4397 59.5098C67.1906 59.2981 66.9262 59.1059 66.662 58.9139C66.3397 58.6796 66.0175 58.4454 65.7235 58.1761ZM15.1333 60.0046C15.2299 59.9171 15.3292 59.8312 15.4448 59.7697C15.4839 59.8079 15.5294 59.8452 15.576 59.8833C15.7228 60.0035 15.8799 60.132 15.8779 60.3255C15.6866 60.5085 15.4958 60.6922 15.305 60.8759C14.8522 61.3119 14.3989 61.7484 13.9383 62.176C13.3967 62.6843 12.8612 63.1997 12.3256 63.7152C11.5457 64.4658 10.7653 65.2168 9.96593 65.9463C9.92142 65.8851 9.86219 65.8274 9.80214 65.7688C9.66549 65.6356 9.52457 65.4982 9.54315 65.3072C10.5597 64.3177 11.5938 63.3466 12.628 62.3756L12.6288 62.3748L12.6296 62.3741L12.6304 62.3734C13.4678 61.5872 14.3053 60.8008 15.1333 60.0046ZM59.4657 64.8166C59.8964 64.4746 60.328 64.1319 60.746 63.7747C60.7889 63.8287 60.8431 63.8808 60.8984 63.934C61.0375 64.0679 61.1833 64.2081 61.1721 64.3999C61.0724 64.5249 60.9374 64.616 60.802 64.7073C60.7056 64.7723 60.609 64.8374 60.525 64.915C61.1776 65.761 61.8373 66.6014 62.497 67.442L62.4977 67.4428C63.2185 68.3611 63.9394 69.2797 64.6511 70.2054C64.7115 70.2915 64.7823 70.3721 64.8532 70.4528C65.0002 70.62 65.1477 70.7879 65.2042 71.0066C65.0074 71.2 64.7857 71.3664 64.5552 71.5174C63.8446 70.5984 63.1265 69.685 62.4084 68.7717L62.4078 68.7709L62.4072 68.7701L62.4065 68.7693C61.5404 67.6677 60.674 66.5655 59.821 65.4543C59.6906 65.5539 59.5656 65.6603 59.4408 65.7667C59.3362 65.8559 59.2316 65.9451 59.1239 66.03C59.0823 65.9699 59.0269 65.9126 58.9707 65.8545C58.8436 65.7231 58.7125 65.5876 58.7287 65.4066C58.9727 65.2082 59.2192 65.0124 59.4657 64.8166ZM29.0652 69.7055C29.4174 69.8604 29.776 69.9995 30.1346 70.1386C30.607 70.3219 31.0796 70.5051 31.5371 70.7244C31.4949 70.8692 31.4509 71.0166 31.3905 71.1561C31.3542 71.2429 31.3189 71.3305 31.2843 71.419C31.2477 71.4016 31.2112 71.3839 31.1746 71.3662C30.9378 71.2519 30.6998 71.137 30.4405 71.0851C30.368 71.2603 30.2981 71.4363 30.2326 71.615C30.0744 72.0158 29.9091 72.4137 29.7438 72.8116C29.527 73.3337 29.3099 73.8561 29.1092 74.3846C29.0167 74.6089 28.9265 74.8342 28.8363 75.0595C28.662 75.4945 28.4877 75.9298 28.2973 76.3582C28.2196 76.5706 28.1368 76.7821 28.0531 76.9938C28.0322 77.0424 28.0116 77.0918 27.991 77.1414L27.9556 77.2261C27.9012 77.3755 27.843 77.5233 27.7847 77.6711C27.7053 77.8726 27.6258 78.0742 27.5561 78.2798C27.5163 78.2646 27.4766 78.2501 27.4369 78.2355C27.3836 78.216 27.3303 78.1966 27.2774 78.1757C27.2363 78.1621 27.195 78.1489 27.1537 78.1358C27.0133 78.091 26.873 78.0461 26.739 77.9858C26.7921 77.7445 26.8884 77.5183 26.9846 77.2921C27.0309 77.1834 27.0772 77.0747 27.1187 76.9643C27.3685 76.3319 27.6253 75.7023 27.8822 75.0726C28.1761 74.352 28.4701 73.6313 28.7537 72.9061C28.8245 72.7315 28.8965 72.5573 28.9685 72.383C29.1977 71.8286 29.427 71.2737 29.6174 70.7045C29.4174 70.6391 29.221 70.5653 29.0243 70.4913C28.9469 70.4622 28.8694 70.4331 28.7917 70.4044C28.8357 70.2933 28.8789 70.1821 28.9221 70.071C28.9695 69.9491 29.0169 69.8271 29.0652 69.7055Z" fill="white"/>
</g>
<defs>
<clipPath id="clip0_1908_1151">
<rect width="80" height="80" fill="white"/>
</clipPath>
</defs>
</svg>
