<svg width="102" height="50" viewBox="0 0 102 50" fill="none" xmlns="http://www.w3.org/2000/svg">
<g clip-path="url(#clip0_1908_1155)">
<path fill-rule="evenodd" clip-rule="evenodd" d="M59.2988 0C59.2238 0.184151 59.0781 0.330874 58.9332 0.476792C58.7286 0.682809 58.5257 0.887221 58.5257 1.1931C58.5257 1.46507 58.8045 1.6648 59.0273 1.82435C59.1754 1.93046 59.2988 2.0188 59.2988 2.09881C59.2988 2.0188 59.4221 1.93046 59.5703 1.82435C59.7931 1.6648 60.072 1.46507 60.072 1.1931C60.0661 0.890703 59.8653 0.687476 59.6639 0.483827C59.5174 0.33558 59.3707 0.18711 59.2988 0ZM74.0583 8.18639C73.7871 7.92513 73.3252 7.75966 72.7931 7.68128C72.4735 7.63168 72.056 7.60847 71.6419 7.58546C70.82 7.53978 70.012 7.49487 70.012 7.24584C70.012 6.96716 70.5039 6.77557 70.5944 6.74074C70.7951 6.8017 71.0361 6.82782 71.3172 6.83653C72.4016 6.85396 73.747 6.13984 73.7671 4.79868C73.7671 4.42421 73.6366 4.01489 73.4357 3.77106C73.747 3.68396 74.1486 3.30078 74.0984 2.61279C73.757 2.92631 73.3555 2.97856 72.9035 2.97856H72.4217C72.4217 2.97856 71.9899 2.75213 71.3473 2.75213C70.1424 2.75213 68.8774 3.53592 68.8774 4.81611C68.8774 5.73053 69.5602 6.23563 69.8914 6.45334C69.4196 6.77557 69.018 7.06296 69.018 7.48969C69.018 7.80321 69.2187 7.98609 69.3092 8.06447C69.7826 8.43297 70.6265 8.47053 71.4684 8.50799C72.0193 8.5325 72.5693 8.55697 73.014 8.67408C73.6465 8.83083 73.6465 9.08339 73.6465 9.17048C73.6465 9.29241 73.5863 9.41432 73.4357 9.52754L73.4289 9.53236C73.302 9.62281 72.69 10.0588 71.4979 10.0588C70.283 10.0588 69.6404 9.68429 69.6404 9.36208C69.6404 9.03985 69.9818 8.83084 70.7047 8.88309C70.514 8.72633 70.1826 8.47378 69.7208 8.47378C68.9477 8.48248 68.4757 9.02244 68.4757 9.56238C68.4757 10.0239 68.9577 10.8338 71.1064 10.8338C73.0743 10.8338 74.4297 9.96298 74.4297 9.03985C74.4398 8.71763 74.2992 8.42152 74.0583 8.18639ZM71.3574 3.37916C72.0501 3.37916 72.6325 3.96265 72.6325 4.79868C72.6325 5.66086 72 6.18337 71.3574 6.18337C70.7248 6.18337 70.0923 5.66086 70.0923 4.79868C70.0923 3.97136 70.6746 3.37916 71.3574 3.37916ZM33.0832 7.78568C32.4807 8.16887 32.4005 7.75956 32.4005 7.60281V7.41122V4.52862C32.4005 3.37035 31.6374 2.76074 30.1916 2.76074C28.6937 2.76074 27.8849 3.54695 27.7735 3.65522L27.7646 3.66383L27.7617 3.66645L27.6815 3.75354L28.0127 3.97126L28.083 3.91901C28.5951 3.58808 29.2277 3.37907 29.7699 3.37907C30.2618 3.37907 31.2759 3.62291 31.2759 4.38928V4.77247L31.2642 4.77449C30.055 4.98423 27.5811 5.41333 27.5811 7.00191C27.5811 8.16887 28.7458 8.48239 29.4385 8.48239C29.8602 8.48239 30.6534 8.26467 31.0551 7.72472V7.14995L30.8542 7.28929C30.6735 7.41992 30.3622 7.63764 29.8402 7.63764C29.3381 7.63764 28.806 7.41122 28.806 6.78418C28.806 6.19199 29.7297 5.67817 31.2759 5.42561V7.39379C31.2759 8.30821 31.7278 8.45627 32.0089 8.45627C32.3 8.45627 32.6414 8.30821 33.0732 8.02083L33.2037 7.92502L33.0832 7.78568ZM49.8009 7.60281C49.8009 7.75956 49.8712 8.16887 50.4837 7.78568L50.5941 7.92502L50.4534 8.02083C50.0318 8.30821 49.6804 8.45627 49.3992 8.45627C49.1181 8.45627 48.6663 8.30821 48.6663 7.39379V5.42561C47.1201 5.67817 46.1964 6.19199 46.1964 6.78418C46.1964 7.41122 46.7286 7.63764 47.2305 7.63764C47.7461 7.63764 48.056 7.42537 48.2474 7.29427L48.2547 7.28929L48.4454 7.14995V7.72472C48.0437 8.26467 47.2406 8.48239 46.8289 8.48239C46.1361 8.48239 44.9714 8.16887 44.9714 7.00191C44.9714 5.4186 47.439 4.98708 48.6428 4.77659L48.6663 4.77247V4.38928C48.6663 3.62291 47.6523 3.37907 47.1602 3.37907C46.6181 3.37907 45.9856 3.58808 45.4735 3.91901L45.4132 3.97126L45.0819 3.75354L45.1622 3.66645L45.1652 3.66372L45.1744 3.65474C45.2868 3.54467 46.0869 2.76074 47.592 2.76074C49.0378 2.76074 49.8009 3.37035 49.8009 4.52862V7.41122V7.60281ZM61.7084 3.09159V2.8042H63.4052V3.62282C63.9575 3.04805 64.61 2.75195 65.353 2.75195C66.7386 2.75195 67.2507 3.78829 67.2507 4.76368V7.91625C67.2507 8.05559 67.3812 8.16879 67.5418 8.16879H67.813V8.44748H66.0558V4.80721C66.0558 3.97989 65.6743 3.57929 64.8811 3.57929C63.8671 3.57929 63.4554 4.56338 63.4554 4.97268V8.45619H62.2706V3.34415C62.2706 3.20481 62.1401 3.09159 61.9794 3.09159H61.7084ZM58.8065 8.44797H60.5535V8.16928H60.2924C60.1318 8.16928 60.0012 8.05606 60.0012 7.91672V2.80469H59.5494L58.2341 3.20529V3.45785H58.5053C58.6659 3.45785 58.8065 3.57107 58.8065 3.71041V8.44797ZM56.789 7.27228L56.8292 7.2026L57.0802 7.24615L56.789 8.44797H51.6684V7.93415L55.1525 3.47526H53.1043C52.4817 3.47526 52.2709 3.64074 52.06 3.98038L52.0198 4.05004L51.7589 3.99779L52.0499 2.80469H56.6585V3.30109L53.1645 7.77738H55.7449C56.3673 7.77738 56.5781 7.62063 56.789 7.27228ZM43.606 8.16879C43.4454 8.16879 43.3149 8.05559 43.3149 7.91625V4.76368C43.3149 3.78829 42.8028 2.75195 41.4172 2.75195C40.6742 2.75195 40.0217 3.04805 39.4694 3.62282C39.4092 3.6838 39.3589 3.74475 39.3188 3.80571C39.0578 3.21351 38.5356 2.75195 37.612 2.75195C36.879 2.75195 36.2565 3.04805 35.7143 3.62282V2.8042H33.9974V3.09159H34.2685C34.4291 3.09159 34.5597 3.20481 34.5597 3.34415V8.45619H35.7444V4.97268C35.7444 4.56338 36.1159 3.57929 37.1199 3.57929C37.9131 3.57929 38.3047 3.97989 38.3047 4.80721V8.44748H39.4995V4.98139V4.96398C39.4995 4.55467 39.9112 3.57058 40.9253 3.57058C41.7185 3.57058 42.1101 3.97118 42.1101 4.79851V8.44748H43.8671V8.16879H43.606ZM23.926 23.6359C23.926 24.1672 24.1268 24.6026 24.7694 24.6026V24.5939H25.3015V24.9771H21.4862V19.3338H15.5925V24.9859H11.7771V24.6026H12.3092C12.9618 24.6026 13.1527 24.1585 13.1527 23.6359V12.3843H15.5925V17.7141H21.4862V12.3843H23.926V23.6359ZM42.4606 12.3843V24.9771H46.2759V24.5939H45.7437C45.1011 24.5939 44.9004 24.1585 44.9004 23.6273V12.3843H42.4606ZM57.521 22.7825C57.6817 22.617 57.8423 22.3994 57.9929 22.1294L58.3041 22.1817L57.5512 24.9859H47.2698V24.6026H47.8019C48.4445 24.6026 48.6352 24.1585 48.6352 23.6359V12.3843H51.075V22.9045C51.075 23.2441 51.326 23.4182 51.9084 23.4182H55.3221C55.6937 23.4182 56.025 23.4008 56.286 23.366C56.5471 23.3312 56.778 23.2702 56.9789 23.1745C57.1796 23.0786 57.3604 22.948 57.521 22.7825ZM85.0126 12.4028V21.486L77.9442 12.4028H75.7052V23.6371C75.7052 24.1596 75.5144 24.6038 74.8618 24.6038H74.3297V24.9869H78.145V16.0431L85.113 24.9783H87.4324V12.4028H85.0126ZM72.853 26.0353C70.3578 25.6222 67.8061 25.1997 66.246 26.7272C67.8435 26.2954 68.9406 26.7126 69.8384 27.0539C70.1539 27.1738 70.4447 27.2844 70.724 27.3455C69.1726 28.1529 68.3973 29.2312 67.2746 30.7926C66.4354 31.9597 65.4022 33.3966 63.7058 35.1921C58.9868 40.1735 50.5628 41.8457 43.5245 40.5306C38.3676 39.5636 35.54 37.2303 33.0847 35.2043C31.405 33.8182 29.8996 32.5759 27.9418 32.0134C30.1005 33.7639 30.6025 34.5825 32.0383 37.9005C33.715 41.7847 37.4199 47.8373 46.6572 49.5703C57.0489 51.5211 65.2621 46.5222 68.8967 40.9225C70.2448 38.8436 70.9086 36.592 71.5183 34.5239C72.2981 31.8789 72.9895 29.5339 74.9109 28.2339C75.1636 28.0601 75.5318 27.8707 75.9396 27.6609C76.8602 27.1874 77.9828 26.61 78.4351 25.8738C77.0399 26.7285 74.9667 26.3852 72.853 26.0353ZM33.3439 15.0577L34.8199 18.2537C35.9343 18.306 36.9887 18.4714 37.832 18.9069L34.7094 12.4102H32.9423L29.8599 18.8894C30.4422 18.6021 31.105 18.4366 31.8278 18.3408L33.3439 15.0577ZM66.9502 18.2537L65.4742 15.0577L63.9581 18.3408C63.2452 18.4366 62.5725 18.6021 61.9902 18.8894L65.0726 12.4102H66.8397L69.9623 18.9069C69.1089 18.4714 68.0646 18.306 66.9502 18.2537ZM11.5163 12.3841H0.140565L0 15.1013H0.321293C0.431737 14.6571 0.582343 14.2042 0.803233 14.0563C1.05424 13.8733 1.50606 13.7863 1.99804 13.7863H4.60855V24.977H8.43394V24.5937H7.90181C7.25922 24.5937 7.05841 24.1584 7.05841 23.6272V13.7863H9.61871C10.1107 13.7863 10.4822 13.8733 10.7332 14.0301C10.944 14.1955 11.1549 14.6571 11.2754 15.1013H11.6268L11.5163 12.3841ZM102 18.7241C102 12.7933 96.0661 12.4102 93.8171 12.4102H89.8511V23.627C89.8511 24.1582 89.6502 24.5937 89.0077 24.5937H88.4756V24.9769H93.2046C95.6544 24.9769 102 24.7853 102 18.7241ZM92.3612 23.6531V13.7775H93.3351C94.309 13.7775 96.6384 14.0126 97.9737 15.1534C99.2991 16.2942 99.4397 17.9489 99.4397 18.7153C99.4397 19.4816 99.2991 21.2669 97.9638 22.2772C96.6184 23.2874 94.8612 23.6531 92.8732 23.6531H92.3612ZM33.8367 20.0917C34.7102 20.0917 35.8347 20.1701 36.4572 21.7203L37.0294 23.3053C37.3709 24.1412 38.0937 24.5767 38.7664 24.7771C39.3589 24.9512 40.1621 24.9773 40.6039 24.9773H41.2866V24.6028C40.5236 24.6028 39.9713 24.3328 39.5195 23.2094L38.6862 21.067C38.0937 19.5518 36.5877 19.1338 33.8166 19.1338C31.0554 19.1338 29.5394 19.5518 28.957 21.067L28.1237 23.2094C27.6719 24.3328 27.1196 24.6028 26.3566 24.6028V24.9773H27.0392C27.4811 24.9773 28.2843 24.9512 28.8767 24.7771C29.5494 24.5767 30.2824 24.1412 30.6237 23.3053L31.196 21.7203C31.8285 20.1701 32.9631 20.0917 33.8367 20.0917ZM68.5762 21.7203C67.9538 20.1701 66.8292 20.0917 65.9557 20.0917C65.0822 20.0917 63.9576 20.1701 63.3251 21.7203L62.7527 23.3053C62.4013 24.1412 61.6785 24.5767 61.0058 24.7771C60.4133 24.9512 59.6101 24.9773 59.1684 24.9773H58.4856V24.6028C59.2487 24.6028 59.8009 24.3328 60.2527 23.2094L61.086 21.067C61.6684 19.5518 63.1845 19.1338 65.9456 19.1338C68.7067 19.1338 70.2129 19.5518 70.8052 21.067L71.6386 23.2094C72.0904 24.3328 72.6426 24.6028 73.4057 24.6028V24.9773H72.7229C72.2812 24.9773 71.4779 24.9512 70.8856 24.7771C70.2229 24.5767 69.4899 24.1412 69.1486 23.3053L68.5762 21.7203Z" fill="white"/>
</g>
<defs>
<clipPath id="clip0_1908_1155">
<rect width="102" height="50" fill="white"/>
</clipPath>
</defs>
</svg>
