<?xml version="1.0" encoding="utf-8"?>
<!-- Generator: Adobe Illustrator 25.2.1, SVG Export Plug-In . SVG Version: 6.00 Build 0)  -->
<svg version="1.1" id="Layer_1" xmlns="http://www.w3.org/2000/svg" xmlns:xlink="http://www.w3.org/1999/xlink" x="0px" y="0px"
	 viewBox="0 0 256 256" style="enable-background:new 0 0 256 256;" xml:space="preserve">
<style type="text/css">
	.st0{fill:url(#SVGID_1_);}
	.st1{fill:url(#SVGID_2_);}
</style>
<linearGradient id="SVGID_1_" gradientUnits="userSpaceOnUse" x1="36.3205" y1="46.0553" x2="185.2976" y2="-204.3316" gradientTransform="matrix(1 0 0 1 0 238.1102)">
	<stop  offset="0" style="stop-color:#A67C00"/>
	<stop  offset="0.13" style="stop-color:#BD951E"/>
	<stop  offset="0.36" style="stop-color:#E1BB4C"/>
	<stop  offset="0.54" style="stop-color:#F7D368"/>
	<stop  offset="0.64" style="stop-color:#FFDC73"/>
	<stop  offset="0.75" style="stop-color:#FFD044"/>
	<stop  offset="0.86" style="stop-color:#FFC71F"/>
	<stop  offset="0.95" style="stop-color:#FFC108"/>
	<stop  offset="1" style="stop-color:#FFBF00"/>
</linearGradient>
<path class="st0" d="M196.1,186.2c11.2-27.1-15.6-100.1-8.2-138.6C153,67.2,81.8,71.8,68.6,77.9c-33.1,15.4-33.8,43.4-24.8,74.5
	c7.9,32.6,2.4,74.7-15.1,103.6c9.9-10,17-22.7,22.2-35.7c8.4-22.4,12.6-46.9,9.1-70.7c-0.7-10.8-4.6-21.9-1.4-32.6
	c4.8-16,18.9-20.3,33.9-21.7c25.1-3.7,48.7-7,72.6-15.5c0.2,27.1,5.9,52,11.4,78.5c1.5,6.7,2.8,13.8,0.4,20.5
	c-5.8,19.2-26.1,20.4-42.6,24.6c-31.6,7.1-67,20.3-81.4,51.8c21.8-28.8,59.4-34.3,92.9-38.1C167.9,215.8,187.2,207.9,196.1,186.2z"
	/>
<linearGradient id="SVGID_2_" gradientUnits="userSpaceOnUse" x1="117.0633" y1="-80.6134" x2="216.9859" y2="-244.5416" gradientTransform="matrix(1 0 0 1 0 238.1102)">
	<stop  offset="0" style="stop-color:#A67C00"/>
	<stop  offset="0.1" style="stop-color:#BD951E"/>
	<stop  offset="0.27" style="stop-color:#E1BB4C"/>
	<stop  offset="0.41" style="stop-color:#F7D368"/>
	<stop  offset="0.48" style="stop-color:#FFDC73"/>
	<stop  offset="0.64" style="stop-color:#FFD044"/>
	<stop  offset="0.8" style="stop-color:#FFC71F"/>
	<stop  offset="0.92" style="stop-color:#FFC108"/>
	<stop  offset="1" style="stop-color:#FFBF00"/>
</linearGradient>
<path class="st1" d="M225.4,97c7.8-19-10.9-70.1-5.8-97c-24.4,13.8-74.2,17-83.5,21.3C113,32,112.4,51.6,118.8,73.4
	c5.5,22.9,1.7,52.3-10.6,72.5c7-7,11.9-15.9,15.5-25c5.9-15.7,8.9-32.8,6.4-49.5c-0.5-7.6-3.2-15.4-1-22.8
	c3.4-11.2,13.3-14.2,23.8-15.2c17.5-2.6,34.1-4.9,50.9-10.9c0.2,19,4.2,36.4,8,54.9c1.1,4.7,1.9,9.7,0.3,14.4
	c-4.1,13.5-18.3,14.4-29.8,17.2c-22.2,4.9-47,14.2-57,36.2c15.3-20.2,41.6-24,65-26.7C205.6,117.8,219.1,112.3,225.4,97z"/>
</svg>
