<svg width="295" height="32" viewBox="0 0 295 32" fill="none" xmlns="http://www.w3.org/2000/svg">
<g clip-path="url(#clip0_2074_302)">
<path d="M48.6774 17.4045L48.6268 21.1489C48.6268 21.1489 48.6774 18.3153 54.1422 18.3153H56.4192C56.9252 18.3153 57.0264 19.0743 57.0264 19.8333V25.1463C55.9132 26.1583 53.9904 27.3221 51.2074 27.3221C46.4509 27.3221 42.6053 22.9199 42.6053 17.4551C42.6053 12.0408 46.4509 7.588 51.2074 7.588C53.1808 7.588 54.7494 8.1952 55.6602 9.30841C56.318 10.0674 56.571 11.0288 56.4192 12.0408L56.3686 12.395L59.6576 9.61201H59.4552C59.2022 9.51081 58.848 9.25781 58.4432 9.00481C57.1276 8.094 54.9012 6.52539 51.3086 6.52539C45.2871 6.52539 40.3789 11.4842 40.3789 17.6069C40.3789 20.6429 41.5933 23.5777 43.7691 25.6523C45.7425 27.5751 48.3232 28.6377 51.0556 28.6377C51.1568 28.6377 51.258 28.6377 51.3086 28.6377C55.8626 28.4859 58.6962 25.8547 59.1516 24.9439V19.9345C59.1516 17.9105 60.1636 17.7081 60.2142 17.7081V17.4551L48.6774 17.4045Z" fill="url(#paint0_linear_2074_302)"/>
<path d="M72.5605 6.47461C66.5391 6.47461 61.6309 11.4334 61.6309 17.5561C61.6309 23.6787 66.5391 28.6376 72.5605 28.6376C78.6326 28.6376 83.5408 23.6787 83.5408 17.5561C83.5408 11.4334 78.6326 6.47461 72.5605 6.47461ZM72.5605 27.4232C67.7535 27.4232 63.8067 22.9703 63.8067 17.5561C63.8067 12.0912 67.7535 7.63842 72.5605 7.63842C77.4182 7.63842 81.3144 12.0912 81.3144 17.5561C81.365 23.0209 77.4182 27.4232 72.5605 27.4232Z" fill="url(#paint1_linear_2074_302)"/>
<path d="M94.0651 27.4232C90.1689 27.4232 88.6509 27.4738 88.6509 27.4738C88.2461 27.4738 88.1449 26.9677 88.1449 26.2087V8.95403C88.1449 6.93001 89.1569 6.72761 89.2075 6.72761V6.47461H84.957V6.72761C85.0076 6.72761 86.0196 6.93001 86.0196 8.95403V26.2087C86.0196 28.2328 85.0076 28.4352 84.957 28.4352V28.6882H100.491V24.7919C100.491 24.7919 100.542 27.4232 94.0651 27.4232Z" fill="url(#paint2_linear_2074_302)"/>
<path d="M107.626 6.47461H101.908V6.72761C101.959 6.72761 102.971 6.93001 102.971 8.95403V26.2087C102.971 28.2328 101.959 28.4352 101.908 28.4352V28.6882H107.626C116.481 28.6882 120.479 23.1221 120.479 17.6067C120.479 12.0406 116.481 6.47461 107.626 6.47461ZM105.096 8.95403C105.096 7.79022 105.956 7.73962 106.057 7.73962H107.575C113.85 7.73962 118.252 11.7876 118.252 17.6573C118.252 23.6281 114.052 27.5244 107.575 27.5244H106.057C106.007 27.5244 105.096 27.5244 105.096 26.2593V8.95403Z" fill="url(#paint3_linear_2074_302)"/>
<path d="M121.846 6.72761C121.896 6.72761 122.908 6.93001 122.908 8.95403V26.2087C122.908 28.2328 121.896 28.4352 121.846 28.4352V28.6882H137.38V24.7919C137.38 24.7919 137.38 27.4738 130.954 27.4738C127.058 27.4738 125.894 27.5244 125.894 27.5244C125.185 27.5244 125.034 27.0184 125.034 26.2593V15.7345L126.501 15.6839C131.106 15.6839 131.713 17.6573 131.713 17.6573L131.966 18.5681V12.1418L131.713 13.0021C131.713 13.0021 131.106 14.9755 126.501 14.9755H125.034V8.90343C125.034 8.54922 125.034 8.14442 125.287 7.89142C125.438 7.73962 125.641 7.68902 125.894 7.68902H130.954C137.431 7.68902 137.38 10.4214 137.38 10.4214V6.47461H121.846V6.72761Z" fill="url(#paint4_linear_2074_302)"/>
<path d="M151.397 6.47443V6.72743C151.397 6.72743 152.459 6.92983 152.459 8.95385V24.6906L143.756 8.90324C143.098 7.68884 143.149 7.18283 143.25 6.98043C143.351 6.77803 143.503 6.77803 143.503 6.72743V6.47443H138.848V6.72743C138.898 6.72743 139.91 6.92983 139.91 8.95385V26.2086C139.91 28.2326 138.898 28.435 138.848 28.435V28.688H142.086V28.435C142.035 28.435 141.023 28.2326 141.023 26.2086V8.95385C141.023 8.59964 141.023 8.34664 141.074 8.14424C141.276 8.39724 141.428 8.70084 141.631 9.00445L152.459 28.5868L152.51 28.6374H153.623V8.90324C153.623 6.87923 154.635 6.67683 154.686 6.67683V6.42383L151.397 6.47443Z" fill="url(#paint5_linear_2074_302)"/>
<path d="M174.52 6.47461H164.35V6.72761C164.4 6.72761 165.412 6.93001 165.412 8.95403V26.2087C165.412 28.2328 164.4 28.4352 164.35 28.4352V28.6882H168.6V28.4352C168.549 28.4352 167.537 28.2328 167.537 26.2087V20.6933H170.624C179.277 20.6933 183.477 18.3657 183.477 13.6093C183.527 9.35883 179.884 6.47461 174.52 6.47461ZM167.537 8.95403C167.537 8.09382 167.74 7.73962 168.195 7.73962L174.52 7.68902C178.366 7.68902 181.2 10.1178 181.2 13.5081C181.2 17.4043 177.556 19.5295 170.675 19.5801H167.588V8.95403H167.537Z" fill="url(#paint6_linear_2074_302)"/>
<path d="M205.943 8.95421V21.5031C205.943 23.5271 204.931 23.7295 204.881 23.7295V23.9825H209.131V23.7295C209.081 23.7295 208.069 23.5271 208.069 21.5031V8.95421C208.119 6.93019 209.131 6.77839 209.131 6.77839V6.52539H204.931V6.77839C204.931 6.77839 205.943 6.98079 205.943 8.95421Z" fill="url(#paint7_linear_2074_302)"/>
<path d="M204.93 27.5245C203.261 27.6257 200.781 26.9173 198.302 23.2741C197.138 21.5537 196.632 20.7441 196.379 20.3899C201.591 19.5803 204.121 17.3539 204.121 13.6094C204.121 9.35901 200.477 6.52539 195.063 6.52539H184.893V6.77839C184.943 6.77839 185.955 6.98079 185.955 8.95421V26.2089C185.955 28.2329 184.943 28.4353 184.893 28.4353V28.6883H189.143V28.4353C189.143 28.4353 188.08 28.2835 188.08 26.2089V20.6935H191.167C192.432 20.6935 193.444 20.6429 194.355 20.5923L196.885 24.3873C198.352 26.4619 200.832 28.6883 203.463 28.6883C206.701 28.6883 208.523 27.6257 209.484 25.0957L209.282 24.9945C208.624 26.1583 206.954 27.4233 204.93 27.5245ZM188.131 8.95421C188.131 8.2964 188.232 7.6892 189.092 7.6892H195.114C198.959 7.6892 201.793 10.118 201.793 13.5082C201.793 17.4045 198.15 19.5297 191.268 19.5803H188.182L188.131 8.95421Z" fill="url(#paint8_linear_2074_302)"/>
<path d="M228.916 6.47461V6.72761C228.916 6.72761 229.119 6.77821 229.27 7.03121C229.422 7.28421 229.523 7.84082 229.068 8.90343C229.068 8.90343 222.996 24.0835 222.085 26.4111C221.124 24.0835 215.052 8.90343 215.052 8.90343C214.596 7.84082 214.698 7.28421 214.849 7.03121C215.001 6.77821 215.204 6.72761 215.204 6.72761V6.47461H210.953V6.72761C210.953 6.72761 212.117 6.93001 212.927 9.00463L220.719 28.587L220.77 28.6882H222.237L230.181 9.00463C231.041 6.93001 232.155 6.72761 232.155 6.72761V6.47461H228.916Z" fill="url(#paint9_linear_2074_302)"/>
<path d="M237.973 6.72761V6.47461H233.723V6.72761C233.773 6.72761 234.785 6.93001 234.785 8.95403V26.2087C234.785 28.2328 233.773 28.4352 233.723 28.4352V28.6882H237.973V28.4352C237.922 28.4352 236.91 28.2328 236.91 26.2087V8.95403C236.91 6.93001 237.922 6.72761 237.973 6.72761Z" fill="url(#paint10_linear_2074_302)"/>
<path d="M251.636 27.4738H243.186C242.781 27.4738 242.68 26.9677 242.68 26.2087V8.95403C242.68 6.93001 243.692 6.72761 243.743 6.72761V6.47461H239.492V6.72761C239.543 6.72761 240.555 6.93001 240.555 8.95403V26.2087C240.555 28.2328 239.543 28.4352 239.492 28.4352V28.6882H258.063V24.7919C258.012 24.7413 258.063 27.4738 251.636 27.4738Z" fill="url(#paint11_linear_2074_302)"/>
<path d="M245.463 6.72761C245.513 6.72761 246.525 6.98061 246.525 8.95403V21.3005C246.525 23.3245 245.513 23.5269 245.463 23.5269V23.7799H258.012V20.2885C258.012 20.2885 258.062 23.0209 251.636 23.0209H249.511C248.802 23.0209 248.651 22.5149 248.651 21.7559V13.8623H249.511C251.434 13.8623 252.597 15.3297 252.597 15.3297V11.3828C252.597 11.3828 251.484 13.1539 249.511 13.1539H248.651V8.59982C248.651 8.24562 248.651 7.79022 248.853 7.58782C249.005 7.43602 249.207 7.38542 249.46 7.38542C249.46 7.38542 250.371 7.43602 251.585 7.43602C258.062 7.43602 257.961 10.219 257.961 10.219V6.52521L245.412 6.47461L245.463 6.72761Z" fill="url(#paint12_linear_2074_302)"/>
<path d="M267.625 17.4045L267.574 21.1489C267.574 21.1489 267.625 18.3153 273.089 18.3153H275.366C275.872 18.3153 275.974 19.0743 275.974 19.8333V25.1463C274.86 26.1583 272.938 27.3221 270.155 27.3221C265.398 27.3221 261.553 22.9199 261.553 17.4551C261.553 12.0408 265.398 7.588 270.155 7.588C272.128 7.588 273.697 8.1952 274.607 9.30841C275.265 10.0674 275.518 11.0288 275.366 12.0408L275.316 12.395L278.605 9.61201H278.403C278.15 9.51081 277.795 9.25781 277.391 9.00481C276.075 8.094 273.848 6.52539 270.256 6.52539C264.234 6.52539 259.326 11.4842 259.326 17.6069C259.326 20.6429 260.541 23.5777 262.716 25.6523C264.69 27.5751 267.27 28.6377 270.003 28.6377C270.104 28.6377 270.205 28.6377 270.256 28.6377C274.81 28.4859 277.643 25.8547 278.099 24.9439V19.9345C278.099 17.9105 279.111 17.7081 279.162 17.7081V17.4551L267.625 17.4045Z" fill="url(#paint13_linear_2074_302)"/>
<path d="M284.121 7.89142C284.272 7.73962 284.475 7.68902 284.728 7.68902H289.788C296.265 7.68902 296.214 10.4214 296.214 10.4214V6.47461H280.68V6.72761C280.73 6.72761 281.742 6.93001 281.742 8.95403V26.2087C281.742 28.2328 280.73 28.4352 280.68 28.4352V28.6882H296.214V24.7919C296.214 24.7919 296.214 27.4738 289.788 27.4738C285.892 27.4738 284.728 27.5244 284.728 27.5244C284.019 27.5244 283.868 27.0184 283.868 26.2593V15.7345L285.335 15.6839C291.002 15.6839 290.8 18.5681 290.8 18.5681V12.0912L290.547 13.0021C290.547 13.0021 289.94 14.9755 285.335 14.9755H283.868V8.90343C283.868 8.54922 283.868 8.14442 284.121 7.89142Z" fill="url(#paint14_linear_2074_302)"/>
</g>
<path d="M31.8778 0C31.8258 0.0260018 30.9938 0.312022 29.7197 0.624043C28.8096 0.832058 27.6655 1.04007 26.4175 1.14408C26.4175 1.14408 26.4175 1.14408 26.3914 1.14408C25.6634 1.19608 24.8833 1.22208 24.1033 1.17008L17.8369 1.22208H17.4728C16.0427 1.22208 14.6906 1.76812 13.7026 2.78219C13.3385 3.14622 13.0265 3.56225 12.7665 4.03028C12.3505 4.81033 12.1165 5.66839 12.1165 6.57846L12.0905 7.85255L12.0645 9.75068H13.9886V6.57846C13.9886 5.66839 14.3526 4.78433 15.0027 4.13429C15.0287 4.10829 15.0547 4.05628 15.1067 4.03028C15.7567 3.43224 16.5888 3.12022 17.4468 3.12022H24.0773H25.9754C27.1195 3.06821 28.2116 2.8862 29.1476 2.70419C28.9656 3.61425 28.7836 4.70633 28.7316 5.87641C28.7056 6.50045 28.6796 7.1505 28.7316 7.77454V14.405C28.7316 15.3151 28.3936 16.1211 27.8215 16.7452C27.7955 16.7712 27.7695 16.8232 27.7175 16.8492C27.0935 17.4732 26.2354 17.8632 25.2734 17.8632H22.1272V19.7874L24.0253 19.7614L25.2994 19.7354C26.2094 19.7354 27.0675 19.5274 27.8475 19.0853C28.2896 18.8513 28.7056 18.5393 29.0956 18.1493C30.1097 17.1352 30.6557 15.8091 30.6557 14.353V13.833L30.7338 7.72254C30.6817 6.94248 30.7077 6.16243 30.7598 5.40838C30.8638 4.18629 31.0718 3.04221 31.2798 2.13215C31.5658 0.884061 31.8518 0.0520036 31.8778 0Z" fill="url(#paint15_linear_2074_302)"/>
<path d="M25.1958 6.68359C25.1438 6.7096 24.1297 7.07362 22.5956 7.41164C21.5035 7.67166 20.1254 7.90568 18.6433 8.03569C18.6433 8.03569 18.6433 8.03569 18.6173 8.03569C17.7332 8.08769 16.7972 8.11369 15.8871 8.06169L11.7268 8.11369L9.43866 8.13969H8.34658H7.90455C6.18843 8.13969 4.57632 8.81574 3.35423 10.0118C2.9122 10.4539 2.54818 10.9479 2.23616 11.4939C1.71612 12.43 1.4561 13.4701 1.4561 14.5621L1.3781 22.5447C1.4301 23.4808 1.4041 24.3908 1.35209 25.2749C1.35209 25.2749 1.35209 25.2749 1.35209 25.3009C1.24809 26.783 0.988069 28.1611 0.728051 29.2532C0.390027 30.7873 0.0260018 31.8013 0 31.8533C0.0520036 31.8273 1.06607 31.4633 2.60018 31.0993C3.69226 30.8393 5.07035 30.6053 6.52645 30.5013C7.43652 30.4492 8.34658 30.4232 9.30865 30.4752L17.2652 30.3712C18.3573 30.3712 19.3974 30.1112 20.3334 29.5912C20.8795 29.3052 21.3735 28.9151 21.8155 28.4731C23.0376 27.251 23.6876 25.6649 23.6876 23.9228V23.2987V22.4147L23.7137 20.1265L23.7657 15.9662C23.7137 15.0302 23.7397 14.0941 23.7917 13.184C23.9217 11.7019 24.1557 10.3498 24.3897 9.25777C24.8057 7.74967 25.1698 6.7616 25.1958 6.68359ZM21.4515 23.9748C21.4515 25.0669 21.0355 26.0549 20.3594 26.783C20.3334 26.835 20.2814 26.861 20.2294 26.913C19.4754 27.6671 18.4353 28.1351 17.2912 28.1351H9.33465C8.5546 28.0831 7.80054 28.0831 7.04649 28.1351C5.66839 28.2131 4.3423 28.4211 3.25023 28.6551C3.48424 27.563 3.69226 26.237 3.77026 24.8589V22.5707V14.5881C3.77026 13.4701 4.21229 12.43 4.99235 11.6499C5.04435 11.5979 5.07035 11.5719 5.12236 11.5199C5.90241 10.8179 6.89048 10.4279 7.93055 10.4279H15.8611H18.1493C19.5274 10.3498 20.8535 10.1418 21.9455 9.90782C21.7115 10.9999 21.5035 12.326 21.4255 13.7041C21.3735 14.4581 21.3735 15.2122 21.4255 15.9922L21.4515 23.9748Z" fill="url(#paint16_linear_2074_302)"/>
<defs>
<linearGradient id="paint0_linear_2074_302" x1="-49.4569" y1="17.5436" x2="397.485" y2="17.5436" gradientUnits="userSpaceOnUse">
<stop stop-color="#723D1D"/>
<stop offset="0.2711" stop-color="#C9A551"/>
<stop offset="0.5479" stop-color="#FFE37B"/>
<stop offset="0.696" stop-color="#C9A551"/>
<stop offset="0.797" stop-color="#723D1D"/>
</linearGradient>
<linearGradient id="paint1_linear_2074_302" x1="-49.4571" y1="17.5409" x2="397.485" y2="17.5409" gradientUnits="userSpaceOnUse">
<stop stop-color="#723D1D"/>
<stop offset="0.2711" stop-color="#C9A551"/>
<stop offset="0.5479" stop-color="#FFE37B"/>
<stop offset="0.696" stop-color="#C9A551"/>
<stop offset="0.797" stop-color="#723D1D"/>
</linearGradient>
<linearGradient id="paint2_linear_2074_302" x1="-49.4578" y1="17.5687" x2="397.484" y2="17.5687" gradientUnits="userSpaceOnUse">
<stop stop-color="#723D1D"/>
<stop offset="0.2711" stop-color="#C9A551"/>
<stop offset="0.5479" stop-color="#FFE37B"/>
<stop offset="0.696" stop-color="#C9A551"/>
<stop offset="0.797" stop-color="#723D1D"/>
</linearGradient>
<linearGradient id="paint3_linear_2074_302" x1="-49.4577" y1="17.5738" x2="397.484" y2="17.5738" gradientUnits="userSpaceOnUse">
<stop stop-color="#723D1D"/>
<stop offset="0.2711" stop-color="#C9A551"/>
<stop offset="0.5479" stop-color="#FFE37B"/>
<stop offset="0.696" stop-color="#C9A551"/>
<stop offset="0.797" stop-color="#723D1D"/>
</linearGradient>
<linearGradient id="paint4_linear_2074_302" x1="-49.4567" y1="17.5663" x2="397.485" y2="17.5663" gradientUnits="userSpaceOnUse">
<stop stop-color="#723D1D"/>
<stop offset="0.2711" stop-color="#C9A551"/>
<stop offset="0.5479" stop-color="#FFE37B"/>
<stop offset="0.696" stop-color="#C9A551"/>
<stop offset="0.797" stop-color="#723D1D"/>
</linearGradient>
<linearGradient id="paint5_linear_2074_302" x1="-49.4566" y1="17.5736" x2="397.486" y2="17.5736" gradientUnits="userSpaceOnUse">
<stop stop-color="#723D1D"/>
<stop offset="0.2711" stop-color="#C9A551"/>
<stop offset="0.5479" stop-color="#FFE37B"/>
<stop offset="0.696" stop-color="#C9A551"/>
<stop offset="0.797" stop-color="#723D1D"/>
</linearGradient>
<linearGradient id="paint6_linear_2074_302" x1="-49.4572" y1="17.5738" x2="397.485" y2="17.5738" gradientUnits="userSpaceOnUse">
<stop stop-color="#723D1D"/>
<stop offset="0.2711" stop-color="#C9A551"/>
<stop offset="0.5479" stop-color="#FFE37B"/>
<stop offset="0.696" stop-color="#C9A551"/>
<stop offset="0.797" stop-color="#723D1D"/>
</linearGradient>
<linearGradient id="paint7_linear_2074_302" x1="-49.4565" y1="15.2337" x2="397.485" y2="15.2337" gradientUnits="userSpaceOnUse">
<stop stop-color="#723D1D"/>
<stop offset="0.2711" stop-color="#C9A551"/>
<stop offset="0.5479" stop-color="#FFE37B"/>
<stop offset="0.696" stop-color="#C9A551"/>
<stop offset="0.797" stop-color="#723D1D"/>
</linearGradient>
<linearGradient id="paint8_linear_2074_302" x1="-49.4579" y1="17.6094" x2="397.484" y2="17.6094" gradientUnits="userSpaceOnUse">
<stop stop-color="#723D1D"/>
<stop offset="0.2711" stop-color="#C9A551"/>
<stop offset="0.5479" stop-color="#FFE37B"/>
<stop offset="0.696" stop-color="#C9A551"/>
<stop offset="0.797" stop-color="#723D1D"/>
</linearGradient>
<linearGradient id="paint9_linear_2074_302" x1="-49.4564" y1="17.5763" x2="397.485" y2="17.5763" gradientUnits="userSpaceOnUse">
<stop stop-color="#723D1D"/>
<stop offset="0.2711" stop-color="#C9A551"/>
<stop offset="0.5479" stop-color="#FFE37B"/>
<stop offset="0.696" stop-color="#C9A551"/>
<stop offset="0.797" stop-color="#723D1D"/>
</linearGradient>
<linearGradient id="paint10_linear_2074_302" x1="-49.4569" y1="17.5688" x2="397.485" y2="17.5688" gradientUnits="userSpaceOnUse">
<stop stop-color="#723D1D"/>
<stop offset="0.2711" stop-color="#C9A551"/>
<stop offset="0.5479" stop-color="#FFE37B"/>
<stop offset="0.696" stop-color="#C9A551"/>
<stop offset="0.797" stop-color="#723D1D"/>
</linearGradient>
<linearGradient id="paint11_linear_2074_302" x1="-49.4561" y1="17.5687" x2="397.486" y2="17.5687" gradientUnits="userSpaceOnUse">
<stop stop-color="#723D1D"/>
<stop offset="0.2711" stop-color="#C9A551"/>
<stop offset="0.5479" stop-color="#FFE37B"/>
<stop offset="0.696" stop-color="#C9A551"/>
<stop offset="0.797" stop-color="#723D1D"/>
</linearGradient>
<linearGradient id="paint12_linear_2074_302" x1="-49.4563" y1="15.1248" x2="397.485" y2="15.1248" gradientUnits="userSpaceOnUse">
<stop stop-color="#723D1D"/>
<stop offset="0.2711" stop-color="#C9A551"/>
<stop offset="0.5479" stop-color="#FFE37B"/>
<stop offset="0.696" stop-color="#C9A551"/>
<stop offset="0.797" stop-color="#723D1D"/>
</linearGradient>
<linearGradient id="paint13_linear_2074_302" x1="-49.4574" y1="17.5436" x2="397.485" y2="17.5436" gradientUnits="userSpaceOnUse">
<stop stop-color="#723D1D"/>
<stop offset="0.2711" stop-color="#C9A551"/>
<stop offset="0.5479" stop-color="#FFE37B"/>
<stop offset="0.696" stop-color="#C9A551"/>
<stop offset="0.797" stop-color="#723D1D"/>
</linearGradient>
<linearGradient id="paint14_linear_2074_302" x1="-49.4573" y1="17.5738" x2="397.485" y2="17.5738" gradientUnits="userSpaceOnUse">
<stop stop-color="#723D1D"/>
<stop offset="0.2711" stop-color="#C9A551"/>
<stop offset="0.5479" stop-color="#FFE37B"/>
<stop offset="0.696" stop-color="#C9A551"/>
<stop offset="0.797" stop-color="#723D1D"/>
</linearGradient>
<linearGradient id="paint15_linear_2074_302" x1="22.4132" y1="25.4103" x2="21.8547" y2="-0.839108" gradientUnits="userSpaceOnUse">
<stop offset="0.0722" stop-color="#723D1D"/>
<stop offset="0.3782" stop-color="#C9A551"/>
<stop offset="0.6744" stop-color="#FFE37B"/>
<stop offset="0.8398" stop-color="#C9A551"/>
<stop offset="1" stop-color="#723D1D"/>
</linearGradient>
<linearGradient id="paint16_linear_2074_302" x1="13.0092" y1="38.6131" x2="12.3076" y2="5.63565" gradientUnits="userSpaceOnUse">
<stop offset="0.0722" stop-color="#723D1D"/>
<stop offset="0.3782" stop-color="#C9A551"/>
<stop offset="0.6744" stop-color="#FFE37B"/>
<stop offset="0.8398" stop-color="#C9A551"/>
<stop offset="1" stop-color="#723D1D"/>
</linearGradient>
<clipPath id="clip0_2074_302">
<rect width="257.556" height="24.2882" fill="white" transform="translate(37.4434 5.56641)"/>
</clipPath>
</defs>
</svg>
