<svg width="295" height="32" viewBox="0 0 295 32" fill="none" xmlns="http://www.w3.org/2000/svg">
<g clip-path="url(#clip0_2083_404)">
<path d="M48.6775 17.4045L48.6269 21.1489C48.6269 21.1489 48.6775 18.3153 54.1423 18.3153H56.4193C56.9253 18.3153 57.0265 19.0743 57.0265 19.8333V25.1463C55.9133 26.1583 53.9905 27.3221 51.2075 27.3221C46.4511 27.3221 42.6054 22.9199 42.6054 17.4551C42.6054 12.0408 46.4511 7.588 51.2075 7.588C53.1809 7.588 54.7495 8.1952 55.6603 9.30841C56.3181 10.0674 56.5711 11.0288 56.4193 12.0408L56.3687 12.395L59.6578 9.61201H59.4554C59.2024 9.51081 58.8482 9.25781 58.4434 9.00481C57.1277 8.094 54.9013 6.52539 51.3087 6.52539C45.2873 6.52539 40.379 11.4842 40.379 17.6069C40.379 20.6429 41.5934 23.5777 43.7693 25.6523C45.7427 27.5751 48.3233 28.6377 51.0557 28.6377C51.1569 28.6377 51.2581 28.6377 51.3087 28.6377C55.8627 28.4859 58.6964 25.8547 59.1518 24.9439V19.9345C59.1518 17.9105 60.1638 17.7081 60.2144 17.7081V17.4551L48.6775 17.4045Z" fill="url(#paint0_linear_2083_404)"/>
<path d="M72.5609 6.47461C66.5395 6.47461 61.6312 11.4334 61.6312 17.5561C61.6312 23.6787 66.5395 28.6376 72.5609 28.6376C78.6329 28.6376 83.5412 23.6787 83.5412 17.5561C83.5412 11.4334 78.6329 6.47461 72.5609 6.47461ZM72.5609 27.4232C67.7539 27.4232 63.807 22.9703 63.807 17.5561C63.807 12.0912 67.7539 7.63842 72.5609 7.63842C77.4185 7.63842 81.3148 12.0912 81.3148 17.5561C81.3654 23.0209 77.4185 27.4232 72.5609 27.4232Z" fill="url(#paint1_linear_2083_404)"/>
<path d="M94.0659 27.4232C90.1697 27.4232 88.6517 27.4738 88.6517 27.4738C88.2469 27.4738 88.1457 26.9677 88.1457 26.2087V8.95403C88.1457 6.93001 89.1577 6.72761 89.2083 6.72761V6.47461H84.9579V6.72761C85.0085 6.72761 86.0205 6.93001 86.0205 8.95403V26.2087C86.0205 28.2328 85.0085 28.4352 84.9579 28.4352V28.6882H100.492V24.7919C100.492 24.7919 100.543 27.4232 94.0659 27.4232Z" fill="url(#paint2_linear_2083_404)"/>
<path d="M107.627 6.47461H101.909V6.72761C101.96 6.72761 102.972 6.93001 102.972 8.95403V26.2087C102.972 28.2328 101.96 28.4352 101.909 28.4352V28.6882H107.627C116.482 28.6882 120.479 23.1221 120.479 17.6067C120.479 12.0406 116.482 6.47461 107.627 6.47461ZM105.097 8.95403C105.097 7.79022 105.957 7.73962 106.058 7.73962H107.576C113.851 7.73962 118.253 11.7876 118.253 17.6573C118.253 23.6281 114.053 27.5244 107.576 27.5244H106.058C106.008 27.5244 105.097 27.5244 105.097 26.2593V8.95403Z" fill="url(#paint3_linear_2083_404)"/>
<path d="M121.846 6.72761C121.896 6.72761 122.908 6.93001 122.908 8.95403V26.2087C122.908 28.2328 121.896 28.4352 121.846 28.4352V28.6882H137.38V24.7919C137.38 24.7919 137.38 27.4738 130.954 27.4738C127.057 27.4738 125.894 27.5244 125.894 27.5244C125.185 27.5244 125.033 27.0184 125.033 26.2593V15.7345L126.501 15.6839C131.105 15.6839 131.713 17.6573 131.713 17.6573L131.966 18.5681V12.1418L131.713 13.0021C131.713 13.0021 131.105 14.9755 126.501 14.9755H125.033V8.90343C125.033 8.54922 125.033 8.14442 125.286 7.89142C125.438 7.73962 125.641 7.68902 125.894 7.68902H130.954C137.43 7.68902 137.38 10.4214 137.38 10.4214V6.47461H121.846V6.72761Z" fill="url(#paint4_linear_2083_404)"/>
<path d="M151.396 6.47443V6.72743C151.396 6.72743 152.459 6.92983 152.459 8.95385V24.6906L143.756 8.90324C143.098 7.68884 143.148 7.18283 143.25 6.98043C143.351 6.77803 143.503 6.77803 143.503 6.72743V6.47443H138.847V6.72743C138.898 6.72743 139.91 6.92983 139.91 8.95385V26.2086C139.91 28.2326 138.898 28.435 138.847 28.435V28.688H142.086V28.435C142.035 28.435 141.023 28.2326 141.023 26.2086V8.95385C141.023 8.59964 141.023 8.34664 141.074 8.14424C141.276 8.39724 141.428 8.70084 141.63 9.00445L152.459 28.5868L152.509 28.6374H153.623V8.90324C153.623 6.87923 154.635 6.67683 154.685 6.67683V6.42383L151.396 6.47443Z" fill="url(#paint5_linear_2083_404)"/>
<path d="M174.521 6.47461H164.35V6.72761C164.4 6.72761 165.412 6.93001 165.412 8.95403V26.2087C165.412 28.2328 164.4 28.4352 164.35 28.4352V28.6882H168.6V28.4352C168.55 28.4352 167.538 28.2328 167.538 26.2087V20.6933H170.624C179.277 20.6933 183.477 18.3657 183.477 13.6093C183.527 9.35883 179.884 6.47461 174.521 6.47461ZM167.538 8.95403C167.538 8.09382 167.74 7.73962 168.195 7.73962L174.521 7.68902C178.366 7.68902 181.2 10.1178 181.2 13.5081C181.2 17.4043 177.557 19.5295 170.675 19.5801H167.588V8.95403H167.538Z" fill="url(#paint6_linear_2083_404)"/>
<path d="M205.943 8.95421V21.5031C205.943 23.5271 204.931 23.7295 204.881 23.7295V23.9825H209.131V23.7295C209.081 23.7295 208.069 23.5271 208.069 21.5031V8.95421C208.119 6.93019 209.131 6.77839 209.131 6.77839V6.52539H204.931V6.77839C204.931 6.77839 205.943 6.98079 205.943 8.95421Z" fill="url(#paint7_linear_2083_404)"/>
<path d="M204.931 27.5245C203.261 27.6257 200.782 26.9173 198.303 23.2741C197.139 21.5537 196.633 20.7441 196.38 20.3899C201.592 19.5803 204.122 17.3539 204.122 13.6094C204.122 9.35901 200.478 6.52539 195.064 6.52539H184.894V6.77839C184.944 6.77839 185.956 6.98079 185.956 8.95421V26.2089C185.956 28.2329 184.944 28.4353 184.894 28.4353V28.6883H189.144V28.4353C189.144 28.4353 188.081 28.2835 188.081 26.2089V20.6935H191.168C192.433 20.6935 193.445 20.6429 194.356 20.5923L196.886 24.3873C198.353 26.4619 200.833 28.6883 203.464 28.6883C206.702 28.6883 208.524 27.6257 209.485 25.0957L209.283 24.9945C208.625 26.1583 206.955 27.4233 204.931 27.5245ZM188.132 8.95421C188.132 8.2964 188.233 7.6892 189.093 7.6892H195.115C198.96 7.6892 201.794 10.118 201.794 13.5082C201.794 17.4045 198.151 19.5297 191.269 19.5803H188.183L188.132 8.95421Z" fill="url(#paint8_linear_2083_404)"/>
<path d="M228.916 6.47461V6.72761C228.916 6.72761 229.118 6.77821 229.27 7.03121C229.422 7.28421 229.523 7.84082 229.068 8.90343C229.068 8.90343 222.996 24.0835 222.085 26.4111C221.123 24.0835 215.051 8.90343 215.051 8.90343C214.596 7.84082 214.697 7.28421 214.849 7.03121C215.001 6.77821 215.203 6.72761 215.203 6.72761V6.47461H210.953V6.72761C210.953 6.72761 212.117 6.93001 212.926 9.00463L220.719 28.587L220.769 28.6882H222.237L230.181 9.00463C231.041 6.93001 232.154 6.72761 232.154 6.72761V6.47461H228.916Z" fill="url(#paint9_linear_2083_404)"/>
<path d="M237.973 6.72761V6.47461H233.723V6.72761C233.774 6.72761 234.786 6.93001 234.786 8.95403V26.2087C234.786 28.2328 233.774 28.4352 233.723 28.4352V28.6882H237.973V28.4352C237.923 28.4352 236.911 28.2328 236.911 26.2087V8.95403C236.911 6.93001 237.923 6.72761 237.973 6.72761Z" fill="url(#paint10_linear_2083_404)"/>
<path d="M251.635 27.4738H243.185C242.78 27.4738 242.679 26.9677 242.679 26.2087V8.95403C242.679 6.93001 243.691 6.72761 243.742 6.72761V6.47461H239.491V6.72761C239.542 6.72761 240.554 6.93001 240.554 8.95403V26.2087C240.554 28.2328 239.542 28.4352 239.491 28.4352V28.6882H258.062V24.7919C258.011 24.7413 258.062 27.4738 251.635 27.4738Z" fill="url(#paint11_linear_2083_404)"/>
<path d="M245.462 6.72761C245.513 6.72761 246.525 6.98061 246.525 8.95403V21.3005C246.525 23.3245 245.513 23.5269 245.462 23.5269V23.7799H258.011V20.2885C258.011 20.2885 258.062 23.0209 251.635 23.0209H249.51C248.802 23.0209 248.65 22.5149 248.65 21.7559V13.8623H249.51C251.433 13.8623 252.597 15.3297 252.597 15.3297V11.3828C252.597 11.3828 251.484 13.1539 249.51 13.1539H248.65V8.59982C248.65 8.24562 248.65 7.79022 248.852 7.58782C249.004 7.43602 249.207 7.38542 249.46 7.38542C249.46 7.38542 250.37 7.43602 251.585 7.43602C258.062 7.43602 257.961 10.219 257.961 10.219V6.52521L245.412 6.47461L245.462 6.72761Z" fill="url(#paint12_linear_2083_404)"/>
<path d="M267.625 17.4045L267.575 21.1489C267.575 21.1489 267.625 18.3153 273.09 18.3153H275.367C275.873 18.3153 275.974 19.0743 275.974 19.8333V25.1463C274.861 26.1583 272.938 27.3221 270.155 27.3221C265.399 27.3221 261.553 22.9199 261.553 17.4551C261.553 12.0408 265.399 7.588 270.155 7.588C272.129 7.588 273.697 8.1952 274.608 9.30841C275.266 10.0674 275.519 11.0288 275.367 12.0408L275.316 12.395L278.605 9.61201H278.403C278.15 9.51081 277.796 9.25781 277.391 9.00481C276.075 8.094 273.849 6.52539 270.256 6.52539C264.235 6.52539 259.327 11.4842 259.327 17.6069C259.327 20.6429 260.541 23.5777 262.717 25.6523C264.69 27.5751 267.271 28.6377 270.003 28.6377C270.105 28.6377 270.206 28.6377 270.256 28.6377C274.81 28.4859 277.644 25.8547 278.099 24.9439V19.9345C278.099 17.9105 279.111 17.7081 279.162 17.7081V17.4551L267.625 17.4045Z" fill="url(#paint13_linear_2083_404)"/>
<path d="M284.121 7.89142C284.273 7.73962 284.475 7.68902 284.728 7.68902H289.788C296.265 7.68902 296.214 10.4214 296.214 10.4214V6.47461H280.68V6.72761C280.731 6.72761 281.743 6.93001 281.743 8.95403V26.2087C281.743 28.2328 280.731 28.4352 280.68 28.4352V28.6882H296.214V24.7919C296.214 24.7919 296.214 27.4738 289.788 27.4738C285.892 27.4738 284.728 27.5244 284.728 27.5244C284.02 27.5244 283.868 27.0184 283.868 26.2593V15.7345L285.335 15.6839C291.003 15.6839 290.8 18.5681 290.8 18.5681V12.0912L290.547 13.0021C290.547 13.0021 289.94 14.9755 285.335 14.9755H283.868V8.90343C283.868 8.54922 283.868 8.14442 284.121 7.89142Z" fill="url(#paint14_linear_2083_404)"/>
</g>
<path d="M31.8782 0C31.8262 0.0260018 30.9941 0.312022 29.72 0.624043C28.81 0.832058 27.6659 1.04007 26.4178 1.14408C26.4178 1.14408 26.4178 1.14408 26.3918 1.14408C25.6638 1.19608 24.8837 1.22208 24.1037 1.17008L17.8372 1.22208H17.4732C16.0431 1.22208 14.691 1.76812 13.7029 2.78219C13.3389 3.14622 13.0269 3.56225 12.7669 4.03028C12.3508 4.81033 12.1168 5.66839 12.1168 6.57846L12.0908 7.85255L12.0648 9.75068H13.989V6.57846C13.989 5.66839 14.353 4.78433 15.003 4.13429C15.029 4.10829 15.055 4.05628 15.107 4.03028C15.7571 3.43224 16.5891 3.12022 17.4472 3.12022H24.0777H25.9758C27.1199 3.06821 28.2119 2.8862 29.148 2.70419C28.966 3.61425 28.784 4.70633 28.732 5.87641C28.706 6.50045 28.68 7.1505 28.732 7.77454V14.405C28.732 15.3151 28.394 16.1211 27.8219 16.7452C27.7959 16.7712 27.7699 16.8232 27.7179 16.8492C27.0939 17.4732 26.2358 17.8632 25.2737 17.8632H22.1275V19.7874L24.0257 19.7614L25.2997 19.7354C26.2098 19.7354 27.0679 19.5274 27.8479 19.0853C28.2899 18.8513 28.706 18.5393 29.096 18.1493C30.1101 17.1352 30.6561 15.8091 30.6561 14.353V13.833L30.7341 7.72254C30.6821 6.94248 30.7081 6.16243 30.7601 5.40838C30.8641 4.18629 31.0721 3.04221 31.2802 2.13215C31.5662 0.884061 31.8522 0.0520036 31.8782 0Z" fill="url(#paint15_linear_2083_404)"/>
<path d="M25.1958 6.68359C25.1438 6.7096 24.1297 7.07362 22.5956 7.41164C21.5035 7.67166 20.1254 7.90568 18.6433 8.03569C18.6433 8.03569 18.6433 8.03569 18.6173 8.03569C17.7332 8.08769 16.7972 8.11369 15.8871 8.06169L11.7268 8.11369L9.43866 8.13969H8.34658H7.90455C6.18843 8.13969 4.57632 8.81574 3.35423 10.0118C2.9122 10.4539 2.54818 10.9479 2.23616 11.4939C1.71612 12.43 1.4561 13.4701 1.4561 14.5621L1.3781 22.5447C1.4301 23.4808 1.4041 24.3908 1.35209 25.2749C1.35209 25.2749 1.35209 25.2749 1.35209 25.3009C1.24809 26.783 0.988069 28.1611 0.728051 29.2532C0.390027 30.7873 0.0260018 31.8013 0 31.8533C0.0520036 31.8273 1.06607 31.4633 2.60018 31.0993C3.69226 30.8393 5.07035 30.6053 6.52645 30.5013C7.43652 30.4492 8.34658 30.4232 9.30865 30.4752L17.2652 30.3712C18.3573 30.3712 19.3974 30.1112 20.3334 29.5912C20.8795 29.3052 21.3735 28.9151 21.8155 28.4731C23.0376 27.251 23.6876 25.6649 23.6876 23.9228V23.2987V22.4147L23.7137 20.1265L23.7657 15.9662C23.7137 15.0302 23.7397 14.0941 23.7917 13.184C23.9217 11.7019 24.1557 10.3498 24.3897 9.25777C24.8057 7.74967 25.1698 6.7616 25.1958 6.68359ZM21.4515 23.9748C21.4515 25.0669 21.0355 26.0549 20.3594 26.783C20.3334 26.835 20.2814 26.861 20.2294 26.913C19.4754 27.6671 18.4353 28.1351 17.2912 28.1351H9.33465C8.5546 28.0831 7.80054 28.0831 7.04649 28.1351C5.66839 28.2131 4.3423 28.4211 3.25023 28.6551C3.48424 27.563 3.69226 26.237 3.77026 24.8589V22.5707V14.5881C3.77026 13.4701 4.21229 12.43 4.99235 11.6499C5.04435 11.5979 5.07035 11.5719 5.12236 11.5199C5.90241 10.8179 6.89048 10.4279 7.93055 10.4279H15.8611H18.1493C19.5274 10.3498 20.8535 10.1418 21.9455 9.90782C21.7115 10.9999 21.5035 12.326 21.4255 13.7041C21.3735 14.4581 21.3735 15.2122 21.4255 15.9922L21.4515 23.9748Z" fill="url(#paint16_linear_2083_404)"/>
<defs>
<linearGradient id="paint0_linear_2083_404" x1="-49.4568" y1="17.5436" x2="397.485" y2="17.5436" gradientUnits="userSpaceOnUse">
<stop stop-color="#723D1D"/>
<stop offset="0.2711" stop-color="#C9A551"/>
<stop offset="0.5479" stop-color="#FFE37B"/>
<stop offset="0.696" stop-color="#C9A551"/>
<stop offset="0.797" stop-color="#723D1D"/>
</linearGradient>
<linearGradient id="paint1_linear_2083_404" x1="-49.4568" y1="17.5409" x2="397.485" y2="17.5409" gradientUnits="userSpaceOnUse">
<stop stop-color="#723D1D"/>
<stop offset="0.2711" stop-color="#C9A551"/>
<stop offset="0.5479" stop-color="#FFE37B"/>
<stop offset="0.696" stop-color="#C9A551"/>
<stop offset="0.797" stop-color="#723D1D"/>
</linearGradient>
<linearGradient id="paint2_linear_2083_404" x1="-49.4569" y1="17.5687" x2="397.485" y2="17.5687" gradientUnits="userSpaceOnUse">
<stop stop-color="#723D1D"/>
<stop offset="0.2711" stop-color="#C9A551"/>
<stop offset="0.5479" stop-color="#FFE37B"/>
<stop offset="0.696" stop-color="#C9A551"/>
<stop offset="0.797" stop-color="#723D1D"/>
</linearGradient>
<linearGradient id="paint3_linear_2083_404" x1="-49.4569" y1="17.5738" x2="397.485" y2="17.5738" gradientUnits="userSpaceOnUse">
<stop stop-color="#723D1D"/>
<stop offset="0.2711" stop-color="#C9A551"/>
<stop offset="0.5479" stop-color="#FFE37B"/>
<stop offset="0.696" stop-color="#C9A551"/>
<stop offset="0.797" stop-color="#723D1D"/>
</linearGradient>
<linearGradient id="paint4_linear_2083_404" x1="-49.4568" y1="17.5663" x2="397.485" y2="17.5663" gradientUnits="userSpaceOnUse">
<stop stop-color="#723D1D"/>
<stop offset="0.2711" stop-color="#C9A551"/>
<stop offset="0.5479" stop-color="#FFE37B"/>
<stop offset="0.696" stop-color="#C9A551"/>
<stop offset="0.797" stop-color="#723D1D"/>
</linearGradient>
<linearGradient id="paint5_linear_2083_404" x1="-49.4569" y1="17.5736" x2="397.485" y2="17.5736" gradientUnits="userSpaceOnUse">
<stop stop-color="#723D1D"/>
<stop offset="0.2711" stop-color="#C9A551"/>
<stop offset="0.5479" stop-color="#FFE37B"/>
<stop offset="0.696" stop-color="#C9A551"/>
<stop offset="0.797" stop-color="#723D1D"/>
</linearGradient>
<linearGradient id="paint6_linear_2083_404" x1="-49.457" y1="17.5738" x2="397.485" y2="17.5738" gradientUnits="userSpaceOnUse">
<stop stop-color="#723D1D"/>
<stop offset="0.473385" stop-color="#C9A551"/>
<stop offset="0.497217" stop-color="#FFE19A"/>
<stop offset="0.518404" stop-color="#B38B44"/>
<stop offset="0.696" stop-color="#C9A551"/>
<stop offset="0.797" stop-color="#723D1D"/>
</linearGradient>
<linearGradient id="paint7_linear_2083_404" x1="-49.4567" y1="15.2337" x2="397.485" y2="15.2337" gradientUnits="userSpaceOnUse">
<stop stop-color="#723D1D"/>
<stop offset="0.2711" stop-color="#C9A551"/>
<stop offset="0.5479" stop-color="#D6BD5F"/>
<stop offset="0.696" stop-color="#C9A551"/>
<stop offset="0.797" stop-color="#723D1D"/>
</linearGradient>
<linearGradient id="paint8_linear_2083_404" x1="-49.4569" y1="17.6094" x2="397.485" y2="17.6094" gradientUnits="userSpaceOnUse">
<stop stop-color="#723D1D"/>
<stop offset="0.527928" stop-color="#C9A551"/>
<stop offset="0.541046" stop-color="#FCE39E" stop-opacity="0.72"/>
<stop offset="0.561692" stop-color="#C9A551"/>
<stop offset="1" stop-color="#723D1D"/>
</linearGradient>
<linearGradient id="paint9_linear_2083_404" x1="-49.4568" y1="17.5763" x2="397.485" y2="17.5763" gradientUnits="userSpaceOnUse">
<stop stop-color="#723D1D"/>
<stop offset="0.2711" stop-color="#C9A551"/>
<stop offset="0.5479" stop-color="#FFE37B"/>
<stop offset="0.696" stop-color="#C9A551"/>
<stop offset="0.797" stop-color="#723D1D"/>
</linearGradient>
<linearGradient id="paint10_linear_2083_404" x1="-49.4567" y1="17.5688" x2="397.485" y2="17.5688" gradientUnits="userSpaceOnUse">
<stop stop-color="#723D1D"/>
<stop offset="0.2711" stop-color="#C9A551"/>
<stop offset="0.5479" stop-color="#FFE37B"/>
<stop offset="0.696" stop-color="#C9A551"/>
<stop offset="0.797" stop-color="#723D1D"/>
</linearGradient>
<linearGradient id="paint11_linear_2083_404" x1="-49.457" y1="17.5687" x2="397.485" y2="17.5687" gradientUnits="userSpaceOnUse">
<stop stop-color="#723D1D"/>
<stop offset="0.2711" stop-color="#C9A551"/>
<stop offset="0.5479" stop-color="#FFE37B"/>
<stop offset="0.696" stop-color="#C9A551"/>
<stop offset="0.797" stop-color="#723D1D"/>
</linearGradient>
<linearGradient id="paint12_linear_2083_404" x1="-49.4568" y1="15.1248" x2="397.485" y2="15.1248" gradientUnits="userSpaceOnUse">
<stop stop-color="#723D1D"/>
<stop offset="0.2711" stop-color="#C9A551"/>
<stop offset="0.5479" stop-color="#FFE37B"/>
<stop offset="0.696" stop-color="#C9A551"/>
<stop offset="0.797" stop-color="#723D1D"/>
</linearGradient>
<linearGradient id="paint13_linear_2083_404" x1="-49.457" y1="17.5436" x2="397.485" y2="17.5436" gradientUnits="userSpaceOnUse">
<stop stop-color="#723D1D"/>
<stop offset="0.2711" stop-color="#C9A551"/>
<stop offset="0.5479" stop-color="#FFE37B"/>
<stop offset="0.696" stop-color="#C9A551"/>
<stop offset="0.797" stop-color="#723D1D"/>
</linearGradient>
<linearGradient id="paint14_linear_2083_404" x1="-49.4568" y1="17.5738" x2="397.485" y2="17.5738" gradientUnits="userSpaceOnUse">
<stop stop-color="#723D1D"/>
<stop offset="0.2711" stop-color="#C9A551"/>
<stop offset="0.5479" stop-color="#957E29"/>
<stop offset="0.696" stop-color="#C9A551"/>
<stop offset="0.797" stop-color="#D8A383"/>
</linearGradient>
<linearGradient id="paint15_linear_2083_404" x1="22.4136" y1="25.4103" x2="21.8551" y2="-0.839108" gradientUnits="userSpaceOnUse">
<stop offset="0.0722" stop-color="#723D1D"/>
<stop offset="0.3782" stop-color="#C9A551"/>
<stop offset="0.6744" stop-color="#FFE37B"/>
<stop offset="0.8398" stop-color="#C9A551"/>
<stop offset="1" stop-color="#723D1D"/>
</linearGradient>
<linearGradient id="paint16_linear_2083_404" x1="13.0092" y1="38.6131" x2="12.3076" y2="5.63565" gradientUnits="userSpaceOnUse">
<stop offset="0.0722" stop-color="#723D1D"/>
<stop offset="0.3782" stop-color="#C9A551"/>
<stop offset="0.6744" stop-color="#FFE37B"/>
<stop offset="0.8398" stop-color="#C9A551"/>
<stop offset="1" stop-color="#723D1D"/>
</linearGradient>
<clipPath id="clip0_2083_404">
<rect width="257.556" height="24.2882" fill="white" transform="translate(37.4442 5.56641)"/>
</clipPath>
</defs>
</svg>
