<svg width="252" height="21" viewBox="0 0 252 21" fill="none" xmlns="http://www.w3.org/2000/svg">
<path d="M21.1297 0C21.0852 0 20.5514 0.221053 19.7062 0.397895C19.0834 0.530526 18.3272 0.663158 17.5265 0.751579C17.0372 0.795789 16.5478 0.795789 16.014 0.751579L11.8771 0.795789H11.6546C10.7205 0.795789 9.83081 1.14947 9.16356 1.81263C8.89665 2.07789 8.71872 2.34316 8.54078 2.60842C8.27388 3.13895 8.09595 3.71368 8.09595 4.28842V5.12842V6.36632H9.38597V4.33263C9.38597 3.71368 9.60839 3.13895 10.0532 2.69684C10.0532 2.69684 10.0977 2.65263 10.1422 2.60842C10.587 2.21053 11.1208 1.98947 11.6991 1.98947H16.103H17.3486C18.1048 1.94526 18.8165 1.85684 19.4393 1.72421C19.3058 2.34316 19.2169 3.05053 19.1724 3.80211C19.1724 4.2 19.1279 4.64211 19.1724 5.04V9.41684C19.1724 9.99158 18.95 10.5663 18.5496 10.9642C18.5496 10.9642 18.5051 11.0084 18.4606 11.0526C18.0603 11.4505 17.482 11.7158 16.8147 11.7158H14.6795V12.9979H15.9251H16.7703C17.3486 12.9979 17.9713 12.8653 18.4606 12.5558C18.772 12.3789 19.0389 12.2021 19.2613 11.9368C19.9286 11.2737 20.2845 10.3895 20.2845 9.46105V9.10737L20.329 5.08421C20.2845 4.55368 20.329 4.06737 20.329 3.53684C20.4179 2.74105 20.5514 1.98947 20.6848 1.37053C20.9072 0.574737 21.1297 0.0442105 21.1297 0Z" fill="#2C392C"/>
<path d="M16.7259 4.4209C16.6814 4.4209 16.0141 4.68616 14.991 4.90721C14.2348 5.03985 13.3451 5.21669 12.3665 5.30511C11.7882 5.34932 11.1654 5.34932 10.5426 5.30511L7.78464 5.34932H6.2722H5.56046H5.24907C4.0925 5.34932 3.02489 5.79142 2.22418 6.58721C1.9128 6.89669 1.69038 7.20616 1.46796 7.55985C1.11209 8.17879 0.934157 8.84195 0.934157 9.59353V14.8546C0.978641 15.4735 0.978641 16.0925 0.934157 16.6672C0.84519 17.6398 0.711739 18.5683 0.533804 19.2756C0.266902 20.2925 0 20.9556 0 20.9998C0.0444837 20.9998 0.711739 20.7346 1.73486 20.5135C2.4466 20.3367 3.38076 20.2041 4.3594 20.1156C4.93769 20.0714 5.56046 20.0714 6.22771 20.1156L11.5213 20.0714C12.233 20.0714 12.9447 19.8946 13.5675 19.5409C13.9234 19.3641 14.2348 19.0988 14.5462 18.7893C15.3469 17.9935 15.7917 16.9325 15.7917 15.783V15.3851V14.8104V13.3072L15.8362 10.5662C15.7917 9.94721 15.7917 9.32827 15.8362 8.70932C15.9252 7.73669 16.0586 6.85248 16.2365 6.1009C16.459 5.12827 16.6814 4.46511 16.7259 4.4209ZM14.2348 15.783C14.2348 16.4904 13.9679 17.1535 13.523 17.6398C13.4786 17.6841 13.4786 17.6841 13.4341 17.7283C12.9447 18.2146 12.233 18.5241 11.4768 18.5241H6.18323C5.64943 18.4798 5.16011 18.4798 4.67079 18.5241C3.73663 18.5683 2.89144 18.7009 2.13522 18.8777C2.31315 18.1262 2.4466 17.2862 2.49109 16.3577V14.8546V9.63774C2.49109 8.88616 2.80247 8.223 3.29179 7.69248C3.33628 7.64827 3.33628 7.64827 3.38076 7.60406C3.91456 7.11774 4.53733 6.89669 5.24907 6.89669H10.5426H12.0551C12.9892 6.85248 13.8344 6.71985 14.5906 6.543C14.4572 7.25037 14.3237 8.13458 14.2348 9.063C14.1903 9.54932 14.1903 10.0798 14.2348 10.5662V15.783Z" fill="#2C392C"/>
<path d="M34.3412 10.3451L34.2967 13.6167C34.2967 13.6167 34.3412 11.1409 39.1455 11.1409H41.1472C41.5921 11.1409 41.681 11.8041 41.681 12.4672V17.1093C40.7024 17.9935 39.012 19.0104 36.5654 19.0104C32.3839 19.0104 29.0032 15.1641 29.0032 10.3893C29.0032 5.65879 32.3839 1.76826 36.5654 1.76826C38.3003 1.76826 39.6793 2.29879 40.48 3.27142C41.0583 3.93458 41.2807 4.77458 41.1472 5.65879L41.1027 5.96826L43.9942 3.53669H43.8162C43.5938 3.44826 43.2824 3.22721 42.9266 3.00616C41.77 2.21037 39.8127 0.839844 36.6544 0.839844C31.3608 0.839844 27.0459 5.17247 27.0459 10.5219C27.0459 13.1746 28.1135 15.7388 30.0263 17.5514C31.7612 19.2314 34.0298 20.1598 36.432 20.1598C36.5209 20.1598 36.6099 20.1598 36.6544 20.1598C40.6579 20.0272 43.149 17.7283 43.5493 16.9325V12.5556C43.5493 10.7872 44.439 10.6104 44.4835 10.6104V10.3893L34.3412 10.3451Z" fill="#2C392C"/>
<path d="M55.3375 0.795898C50.0439 0.795898 45.729 5.12853 45.729 10.478C45.729 15.8275 50.0439 20.1601 55.3375 20.1601C60.6755 20.1601 64.9904 15.8275 64.9904 10.478C64.9904 5.12853 60.6755 0.795898 55.3375 0.795898ZM55.3375 19.0991C51.1115 19.0991 47.6418 15.2085 47.6418 10.478C47.6418 5.70327 51.1115 1.81274 55.3375 1.81274C59.6079 1.81274 63.0331 5.70327 63.0331 10.478C63.0776 15.2527 59.6079 19.0991 55.3375 19.0991Z" fill="#2C392C"/>
<path d="M74.2429 19.0991C70.8177 19.0991 69.4831 19.1433 69.4831 19.1433C69.1273 19.1433 69.0383 18.7012 69.0383 18.038V2.96221C69.0383 1.19379 69.928 1.01695 69.9725 1.01695V0.795898H66.2358V1.01695C66.2803 1.01695 67.17 1.19379 67.17 2.96221V18.038C67.17 19.8064 66.2803 19.9833 66.2358 19.9833V20.2043H79.8923V16.8001C79.8923 16.8001 79.9368 19.0991 74.2429 19.0991Z" fill="#2C392C"/>
<path d="M86.1648 0.795898H81.1382V1.01695C81.1827 1.01695 82.0723 1.19379 82.0723 2.96221V18.038C82.0723 19.8064 81.1827 19.9833 81.1382 19.9833V20.2043H86.1648C93.9495 20.2043 97.4637 15.3412 97.4637 10.5222C97.4637 5.65906 93.9495 0.795898 86.1648 0.795898ZM83.9407 2.96221C83.9407 1.94537 84.6969 1.90116 84.7859 1.90116H86.1204C91.6363 1.90116 95.5064 5.438 95.5064 10.5664C95.5064 15.7833 91.8143 19.1875 86.1204 19.1875H84.7859C84.7414 19.1875 83.9407 19.1875 83.9407 18.0822V2.96221Z" fill="#2C392C"/>
<path d="M98.6646 1.01695C98.709 1.01695 99.5987 1.19379 99.5987 2.96221V18.038C99.5987 19.8064 98.709 19.9833 98.6646 19.9833V20.2043H112.321V16.8001C112.321 16.8001 112.321 19.1433 106.672 19.1433C103.246 19.1433 102.223 19.1875 102.223 19.1875C101.6 19.1875 101.467 18.7454 101.467 18.0822V8.88643L102.757 8.84222C106.805 8.84222 107.339 10.5664 107.339 10.5664L107.561 11.3622V5.74748L107.339 6.49906C107.339 6.49906 106.805 8.22327 102.757 8.22327H101.467V2.918C101.467 2.60853 101.467 2.25485 101.689 2.03379C101.823 1.90116 102.001 1.85695 102.223 1.85695H106.672C112.366 1.85695 112.321 4.24432 112.321 4.24432V0.795898H98.6646V1.01695Z" fill="#2C392C"/>
<path d="M124.643 0.795675V1.01673C124.643 1.01673 125.577 1.19357 125.577 2.96199V16.7115L117.926 2.91778C117.348 1.85673 117.392 1.41462 117.481 1.23778C117.57 1.06094 117.704 1.06094 117.704 1.01673V0.795675H113.611V1.01673C113.656 1.01673 114.545 1.19357 114.545 2.96199V18.0378C114.545 19.8062 113.656 19.983 113.611 19.983V20.2041H116.458V19.983C116.414 19.983 115.524 19.8062 115.524 18.0378V2.96199C115.524 2.65252 115.524 2.43146 115.569 2.25462C115.747 2.47568 115.88 2.74094 116.058 3.0062L125.577 20.1157L125.622 20.1599H126.601V2.91778C126.601 1.14936 127.49 0.972517 127.535 0.972517V0.751465L124.643 0.795675Z" fill="#2C392C"/>
<path d="M144.972 0.795898H136.031V1.01695C136.075 1.01695 136.965 1.19379 136.965 2.96221V18.038C136.965 19.8064 136.075 19.9833 136.031 19.9833V20.2043H139.767V19.9833C139.723 19.9833 138.833 19.8064 138.833 18.038V13.2191H141.547C149.153 13.2191 152.846 11.1854 152.846 7.02958C152.89 3.3159 149.687 0.795898 144.972 0.795898ZM138.833 2.96221C138.833 2.21064 139.011 1.90116 139.412 1.90116L144.972 1.85695C148.353 1.85695 150.844 3.97906 150.844 6.94116C150.844 10.3454 147.641 12.2022 141.591 12.2464H138.878V2.96221H138.833Z" fill="#2C392C"/>
<path d="M172.596 2.96195V13.9262C172.596 15.6946 171.707 15.8714 171.662 15.8714V16.0925H175.399V15.8714C175.354 15.8714 174.465 15.6946 174.465 13.9262V2.96195C174.509 1.19353 175.399 1.0609 175.399 1.0609V0.839844H171.707V1.0609C171.707 1.0609 172.596 1.23774 172.596 2.96195Z" fill="#2C392C"/>
<path d="M171.707 19.1872C170.239 19.2756 168.059 18.6567 165.879 15.4735C164.856 13.9704 164.412 13.263 164.189 12.9535C168.771 12.2462 170.995 10.3009 170.995 7.02932C170.995 3.31563 167.792 0.839844 163.033 0.839844H154.091V1.0609C154.136 1.0609 155.025 1.23774 155.025 2.96195V18.0377C155.025 19.8062 154.136 19.983 154.091 19.983V20.2041H157.828V19.983C157.828 19.983 156.894 19.8504 156.894 18.0377V13.2188H159.607C160.719 13.2188 161.609 13.1746 162.41 13.1304L164.634 16.4462C165.924 18.2588 168.104 20.2041 170.417 20.2041C173.264 20.2041 174.865 19.2756 175.71 17.0651L175.532 16.9767C174.954 17.9935 173.486 19.0988 171.707 19.1872ZM156.938 2.96195C156.938 2.38721 157.027 1.85669 157.783 1.85669H163.077C166.458 1.85669 168.949 3.97879 168.949 6.9409C168.949 10.3451 165.746 12.2019 159.696 12.2462H156.983L156.938 2.96195Z" fill="#2C392C"/>
<path d="M192.792 0.795898V1.01695C192.792 1.01695 192.97 1.06116 193.104 1.28221C193.237 1.50327 193.326 1.98958 192.926 2.918C192.926 2.918 187.588 16.1812 186.787 18.2148C185.942 16.1812 180.604 2.918 180.604 2.918C180.203 1.98958 180.292 1.50327 180.426 1.28221C180.559 1.06116 180.737 1.01695 180.737 1.01695V0.795898H177V1.01695C177 1.01695 178.024 1.19379 178.735 3.00642L185.586 20.1159L185.63 20.2043H186.92L193.904 3.00642C194.661 1.19379 195.639 1.01695 195.639 1.01695V0.795898H192.792Z" fill="#2C392C"/>
<path d="M200.755 1.01695V0.795898H197.018V1.01695C197.063 1.01695 197.952 1.19379 197.952 2.96221V18.038C197.952 19.8064 197.063 19.9833 197.018 19.9833V20.2043H200.755V19.9833C200.71 19.9833 199.821 19.8064 199.821 18.038V2.96221C199.821 1.19379 200.71 1.01695 200.755 1.01695Z" fill="#2C392C"/>
<path d="M212.765 19.1433H205.337C204.981 19.1433 204.892 18.7012 204.892 18.038V2.96221C204.892 1.19379 205.782 1.01695 205.826 1.01695V0.795898H202.089V1.01695C202.134 1.01695 203.024 1.19379 203.024 2.96221V18.038C203.024 19.8064 202.134 19.9833 202.089 19.9833V20.2043H218.415V16.8001C218.37 16.7559 218.415 19.1433 212.765 19.1433Z" fill="#2C392C"/>
<path d="M207.338 1.01695C207.383 1.01695 208.273 1.238 208.273 2.96221V13.7496C208.273 15.518 207.383 15.6948 207.338 15.6948V15.9159H218.37V12.8654C218.37 12.8654 218.415 15.2527 212.765 15.2527H210.897C210.274 15.2527 210.141 14.8106 210.141 14.1475V7.25064H210.897C212.588 7.25064 213.611 8.53274 213.611 8.53274V5.08432C213.611 5.08432 212.632 6.63169 210.897 6.63169H210.141V2.65274C210.141 2.34327 210.141 1.94537 210.319 1.76853C210.452 1.6359 210.63 1.59169 210.853 1.59169C210.853 1.59169 211.653 1.6359 212.721 1.6359C218.415 1.6359 218.326 4.06748 218.326 4.06748V0.840109L207.294 0.795898L207.338 1.01695Z" fill="#2C392C"/>
<path d="M226.822 10.3451L226.778 13.6167C226.778 13.6167 226.822 11.1409 231.626 11.1409H233.628C234.073 11.1409 234.162 11.8041 234.162 12.4672V17.1093C233.183 17.9935 231.493 19.0104 229.046 19.0104C224.865 19.0104 221.484 15.1641 221.484 10.3893C221.484 5.65879 224.865 1.76826 229.046 1.76826C230.781 1.76826 232.16 2.29879 232.961 3.27142C233.539 3.93458 233.762 4.77458 233.628 5.65879L233.584 5.96826L236.475 3.53669H236.297C236.075 3.44826 235.763 3.22721 235.408 3.00616C234.251 2.21037 232.294 0.839844 229.135 0.839844C223.842 0.839844 219.527 5.17247 219.527 10.5219C219.527 13.1746 220.594 15.7388 222.507 17.5514C224.242 19.2314 226.511 20.1598 228.913 20.1598C229.002 20.1598 229.091 20.1598 229.135 20.1598C233.139 20.0272 235.63 17.7283 236.03 16.9325V12.5556C236.03 10.7872 236.92 10.6104 236.964 10.6104V10.3893L226.822 10.3451Z" fill="#2C392C"/>
<path d="M241.324 2.03379C241.457 1.90116 241.635 1.85695 241.858 1.85695H246.306C252 1.85695 251.955 4.24432 251.955 4.24432V0.795898H238.299V1.01695C238.343 1.01695 239.233 1.19379 239.233 2.96221V18.038C239.233 19.8064 238.343 19.9833 238.299 19.9833V20.2043H251.955V16.8001C251.955 16.8001 251.955 19.1433 246.306 19.1433C242.881 19.1433 241.858 19.1875 241.858 19.1875C241.235 19.1875 241.101 18.7454 241.101 18.0822V8.88643L242.391 8.84222C247.374 8.84222 247.196 11.3622 247.196 11.3622V5.70327L246.973 6.49906C246.973 6.49906 246.439 8.22327 242.391 8.22327H241.101V2.918C241.101 2.60853 241.101 2.25485 241.324 2.03379Z" fill="#2C392C"/>
</svg>
