<svg width="269" height="29" viewBox="0 0 269 29" fill="none" xmlns="http://www.w3.org/2000/svg">
<g clip-path="url(#clip0_2083_404)">
<path d="M44.3184 15.8463L44.2723 19.2554C44.2723 19.2554 44.3184 16.6755 49.2939 16.6755H51.367C51.8277 16.6755 51.9198 17.3666 51.9198 18.0576V22.8948C50.9063 23.8162 49.1557 24.8758 46.6219 24.8758C42.2914 24.8758 38.7901 20.8678 38.7901 15.8923C38.7901 10.9629 42.2914 6.90886 46.6219 6.90886C48.4186 6.90886 49.8467 7.46169 50.6759 8.47521C51.2748 9.16625 51.5052 10.0416 51.367 10.9629L51.3209 11.2854L54.3154 8.75162H54.1311C53.9008 8.65948 53.5783 8.42914 53.2097 8.19879C52.0119 7.36955 49.9849 5.94141 46.714 5.94141C41.2318 5.94141 36.7631 10.4562 36.7631 16.0305C36.7631 18.7947 37.8687 21.4667 39.8497 23.3555C41.6464 25.1062 43.9959 26.0736 46.4836 26.0736C46.5758 26.0736 46.6679 26.0736 46.714 26.0736C50.8602 25.9354 53.4401 23.5398 53.8547 22.7106V18.1497C53.8547 16.307 54.7761 16.1227 54.8222 16.1227V15.8923L44.3184 15.8463Z" fill="url(#paint0_linear_2083_404)"/>
<path d="M66.063 5.89648C60.5808 5.89648 56.1121 10.4113 56.1121 15.9856C56.1121 21.56 60.5808 26.0748 66.063 26.0748C71.5913 26.0748 76.06 21.56 76.06 15.9856C76.06 10.4113 71.5913 5.89648 66.063 5.89648ZM66.063 24.9691C61.6864 24.9691 58.093 20.915 58.093 15.9856C58.093 11.0102 61.6864 6.95607 66.063 6.95607C70.4856 6.95607 74.0329 11.0102 74.0329 15.9856C74.079 20.9611 70.4856 24.9691 66.063 24.9691Z" fill="url(#paint1_linear_2083_404)"/>
<path d="M85.6424 24.9691C82.0951 24.9691 80.713 25.0152 80.713 25.0152C80.3445 25.0152 80.2523 24.5545 80.2523 23.8634V8.15387C80.2523 6.31111 81.1737 6.12683 81.2198 6.12683V5.89648H77.35V6.12683C77.396 6.12683 78.3174 6.31111 78.3174 8.15387V23.8634C78.3174 25.7062 77.396 25.8905 77.35 25.8905V26.1208H91.4932V22.5735C91.4932 22.5735 91.5393 24.9691 85.6424 24.9691Z" fill="url(#paint2_linear_2083_404)"/>
<path d="M97.9889 5.89648H92.7831V6.12683C92.8292 6.12683 93.7505 6.31111 93.7505 8.15387V23.8634C93.7505 25.7062 92.8292 25.8905 92.7831 25.8905V26.1208H97.9889C106.051 26.1208 109.69 21.0532 109.69 16.0317C109.69 10.9641 106.051 5.89648 97.9889 5.89648ZM95.6854 8.15387C95.6854 7.09428 96.4686 7.04821 96.5608 7.04821H97.9428C103.655 7.04821 107.663 10.7337 107.663 16.0778C107.663 21.5139 103.84 25.0612 97.9428 25.0612H96.5608C96.5147 25.0612 95.6854 25.0612 95.6854 23.9095V8.15387Z" fill="url(#paint3_linear_2083_404)"/>
<path d="M110.934 6.12683C110.98 6.12683 111.902 6.31111 111.902 8.15387V23.8634C111.902 25.7062 110.98 25.8905 110.934 25.8905V26.1208H125.078V22.5735C125.078 22.5735 125.078 25.0152 119.227 25.0152C115.679 25.0152 114.62 25.0612 114.62 25.0612C113.975 25.0612 113.837 24.6006 113.837 23.9095V14.3271L115.173 14.2811C119.365 14.2811 119.918 16.0778 119.918 16.0778L120.148 16.907V11.0562L119.918 11.8394C119.918 11.8394 119.365 13.6361 115.173 13.6361H113.837V8.1078C113.837 7.78532 113.837 7.41677 114.067 7.18642C114.205 7.04821 114.39 7.00214 114.62 7.00214H119.227C125.124 7.00214 125.078 9.48988 125.078 9.48988V5.89648H110.934V6.12683Z" fill="url(#paint4_linear_2083_404)"/>
<path d="M137.839 5.89568V6.12602C137.839 6.12602 138.806 6.3103 138.806 8.15307V22.4806L130.882 8.107C130.283 7.00134 130.329 6.54065 130.422 6.35637C130.514 6.17209 130.652 6.17209 130.652 6.12602V5.89568H126.414V6.12602C126.46 6.12602 127.381 6.3103 127.381 8.15307V23.8626C127.381 25.7054 126.46 25.8897 126.414 25.8897V26.12H129.362V25.8897C129.316 25.8897 128.395 25.7054 128.395 23.8626V8.15307C128.395 7.83058 128.395 7.60024 128.441 7.41596C128.625 7.64631 128.763 7.92272 128.947 8.19914L138.806 26.0279L138.852 26.074H139.866V8.107C139.866 6.26423 140.787 6.07996 140.833 6.07996V5.84961L137.839 5.89568Z" fill="url(#paint5_linear_2083_404)"/>
<path d="M158.892 5.89648H149.632V6.12683C149.679 6.12683 150.6 6.31111 150.6 8.15387V23.8634C150.6 25.7062 149.679 25.8905 149.632 25.8905V26.1208H153.502V25.8905C153.456 25.8905 152.535 25.7062 152.535 23.8634V18.8419H155.345C163.223 18.8419 167.047 16.7227 167.047 12.3922C167.093 8.52242 163.776 5.89648 158.892 5.89648ZM152.535 8.15387C152.535 7.3707 152.719 7.04821 153.134 7.04821L158.892 7.00214C162.394 7.00214 164.973 9.21346 164.973 12.3001C164.973 15.8474 161.656 17.7823 155.391 17.8284H152.581V8.15387H152.535Z" fill="url(#paint6_linear_2083_404)"/>
<path d="M187.501 8.15272V19.5779C187.501 21.4206 186.58 21.6049 186.534 21.6049V21.8353H190.404V21.6049C190.358 21.6049 189.436 21.4206 189.436 19.5779V8.15272C189.482 6.30996 190.404 6.17175 190.404 6.17175V5.94141H186.58V6.17175C186.58 6.17175 187.501 6.35603 187.501 8.15272Z" fill="url(#paint7_linear_2083_404)"/>
<path d="M186.58 25.0601C185.06 25.1522 182.802 24.5073 180.545 21.1903C179.485 19.6239 179.025 18.8868 178.794 18.5643C183.539 17.8272 185.843 15.8002 185.843 12.3911C185.843 8.52128 182.526 5.94141 177.596 5.94141H168.337V6.17175C168.383 6.17175 169.304 6.35603 169.304 8.15272V23.8623C169.304 25.7051 168.383 25.8893 168.337 25.8893V26.1197H172.206V25.8893C172.206 25.8893 171.239 25.7511 171.239 23.8623V18.8408H174.049C175.201 18.8408 176.122 18.7947 176.951 18.7486L179.255 22.2038C180.591 24.0926 182.848 26.1197 185.244 26.1197C188.192 26.1197 189.851 25.1522 190.726 22.8488L190.542 22.7566C189.943 23.8162 188.423 24.968 186.58 25.0601ZM171.285 8.15272C171.285 7.55383 171.377 7.001 172.16 7.001H177.643C181.144 7.001 183.724 9.21231 183.724 12.2989C183.724 15.8463 180.407 17.7812 174.141 17.8272H171.331L171.285 8.15272Z" fill="url(#paint8_linear_2083_404)"/>
<path d="M208.417 5.89648V6.12683C208.417 6.12683 208.601 6.1729 208.739 6.40324C208.877 6.63359 208.97 7.14035 208.555 8.1078C208.555 8.1078 203.027 21.9285 202.197 24.0477C201.322 21.9285 195.794 8.1078 195.794 8.1078C195.379 7.14035 195.471 6.63359 195.609 6.40324C195.748 6.1729 195.932 6.12683 195.932 6.12683V5.89648H192.062V6.12683C192.062 6.12683 193.122 6.31111 193.859 8.19994L200.953 26.0287L201 26.1208H202.336L209.568 8.19994C210.352 6.31111 211.365 6.12683 211.365 6.12683V5.89648H208.417Z" fill="url(#paint9_linear_2083_404)"/>
<path d="M216.663 6.12683V5.89648H212.793V6.12683C212.839 6.12683 213.761 6.31111 213.761 8.15387V23.8634C213.761 25.7062 212.839 25.8905 212.793 25.8905V26.1208H216.663V25.8905C216.617 25.8905 215.696 25.7062 215.696 23.8634V8.15387C215.696 6.31111 216.617 6.12683 216.663 6.12683Z" fill="url(#paint10_linear_2083_404)"/>
<path d="M229.102 25.0152H221.408C221.04 25.0152 220.947 24.5545 220.947 23.8634V8.15387C220.947 6.31111 221.869 6.12683 221.915 6.12683V5.89648H218.045V6.12683C218.091 6.12683 219.012 6.31111 219.012 8.15387V23.8634C219.012 25.7062 218.091 25.8905 218.045 25.8905V26.1208H234.952V22.5735C234.906 22.5274 234.952 25.0152 229.102 25.0152Z" fill="url(#paint11_linear_2083_404)"/>
<path d="M223.481 6.12683C223.527 6.12683 224.449 6.35718 224.449 8.15387V19.3947C224.449 21.2375 223.527 21.4218 223.481 21.4218V21.6521H234.906V18.4734C234.906 18.4734 234.952 20.9611 229.102 20.9611H227.167C226.522 20.9611 226.384 20.5004 226.384 19.8094V12.6226H227.167C228.917 12.6226 229.977 13.9586 229.977 13.9586V10.3652C229.977 10.3652 228.963 11.9776 227.167 11.9776H226.384V7.83139C226.384 7.5089 226.384 7.09428 226.568 6.91001C226.706 6.7718 226.89 6.72573 227.121 6.72573C227.121 6.72573 227.95 6.7718 229.056 6.7718C234.952 6.7718 234.86 9.3056 234.86 9.3056V5.94255L223.435 5.89648L223.481 6.12683Z" fill="url(#paint12_linear_2083_404)"/>
<path d="M243.66 15.8463L243.614 19.2554C243.614 19.2554 243.66 16.6755 248.635 16.6755H250.708C251.169 16.6755 251.261 17.3666 251.261 18.0576V22.8948C250.247 23.8162 248.497 24.8758 245.963 24.8758C241.633 24.8758 238.131 20.8678 238.131 15.8923C238.131 10.9629 241.633 6.90886 245.963 6.90886C247.76 6.90886 249.188 7.46169 250.017 8.47521C250.616 9.16625 250.846 10.0416 250.708 10.9629L250.662 11.2854L253.657 8.75162H253.472C253.242 8.65948 252.919 8.42914 252.551 8.19879C251.353 7.36955 249.326 5.94141 246.055 5.94141C240.573 5.94141 236.104 10.4562 236.104 16.0305C236.104 18.7947 237.21 21.4667 239.191 23.3555C240.988 25.1062 243.337 26.0736 245.825 26.0736C245.917 26.0736 246.009 26.0736 246.055 26.0736C250.201 25.9354 252.781 23.5398 253.196 22.7106V18.1497C253.196 16.307 254.117 16.1227 254.163 16.1227V15.8923L243.66 15.8463Z" fill="url(#paint13_linear_2083_404)"/>
<path d="M258.678 7.18642C258.816 7.04821 259.001 7.00214 259.231 7.00214H263.838C269.735 7.00214 269.689 9.48988 269.689 9.48988V5.89648H255.545V6.12683C255.591 6.12683 256.513 6.31111 256.513 8.15387V23.8634C256.513 25.7062 255.591 25.8905 255.545 25.8905V26.1208H269.689V22.5735C269.689 22.5735 269.689 25.0152 263.838 25.0152C260.291 25.0152 259.231 25.0612 259.231 25.0612C258.586 25.0612 258.448 24.6006 258.448 23.9095V14.3271L259.784 14.2811C264.944 14.2811 264.759 16.907 264.759 16.907V11.0102L264.529 11.8394C264.529 11.8394 263.976 13.6361 259.784 13.6361H258.448V8.1078C258.448 7.78532 258.448 7.41677 258.678 7.18642Z" fill="url(#paint14_linear_2083_404)"/>
</g>
<path d="M29.0235 0C28.9761 0.0236734 28.2186 0.28408 27.0586 0.568161C26.23 0.757548 25.1884 0.946935 24.0521 1.04163C24.0521 1.04163 24.0521 1.04163 24.0284 1.04163C23.3655 1.08898 22.6553 1.11265 21.9451 1.0653L16.2399 1.11265H15.9084C14.6064 1.11265 13.3754 1.60979 12.4758 2.53305C12.1444 2.86448 11.8603 3.24325 11.6236 3.66937C11.2448 4.37957 11.0317 5.16079 11.0317 5.98936L11.008 7.14936L10.9844 8.87751H12.7362V5.98936C12.7362 5.16079 13.0676 4.3559 13.6595 3.76407C13.6831 3.74039 13.7068 3.69305 13.7542 3.66937C14.346 3.12488 15.1035 2.8408 15.8848 2.8408H21.9215H23.6496C24.6913 2.79346 25.6855 2.62774 26.5378 2.46203C26.3721 3.2906 26.2064 4.28488 26.159 5.35018C26.1353 5.91834 26.1117 6.51018 26.159 7.07834V13.115C26.159 13.9436 25.8513 14.6775 25.3304 15.2457C25.3068 15.2693 25.2831 15.3167 25.2357 15.3403C24.6676 15.9085 23.8864 16.2636 23.0104 16.2636H20.146V18.0154L21.8741 17.9918L23.0341 17.9681C23.8627 17.9681 24.6439 17.7787 25.3541 17.3763C25.7566 17.1632 26.1353 16.8791 26.4904 16.524C27.4137 15.6008 27.9108 14.3934 27.9108 13.0677V12.5942L27.9819 7.03099C27.9345 6.32079 27.9582 5.61059 28.0055 4.92406C28.1002 3.81141 28.2896 2.76978 28.479 1.94122C28.7394 0.804895 28.9998 0.0473467 29.0235 0Z" fill="url(#paint15_linear_2083_404)"/>
<path d="M22.9395 6.08594C22.8922 6.10961 21.9689 6.44104 20.5722 6.74879C19.5779 6.98553 18.3232 7.19859 16.9738 7.31695C16.9738 7.31695 16.9738 7.31695 16.9501 7.31695C16.1452 7.3643 15.293 7.38797 14.4644 7.34063L10.6767 7.38797L8.59343 7.41165H7.59915H7.19671C5.63426 7.41165 4.16651 8.02715 3.05387 9.11613C2.65142 9.51858 2.31999 9.96837 2.03591 10.4655C1.56244 11.3178 1.32571 12.2647 1.32571 13.259L1.25469 20.5267C1.30204 21.3789 1.27836 22.2075 1.23102 23.0124C1.23102 23.0124 1.23102 23.0124 1.23102 23.0361C1.13632 24.3855 0.899588 25.6401 0.662854 26.6344C0.355101 28.0312 0.0236734 28.9544 0 29.0018C0.0473467 28.9781 0.970608 28.6467 2.36734 28.3152C3.36162 28.0785 4.61631 27.8654 5.94202 27.7707C6.77058 27.7234 7.59915 27.6997 8.47507 27.7471L15.7191 27.6524C16.7134 27.6524 17.6603 27.4156 18.5126 26.9422C19.0097 26.6818 19.4595 26.3267 19.862 25.9242C20.9746 24.8116 21.5664 23.3675 21.5664 21.7814V21.2132V20.4083L21.5901 18.3251L21.6375 14.5373C21.5901 13.6851 21.6138 12.8328 21.6611 12.0043C21.7795 10.6549 21.9926 9.42388 22.2056 8.4296C22.5844 7.05655 22.9158 6.15696 22.9395 6.08594ZM19.5305 21.8287C19.5305 22.823 19.1518 23.7226 18.5363 24.3855C18.5126 24.4328 18.4652 24.4565 18.4179 24.5038C17.7314 25.1903 16.7844 25.6165 15.7428 25.6165H8.49874C7.78854 25.5691 7.10201 25.5691 6.41548 25.6165C5.1608 25.6875 3.95345 25.8769 2.95917 26.0899C3.17223 25.0957 3.36162 23.8883 3.43264 22.6336V20.5504V13.2826C3.43264 12.2647 3.83509 11.3178 4.54529 10.6076C4.59263 10.5602 4.61631 10.5365 4.66365 10.4892C5.37386 9.85 6.27344 9.4949 7.22038 9.4949H14.4408H16.524C17.7787 9.42388 18.986 9.2345 19.9803 9.02144C19.7673 10.0157 19.5779 11.2231 19.5069 12.4777C19.4595 13.1643 19.4595 13.8508 19.5069 14.561L19.5305 21.8287Z" fill="url(#paint16_linear_2083_404)"/>
<defs>
<linearGradient id="paint0_linear_2083_404" x1="-45.0281" y1="15.973" x2="361.891" y2="15.973" gradientUnits="userSpaceOnUse">
<stop stop-color="#723D1D"/>
<stop offset="0.2711" stop-color="#C9A551"/>
<stop offset="0.5479" stop-color="#FFE37B"/>
<stop offset="0.696" stop-color="#C9A551"/>
<stop offset="0.797" stop-color="#723D1D"/>
</linearGradient>
<linearGradient id="paint1_linear_2083_404" x1="-45.0281" y1="15.9718" x2="361.891" y2="15.9718" gradientUnits="userSpaceOnUse">
<stop stop-color="#723D1D"/>
<stop offset="0.2711" stop-color="#C9A551"/>
<stop offset="0.5479" stop-color="#FFE37B"/>
<stop offset="0.696" stop-color="#C9A551"/>
<stop offset="0.797" stop-color="#723D1D"/>
</linearGradient>
<linearGradient id="paint2_linear_2083_404" x1="-45.0281" y1="15.9971" x2="361.891" y2="15.9971" gradientUnits="userSpaceOnUse">
<stop stop-color="#723D1D"/>
<stop offset="0.2711" stop-color="#C9A551"/>
<stop offset="0.5479" stop-color="#FFE37B"/>
<stop offset="0.696" stop-color="#C9A551"/>
<stop offset="0.797" stop-color="#723D1D"/>
</linearGradient>
<linearGradient id="paint3_linear_2083_404" x1="-45.0282" y1="16.0017" x2="361.891" y2="16.0017" gradientUnits="userSpaceOnUse">
<stop stop-color="#723D1D"/>
<stop offset="0.2711" stop-color="#C9A551"/>
<stop offset="0.5479" stop-color="#FFE37B"/>
<stop offset="0.696" stop-color="#C9A551"/>
<stop offset="0.797" stop-color="#723D1D"/>
</linearGradient>
<linearGradient id="paint4_linear_2083_404" x1="-45.0281" y1="15.9949" x2="361.89" y2="15.9949" gradientUnits="userSpaceOnUse">
<stop stop-color="#723D1D"/>
<stop offset="0.2711" stop-color="#C9A551"/>
<stop offset="0.5479" stop-color="#FFE37B"/>
<stop offset="0.696" stop-color="#C9A551"/>
<stop offset="0.797" stop-color="#723D1D"/>
</linearGradient>
<linearGradient id="paint5_linear_2083_404" x1="-45.0282" y1="16.0009" x2="361.891" y2="16.0009" gradientUnits="userSpaceOnUse">
<stop stop-color="#723D1D"/>
<stop offset="0.2711" stop-color="#C9A551"/>
<stop offset="0.5479" stop-color="#FFE37B"/>
<stop offset="0.696" stop-color="#C9A551"/>
<stop offset="0.797" stop-color="#723D1D"/>
</linearGradient>
<linearGradient id="paint6_linear_2083_404" x1="-45.0282" y1="16.0017" x2="361.891" y2="16.0017" gradientUnits="userSpaceOnUse">
<stop stop-color="#723D1D"/>
<stop offset="0.473385" stop-color="#C9A551"/>
<stop offset="0.497217" stop-color="#FFE19A"/>
<stop offset="0.518404" stop-color="#B38B44"/>
<stop offset="0.696" stop-color="#C9A551"/>
<stop offset="0.797" stop-color="#723D1D"/>
</linearGradient>
<linearGradient id="paint7_linear_2083_404" x1="-45.0279" y1="13.8699" x2="361.89" y2="13.8699" gradientUnits="userSpaceOnUse">
<stop stop-color="#723D1D"/>
<stop offset="0.2711" stop-color="#C9A551"/>
<stop offset="0.5479" stop-color="#D6BD5F"/>
<stop offset="0.696" stop-color="#C9A551"/>
<stop offset="0.797" stop-color="#723D1D"/>
</linearGradient>
<linearGradient id="paint8_linear_2083_404" x1="-45.0281" y1="16.0329" x2="361.891" y2="16.0329" gradientUnits="userSpaceOnUse">
<stop stop-color="#723D1D"/>
<stop offset="0.527928" stop-color="#C9A551"/>
<stop offset="0.541046" stop-color="#FCE39E" stop-opacity="0.72"/>
<stop offset="0.561692" stop-color="#C9A551"/>
<stop offset="1" stop-color="#723D1D"/>
</linearGradient>
<linearGradient id="paint9_linear_2083_404" x1="-45.028" y1="16.0041" x2="361.891" y2="16.0041" gradientUnits="userSpaceOnUse">
<stop stop-color="#723D1D"/>
<stop offset="0.2711" stop-color="#C9A551"/>
<stop offset="0.5479" stop-color="#FFE37B"/>
<stop offset="0.696" stop-color="#C9A551"/>
<stop offset="0.797" stop-color="#723D1D"/>
</linearGradient>
<linearGradient id="paint10_linear_2083_404" x1="-45.0279" y1="15.9972" x2="361.89" y2="15.9972" gradientUnits="userSpaceOnUse">
<stop stop-color="#723D1D"/>
<stop offset="0.2711" stop-color="#C9A551"/>
<stop offset="0.5479" stop-color="#FFE37B"/>
<stop offset="0.696" stop-color="#C9A551"/>
<stop offset="0.797" stop-color="#723D1D"/>
</linearGradient>
<linearGradient id="paint11_linear_2083_404" x1="-45.0282" y1="15.9971" x2="361.891" y2="15.9971" gradientUnits="userSpaceOnUse">
<stop stop-color="#723D1D"/>
<stop offset="0.2711" stop-color="#C9A551"/>
<stop offset="0.5479" stop-color="#FFE37B"/>
<stop offset="0.696" stop-color="#C9A551"/>
<stop offset="0.797" stop-color="#723D1D"/>
</linearGradient>
<linearGradient id="paint12_linear_2083_404" x1="-45.028" y1="13.7721" x2="361.891" y2="13.7721" gradientUnits="userSpaceOnUse">
<stop stop-color="#723D1D"/>
<stop offset="0.2711" stop-color="#C9A551"/>
<stop offset="0.5479" stop-color="#FFE37B"/>
<stop offset="0.696" stop-color="#C9A551"/>
<stop offset="0.797" stop-color="#723D1D"/>
</linearGradient>
<linearGradient id="paint13_linear_2083_404" x1="-45.0281" y1="15.973" x2="361.891" y2="15.973" gradientUnits="userSpaceOnUse">
<stop stop-color="#723D1D"/>
<stop offset="0.2711" stop-color="#C9A551"/>
<stop offset="0.5479" stop-color="#FFE37B"/>
<stop offset="0.696" stop-color="#C9A551"/>
<stop offset="0.797" stop-color="#723D1D"/>
</linearGradient>
<linearGradient id="paint14_linear_2083_404" x1="-45.0281" y1="16.0017" x2="361.891" y2="16.0017" gradientUnits="userSpaceOnUse">
<stop stop-color="#723D1D"/>
<stop offset="0.2711" stop-color="#C9A551"/>
<stop offset="0.5479" stop-color="#957E29"/>
<stop offset="0.696" stop-color="#C9A551"/>
<stop offset="0.797" stop-color="#D8A383"/>
</linearGradient>
<linearGradient id="paint15_linear_2083_404" x1="20.4064" y1="23.1348" x2="19.8979" y2="-0.763967" gradientUnits="userSpaceOnUse">
<stop offset="0.0722" stop-color="#723D1D"/>
<stop offset="0.3782" stop-color="#C9A551"/>
<stop offset="0.6744" stop-color="#FFE37B"/>
<stop offset="0.8398" stop-color="#C9A551"/>
<stop offset="1" stop-color="#723D1D"/>
</linearGradient>
<linearGradient id="paint16_linear_2083_404" x1="11.8443" y1="35.1562" x2="11.2054" y2="5.13184" gradientUnits="userSpaceOnUse">
<stop offset="0.0722" stop-color="#723D1D"/>
<stop offset="0.3782" stop-color="#C9A551"/>
<stop offset="0.6744" stop-color="#FFE37B"/>
<stop offset="0.8398" stop-color="#C9A551"/>
<stop offset="1" stop-color="#723D1D"/>
</linearGradient>
<clipPath id="clip0_2083_404">
<rect width="234.492" height="22.1132" fill="white" transform="translate(34.0911 5.06836)"/>
</clipPath>
</defs>
</svg>
