<?xml version="1.0" encoding="utf-8"?>
<!-- Generator: Adobe Illustrator 25.2.1, SVG Export Plug-In . SVG Version: 6.00 Build 0)  -->
<svg version="1.1" id="Layer_1" xmlns="http://www.w3.org/2000/svg" xmlns:xlink="http://www.w3.org/1999/xlink" x="0px" y="0px"
	 viewBox="0 0 269 55.5" style="enable-background:new 0 0 269 55.5;" xml:space="preserve">
<style type="text/css">
	.st0{fill:#191919;}
	.st1{fill:url(#SVGID_1_);}
	.st2{fill:url(#SVGID_2_);}
</style>
<g>
	<path class="st0" d="M6.2,55.2c-1.9,0-3.4-0.6-4.5-1.8c-2.3-2.6-2.3-6.4,0-8.9c1.1-1.2,2.7-1.9,4.4-1.9c1.7-0.1,3.3,0.5,4.5,1.6
		l-0.9,1c-1-0.9-2.3-1.4-3.7-1.4c-1.3,0-2.5,0.5-3.3,1.5c-1.8,2.1-1.8,5.1,0,7.2c0.9,1,2.2,1.5,3.5,1.4c1.3,0,2.5-0.4,3.5-1.2v-3
		H6.1v-1.2h5v4.9C9.8,54.5,8,55.2,6.2,55.2z"/>
	<path class="st0" d="M29.6,53.3c-2.5,2.5-6.5,2.5-8.9,0c0,0,0,0,0,0c-2.3-2.5-2.3-6.4,0-8.9c2.5-2.5,6.5-2.5,8.9,0c0,0,0,0,0,0
		C31.9,46.9,31.9,50.8,29.6,53.3z M21.7,52.4c1.8,1.9,4.8,2,6.7,0.1c0,0,0.1-0.1,0.1-0.1c1.8-2,1.8-5.1,0-7.2
		c-1.8-1.9-4.8-2-6.7-0.1c0,0-0.1,0.1-0.1,0.1C19.9,47.3,19.9,50.4,21.7,52.4L21.7,52.4z"/>
	<path class="st0" d="M39.4,54.9V42.8h1.4v10.9h6.9v1.3L39.4,54.9L39.4,54.9z"/>
	<path class="st0" d="M55.4,54.9V42.8h4.2c1.7-0.1,3.4,0.6,4.7,1.7c2.4,2.4,2.4,6.2,0.1,8.7c0,0,0,0-0.1,0.1
		c-1.3,1.2-2.9,1.8-4.7,1.7L55.4,54.9L55.4,54.9z M56.8,53.7h2.9c1.4,0.1,2.7-0.4,3.7-1.4c1.9-1.9,1.9-5,0-6.9
		c-1-0.9-2.3-1.4-3.7-1.4h-2.9L56.8,53.7L56.8,53.7z"/>
	<path class="st0" d="M74.3,54.9V42.8h8.8V44h-7.4v4.2h6.7v1.3h-6.7v4.3h7.5V55L74.3,54.9z"/>
	<path class="st0" d="M91.2,54.9V42.8h1.3l7.7,9.8v-9.8h1.3v12.2h-1.1l-7.9-10v10H91.2z"/>
	<path class="st0" d="M120.6,54.9V42.8h4.6c1.4,0,2.5,0.3,3.3,1c0.8,0.7,1.3,1.8,1.2,2.9c0.1,1.1-0.5,2.2-1.4,2.9
		c-1,0.7-2.2,1.1-3.4,1h-3v4.3L120.6,54.9L120.6,54.9z M122,49.4h3c0.9,0,1.7-0.2,2.4-0.7c0.6-0.5,0.9-1.2,0.9-2
		c0-0.8-0.3-1.5-0.9-2c-0.7-0.5-1.5-0.7-2.4-0.7H122V49.4z"/>
	<path class="st0" d="M137.5,54.9V42.8h5.2c1.5,0,2.7,0.4,3.5,1.2c0.6,0.7,1,1.5,0.9,2.5c0,0.9-0.3,1.7-0.9,2.4
		c-0.7,0.6-1.5,1-2.4,1.2l3.7,5h-1.7l-3.5-4.7h-3.5V55L137.5,54.9z M138.8,49h3.7c0.8,0,1.6-0.2,2.3-0.7c0.6-0.4,0.9-1.1,0.9-1.9
		c0-0.7-0.3-1.3-0.8-1.8c-0.7-0.5-1.5-0.7-2.3-0.6h-3.8L138.8,49z"/>
	<path class="st0" d="M155.4,54.9V42.8h1.4v12.2H155.4z"/>
	<path class="st0" d="M169.8,55l-5.2-12.3h1.5l4.3,10.5l4.4-10.5h1.5L171,55H169.8z"/>
	<path class="st0" d="M184,54.9V42.8h1.4v12.2H184z"/>
	<path class="st0" d="M194.2,54.9V42.8h1.4v10.9h6.9v1.3L194.2,54.9L194.2,54.9z"/>
	<path class="st0" d="M210.1,54.9V42.8h8.8V44h-7.4v4.2h6.7v1.3h-6.7v4.3h7.5V55L210.1,54.9z"/>
	<path class="st0" d="M232.7,55.2c-1.9,0-3.4-0.6-4.5-1.8c-2.3-2.6-2.3-6.4,0-8.9c1.1-1.2,2.7-1.9,4.4-1.9c1.7-0.1,3.3,0.5,4.5,1.6
		l-0.9,1c-1-0.9-2.3-1.4-3.7-1.4c-1.3,0-2.5,0.5-3.3,1.5c-1.8,2.1-1.8,5.1,0,7.2c0.9,1,2.2,1.5,3.5,1.4c1.3,0,2.5-0.4,3.5-1.2v-3
		h-3.7v-1.2h5v4.9C236.3,54.5,234.5,55.2,232.7,55.2z"/>
	<path class="st0" d="M245.9,54.9V42.8h8.8V44h-7.4v4.2h6.7v1.3h-6.7v4.3h7.5V55L245.9,54.9z"/>
	
		<linearGradient id="SVGID_1_" gradientUnits="userSpaceOnUse" x1="238.4874" y1="-192.1591" x2="262.2916" y2="-232.1618" gradientTransform="matrix(1 0 0 1 0 238.1102)">
		<stop  offset="0" style="stop-color:#A67C00"/>
		<stop  offset="0.13" style="stop-color:#BD951E"/>
		<stop  offset="0.36" style="stop-color:#E1BB4C"/>
		<stop  offset="0.54" style="stop-color:#F7D368"/>
		<stop  offset="0.64" style="stop-color:#FFDC73"/>
		<stop  offset="0.75" style="stop-color:#FFD044"/>
		<stop  offset="0.86" style="stop-color:#FFC71F"/>
		<stop  offset="0.95" style="stop-color:#FFC108"/>
		<stop  offset="1" style="stop-color:#FFBF00"/>
	</linearGradient>
	<path class="st1" d="M264,30.3c1.8-4.3-2.5-16-1.3-22.1c-5.6,3.1-16.9,3.9-19.1,4.9c-5.3,2.5-5.4,6.9-4,11.9
		c1.3,5.2,0.4,11.9-2.4,16.5c1.5-1.6,2.8-3.6,3.5-5.7c1.3-3.6,2-7.5,1.5-11.3c-0.1-1.7-0.7-3.5-0.2-5.2c0.8-2.6,3-3.2,5.4-3.5
		c4-0.6,7.8-1.1,11.6-2.5c0,4.3,0.9,8.3,1.8,12.5c0.2,1.1,0.4,2.2,0.1,3.3c-0.9,3.1-4.2,3.3-6.8,3.9c-5.1,1.1-10.7,3.3-13,8.3
		c3.5-4.6,9.5-5.5,14.8-6.1C259.5,35,262.6,33.8,264,30.3z"/>
	
		<linearGradient id="SVGID_2_" gradientUnits="userSpaceOnUse" x1="251.3907" y1="-212.3934" x2="267.352" y2="-238.5838" gradientTransform="matrix(1 0 0 1 0 238.1102)">
		<stop  offset="0" style="stop-color:#A67C00"/>
		<stop  offset="0.1" style="stop-color:#BD951E"/>
		<stop  offset="0.27" style="stop-color:#E1BB4C"/>
		<stop  offset="0.41" style="stop-color:#F7D368"/>
		<stop  offset="0.48" style="stop-color:#FFDC73"/>
		<stop  offset="0.64" style="stop-color:#FFD044"/>
		<stop  offset="0.8" style="stop-color:#FFC71F"/>
		<stop  offset="0.92" style="stop-color:#FFC108"/>
		<stop  offset="1" style="stop-color:#FFBF00"/>
	</linearGradient>
	<path class="st2" d="M268.7,16.1c1.2-3-1.7-11.2-0.9-15.5c-3.9,2.2-11.9,2.7-13.3,3.4c-3.7,1.7-3.8,4.9-2.8,8.3
		c0.9,3.7,0.3,8.4-1.7,11.6c1.1-1.1,1.9-2.5,2.5-4c1-2.5,1.4-5.2,1-7.9c-0.1-1.2-0.5-2.5-0.2-3.6c0.5-1.8,2.1-2.3,3.8-2.4
		c2.8-0.4,5.4-0.8,8.1-1.7c0,3,0.7,5.8,1.3,8.8c0.2,0.7,0.2,1.5,0,2.3c-0.7,2.2-2.9,2.3-4.8,2.7c-3.5,0.8-7.5,2.3-9.1,5.8
		c2.4-3.2,6.6-3.8,10.4-4.3C265.5,19.4,267.7,18.5,268.7,16.1z"/>
</g>
</svg>
