<?xml version="1.0" encoding="utf-8"?>
<!-- Generator: Adobe Illustrator 25.2.1, SVG Export Plug-In . SVG Version: 6.00 Build 0)  -->
<svg version="1.1" id="Layer_1" xmlns="http://www.w3.org/2000/svg" xmlns:xlink="http://www.w3.org/1999/xlink" x="0px" y="0px"
	 viewBox="0 0 122.6 122.6" style="enable-background:new 0 0 122.6 122.6;" xml:space="preserve">
<style type="text/css">
	.st0{fill:url(#SVGID_1_);}
	.st1{fill:url(#SVGID_2_);}
</style>
<g>
	<g>
		
			<linearGradient id="SVGID_1_" gradientUnits="userSpaceOnUse" x1="1197.9615" y1="202.0685" x2="1267.8274" y2="274.9718" gradientTransform="matrix(0.7071 -0.7071 -0.7071 -0.7071 -617.9959 1087.6862)">
			<stop  offset="7.220000e-02" style="stop-color:#723D1D"/>
			<stop  offset="0.3782" style="stop-color:#C9A551"/>
			<stop  offset="0.6744" style="stop-color:#FFE37B"/>
			<stop  offset="0.8398" style="stop-color:#C9A551"/>
			<stop  offset="1" style="stop-color:#723D1D"/>
		</linearGradient>
		<path class="st0" d="M122.6,0c-0.2,0.1-3.4,1.2-8.3,2.4c-3.5,0.8-7.9,1.6-12.7,2c0,0,0,0-0.1,0c-2.8,0.2-5.8,0.3-8.8,0.1
			c0,0,0,0,0,0L68.6,4.7l-1.4,0c-5.5,0-10.7,2.1-14.5,6c-1.4,1.4-2.6,3-3.6,4.8c-1.6,3-2.5,6.3-2.5,9.8l-0.1,4.9l-0.1,7.3h7.4V25.3
			c0-3.5,1.4-6.9,3.9-9.4c0.1-0.1,0.2-0.3,0.4-0.4c2.5-2.3,5.7-3.5,9-3.5h25.5l7.3,0c4.4-0.2,8.6-0.9,12.2-1.6
			c-0.7,3.5-1.4,7.7-1.6,12.2c-0.1,2.4-0.2,4.9,0,7.3v25.5c0,3.5-1.3,6.6-3.5,9c-0.1,0.1-0.2,0.3-0.4,0.4c-2.4,2.4-5.7,3.9-9.4,3.9
			H85.1v7.4l7.3-0.1l4.9-0.1c3.5,0,6.8-0.8,9.8-2.5c1.7-0.9,3.3-2.1,4.8-3.6c3.9-3.9,6-9,6-14.6l0-2l0.3-23.5c0,0,0,0,0,0
			c-0.2-3-0.1-6,0.1-8.9c0,0,0,0,0,0c0.4-4.7,1.2-9.1,2-12.6C121.4,3.4,122.5,0.2,122.6,0z"/>
		
			<linearGradient id="SVGID_2_" gradientUnits="userSpaceOnUse" x1="1136.4849" y1="191.7417" x2="1224.2581" y2="283.3313" gradientTransform="matrix(0.7071 -0.7071 -0.7071 -0.7071 -617.9959 1087.6862)">
			<stop  offset="7.220000e-02" style="stop-color:#723D1D"/>
			<stop  offset="0.3782" style="stop-color:#C9A551"/>
			<stop  offset="0.6744" style="stop-color:#FFE37B"/>
			<stop  offset="0.8398" style="stop-color:#C9A551"/>
			<stop  offset="1" style="stop-color:#723D1D"/>
		</linearGradient>
		<path class="st1" d="M96.9,25.7c-0.2,0.1-4.1,1.5-10,2.8c-4.2,1-9.5,1.9-15.2,2.4c0,0,0,0-0.1,0c-3.4,0.2-7,0.3-10.5,0.1
			c0,0,0,0,0,0l-16,0.2l-8.8,0.1l-4.2,0l-1.7,0c-6.6,0-12.8,2.6-17.5,7.2c-1.7,1.7-3.1,3.6-4.3,5.7c-2,3.6-3,7.6-3,11.8L5.3,86.7
			c0,0,0,0,0,0c0.2,3.6,0.1,7.1-0.1,10.5c0,0,0,0,0,0.1c-0.4,5.7-1.4,11-2.4,15.2c-1.3,5.9-2.7,9.8-2.8,10c0.2-0.1,4.1-1.5,10-2.9
			c4.2-1,9.5-1.9,15.1-2.3c0,0,0,0,0,0c3.5-0.2,7-0.3,10.7-0.1c0,0,0,0,0,0l30.6-0.4c4.2,0,8.2-1,11.8-3c2.1-1.1,4-2.6,5.7-4.3
			c4.7-4.7,7.2-10.8,7.2-17.5l0-2.4l0-3.4l0.1-8.8l0.2-16c0,0,0,0,0,0c-0.2-3.6-0.1-7.2,0.1-10.7c0,0,0,0,0,0
			c0.5-5.7,1.4-10.9,2.3-15.1C95.4,29.8,96.8,26,96.9,25.7z M82.5,92.2c0,4.2-1.6,8-4.2,10.8c-0.1,0.2-0.3,0.3-0.5,0.5
			c-2.9,2.9-6.9,4.7-11.3,4.7H35.9c-3-0.2-5.9-0.2-8.8,0c-5.3,0.3-10.4,1.1-14.6,2c0.9-4.2,1.7-9.3,2-14.6l0-8.8V56.1
			c0-4.3,1.7-8.3,4.7-11.3c0.2-0.2,0.3-0.3,0.5-0.5c3-2.7,6.8-4.2,10.8-4.2H61l8.8,0c5.3-0.3,10.4-1.1,14.6-2
			c-0.9,4.2-1.7,9.3-2,14.6c-0.2,2.9-0.2,5.8,0,8.8L82.5,92.2L82.5,92.2z"/>
	</g>
</g>
</svg>
