<?xml version="1.0" encoding="utf-8"?>
<!-- Generator: Adobe Illustrator 25.2.1, SVG Export Plug-In . SVG Version: 6.00 Build 0)  -->
<svg version="1.1" id="Layer_1" xmlns="http://www.w3.org/2000/svg" xmlns:xlink="http://www.w3.org/1999/xlink" x="0px" y="0px"
	 viewBox="0 0 1080 1080" style="enable-background:new 0 0 1080 1080;" xml:space="preserve">
<style type="text/css">
	.st0{fill:url(#SVGID_1_);}
	.st1{fill:url(#SVGID_2_);}
</style>
<linearGradient id="SVGID_1_" gradientUnits="userSpaceOnUse" x1="162.0009" y1="945.7922" x2="776.2488" y2="-86.5792" gradientTransform="matrix(1 0 0 1 0 238.1102)">
	<stop  offset="0" style="stop-color:#A67C00"/>
	<stop  offset="0.13" style="stop-color:#BD951E"/>
	<stop  offset="0.36" style="stop-color:#E1BB4C"/>
	<stop  offset="0.54" style="stop-color:#F7D368"/>
	<stop  offset="0.64" style="stop-color:#FFDC73"/>
	<stop  offset="0.75" style="stop-color:#FFD044"/>
	<stop  offset="0.86" style="stop-color:#FFC71F"/>
	<stop  offset="0.95" style="stop-color:#FFC108"/>
	<stop  offset="1" style="stop-color:#FFBF00"/>
</linearGradient>
<path class="st0" d="M820.7,779.8c46-111.8-64.2-412.6-34-571.6C642.9,289.5,349.5,308.1,295,333.5
	c-136.3,63.6-139.4,179-102.2,307.2c32.5,134.5,9.8,308.2-62.3,427.1c41-41.2,69.9-93.4,91.4-147.1c34.7-92.2,52.1-193.2,37.7-291.3
	c-2.7-44.5-18.8-90.4-5.9-134.5c20-65.9,78.1-83.6,139.9-89.4c103.3-15.3,200.8-28.9,299.5-63.9c0.9,111.8,24.5,214.5,47.2,323.5
	c6.3,27.6,11.5,57,1.5,84.6c-24,79.3-107.6,84.2-175.7,101.2c-130.3,29.1-276.4,83.9-335.8,213.5c89.8-118.9,244.9-141.3,383-157
	C704.4,902.1,783.9,869.4,820.7,779.8z"/>
<linearGradient id="SVGID_2_" gradientUnits="userSpaceOnUse" x1="494.9118" y1="423.5239" x2="906.903" y2="-252.3694" gradientTransform="matrix(1 0 0 1 0 238.1102)">
	<stop  offset="0" style="stop-color:#A67C00"/>
	<stop  offset="0.1" style="stop-color:#BD951E"/>
	<stop  offset="0.27" style="stop-color:#E1BB4C"/>
	<stop  offset="0.41" style="stop-color:#F7D368"/>
	<stop  offset="0.48" style="stop-color:#FFDC73"/>
	<stop  offset="0.64" style="stop-color:#FFD044"/>
	<stop  offset="0.8" style="stop-color:#FFC71F"/>
	<stop  offset="0.92" style="stop-color:#FFC108"/>
	<stop  offset="1" style="stop-color:#FFBF00"/>
</linearGradient>
<path class="st1" d="M941.5,412.3c32.3-78.3-45-288.9-23.8-400.1C817,69.1,611.6,82.1,573.4,99.9c-95.4,44.5-97.6,125.3-71.5,215.2
	c22.8,94.2,6.8,215.7-43.6,299c28.7-28.8,49-65.4,63.9-103c24.3-64.6,36.5-135.3,26.4-203.9c-1.9-31.1-13.2-63.3-4.1-94
	c14-46.2,54.7-58.5,98-62.6c72.3-10.8,140.6-20.2,209.8-44.8c0.6,78.3,17.2,150.2,33,226.5c4.5,19.4,8,39.9,1.1,59.2
	c-16.8,55.5-75.3,59.2-123,70.8c-91.4,20.4-193.7,58.7-235,149.4c62.9-83.2,171.4-98.9,268.1-109.9C860,498,915.6,475.1,941.5,412.3
	z"/>
</svg>
