<?xml version="1.0" encoding="utf-8"?>
<!-- Generator: Adobe Illustrator 25.4.1, SVG Export Plug-In . SVG Version: 6.00 Build 0)  -->
<svg version="1.1" id="Layer_1" xmlns="http://www.w3.org/2000/svg" xmlns:xlink="http://www.w3.org/1999/xlink" x="0px" y="0px"
	 viewBox="0 0 1920 1080" style="enable-background:new 0 0 1920 1080;" xml:space="preserve">
<style type="text/css">
	.st0{fill:url(#SVGID_1_);}
	.st1{fill:#6E4A2C;}
	.st2{fill:none;stroke:#1A3560;stroke-miterlimit:10;}
	.st3{fill:#1A3560;}
	.st4{fill:#FFFFFF;}
	.st5{fill:url(#SVGID_00000014596372488703096130000009906947537372951741_);}
	.st6{fill:url(#SVGID_00000174583121351054224340000011590503324499657659_);}
	.st7{fill:url(#SVGID_00000037694226893731792630000004640074447621721774_);}
	.st8{fill:url(#SVGID_00000011737360138839383400000003519702542281812368_);}
	.st9{fill:url(#SVGID_00000165940739310403963380000000583642411940338566_);}
	.st10{fill:url(#SVGID_00000000194444289135503770000002535995389451871151_);}
	.st11{fill:url(#SVGID_00000099650227992440541630000009874928741371859345_);}
	.st12{fill:url(#SVGID_00000102508972436329535610000006528539121468929669_);}
</style>
<g>
	<path class="st1" d="M1259.08,540c0,23.75-2.77,46.85-8,69v0.01c-56.88,28.8-124.95,29.35-188.23,18.89
		c-66.74-11.03-131.3-33.24-198.17-43.49c-66.26-10.17-137.86-7.38-195.06,27.41c-5.67-23.01-8.69-47.06-8.69-71.82
		c0-165.17,133.9-299.07,299.08-299.07S1259.08,374.83,1259.08,540z"/>
	<linearGradient id="SVGID_1_" gradientUnits="userSpaceOnUse" x1="1441.4965" y1="540" x2="486.0145" y2="540">
		<stop  offset="0.022" style="stop-color:#723D1D"/>
		<stop  offset="0.3158" style="stop-color:#C9A551"/>
		<stop  offset="0.6744" style="stop-color:#FFE37B"/>
		<stop  offset="0.9213" style="stop-color:#C9A551"/>
		<stop  offset="1" style="stop-color:#723D1D"/>
	</linearGradient>
	<path class="st0" d="M960,205.47c-184.75,0-334.53,149.78-334.53,334.53S775.25,874.53,960,874.53S1294.53,724.75,1294.53,540
		S1144.75,205.47,960,205.47z M960,856.56c-174.83,0-316.56-141.73-316.56-316.56S785.17,223.44,960,223.44
		S1276.56,365.17,1276.56,540S1134.83,856.56,960,856.56z"/>
	
		<linearGradient id="SVGID_00000121255763790591219990000001225715251375121283_" gradientUnits="userSpaceOnUse" x1="510.0616" y1="540" x2="1415.8528" y2="540">
		<stop  offset="0.022" style="stop-color:#723D1D"/>
		<stop  offset="0.3158" style="stop-color:#C9A551"/>
		<stop  offset="0.6744" style="stop-color:#FFE37B"/>
		<stop  offset="0.9213" style="stop-color:#C9A551"/>
		<stop  offset="1" style="stop-color:#723D1D"/>
	</linearGradient>
	<path style="fill:url(#SVGID_00000121255763790591219990000001225715251375121283_);" d="M960,223.44
		c-174.83,0-316.56,141.73-316.56,316.56S785.17,856.56,960,856.56S1276.56,714.83,1276.56,540S1134.83,223.44,960,223.44z
		 M1251.07,609.01c-31.15,131.9-149.65,230.06-291.07,230.06c-140.42,0-258.23-96.77-290.39-227.25
		c-5.67-23.01-8.69-47.06-8.69-71.82c0-165.17,133.9-299.07,299.08-299.07s299.08,133.9,299.08,299.07
		C1259.08,563.75,1256.31,586.85,1251.07,609.01L1251.07,609.01z"/>
	
		<linearGradient id="SVGID_00000133499930835568083960000016680353814750511253_" gradientUnits="userSpaceOnUse" x1="479.0138" y1="709.1575" x2="1501.1688" y2="709.1575">
		<stop  offset="0.022" style="stop-color:#723D1D"/>
		<stop  offset="0.101" style="stop-color:#C9A551"/>
		<stop  offset="0.2235" style="stop-color:#E0BF63"/>
		<stop  offset="0.3706" style="stop-color:#F7D974"/>
		<stop  offset="0.4586" style="stop-color:#FFE37B"/>
		<stop  offset="0.5179" style="stop-color:#F9DD77"/>
		<stop  offset="0.6003" style="stop-color:#EACB6A"/>
		<stop  offset="0.696" style="stop-color:#D0AD56"/>
		<stop  offset="0.7187" style="stop-color:#C9A551"/>
		<stop  offset="1" style="stop-color:#723D1D"/>
	</linearGradient>
	<path style="fill:url(#SVGID_00000133499930835568083960000016680353814750511253_);" d="M1251.07,609.01
		c-31.15,131.9-149.65,230.06-291.07,230.06c-140.42,0-258.23-96.77-290.39-227.25c57.2-34.8,128.8-37.58,195.06-27.41
		c66.87,10.26,131.43,32.47,198.17,43.49C1126.12,638.35,1194.2,637.81,1251.07,609.01z"/>
	<g>
		<g>
			<path class="st1" d="M819.24,677.34h-16.46l-1.96,4.54c-0.64,1.51-0.96,2.76-0.96,3.75c0,1.31,0.53,2.27,1.58,2.89
				c0.62,0.37,2.14,0.64,4.57,0.82v1.27h-15.5v-1.27c1.67-0.25,3.05-0.94,4.12-2.08c1.08-1.13,2.41-3.48,3.99-7.03l16.67-37.19h0.65
				l16.81,38.22c1.6,3.62,2.92,5.9,3.95,6.84c0.78,0.71,1.88,1.12,3.3,1.24v1.27h-22.55v-1.27h0.93c1.81,0,3.08-0.25,3.82-0.76
				c0.5-0.37,0.76-0.89,0.76-1.58c0-0.41-0.07-0.84-0.21-1.27c-0.05-0.21-0.39-1.07-1.03-2.58L819.24,677.34z M818.07,674.8
				l-6.94-16.05l-7.15,16.05H818.07z"/>
			<path class="st1" d="M871.88,658.47v25.16c0,2.45,0.23,3.98,0.69,4.59c0.46,0.61,1.39,0.99,2.78,1.15v1.24h-13.1v-4.3
				c-1.54,1.83-3.07,3.17-4.61,4c-1.54,0.84-3.25,1.25-5.16,1.25c-1.81,0-3.42-0.56-4.83-1.67c-1.41-1.11-2.35-2.41-2.84-3.9
				c-0.48-1.49-0.72-4.09-0.72-7.8v-12.75c0-2.43-0.22-3.94-0.67-4.54c-0.45-0.6-1.38-0.98-2.8-1.17v-1.27h13.1v21.96
				c0,2.29,0.11,3.77,0.33,4.43c0.22,0.66,0.56,1.17,1.03,1.51c0.47,0.34,1.01,0.52,1.63,0.52c0.82,0,1.57-0.22,2.23-0.65
				c0.92-0.6,2.02-1.8,3.3-3.61v-17.19c0-2.43-0.22-3.94-0.67-4.54c-0.45-0.6-1.38-0.98-2.8-1.17v-1.27H871.88z"/>
			<path class="st1" d="M891.2,646.72v11.75h7.63v3.4h-7.63v19.83c0,1.86,0.09,3.05,0.26,3.59c0.17,0.54,0.48,0.97,0.91,1.31
				c0.43,0.33,0.84,0.5,1.2,0.5c1.49,0,2.9-1.13,4.23-3.4l1.03,0.76c-1.86,4.4-4.87,6.6-9.04,6.6c-2.04,0-3.76-0.57-5.17-1.7
				c-1.41-1.13-2.31-2.4-2.7-3.8c-0.23-0.78-0.34-2.89-0.34-6.32v-17.36h-4.19v-1.2c2.89-2.04,5.34-4.18,7.37-6.43
				c2.03-2.25,3.8-4.75,5.31-7.53H891.2z"/>
			<path class="st1" d="M914.22,644v18.59c1.76-1.86,3.38-3.17,4.85-3.94c1.47-0.77,2.99-1.15,4.57-1.15c2.02,0,3.74,0.57,5.17,1.72
				c1.43,1.15,2.38,2.49,2.85,4.04c0.47,1.55,0.7,4.15,0.7,7.82v12.55c0,2.45,0.23,3.98,0.69,4.59c0.46,0.61,1.39,0.99,2.78,1.15
				v1.24h-16.29v-1.24c1.15-0.16,2-0.62,2.58-1.37c0.41-0.6,0.62-2.05,0.62-4.37V669.3c0-2.66-0.1-4.32-0.31-5
				c-0.21-0.68-0.56-1.2-1.05-1.58c-0.49-0.38-1.05-0.57-1.67-0.57c-0.92,0-1.81,0.32-2.68,0.95c-0.87,0.63-1.81,1.74-2.82,3.32
				v17.22c0,2.29,0.17,3.72,0.52,4.3c0.43,0.78,1.33,1.26,2.68,1.44v1.24h-16.29v-1.24c1.35-0.14,2.31-0.57,2.89-1.31
				c0.39-0.5,0.58-1.98,0.58-4.43v-32.65c0-2.43-0.22-3.94-0.67-4.54c-0.45-0.6-1.38-0.98-2.8-1.17V644H914.22z"/>
			<path class="st1" d="M953.87,657.51c2.8,0,5.4,0.72,7.8,2.17c2.41,1.44,4.23,3.49,5.48,6.15c1.25,2.66,1.87,5.57,1.87,8.73
				c0,4.56-1.16,8.38-3.47,11.45c-2.8,3.71-6.66,5.57-11.58,5.57c-4.84,0-8.56-1.7-11.17-5.09c-2.61-3.39-3.92-7.32-3.92-11.79
				c0-4.61,1.33-8.62,4-12.05C945.56,659.22,949.22,657.51,953.87,657.51z M954.01,659.95c-1.17,0-2.17,0.44-3.01,1.32
				c-0.84,0.88-1.39,2.62-1.65,5.22c-0.26,2.6-0.4,6.22-0.4,10.84c0,2.45,0.16,4.74,0.48,6.87c0.25,1.63,0.79,2.86,1.62,3.71
				c0.82,0.85,1.76,1.27,2.82,1.27c1.03,0,1.89-0.29,2.58-0.86c0.89-0.78,1.49-1.87,1.79-3.27c0.46-2.18,0.69-6.58,0.69-13.2
				c0-3.9-0.22-6.57-0.65-8.03c-0.44-1.46-1.08-2.51-1.92-3.18C955.75,660.19,954.97,659.95,954.01,659.95z"/>
			<path class="st1" d="M985.67,658.47v7.29c2.13-3.32,4-5.53,5.6-6.62s3.15-1.63,4.64-1.63c1.28,0,2.31,0.4,3.08,1.19
				c0.77,0.79,1.15,1.91,1.15,3.35c0,1.54-0.37,2.73-1.12,3.57c-0.74,0.85-1.64,1.27-2.7,1.27c-1.21,0-2.27-0.39-3.16-1.17
				c-0.89-0.78-1.42-1.21-1.58-1.31c-0.23-0.14-0.49-0.21-0.79-0.21c-0.66,0-1.29,0.25-1.89,0.76c-0.94,0.78-1.65,1.89-2.13,3.33
				c-0.73,2.22-1.1,4.67-1.1,7.36v7.39l0.03,1.92c0,1.31,0.08,2.14,0.24,2.51c0.27,0.62,0.68,1.07,1.22,1.36
				c0.54,0.29,1.45,0.46,2.73,0.53v1.24h-17.36v-1.24c1.4-0.11,2.34-0.5,2.84-1.15c0.49-0.65,0.74-2.38,0.74-5.17v-17.77
				c0-1.83-0.09-3-0.27-3.51c-0.23-0.64-0.56-1.11-1-1.41c-0.44-0.3-1.2-0.5-2.3-0.62v-1.27H985.67z"/>
			<path class="st1" d="M1017.03,658.47v25.47c0,2.27,0.26,3.72,0.79,4.35c0.53,0.63,1.56,0.99,3.09,1.08v1.24h-17.36v-1.24
				c1.42-0.05,2.47-0.46,3.16-1.24c0.46-0.53,0.69-1.92,0.69-4.19v-18.77c0-2.27-0.26-3.72-0.79-4.35
				c-0.53-0.63-1.55-0.99-3.06-1.08v-1.27H1017.03z M1012.22,642.9c1.49,0,2.75,0.52,3.78,1.56c1.03,1.04,1.55,2.3,1.55,3.76
				c0,1.47-0.52,2.72-1.56,3.75c-1.04,1.03-2.3,1.55-3.76,1.55c-1.47,0-2.72-0.52-3.75-1.55s-1.55-2.28-1.55-3.75
				c0-1.47,0.52-2.72,1.55-3.76S1010.75,642.9,1012.22,642.9z"/>
			<path class="st1" d="M1051.9,690.61h-27.98v-0.76l17.67-29.28h-5.16c-2.22,0-3.82,0.2-4.78,0.6c-0.96,0.4-1.74,1.04-2.34,1.92
				c-0.6,0.88-1.21,2.46-1.86,4.73h-1.2v-9.35h27.05v0.93l-17.53,29.01h2.2c4.4,0,7.57-0.63,9.52-1.89c1.95-1.26,3.41-3.56,4.4-6.91
				h0.96L1051.9,690.61z"/>
			<path class="st1" d="M1083.9,673.39h-17.63c0.21,4.26,1.34,7.63,3.4,10.1c1.58,1.9,3.48,2.85,5.71,2.85
				c1.37,0,2.62-0.38,3.75-1.15c1.12-0.77,2.33-2.15,3.61-4.14l1.17,0.76c-1.74,3.55-3.67,6.07-5.77,7.54
				c-2.11,1.48-4.55,2.22-7.32,2.22c-4.77,0-8.38-1.83-10.83-5.5c-1.97-2.96-2.96-6.62-2.96-11c0-5.36,1.45-9.63,4.35-12.8
				c2.9-3.17,6.3-4.76,10.19-4.76c3.25,0,6.08,1.34,8.47,4C1082.43,664.18,1083.72,668.14,1083.9,673.39z M1075.44,671.09
				c0-3.69-0.2-6.22-0.6-7.6c-0.4-1.37-1.03-2.42-1.87-3.13c-0.48-0.41-1.12-0.62-1.92-0.62c-1.19,0-2.17,0.58-2.92,1.75
				c-1.35,2.04-2.03,4.84-2.03,8.39v1.2H1075.44z"/>
			<path class="st1" d="M1119.1,644v36.98c0,2.5,0.07,3.98,0.21,4.43c0.18,0.76,0.53,1.32,1.05,1.68c0.52,0.37,1.41,0.6,2.7,0.69
				v1.13l-13.58,2.65v-5.09c-1.63,1.97-3.08,3.31-4.35,4.02c-1.27,0.71-2.71,1.07-4.31,1.07c-4.1,0-7.34-1.83-9.73-5.5
				c-1.92-2.98-2.89-6.63-2.89-10.96c0-3.46,0.6-6.56,1.79-9.3c1.19-2.74,2.82-4.81,4.9-6.2c2.07-1.4,4.3-2.1,6.69-2.1
				c1.53,0,2.9,0.3,4.09,0.89c1.19,0.6,2.46,1.64,3.82,3.13v-9.69c0-2.45-0.1-3.93-0.31-4.43c-0.27-0.66-0.69-1.16-1.24-1.48
				c-0.55-0.32-1.58-0.48-3.09-0.48V644H1119.1z M1109.48,665.79c-1.7-3.25-3.77-4.88-6.22-4.88c-0.85,0-1.55,0.23-2.1,0.69
				c-0.85,0.71-1.54,1.96-2.08,3.75c-0.54,1.79-0.81,4.53-0.81,8.21c0,4.06,0.3,7.06,0.89,9.01c0.6,1.95,1.41,3.36,2.44,4.23
				c0.53,0.44,1.25,0.65,2.17,0.65c2.02,0,3.92-1.58,5.71-4.74V665.79z"/>
		</g>
		<g>
			<path class="st1" d="M822.16,700.37v11.38h-0.88c-1.06-3.11-2.66-5.48-4.78-7.09c-2.13-1.62-4.45-2.43-6.97-2.43
				c-2.41,0-4.42,0.68-6.02,2.04c-1.6,1.36-2.74,3.25-3.4,5.68c-0.67,2.43-1,4.92-1,7.47c0,3.09,0.37,5.81,1.09,8.14
				s1.91,4.05,3.54,5.14c1.63,1.09,3.56,1.64,5.8,1.64c0.78,0,1.58-0.08,2.39-0.25c0.82-0.17,1.65-0.41,2.51-0.73v-6.71
				c0-1.27-0.09-2.09-0.26-2.46c-0.17-0.37-0.54-0.71-1.08-1.01c-0.55-0.3-1.21-0.45-1.99-0.45h-0.83v-0.88h15.69v0.88
				c-1.19,0.08-2.02,0.24-2.49,0.49c-0.47,0.25-0.83,0.65-1.08,1.23c-0.14,0.3-0.21,1.04-0.21,2.21v6.71
				c-2.06,0.92-4.21,1.62-6.44,2.08c-2.23,0.47-4.54,0.7-6.94,0.7c-3.06,0-5.61-0.42-7.63-1.25c-2.02-0.83-3.81-1.93-5.36-3.28
				c-1.55-1.36-2.76-2.88-3.63-4.58c-1.11-2.19-1.67-4.64-1.67-7.36c0-4.86,1.71-8.96,5.12-12.31c3.41-3.35,7.7-5.02,12.88-5.02
				c1.6,0,3.05,0.13,4.33,0.38c0.7,0.13,1.83,0.49,3.39,1.08c1.56,0.59,2.49,0.89,2.77,0.89c0.44,0,0.86-0.16,1.24-0.49
				c0.38-0.32,0.73-0.94,1.05-1.84H822.16z"/>
			<path class="st1" d="M847.25,721.46h-12.21c0.14,2.95,0.93,5.28,2.36,7c1.1,1.32,2.41,1.98,3.95,1.98c0.95,0,1.82-0.27,2.59-0.8
				c0.78-0.53,1.61-1.49,2.5-2.87l0.81,0.52c-1.21,2.46-2.54,4.2-4,5.23c-1.46,1.02-3.15,1.54-5.07,1.54c-3.3,0-5.8-1.27-7.5-3.81
				c-1.36-2.05-2.05-4.59-2.05-7.62c0-3.71,1-6.67,3.01-8.87c2.01-2.2,4.36-3.3,7.06-3.3c2.25,0,4.21,0.92,5.87,2.77
				C846.23,715.09,847.13,717.83,847.25,721.46z M841.4,719.87c0-2.55-0.14-4.31-0.42-5.26c-0.28-0.95-0.71-1.67-1.3-2.17
				c-0.33-0.29-0.78-0.43-1.33-0.43c-0.83,0-1.5,0.4-2.02,1.21c-0.94,1.41-1.4,3.35-1.4,5.81v0.83H841.4z"/>
			<path class="st1" d="M858.56,711.13v2.88c1.14-1.24,2.24-2.14,3.28-2.7c1.05-0.56,2.17-0.84,3.38-0.84c1.44,0,2.64,0.4,3.59,1.2
				c0.95,0.8,1.59,1.8,1.9,2.99c0.25,0.9,0.38,2.64,0.38,5.21v8.66c0,1.71,0.15,2.78,0.46,3.2c0.31,0.42,0.96,0.69,1.94,0.8v0.86
				h-11.26v-0.86c0.84-0.11,1.44-0.46,1.81-1.05c0.25-0.4,0.38-1.38,0.38-2.95v-9.9c0-1.82-0.07-2.98-0.21-3.45
				s-0.38-0.84-0.73-1.11c-0.34-0.26-0.72-0.39-1.13-0.39c-1.36,0-2.63,0.98-3.81,2.93v11.93c0,1.67,0.15,2.72,0.46,3.17
				c0.31,0.44,0.88,0.72,1.73,0.83v0.86h-11.26v-0.86c0.94-0.1,1.6-0.4,2-0.9c0.27-0.35,0.4-1.38,0.4-3.09v-12.57
				c0-1.68-0.15-2.73-0.46-3.14c-0.31-0.41-0.96-0.68-1.94-0.81v-0.88H858.56z"/>
			<path class="st1" d="M894.45,721.46h-12.21c0.14,2.95,0.93,5.28,2.36,7c1.1,1.32,2.41,1.98,3.95,1.98c0.95,0,1.82-0.27,2.59-0.8
				c0.78-0.53,1.61-1.49,2.5-2.87l0.81,0.52c-1.21,2.46-2.54,4.2-4,5.23c-1.46,1.02-3.15,1.54-5.07,1.54c-3.3,0-5.8-1.27-7.5-3.81
				c-1.36-2.05-2.05-4.59-2.05-7.62c0-3.71,1-6.67,3.01-8.87c2.01-2.2,4.36-3.3,7.06-3.3c2.25,0,4.21,0.92,5.87,2.77
				C893.43,715.09,894.32,717.83,894.45,721.46z M888.59,719.87c0-2.55-0.14-4.31-0.42-5.26c-0.28-0.95-0.71-1.67-1.3-2.17
				c-0.33-0.29-0.78-0.43-1.33-0.43c-0.83,0-1.5,0.4-2.02,1.21c-0.94,1.41-1.4,3.35-1.4,5.81v0.83H888.59z"/>
			<path class="st1" d="M905.7,711.13v5.05c1.48-2.3,2.77-3.83,3.88-4.58c1.11-0.75,2.18-1.13,3.21-1.13c0.89,0,1.6,0.27,2.13,0.82
				c0.53,0.55,0.8,1.32,0.8,2.32c0,1.06-0.26,1.89-0.77,2.48c-0.52,0.59-1.14,0.88-1.87,0.88c-0.84,0-1.57-0.27-2.19-0.81
				c-0.62-0.54-0.98-0.84-1.09-0.9c-0.16-0.1-0.34-0.14-0.55-0.14c-0.46,0-0.9,0.17-1.31,0.52c-0.65,0.54-1.14,1.31-1.48,2.31
				c-0.51,1.54-0.76,3.24-0.76,5.09v5.12l0.02,1.33c0,0.9,0.06,1.48,0.17,1.74c0.19,0.43,0.47,0.74,0.85,0.94
				c0.37,0.2,1,0.32,1.89,0.37v0.86h-12.02v-0.86c0.97-0.08,1.62-0.34,1.96-0.8c0.34-0.45,0.51-1.65,0.51-3.58v-12.31
				c0-1.27-0.06-2.08-0.19-2.43c-0.16-0.44-0.39-0.77-0.69-0.98c-0.3-0.21-0.83-0.35-1.59-0.43v-0.88H905.7z"/>
			<path class="st1" d="M929.97,730.1c-2.71,2.4-5.15,3.59-7.31,3.59c-1.27,0-2.33-0.42-3.17-1.25c-0.84-0.83-1.26-1.88-1.26-3.13
				c0-1.7,0.73-3.23,2.19-4.58c1.46-1.36,4.64-3.16,9.55-5.42v-2.24c0-1.68-0.09-2.74-0.27-3.18c-0.18-0.44-0.53-0.82-1.04-1.14
				c-0.51-0.33-1.08-0.49-1.71-0.49c-1.03,0-1.88,0.23-2.55,0.69c-0.41,0.29-0.62,0.62-0.62,1c0,0.33,0.22,0.75,0.67,1.24
				c0.6,0.68,0.9,1.34,0.9,1.98c0,0.78-0.29,1.44-0.87,1.99c-0.58,0.55-1.34,0.82-2.27,0.82c-1,0-1.84-0.3-2.51-0.9
				c-0.67-0.6-1.01-1.31-1.01-2.12c0-1.14,0.45-2.23,1.36-3.27c0.9-1.04,2.17-1.84,3.78-2.39c1.62-0.56,3.3-0.83,5.05-0.83
				c2.11,0,3.78,0.45,5.01,1.35s2.03,1.87,2.39,2.92c0.22,0.67,0.33,2.2,0.33,4.59v8.64c0,1.02,0.04,1.65,0.12,1.92
				c0.08,0.26,0.2,0.46,0.36,0.58c0.16,0.13,0.34,0.19,0.55,0.19c0.41,0,0.83-0.29,1.26-0.88l0.71,0.57
				c-0.79,1.17-1.62,2.03-2.46,2.56c-0.85,0.53-1.81,0.8-2.89,0.8c-1.27,0-2.26-0.3-2.98-0.89
				C930.56,732.21,930.13,731.31,929.97,730.1z M929.97,728.36v-7.45c-1.92,1.13-3.35,2.33-4.28,3.62
				c-0.62,0.86-0.93,1.72-0.93,2.59c0,0.73,0.26,1.37,0.79,1.93c0.4,0.43,0.95,0.64,1.67,0.64
				C928,729.7,928.92,729.25,929.97,728.36z"/>
			<path class="st1" d="M950.7,701.11v27.66c0,1.57,0.18,2.57,0.55,3.01c0.37,0.44,1.08,0.69,2.14,0.75v0.86h-12.02v-0.86
				c0.98-0.03,1.71-0.32,2.19-0.86c0.32-0.36,0.48-1.33,0.48-2.9v-23.04c0-1.55-0.18-2.55-0.55-2.99c-0.37-0.44-1.07-0.69-2.12-0.75
				v-0.88H950.7z"/>
			<path class="st1" d="M989.95,700.37l0.26,10.76h-0.98c-0.46-2.7-1.59-4.87-3.39-6.51c-1.8-1.64-3.75-2.46-5.84-2.46
				c-1.62,0-2.9,0.43-3.84,1.3c-0.94,0.87-1.42,1.86-1.42,2.99c0,0.71,0.17,1.35,0.5,1.9c0.46,0.75,1.2,1.48,2.21,2.21
				c0.75,0.52,2.47,1.45,5.17,2.79c3.78,1.86,6.32,3.61,7.64,5.26c1.3,1.65,1.95,3.54,1.95,5.67c0,2.7-1.05,5.02-3.15,6.96
				c-2.1,1.94-4.77,2.92-8.01,2.92c-1.02,0-1.98-0.1-2.88-0.31c-0.9-0.21-2.04-0.6-3.4-1.17c-0.76-0.32-1.39-0.48-1.88-0.48
				c-0.41,0-0.85,0.16-1.31,0.48c-0.46,0.32-0.83,0.8-1.12,1.45h-0.88v-12.19h0.88c0.7,3.43,2.04,6.04,4.03,7.84
				c1.99,1.8,4.14,2.7,6.44,2.7c1.78,0,3.19-0.48,4.25-1.45c1.06-0.97,1.58-2.09,1.58-3.38c0-0.76-0.2-1.5-0.61-2.21
				c-0.4-0.71-1.02-1.39-1.84-2.04c-0.83-0.64-2.29-1.48-4.38-2.51c-2.94-1.44-5.05-2.67-6.33-3.69c-1.29-1.02-2.27-2.15-2.96-3.4
				c-0.69-1.25-1.04-2.63-1.04-4.14c0-2.57,0.94-4.76,2.83-6.57c1.89-1.81,4.27-2.71,7.14-2.71c1.05,0,2.06,0.13,3.05,0.38
				c0.75,0.19,1.65,0.54,2.73,1.06c1.07,0.52,1.82,0.77,2.25,0.77c0.41,0,0.74-0.13,0.98-0.38c0.24-0.25,0.46-0.86,0.67-1.83H989.95
				z"/>
			<path class="st1" d="M1007.44,730.1c-2.71,2.4-5.15,3.59-7.31,3.59c-1.27,0-2.32-0.42-3.17-1.25c-0.84-0.83-1.26-1.88-1.26-3.13
				c0-1.7,0.73-3.23,2.19-4.58c1.46-1.36,4.64-3.16,9.55-5.42v-2.24c0-1.68-0.09-2.74-0.27-3.18c-0.18-0.44-0.53-0.82-1.04-1.14
				c-0.51-0.33-1.08-0.49-1.71-0.49c-1.03,0-1.88,0.23-2.55,0.69c-0.41,0.29-0.62,0.62-0.62,1c0,0.33,0.22,0.75,0.67,1.24
				c0.6,0.68,0.9,1.34,0.9,1.98c0,0.78-0.29,1.44-0.87,1.99c-0.58,0.55-1.34,0.82-2.27,0.82c-1,0-1.84-0.3-2.51-0.9
				c-0.67-0.6-1.01-1.31-1.01-2.12c0-1.14,0.45-2.23,1.36-3.27c0.9-1.04,2.17-1.84,3.78-2.39c1.62-0.56,3.3-0.83,5.05-0.83
				c2.11,0,3.78,0.45,5.01,1.35c1.23,0.9,2.03,1.87,2.39,2.92c0.22,0.67,0.33,2.2,0.33,4.59v8.64c0,1.02,0.04,1.65,0.12,1.92
				c0.08,0.26,0.2,0.46,0.36,0.58c0.16,0.13,0.34,0.19,0.55,0.19c0.41,0,0.83-0.29,1.26-0.88l0.71,0.57
				c-0.79,1.17-1.61,2.03-2.46,2.56c-0.85,0.53-1.81,0.8-2.89,0.8c-1.27,0-2.26-0.3-2.98-0.89
				C1008.03,732.21,1007.6,731.31,1007.44,730.1z M1007.44,728.36v-7.45c-1.92,1.13-3.35,2.33-4.28,3.62
				c-0.62,0.86-0.93,1.72-0.93,2.59c0,0.73,0.26,1.37,0.79,1.93c0.4,0.43,0.95,0.64,1.67,0.64
				C1005.47,729.7,1006.39,729.25,1007.44,728.36z"/>
			<path class="st1" d="M1028.17,701.11v27.66c0,1.57,0.18,2.57,0.55,3.01c0.36,0.44,1.08,0.69,2.14,0.75v0.86h-12.02v-0.86
				c0.98-0.03,1.71-0.32,2.19-0.86c0.32-0.36,0.48-1.33,0.48-2.9v-23.04c0-1.55-0.18-2.55-0.55-2.99c-0.37-0.44-1.07-0.69-2.12-0.75
				v-0.88H1028.17z"/>
			<path class="st1" d="M1051.24,721.46h-12.21c0.14,2.95,0.93,5.28,2.36,7c1.09,1.32,2.41,1.98,3.95,1.98
				c0.95,0,1.82-0.27,2.59-0.8c0.78-0.53,1.61-1.49,2.5-2.87l0.81,0.52c-1.21,2.46-2.54,4.2-4,5.23c-1.46,1.02-3.15,1.54-5.07,1.54
				c-3.3,0-5.8-1.27-7.5-3.81c-1.36-2.05-2.05-4.59-2.05-7.62c0-3.71,1-6.67,3.01-8.87c2.01-2.2,4.36-3.3,7.06-3.3
				c2.25,0,4.21,0.92,5.87,2.77C1050.22,715.09,1051.11,717.83,1051.24,721.46z M1045.38,719.87c0-2.55-0.14-4.31-0.42-5.26
				c-0.28-0.95-0.71-1.67-1.3-2.17c-0.33-0.29-0.78-0.43-1.33-0.43c-0.83,0-1.5,0.4-2.02,1.21c-0.94,1.41-1.4,3.35-1.4,5.81v0.83
				H1045.38z"/>
			<path class="st1" d="M1068.14,710.51l0.36,7.59h-0.81c-0.97-2.25-1.97-3.79-3.01-4.62c-1.04-0.83-2.08-1.24-3.11-1.24
				c-0.65,0-1.21,0.22-1.67,0.65c-0.46,0.44-0.69,0.94-0.69,1.51c0,0.43,0.16,0.84,0.48,1.24c0.51,0.65,1.93,1.77,4.26,3.34
				c2.33,1.58,3.87,2.92,4.61,4.02c0.74,1.1,1.11,2.34,1.11,3.7c0,1.24-0.31,2.45-0.93,3.64c-0.62,1.19-1.49,2.1-2.62,2.74
				c-1.13,0.63-2.37,0.95-3.74,0.95c-1.06,0-2.48-0.33-4.26-1c-0.48-0.17-0.8-0.26-0.98-0.26c-0.52,0-0.96,0.4-1.31,1.19h-0.79
				l-0.38-8h0.81c0.71,2.09,1.69,3.67,2.94,4.71c1.25,1.05,2.42,1.57,3.54,1.57c0.76,0,1.38-0.23,1.87-0.7
				c0.48-0.47,0.73-1.04,0.73-1.7c0-0.76-0.24-1.42-0.71-1.98c-0.48-0.56-1.54-1.4-3.19-2.52c-2.43-1.68-4-2.97-4.71-3.86
				c-1.05-1.3-1.57-2.74-1.57-4.31c0-1.71,0.59-3.26,1.77-4.65c1.18-1.39,2.89-2.08,5.13-2.08c1.21,0,2.37,0.29,3.5,0.88
				c0.43,0.24,0.78,0.36,1.05,0.36c0.29,0,0.52-0.06,0.69-0.18c0.17-0.12,0.45-0.46,0.83-1.01H1068.14z"/>
			<path class="st1" d="M1112.32,714.08h9.9v0.93c-1.11,0.16-1.98,0.49-2.62,0.99c-0.64,0.5-1.46,1.66-2.48,3.49
				c-1.02,1.83-2.44,3.86-4.28,6.12c1.62,1.46,2.94,2.48,3.95,3.05c0.71,0.4,1.41,0.6,2.09,0.6c1.17,0,2.24-0.77,3.19-2.31
				l0.98,0.52c-1.3,2.56-2.69,4.37-4.17,5.45c-1.13,0.81-2.41,1.21-3.86,1.21c-1.24,0-2.42-0.27-3.54-0.8
				c-1.12-0.53-2.48-1.53-4.08-2.99c-1.98,1.33-3.85,2.3-5.59,2.89c-1.75,0.59-3.56,0.89-5.45,0.89c-3.02,0-5.41-0.82-7.19-2.45
				c-1.78-1.63-2.67-3.55-2.67-5.76c0-2.38,0.85-4.45,2.55-6.21c1.7-1.76,4.17-3.28,7.4-4.57c-0.41-1.03-0.72-2.04-0.93-3.02
				c-0.21-0.98-0.31-1.94-0.31-2.86c0-2.54,0.89-4.65,2.68-6.34c1.79-1.69,4.07-2.54,6.84-2.54c2.24,0,4.01,0.56,5.32,1.68
				c1.31,1.12,1.96,2.42,1.96,3.92c0,1.79-0.67,3.33-2.01,4.61s-3.46,2.45-6.37,3.51c1.79,3.16,4.42,6.56,7.88,10.21
				c2.33-2.62,3.5-4.86,3.5-6.74c0-0.67-0.23-1.23-0.69-1.7c-0.46-0.47-1.13-0.75-2.02-0.85V714.08z M1097.13,716.65
				c-1.27,0.54-2.17,1.11-2.69,1.71c-0.75,0.89-1.12,1.88-1.12,2.98c0,1.49,0.43,2.98,1.3,4.45c0.86,1.48,1.91,2.62,3.13,3.43
				c1.22,0.81,2.44,1.21,3.67,1.21c0.6,0,1.28-0.13,2.04-0.39c0.75-0.26,1.58-0.65,2.46-1.18
				C1102.09,724.95,1099.16,720.87,1097.13,716.65z M1102.84,712.65c1.67-0.62,2.79-1.28,3.36-1.99c0.57-0.71,0.86-1.56,0.86-2.56
				c0-1.78-0.47-3.28-1.4-4.5c-0.62-0.81-1.38-1.21-2.29-1.21c-0.75,0-1.38,0.29-1.92,0.88c-0.53,0.59-0.8,1.38-0.8,2.38
				c0,0.78,0.13,1.61,0.38,2.5C1101.29,709.04,1101.89,710.54,1102.84,712.65z"/>
		</g>
		<g>
			<path class="st1" d="M812.94,743.71l0.29,11.85h-1.07c-0.51-2.97-1.75-5.36-3.73-7.17c-1.98-1.81-4.13-2.71-6.43-2.71
				c-1.78,0-3.19,0.48-4.23,1.43c-1.04,0.95-1.56,2.05-1.56,3.29c0,0.79,0.18,1.49,0.55,2.1c0.51,0.82,1.32,1.63,2.44,2.44
				c0.82,0.58,2.72,1.6,5.69,3.07c4.16,2.04,6.96,3.98,8.41,5.79c1.43,1.82,2.15,3.9,2.15,6.24c0,2.97-1.16,5.53-3.47,7.67
				c-2.32,2.14-5.25,3.21-8.82,3.21c-1.12,0-2.18-0.11-3.17-0.34c-1-0.23-2.25-0.66-3.75-1.28c-0.84-0.35-1.53-0.52-2.07-0.52
				c-0.45,0-0.93,0.17-1.44,0.52c-0.51,0.35-0.92,0.88-1.23,1.6h-0.97v-13.42h0.97c0.77,3.77,2.25,6.65,4.44,8.64
				c2.19,1.98,4.56,2.97,7.09,2.97c1.96,0,3.52-0.53,4.68-1.6c1.16-1.07,1.74-2.31,1.74-3.72c0-0.84-0.22-1.65-0.67-2.44
				s-1.12-1.53-2.03-2.24c-0.91-0.71-2.52-1.63-4.82-2.76c-3.23-1.59-5.56-2.94-6.97-4.06c-1.42-1.12-2.5-2.37-3.26-3.75
				c-0.76-1.38-1.14-2.9-1.14-4.56c0-2.83,1.04-5.24,3.12-7.23c2.08-1.99,4.7-2.99,7.86-2.99c1.15,0,2.27,0.14,3.35,0.42
				c0.82,0.21,1.82,0.6,3,1.17c1.18,0.57,2,0.85,2.48,0.85c0.45,0,0.81-0.14,1.07-0.42c0.26-0.28,0.51-0.95,0.73-2.02H812.94z"/>
			<path class="st1" d="M839.89,766.93h-13.44c0.16,3.25,1.02,5.82,2.59,7.71c1.21,1.45,2.66,2.18,4.35,2.18
				c1.05,0,2-0.29,2.86-0.88c0.86-0.59,1.77-1.64,2.75-3.16l0.89,0.58c-1.33,2.71-2.8,4.63-4.4,5.75c-1.61,1.13-3.47,1.69-5.58,1.69
				c-3.63,0-6.39-1.4-8.26-4.19c-1.5-2.25-2.25-5.05-2.25-8.39c0-4.09,1.1-7.34,3.32-9.76c2.21-2.42,4.8-3.63,7.77-3.63
				c2.48,0,4.63,1.02,6.46,3.05C838.76,759.91,839.75,762.93,839.89,766.93z M833.44,765.18c0-2.81-0.15-4.74-0.46-5.79
				c-0.31-1.05-0.78-1.84-1.43-2.38c-0.37-0.31-0.86-0.47-1.47-0.47c-0.91,0-1.65,0.45-2.23,1.34c-1.03,1.56-1.55,3.69-1.55,6.39
				v0.92H833.44z"/>
			<path class="st1" d="M852.28,755.56v5.56c1.62-2.53,3.05-4.21,4.27-5.05c1.22-0.83,2.4-1.24,3.54-1.24c0.98,0,1.76,0.3,2.35,0.9
				c0.59,0.6,0.88,1.45,0.88,2.56c0,1.17-0.28,2.08-0.85,2.73c-0.57,0.65-1.25,0.97-2.06,0.97c-0.93,0-1.73-0.3-2.41-0.89
				c-0.68-0.59-1.08-0.93-1.21-1c-0.17-0.1-0.38-0.16-0.6-0.16c-0.51,0-0.99,0.19-1.44,0.58c-0.72,0.59-1.26,1.44-1.62,2.54
				c-0.56,1.69-0.84,3.56-0.84,5.61v5.63l0.03,1.47c0,1,0.06,1.63,0.18,1.91c0.21,0.47,0.52,0.82,0.93,1.04
				c0.41,0.22,1.1,0.35,2.08,0.41v0.94h-13.23v-0.94c1.07-0.09,1.79-0.38,2.16-0.88c0.38-0.5,0.56-1.81,0.56-3.94v-13.55
				c0-1.4-0.07-2.29-0.21-2.67c-0.17-0.49-0.43-0.85-0.76-1.07c-0.33-0.23-0.92-0.38-1.76-0.47v-0.97H852.28z"/>
			<path class="st1" d="M878.01,780.8l-8.26-19c-1-2.29-1.77-3.74-2.33-4.35c-0.4-0.45-1-0.76-1.78-0.92v-0.97h13.03v0.97
				c-0.82,0-1.38,0.15-1.68,0.45c-0.42,0.38-0.63,0.84-0.63,1.36c0,0.65,0.38,1.86,1.15,3.64l4.04,9.2l3.22-7.94
				c0.93-2.27,1.39-3.88,1.39-4.82c0-0.54-0.2-0.98-0.59-1.32c-0.39-0.34-1.09-0.53-2.08-0.56v-0.97h8.02v0.97
				c-0.77,0.1-1.4,0.39-1.89,0.86c-0.49,0.47-1.22,1.86-2.2,4.17l-8.18,19.24H878.01z"/>
			<path class="st1" d="M904.28,755.56v19.42c0,1.73,0.2,2.83,0.6,3.32c0.4,0.48,1.19,0.76,2.36,0.83v0.94h-13.23v-0.94
				c1.08-0.03,1.89-0.35,2.41-0.94c0.35-0.4,0.52-1.47,0.52-3.2v-14.31c0-1.73-0.2-2.83-0.6-3.32c-0.4-0.48-1.18-0.76-2.33-0.83
				v-0.97H904.28z M900.61,743.69c1.14,0,2.1,0.4,2.88,1.19c0.79,0.8,1.18,1.75,1.18,2.87c0,1.12-0.4,2.07-1.19,2.86
				c-0.8,0.79-1.75,1.18-2.87,1.18c-1.12,0-2.07-0.39-2.86-1.18c-0.79-0.79-1.18-1.74-1.18-2.86c0-1.12,0.39-2.07,1.18-2.87
				C898.54,744.08,899.49,743.69,900.61,743.69z"/>
			<path class="st1" d="M928.95,773.75l0.81,0.63c-1.15,2.17-2.59,3.78-4.31,4.84c-1.72,1.06-3.55,1.59-5.49,1.59
				c-3.27,0-5.88-1.23-7.84-3.7c-1.96-2.46-2.94-5.42-2.94-8.88c0-3.34,0.89-6.27,2.67-8.81c2.15-3.06,5.11-4.59,8.88-4.59
				c2.53,0,4.55,0.64,6.04,1.91c1.49,1.28,2.24,2.7,2.24,4.27c0,1-0.3,1.79-0.9,2.38c-0.6,0.59-1.39,0.89-2.37,0.89
				c-1.03,0-1.88-0.34-2.56-1.02c-0.67-0.68-1.09-1.9-1.24-3.64c-0.1-1.1-0.36-1.87-0.76-2.31c-0.4-0.44-0.87-0.66-1.42-0.66
				c-0.84,0-1.56,0.45-2.15,1.34c-0.91,1.35-1.36,3.41-1.36,6.19c0,2.31,0.37,4.51,1.1,6.62c0.73,2.11,1.74,3.67,3.01,4.7
				c0.96,0.75,2.1,1.13,3.41,1.13c0.86,0,1.67-0.2,2.44-0.6C926.99,775.62,927.9,774.86,928.95,773.75z"/>
			<path class="st1" d="M953.07,766.93h-13.44c0.16,3.25,1.02,5.82,2.59,7.71c1.21,1.45,2.66,2.18,4.35,2.18
				c1.05,0,2-0.29,2.86-0.88c0.86-0.59,1.77-1.64,2.75-3.16l0.89,0.58c-1.33,2.71-2.8,4.63-4.4,5.75c-1.61,1.13-3.47,1.69-5.58,1.69
				c-3.63,0-6.39-1.4-8.26-4.19c-1.5-2.25-2.25-5.05-2.25-8.39c0-4.09,1.1-7.34,3.32-9.76c2.21-2.42,4.8-3.63,7.77-3.63
				c2.48,0,4.63,1.02,6.46,3.05C951.95,759.91,952.93,762.93,953.07,766.93z M946.63,765.18c0-2.81-0.15-4.74-0.46-5.79
				c-0.31-1.05-0.78-1.84-1.43-2.38c-0.37-0.31-0.86-0.47-1.47-0.47c-0.91,0-1.65,0.45-2.23,1.34c-1.03,1.56-1.55,3.69-1.55,6.39
				v0.92H946.63z"/>
			<path class="st1" d="M971.68,754.88l0.39,8.36h-0.89c-1.07-2.48-2.17-4.18-3.32-5.08c-1.14-0.91-2.28-1.36-3.42-1.36
				c-0.72,0-1.33,0.24-1.83,0.72c-0.51,0.48-0.76,1.04-0.76,1.66c0,0.47,0.17,0.93,0.52,1.36c0.56,0.72,2.12,1.94,4.69,3.68
				c2.57,1.74,4.26,3.22,5.07,4.43c0.81,1.21,1.22,2.57,1.22,4.08c0,1.36-0.34,2.7-1.02,4.01c-0.68,1.31-1.64,2.32-2.88,3.01
				c-1.24,0.7-2.61,1.05-4.11,1.05c-1.17,0-2.73-0.37-4.69-1.1c-0.52-0.19-0.88-0.29-1.07-0.29c-0.58,0-1.06,0.44-1.44,1.31h-0.86
				l-0.42-8.81h0.89c0.79,2.31,1.86,4.04,3.24,5.19c1.37,1.15,2.67,1.73,3.89,1.73c0.84,0,1.52-0.26,2.06-0.77
				c0.53-0.52,0.8-1.14,0.8-1.87c0-0.84-0.26-1.56-0.79-2.18c-0.52-0.61-1.69-1.54-3.51-2.78c-2.67-1.85-4.4-3.27-5.19-4.25
				c-1.15-1.43-1.73-3.01-1.73-4.74c0-1.89,0.65-3.59,1.95-5.12c1.3-1.53,3.18-2.29,5.65-2.29c1.33,0,2.61,0.32,3.85,0.97
				c0.47,0.26,0.86,0.39,1.15,0.39c0.31,0,0.57-0.07,0.76-0.2c0.19-0.13,0.5-0.5,0.92-1.11H971.68z"/>
			<path class="st1" d="M1012.09,769.95h-12.55l-1.49,3.46c-0.49,1.15-0.73,2.11-0.73,2.86c0,1,0.4,1.73,1.21,2.2
				c0.47,0.28,1.63,0.49,3.49,0.63v0.97h-11.82v-0.97c1.28-0.19,2.32-0.72,3.14-1.59c0.82-0.86,1.83-2.65,3.04-5.36l12.71-28.36h0.5
				l12.82,29.14c1.22,2.76,2.23,4.5,3.01,5.22c0.59,0.54,1.43,0.86,2.52,0.94v0.97h-17.19v-0.97h0.71c1.38,0,2.35-0.19,2.91-0.58
				c0.38-0.28,0.58-0.68,0.58-1.21c0-0.31-0.05-0.64-0.16-0.97c-0.04-0.16-0.3-0.81-0.79-1.97L1012.09,769.95z M1011.2,768.01
				l-5.29-12.24l-5.45,12.24H1011.2z"/>
			<path class="st1" d="M1045.94,755.85h8.26v2.88h-4.69c0.86,0.86,1.45,1.63,1.78,2.33c0.42,0.94,0.63,1.93,0.63,2.96
				c0,1.75-0.48,3.26-1.45,4.55c-0.97,1.28-2.29,2.29-3.96,3.01c-1.67,0.73-3.15,1.09-4.44,1.09c-0.1,0-1.15-0.04-3.14-0.13
				c-0.79,0-1.45,0.26-1.98,0.77c-0.53,0.52-0.8,1.13-0.8,1.85c0,0.63,0.24,1.14,0.72,1.55c0.48,0.4,1.26,0.6,2.35,0.6l4.53-0.05
				c3.67,0,6.19,0.4,7.57,1.21c1.97,1.12,2.96,2.84,2.96,5.16c0,1.48-0.45,2.83-1.36,4.05c-0.91,1.21-2.11,2.11-3.59,2.69
				c-2.25,0.86-4.85,1.28-7.78,1.28c-2.2,0-4.21-0.21-6.03-0.64c-1.82-0.43-3.12-1.02-3.9-1.78s-1.18-1.56-1.18-2.4
				c0-0.8,0.3-1.52,0.9-2.16c0.6-0.64,1.73-1.18,3.37-1.61c-2.27-1.12-3.41-2.67-3.41-4.67c0-1.21,0.46-2.38,1.39-3.51
				c0.93-1.14,2.39-2.12,4.4-2.96c-2.34-0.86-4.04-1.98-5.08-3.38c-1.05-1.4-1.57-3.01-1.57-4.85c0-2.39,0.98-4.47,2.94-6.22
				c1.96-1.76,4.47-2.63,7.55-2.63C1042.53,754.82,1044.21,755.16,1045.94,755.85z M1039.86,783.68c-1.78,0-2.96,0.15-3.54,0.45
				c-1,0.54-1.49,1.28-1.49,2.2c0,0.89,0.52,1.7,1.55,2.42c1.03,0.72,2.97,1.09,5.82,1.09c2.43,0,4.34-0.32,5.73-0.97
				c1.39-0.65,2.08-1.56,2.08-2.73c0-0.44-0.13-0.8-0.39-1.1c-0.47-0.52-1.18-0.88-2.14-1.07
				C1046.52,783.77,1043.98,783.68,1039.86,783.68z M1041.41,756.45c-1.01,0-1.87,0.51-2.57,1.53c-0.7,1.02-1.05,3.14-1.05,6.36
				c0,2.6,0.34,4.39,1.04,5.36c0.69,0.97,1.51,1.45,2.45,1.45c1.05,0,1.92-0.48,2.62-1.44c0.7-0.96,1.05-2.83,1.05-5.61
				c0-3.13-0.39-5.26-1.18-6.39C1043.21,756.87,1042.42,756.45,1041.41,756.45z"/>
			<path class="st1" d="M1076.58,766.93h-13.44c0.16,3.25,1.02,5.82,2.59,7.71c1.21,1.45,2.66,2.18,4.35,2.18
				c1.05,0,2-0.29,2.86-0.88c0.86-0.59,1.77-1.64,2.75-3.16l0.89,0.58c-1.33,2.71-2.8,4.63-4.4,5.75c-1.61,1.13-3.47,1.69-5.58,1.69
				c-3.63,0-6.39-1.4-8.26-4.19c-1.5-2.25-2.25-5.05-2.25-8.39c0-4.09,1.1-7.34,3.32-9.76c2.21-2.42,4.8-3.63,7.77-3.63
				c2.48,0,4.63,1.02,6.46,3.05C1075.46,759.91,1076.44,762.93,1076.58,766.93z M1070.13,765.18c0-2.81-0.15-4.74-0.46-5.79
				c-0.31-1.05-0.78-1.84-1.43-2.38c-0.37-0.31-0.86-0.47-1.47-0.47c-0.91,0-1.65,0.45-2.23,1.34c-1.03,1.56-1.55,3.69-1.55,6.39
				v0.92H1070.13z"/>
			<path class="st1" d="M1089.03,755.56v3.17c1.26-1.36,2.46-2.35,3.62-2.97c1.15-0.62,2.39-0.93,3.72-0.93
				c1.59,0,2.91,0.44,3.96,1.32c1.05,0.88,1.75,1.98,2.1,3.29c0.28,1,0.42,2.91,0.42,5.74v9.54c0,1.89,0.17,3.06,0.51,3.52
				c0.34,0.46,1.05,0.76,2.14,0.88v0.94h-12.4v-0.94c0.93-0.12,1.59-0.51,1.99-1.15c0.28-0.44,0.42-1.52,0.42-3.25v-10.9
				c0-2.01-0.08-3.28-0.24-3.8c-0.16-0.52-0.42-0.93-0.8-1.22c-0.38-0.29-0.79-0.43-1.24-0.43c-1.5,0-2.9,1.07-4.19,3.22v13.13
				c0,1.83,0.17,3,0.51,3.49c0.34,0.49,0.97,0.8,1.9,0.92v0.94h-12.4v-0.94c1.03-0.1,1.76-0.44,2.2-1c0.3-0.38,0.45-1.52,0.45-3.41
				v-13.84c0-1.85-0.17-3-0.51-3.46c-0.34-0.45-1.05-0.75-2.14-0.89v-0.97H1089.03z"/>
			<path class="st1" d="M1117.24,746.59v8.96h5.82v2.59h-5.82v15.12c0,1.42,0.07,2.33,0.2,2.74c0.13,0.41,0.36,0.74,0.69,1
				c0.33,0.25,0.64,0.38,0.92,0.38c1.14,0,2.21-0.86,3.22-2.59l0.79,0.58c-1.42,3.35-3.71,5.03-6.89,5.03
				c-1.56,0-2.87-0.43-3.94-1.3c-1.07-0.86-1.76-1.83-2.06-2.9c-0.17-0.59-0.26-2.2-0.26-4.82v-13.23h-3.2v-0.92
				c2.2-1.55,4.08-3.19,5.62-4.9c1.55-1.71,2.9-3.63,4.05-5.74H1117.24z"/>
		</g>
	</g>
	
		<linearGradient id="SVGID_00000058568776632386072710000008415735122531362949_" gradientUnits="userSpaceOnUse" x1="960" y1="193.7001" x2="960" y2="953.2968">
		<stop  offset="0.4922" style="stop-color:#6E4A2C"/>
		<stop  offset="1" style="stop-color:#000000"/>
	</linearGradient>
	<path style="fill:url(#SVGID_00000058568776632386072710000008415735122531362949_);" d="M1259.08,540c0,23.75-2.77,46.85-8,69
		v0.01c-56.88,28.8-124.95,29.35-188.23,18.89c-66.74-11.03-131.3-33.24-198.17-43.49c-66.26-10.17-137.86-7.38-195.06,27.41
		c-5.67-23.01-8.69-47.06-8.69-71.82c0-165.17,133.9-299.07,299.08-299.07S1259.08,374.83,1259.08,540z"/>
	<g>
		<path class="st4" d="M707.59,490.47c-0.74-1.18-1.16-2.52-1.29-4.02v-62.37h-12.35v0.53c1.47,0,2.56,0.59,3.3,1.77
			c0.73,1.18,1.16,2.51,1.29,3.97v56.1c-0.12,1.47-0.56,2.8-1.29,4c-0.74,1.2-1.83,1.8-3.3,1.8v0.48h16.94v-0.48
			C709.43,492.24,708.33,491.65,707.59,490.47z"/>
		<path class="st4" d="M738.82,440.63c0,2.07-0.5,4.1-1.51,6.07c-1,1.98-2.43,3.74-4.27,5.29c-1.84,1.55-4.26,2.8-7.23,3.75
			c-2.98,0.95-6.34,1.43-10.05,1.43h-9.46v-1.5h7.17c2.87,0,5.46-0.43,7.79-1.3c2.33-0.87,4.21-2,5.64-3.4
			c1.43-1.41,2.54-3.01,3.31-4.81c0.78-1.81,1.16-3.65,1.16-5.53c0-1.88-0.38-3.72-1.16-5.53c-0.77-1.8-1.88-3.41-3.31-4.81
			c-1.43-1.4-3.31-2.54-5.64-3.41c-2.33-0.86-4.92-1.3-7.79-1.3h-7.17v-1.5h9.46c3.71,0,7.06,0.48,10.05,1.43
			c2.98,0.95,5.4,2.2,7.23,3.75c1.84,1.55,3.27,3.31,4.27,5.29C738.31,436.52,738.82,438.55,738.82,440.63z"/>
		<path class="st4" d="M807.98,434.42c0.64-1.21,1.65-1.82,3-1.82v-0.46h-14.95v0.46c0.95,0,1.76,0.34,2.4,1.02
			c0.65,0.68,1.08,1.41,1.31,2.22c0.22,0.81,0.33,1.63,0.33,2.47v48.29c0,0.84-0.11,1.67-0.33,2.47c-0.23,0.8-0.66,1.54-1.31,2.22
			c-0.64,0.68-1.45,1.01-2.4,1.01v0.43h14.95v-0.43c-1.38,0-2.42-0.69-3.13-2.07c-0.56-0.95-0.84-2.17-0.84-3.63v-48.29
			C807.01,436.93,807.33,435.63,807.98,434.42z"/>
		<path class="st4" d="M866.22,432.14l-0.09,0.46c1.66,0,2.91,0.72,3.74,2.18c0.84,1.45,0.82,3.37-0.02,5.76l-19.48,43.77
			l-20.83-47.06c-0.45-1.24-0.46-2.32-0.04-3.25c0.43-0.93,1.29-1.39,2.62-1.39l0.09-0.46h-17.58v0.46c1.38,0,2.89,0.69,4.54,2.07
			c1.65,1.38,2.88,2.85,3.7,4.4l23.78,53.65h1.9l23.62-53.23c1.16-2.06,2.53-3.72,4.12-4.99c1.59-1.26,3.1-1.9,4.54-1.9l0.17-0.46
			H866.22z"/>
		<path class="st4" d="M894.68,434.42c0.64-1.21,1.65-1.82,3-1.82v-0.46h-14.95v0.46c0.96,0,1.76,0.34,2.41,1.02
			c0.64,0.68,1.08,1.41,1.31,2.22c0.23,0.81,0.34,1.63,0.34,2.47v48.29c0,0.84-0.11,1.67-0.34,2.47c-0.22,0.8-0.66,1.54-1.31,2.22
			c-0.65,0.68-1.45,1.01-2.41,1.01v0.43h14.95v-0.43c-1.38,0-2.42-0.69-3.13-2.07c-0.56-0.95-0.84-2.17-0.84-3.63v-48.29
			C893.71,436.93,894.03,435.63,894.68,434.42z"/>
		<path class="st4" d="M948.04,482.67c-0.4,1.33-1.82,3.04-4.29,5.15c-2.47,2.11-4.54,3.17-6.23,3.17h-21.21v-53.57
			c0.11-1.27,0.48-2.39,1.12-3.36c0.64-0.97,1.59-1.46,2.86-1.46v-0.46h-14.96v0.46c0.93,0,1.72,0.33,2.37,0.97
			c0.65,0.65,1.09,1.37,1.33,2.16c0.24,0.79,0.36,1.59,0.36,2.41v48.62c0,0.82-0.12,1.62-0.36,2.41c-0.24,0.79-0.68,1.51-1.33,2.15
			c-0.64,0.65-1.44,0.97-2.37,0.97v0.43h41.11l1.9-10.06H948.04z"/>
		<path class="st4" d="M1104.94,482.67c-0.4,1.33-1.83,3.04-4.29,5.15c-2.43,2.08-4.48,3.14-6.15,3.17h-21.29v-27.67h18.99
			c1.6,0,3.07,0.73,4.41,2.2c1.34,1.46,2.01,2.6,2.01,3.42h0.25v-13.05h-0.25c0.03,0.22-0.22,0.78-0.76,1.67
			c-0.54,0.89-1.34,1.78-2.41,2.68c-1.07,0.9-2.16,1.36-3.25,1.36h-18.99v-27.72h15.7c1.69,0.11,3.71,1.2,6.06,3.25
			c2.35,2.06,3.72,3.72,4.12,4.99h0.29l-1.94-9.97h-35.14v0.46c1.27,0,2.22,0.52,2.85,1.57c0.64,1.04,1.01,2.21,1.12,3.51v49.51
			c-0.11,1.33-0.48,2.51-1.12,3.55c-0.63,1.04-1.58,1.56-2.85,1.56v0.43h41.02l1.9-10.06H1104.94z"/>
		<path class="st4" d="M994.94,482.67c-0.4,1.33-1.82,3.04-4.29,5.15c-2.43,2.08-4.48,3.13-6.15,3.17h-21.29v-27.67h18.99
			c1.6,0,3.07,0.73,4.41,2.19c1.34,1.47,2.01,2.61,2.01,3.43h0.25v-13.06h-0.25c0.03,0.23-0.22,0.79-0.76,1.67
			c-0.54,0.89-1.34,1.78-2.41,2.68c-1.07,0.9-2.16,1.35-3.25,1.35h-18.99v-27.72h15.7c1.69,0.12,3.71,1.2,6.06,3.25
			c2.35,2.06,3.72,3.72,4.12,4.99h0.29l-1.94-9.97h-35.14v0.46c1.27,0,2.22,0.52,2.85,1.56c0.64,1.04,1.01,2.21,1.12,3.51v49.52
			c-0.11,1.32-0.48,2.5-1.12,3.54c-0.63,1.05-1.58,1.57-2.85,1.57v0.42h41.02l1.9-10.05H994.94z"/>
		<path class="st4" d="M1054.09,467.84c0.07-0.79,0.21-1.66,0.42-2.62c0.66-3.03,3.94-4.76,3.95-4.76h-31.13l-1.9,10.06h0.29
			c0.4-1.33,1.83-3.04,4.29-5.15c2.42-2.08,4.47-3.14,6.15-3.17h8.51c0.34,0.15,0.65,0.4,0.93,0.75c0.5,0.62,0.84,1.42,1.06,2.4
			c0.21,0.99,0.35,1.86,0.42,2.62c0.07,0.76,0.11,1.52,0.11,2.29v17.83c0,0-8.04,4.22-15.67,4.22c-4.68,0-8.87-1.34-12.57-4.03
			c-3.7-2.69-6.55-6.3-8.56-10.84c-2-4.53-3-9.53-3-15s1-10.46,3-14.98c2-4.52,4.85-8.12,8.56-10.81c3.7-2.69,7.89-4.04,12.57-4.04
			c1.29,0,2.68,0.24,4.14,0.7c1.46,0.46,2.95,1.18,4.46,2.13c1.51,0.96,2.91,2.09,4.2,3.4c1.29,1.31,2.46,2.89,3.49,4.73
			c1.03,1.85,1.77,3.81,2.22,5.89h0.42v-13.31c-6.65-3.43-12.95-5.2-18.93-5.28c-4.26-0.14-8.34,0.61-12.25,2.26
			c-3.92,1.65-7.28,3.9-10.1,6.76c-2.81,2.86-5.06,6.26-6.73,10.2c-1.68,3.94-2.52,8.05-2.52,12.33c0,5.72,1.41,11,4.24,15.84
			c2.83,4.84,6.67,8.69,11.51,11.52c4.84,2.82,10.13,4.24,15.85,4.24c3.21,0,22.48-1.31,22.48-1.31h2.25v-0.43
			c0,0-2.25-2.44-2.25-4.99v-17.06C1053.99,469.43,1054.02,468.63,1054.09,467.84z"/>
		<path class="st4" d="M783.8,372.62l-1.59,8.42h0.28c0.33-1.13,1.57-2.58,3.75-4.34c2.17-1.75,4.09-2.63,5.76-2.63h9.13v44.13
			c0,0.71-0.1,1.4-0.28,2.07c-0.19,0.68-0.56,1.29-1.1,1.86c-0.55,0.56-1.21,0.85-2.01,0.85v0.35h12.59v-0.35
			c-0.81,0-1.47-0.28-2.02-0.85c-0.54-0.57-0.9-1.18-1.1-1.86c-0.19-0.67-0.28-1.36-0.28-2.07v-44.13h9.19
			c1.67,0,3.59,0.88,5.74,2.63c2.16,1.76,3.4,3.2,3.73,4.34h0.21l-1.59-8.42H783.8z"/>
		<path class="st4" d="M862.11,373.01c1.13,0,1.98,0.51,2.55,1.54c0.55,1.01,0.84,2.06,0.85,3.17v14.1v0c0,3.01-2.44,5.45-5.45,5.45
			h-15.37c-2.22,0-4.19,1.05-5.45,2.68v-22.58c0.09-1.11,0.42-2.11,0.95-3c0.55-0.9,1.36-1.34,2.44-1.34v-0.39h-12.51v0.39
			c1.08,0,1.9,0.43,2.44,1.29c0.54,0.86,0.85,1.85,0.95,2.96v40.94c0,1.13-0.29,2.21-0.85,3.24c-0.57,1.02-1.42,1.54-2.55,1.54v0.35
			h12.51v-0.35c-1.08,0-1.9-0.45-2.44-1.34c-0.54-0.9-0.86-1.9-0.95-3v-14.46c0-3.01,2.44-5.45,5.45-5.45h15.37
			c2.22,0,4.19-1.05,5.45-2.68v22.16c0,1.13-0.29,2.21-0.85,3.24c-0.56,1.02-1.41,1.54-2.55,1.54l0.07,0.35h12.45v-0.35
			c-0.81,0-1.47-0.28-2.02-0.85c-0.54-0.57-0.9-1.18-1.1-1.86c-0.19-0.67-0.28-1.36-0.28-2.07v-40.42c0-0.71,0.09-1.39,0.28-2.07
			c0.19-0.67,0.56-1.29,1.1-1.85c0.55-0.56,1.21-0.85,2.02-0.85v-0.39h-12.45L862.11,373.01z"/>
		<path class="st4" d="M931.38,421.82c-0.84-0.76-1.55-1.67-2.14-2.7l-20.65-46.5h-7.67v0.39c0.49,0,0.95,0.14,1.36,0.42
			c0.42,0.28,0.79,0.71,1.12,1.28c0.33,0.56,0.58,1.05,0.76,1.47c0.17,0.41,0.38,0.95,0.62,1.6l-17.26,38.72
			c-0.85,1.63-2.08,3.12-3.67,4.45c-1.6,1.34-3,2.02-4.21,2.02v0.35h12.45v-0.35c-0.6,0-1.13-0.16-1.6-0.48
			c-0.41-0.28-0.76-0.69-1.05-1.23c-0.06-0.09-0.11-0.19-0.15-0.28c-0.64-1.32-0.72-2.76-0.25-4.31l0.72-1.62l0.91-2.06l0.14-0.3
			c0.27-0.56,0.63-1.06,1.06-1.49c0.98-0.99,2.35-1.6,3.85-1.6h17.23c1.93,0,3.67-0.8,4.92-2.08l0.52,1.16l0.64,1.45l3.79,8.49
			c0.21,1.08,0.15,2.08-0.16,2.99c-0.32,0.91-1.02,1.36-2.11,1.36v0.35h13.62l-0.07-0.35C933.11,422.98,932.21,422.59,931.38,421.82
			z M912.94,408.16h-17.23c-1.17,0-2.27,0.29-3.24,0.81l0.13-0.28l12.87-29.03l10.87,24.46l0.82,1.85l0.05,0.12
			C916.22,407.35,914.68,408.16,912.94,408.16z"/>
		<path class="st4" d="M939.12,373.01c0.8,0,1.47,0.28,2.01,0.85c0.55,0.56,0.91,1.18,1.1,1.85c0.19,0.68,0.28,1.36,0.28,2.07v40.42
			c0,0.71-0.09,1.4-0.28,2.07c-0.19,0.68-0.55,1.29-1.1,1.86c-0.54,0.56-1.21,0.85-2.01,0.85v0.35h12.51v-0.35
			c-1.15,0-2.03-0.58-2.61-1.73c-0.47-0.8-0.71-1.82-0.71-3.04v-40.42c0-1.15,0.27-2.24,0.81-3.25c0.55-1.01,1.38-1.52,2.51-1.52
			v-0.39h-12.51V373.01z"/>
		<path class="st4" d="M993.15,414.91c-0.33,1.11-1.52,2.55-3.59,4.32c-2.03,1.73-3.75,2.62-5.15,2.65H966.6v-44.83
			c0.09-1.07,0.4-2,0.94-2.81c0.53-0.82,1.33-1.22,2.39-1.22v-0.39h-12.51v0.39c0.77,0,1.44,0.27,1.98,0.81
			c0.55,0.55,0.92,1.15,1.12,1.8c0.2,0.66,0.3,1.33,0.3,2.02v40.69c0,0.69-0.11,1.36-0.3,2.01c-0.2,0.66-0.57,1.26-1.12,1.81
			c-0.54,0.54-1.2,0.81-1.98,0.81v0.35h34.4l1.59-8.42H993.15z"/>
		<path class="st4" d="M1082.63,372.62v0.39c1.2,0,2.3,0.63,3.31,1.87c1,1.25,1.57,2.73,1.72,4.42v34.15l-31.37-40.84h-8.34v0.39
			c0.8,0,1.48,0.3,2.03,0.9c0.55,0.6,0.92,1.26,1.12,1.96c0.19,0.71,0.28,1.41,0.28,2.12v38.5c-0.12,1.51-0.7,2.97-1.73,4.37
			c-0.86,1.16-1.77,1.85-2.71,2.05l0.09,0.41h10.79v-0.35c-1.15,0-2.24-0.68-3.25-2.02c-1.01-1.34-1.59-2.77-1.73-4.27v-39.32
			l34.83,45.97h1.45v-44.1c0.14-1.67,0.71-3.13,1.71-4.36c1-1.24,2.12-1.86,3.35-1.86v-0.39H1082.63z"/>
		<path class="st4" d="M1137.96,387.97c-1.42-3.13-3.32-5.82-5.71-8.04c-2.4-2.23-5.22-4-8.47-5.3c-3.25-1.31-6.66-1.98-10.22-2
			h-15.49v0.39c0.81,0,1.47,0.28,2.02,0.85c0.54,0.56,0.9,1.18,1.09,1.85c0.19,0.68,0.28,1.36,0.28,2.07v40.42
			c0,0.71-0.09,1.4-0.28,2.07c-0.19,0.68-0.55,1.29-1.09,1.86c-0.55,0.56-1.21,0.85-2.02,0.85v0.35h15.49
			c3.56-0.05,6.97-0.72,10.22-2.03c3.25-1.31,6.07-3.07,8.47-5.29c2.39-2.21,4.29-4.89,5.71-8.02c1.41-3.13,2.12-6.47,2.12-10
			C1140.07,394.44,1139.37,391.1,1137.96,387.97z M1131.23,410.23c-1.77,3.64-4.22,6.5-7.37,8.56c-3.15,2.06-6.7,3.1-10.66,3.1
			h-6.01v-47.81h6.01c3.96,0,7.51,1.03,10.66,3.1c3.15,2.06,5.61,4.91,7.37,8.56c1.77,3.64,2.65,7.73,2.65,12.25
			C1133.89,402.5,1133,406.58,1131.23,410.23z"/>
		<path class="st4" d="M1044.24,421.82c-0.84-0.76-1.55-1.67-2.14-2.7l-20.65-46.5h-7.67v0.39c0.49,0,0.95,0.14,1.36,0.42
			c0.42,0.28,0.79,0.71,1.12,1.28c0.33,0.56,0.58,1.05,0.76,1.47c0.17,0.41,0.38,0.95,0.62,1.6l-17.26,38.72
			c-0.85,1.63-2.08,3.12-3.67,4.45c-1.6,1.34-3,2.02-4.21,2.02v0.35h12.45v-0.35c-0.6,0-1.13-0.16-1.6-0.48
			c-0.41-0.28-0.76-0.69-1.05-1.23c-0.06-0.09-0.11-0.19-0.15-0.28c-0.64-1.32-0.72-2.76-0.25-4.31l0.72-1.62l0.91-2.06l0.14-0.3
			c0.27-0.56,0.63-1.06,1.06-1.49c0.98-0.99,2.35-1.6,3.85-1.6h17.23c1.93,0,3.67-0.8,4.92-2.08l0.52,1.16l0.64,1.45l3.79,8.49
			c0.21,1.08,0.15,2.08-0.16,2.99c-0.32,0.91-1.02,1.36-2.11,1.36v0.35h13.62l-0.09-0.41
			C1045.97,422.92,1045.08,422.59,1044.24,421.82z M1025.81,408.16h-17.23c-1.17,0-2.27,0.29-3.24,0.81l0.13-0.28l12.87-29.03
			l10.87,24.46l0.82,1.85l0.05,0.12C1029.09,407.35,1027.55,408.16,1025.81,408.16z"/>
		<path class="st4" d="M1224.51,452.78c-0.3-0.01-0.6-0.03-0.93-0.07c-2.75-0.21-5.41-0.83-7.93-1.85
			c-4.23-1.7-7.96-4.47-11.37-7.21c-0.9-0.72-1.78-1.45-2.67-2.18c-2.12-1.74-4.3-3.53-6.57-5.15c-1.24-0.88-2.49-1.7-3.71-2.42
			c-4.8-2.87-9.74-4.79-14.68-5.72c-1.89-0.36-3.82-0.57-5.73-0.63c-3.95-0.12-7.98,0.51-11.67,1.81c-4.79,1.7-8.9,4.48-11.9,8.05
			c-4.72,5.61-7.02,13.52-6.41,21.86c0,0-0.01,0-0.01,0l0.01-0.01c-3.26,0.62-5.7,3.28-6.52,4.56
			c-9.24,15.07-21.4,27.88-34.63,39.29c-6.61,5.71-13.59,10.99-20.91,15.75c-7.29,4.8-14.87,9.15-22.7,13
			c-15.64,7.74-32.16,13.7-49.12,17.9c-16.97,4.19-34.42,6.39-51.9,6.96c-17.5,0.56-35.05-0.72-52.29-3.82
			c-17.24-3.04-34.15-7.97-50.31-14.75c-16.16-6.76-31.52-15.46-45.53-26.02c-13.96-10.59-26.58-23.06-36.77-37.42l-0.02-0.01
			c-2.46-3.76-6.57-8.94-12.62-10.7h6.72c2.78,0,10.42-0.68,15.41-3.37c2.22-1.2,3.98-2.58,5.26-4.13c1.28-1.56,2.19-3.25,2.71-5.08
			c0.53-1.82,0.64-3.63,0.35-5.41c-0.29-1.78-1.03-3.52-2.22-5.2c-1.19-1.69-2.71-3.17-4.58-4.45c-1.87-1.28-4.25-2.3-7.13-3.06
			c-2.89-0.76-6.05-1.15-9.52-1.15h-9.63h-10.94v0.46c0.96,0,1.77,0.34,2.43,1.02c0.66,0.68,1.11,1.42,1.33,2.24
			c0.22,0.82,0.34,1.64,0.34,2.45v48.29c0,0.82-0.12,1.63-0.34,2.45c-0.22,0.82-0.67,1.57-1.33,2.24c-0.66,0.68-1.47,1.01-2.43,1.01
			v0.43h14.91v-0.43c-1.26,0-2.22-0.53-2.85-1.58c-0.63-1.06-1.01-2.26-1.12-3.61v-21.22c6.57,0.56,11.59,10.03,12.14,10.89
			c4.84,7.62,10.33,14.84,16.41,21.54c6.06,6.71,12.65,12.97,19.7,18.65c14.06,11.43,29.74,20.8,46.27,28.22
			c16.55,7.4,33.99,12.77,51.77,16.25c17.81,3.4,35.98,4.9,54.11,4.5c9.07-0.2,18.12-0.94,27.12-2.11c9-1.18,17.94-2.8,26.76-4.97
			c17.64-4.29,34.84-10.59,50.96-19.01c8.05-4.23,15.85-8.95,23.28-14.19c7.4-5.29,14.47-11.04,21.02-17.35
			c6.53-6.31,12.61-13.1,17.98-20.41c2.73-3.62,5.21-7.42,7.55-11.29c0.61-0.95,1.15-1.95,1.71-2.93l1.64-2.96
			c0.63-1.19,1.23-2.39,1.82-3.59c0.28,3.74,3.32,6.72,7.08,6.92c0.2,8.66,5.95,17.39,14.37,21.61c1.82,0.91,3.78,1.64,5.83,2.18
			c2.75,0.72,5.65,1.07,8.62,1.07c4.6,0,9.37-0.85,13.98-2.53l0.22-0.08c6.49-2.41,12.82-6.37,19.35-12.11
			c1.45-1.27,2.93-2.65,4.4-4.1c2.25-2.22,4.3-4.43,6.07-6.57c5.34-6.41,8.87-12.88,10.51-19.21l0.39-1.49L1224.51,452.78z
			 M754.99,462.43v-0.27v-28.29v-0.16h7.34c2.93,0,5.58,0.41,7.95,1.22c2.37,0.82,4.29,1.91,5.76,3.26
			c1.47,1.35,2.58,2.89,3.36,4.62c0.79,1.72,1.18,3.48,1.18,5.26c0,1.79-0.39,3.54-1.18,5.27c-0.78,1.73-1.9,3.26-3.36,4.62
			c-1.47,1.36-3.38,2.44-5.76,3.25c-2.37,0.82-5.02,1.23-7.95,1.23h-5.35H754.99z M1214.72,453.16c1.83,0.74,3.74,1.29,5.68,1.64
			c-8.81,3.64-19.54,6.36-31.99,8.08c-9.78,1.36-19.56,1.85-29.96,2.11c16.27-2.16,31.87-8.74,44.8-18.98
			C1206.67,448.72,1210.42,451.43,1214.72,453.16z M1177.01,430.8c4.06,0.86,8.12,2.44,12.1,4.7
			c-10.15,12.84-24.88,22.3-40.73,26.15c-0.08-0.09-0.16-0.18-0.24-0.26c6.77-4.15,12.83-8.12,18.05-13.26
			C1171.55,442.85,1175.27,436.89,1177.01,430.8z M1200.04,443.39c0.58,0.48,1.16,0.95,1.74,1.42
			c-14.84,11.65-33.23,18.38-52.05,19.05c-0.07-0.19-0.16-0.38-0.25-0.57c16.08-4.07,30.98-13.76,41.24-26.84
			c0.95,0.59,1.92,1.21,2.88,1.9C1195.8,439.92,1197.96,441.68,1200.04,443.39z M1170.84,430.04c1.44,0.04,2.89,0.19,4.33,0.41
			c-1.66,5.72-5.2,11.35-10.29,16.35c-5.23,5.15-11.38,9.12-18.28,13.34c-0.11-0.07-0.22-0.13-0.33-0.19
			c7.75-7.45,12.85-17.65,14.19-28.37C1163.76,430.47,1167.34,429.93,1170.84,430.04z M1149.24,439.01
			c2.38-2.83,5.56-5.13,9.26-6.69c-1.51,10.25-6.6,19.93-14.17,26.91c-0.3-0.07-0.61-0.12-0.92-0.15
			C1142.84,451.4,1144.94,444.13,1149.24,439.01z M1137.68,466.57c0-2.61,2.03-4.82,4.63-5.02c0.13-0.01,0.27-0.02,0.4-0.02
			c0.41,0,0.83,0.05,1.24,0.16c0.57,0.14,1.11,0.38,1.6,0.72c0.43,0.3,0.82,0.67,1.15,1.08c0.39,0.51,0.67,1.06,0.84,1.66
			c0.1,0.34,0.16,0.69,0.19,1.04c0.01,0.12,0.02,0.25,0.02,0.38c0,0.44-0.06,0.86-0.17,1.29c-0.09,0.38-0.24,0.76-0.44,1.12
			c-0.28,0.49-0.62,0.93-1.03,1.3c-0.31,0.29-0.66,0.54-1.05,0.74c-0.52,0.28-1.09,0.46-1.72,0.54c-0.2,0.03-0.42,0.04-0.63,0.04
			C1139.94,471.61,1137.68,469.35,1137.68,466.57z M1144.8,473.79c0.18-0.05,0.35-0.11,0.52-0.17c3.18,7.43,7.74,14.33,13.35,20.26
			c-0.3-0.14-0.6-0.27-0.89-0.42C1150.09,489.61,1144.88,481.63,1144.8,473.79z M1163.13,495.45c-0.11-0.03-0.22-0.07-0.33-0.1
			c-6.77-6.36-12.22-14.14-15.82-22.6c0,0,0,0,0,0c5.62,7.82,12.14,13.7,19.42,17.48c4.01,2.08,8.59,3.69,14.18,4.97
			C1174.6,496.77,1168.53,496.87,1163.13,495.45z M1184.67,493.92l-0.21,0.08c-0.08,0.03-0.16,0.06-0.24,0.09
			c-6.94-1.35-12.35-3.1-16.96-5.49c-7.06-3.67-13.41-9.41-18.88-17.08c0.12-0.14,0.24-0.28,0.35-0.43
			c7.7,5.59,17.2,9.45,28.27,11.46c6.47,1.17,13.49,1.73,21.81,1.73c0.65,0,1.32-0.01,1.99-0.01
			C1195.36,488.72,1190.06,491.89,1184.67,493.92z M1207.34,478.35c-1.44,1.42-2.88,2.77-4.3,4c-0.01,0.01-0.01,0.01-0.02,0.02
			c-10.09,0.21-18.28-0.31-25.7-1.66c-10.87-1.97-20.18-5.76-27.68-11.25c0.01-0.03,0.03-0.06,0.04-0.1
			c13.84,3.86,28.33,5.81,42.79,5.81c6.34,0,12.68-0.38,18.95-1.13C1210.18,475.46,1208.81,476.9,1207.34,478.35z M1213.27,471.93
			c-20.97,2.82-42.74,1.3-63.1-4.37c0.02-0.18,0.03-0.36,0.04-0.55c13.64-0.21,26.03-0.56,38.47-2.29
			c13.32-1.84,24.72-4.82,33.95-8.85C1220.88,461.15,1217.74,466.54,1213.27,471.93z"/>
	</g>
</g>
</svg>
