<?xml version="1.0" encoding="utf-8"?>
<!-- Generator: Adobe Illustrator 25.2.1, SVG Export Plug-In . SVG Version: 6.00 Build 0)  -->
<svg version="1.1" id="Layer_1" xmlns="http://www.w3.org/2000/svg" xmlns:xlink="http://www.w3.org/1999/xlink" x="0px" y="0px"
	 viewBox="0 0 222.6 222.6" style="enable-background:new 0 0 222.6 222.6;" xml:space="preserve">
<style type="text/css">
	.st0{fill:#6E4A2C;}
	.st1{fill:url(#SVGID_1_);}
	.st2{fill:url(#SVGID_2_);}
	.st3{fill:url(#SVGID_3_);}
	.st4{fill:url(#SVGID_4_);}
	.st5{fill:#FFFFFF;}
</style>
<g>
	<path class="st0" d="M210.8,111.3c0,7.9-0.9,15.6-2.7,23v0c-18.9,9.6-41.6,9.8-62.6,6.3c-22.2-3.7-43.7-11.1-65.9-14.5
		c-22-3.4-45.9-2.5-64.9,9.1c-1.9-7.7-2.9-15.7-2.9-23.9c0-54.9,44.5-99.5,99.5-99.5S210.8,56.3,210.8,111.3z"/>
	
		<linearGradient id="SVGID_1_" gradientUnits="userSpaceOnUse" x1="271.4788" y1="109.1825" x2="-46.3946" y2="109.1825" gradientTransform="matrix(1 0 0 -1 0 220.4752)">
		<stop  offset="2.200000e-02" style="stop-color:#723D1D"/>
		<stop  offset="0.3158" style="stop-color:#C9A551"/>
		<stop  offset="0.6744" style="stop-color:#FFE37B"/>
		<stop  offset="0.9213" style="stop-color:#C9A551"/>
		<stop  offset="1" style="stop-color:#723D1D"/>
	</linearGradient>
	<path class="st1" d="M111.3,0C49.8,0,0,49.8,0,111.3s49.8,111.3,111.3,111.3s111.3-49.8,111.3-111.3S172.8,0,111.3,0z M111.3,216.6
		C53.1,216.6,6,169.5,6,111.3S53.1,6,111.3,6s105.3,47.2,105.3,105.3S169.5,216.6,111.3,216.6z"/>
	
		<linearGradient id="SVGID_2_" gradientUnits="userSpaceOnUse" x1="-38.3945" y1="109.1825" x2="262.9476" y2="109.1825" gradientTransform="matrix(1 0 0 -1 0 220.4752)">
		<stop  offset="2.200000e-02" style="stop-color:#723D1D"/>
		<stop  offset="0.3158" style="stop-color:#C9A551"/>
		<stop  offset="0.6744" style="stop-color:#FFE37B"/>
		<stop  offset="0.9213" style="stop-color:#C9A551"/>
		<stop  offset="1" style="stop-color:#723D1D"/>
	</linearGradient>
	<path class="st2" d="M111.3,6C53.1,6,6,53.1,6,111.3s47.2,105.3,105.3,105.3s105.3-47.2,105.3-105.3S169.5,6,111.3,6z M208.1,134.3
		c-10.4,43.9-49.8,76.5-96.8,76.5c-46.7,0-85.9-32.2-96.6-75.6c-1.9-7.7-2.9-15.7-2.9-23.9c0-54.9,44.5-99.5,99.5-99.5
		s99.5,44.5,99.5,99.5C210.8,119.2,209.9,126.9,208.1,134.3L208.1,134.3z"/>
	
		<linearGradient id="SVGID_3_" gradientUnits="userSpaceOnUse" x1="-48.7236" y1="52.9057" x2="291.3308" y2="52.9057" gradientTransform="matrix(1 0 0 -1 0 220.4752)">
		<stop  offset="2.200000e-02" style="stop-color:#723D1D"/>
		<stop  offset="0.101" style="stop-color:#C9A551"/>
		<stop  offset="0.2235" style="stop-color:#E0BF63"/>
		<stop  offset="0.3706" style="stop-color:#F7D974"/>
		<stop  offset="0.4586" style="stop-color:#FFE37B"/>
		<stop  offset="0.5179" style="stop-color:#F9DD77"/>
		<stop  offset="0.6003" style="stop-color:#EACB6A"/>
		<stop  offset="0.696" style="stop-color:#D0AD56"/>
		<stop  offset="0.7187" style="stop-color:#C9A551"/>
		<stop  offset="1" style="stop-color:#723D1D"/>
	</linearGradient>
	<path class="st3" d="M208.1,134.3c-10.4,43.9-49.8,76.5-96.8,76.5c-46.7,0-85.9-32.2-96.6-75.6c19-11.6,42.8-12.5,64.9-9.1
		c22.2,3.4,43.7,10.8,65.9,14.5C166.6,144,189.2,143.8,208.1,134.3z"/>
	<g>
		<g>
			<path class="st0" d="M64.5,157H59l-0.7,1.5c-0.2,0.5-0.3,0.9-0.3,1.2c0,0.4,0.2,0.8,0.5,1c0.2,0.1,0.7,0.2,1.5,0.3v0.4h-5.2V161
				c0.6-0.1,1-0.3,1.4-0.7c0.4-0.4,0.8-1.2,1.3-2.3l5.5-12.4h0.2l5.6,12.7c0.5,1.2,1,2,1.3,2.3c0.3,0.2,0.6,0.4,1.1,0.4v0.4h-7.5
				V161h0.3c0.6,0,1-0.1,1.3-0.3c0.2-0.1,0.3-0.3,0.3-0.5c0-0.1,0-0.3-0.1-0.4c0-0.1-0.1-0.4-0.3-0.9L64.5,157z M64.1,156.1
				l-2.3-5.3l-2.4,5.3H64.1z"/>
			<path class="st0" d="M82,150.7v8.4c0,0.8,0.1,1.3,0.2,1.5c0.2,0.2,0.5,0.3,0.9,0.4v0.4h-4.4V160c-0.5,0.6-1,1.1-1.5,1.3
				c-0.5,0.3-1.1,0.4-1.7,0.4c-0.6,0-1.1-0.2-1.6-0.6c-0.5-0.4-0.8-0.8-0.9-1.3c-0.2-0.5-0.2-1.4-0.2-2.6V153c0-0.8-0.1-1.3-0.2-1.5
				s-0.5-0.3-0.9-0.4v-0.4h4.4v7.3c0,0.8,0,1.3,0.1,1.5c0.1,0.2,0.2,0.4,0.3,0.5c0.2,0.1,0.3,0.2,0.5,0.2c0.3,0,0.5-0.1,0.7-0.2
				c0.3-0.2,0.7-0.6,1.1-1.2V153c0-0.8-0.1-1.3-0.2-1.5s-0.5-0.3-0.9-0.4v-0.4L82,150.7L82,150.7z"/>
			<path class="st0" d="M88.4,146.8v3.9h2.5v1.1h-2.5v6.6c0,0.6,0,1,0.1,1.2c0.1,0.2,0.2,0.3,0.3,0.4c0.1,0.1,0.3,0.2,0.4,0.2
				c0.5,0,1-0.4,1.4-1.1l0.3,0.3c-0.6,1.5-1.6,2.2-3,2.2c-0.7,0-1.3-0.2-1.7-0.6s-0.8-0.8-0.9-1.3c-0.1-0.3-0.1-1-0.1-2.1v-5.8h-1.4
				v-0.4c1-0.7,1.8-1.4,2.5-2.1c0.7-0.7,1.3-1.6,1.8-2.5H88.4z"/>
			<path class="st0" d="M96.1,145.9v6.2c0.6-0.6,1.1-1.1,1.6-1.3c0.5-0.3,1-0.4,1.5-0.4c0.7,0,1.2,0.2,1.7,0.6
				c0.5,0.4,0.8,0.8,0.9,1.3c0.2,0.5,0.2,1.4,0.2,2.6v4.2c0,0.8,0.1,1.3,0.2,1.5c0.2,0.2,0.5,0.3,0.9,0.4v0.4h-5.4V161
				c0.4-0.1,0.7-0.2,0.9-0.5c0.1-0.2,0.2-0.7,0.2-1.5v-4.8c0-0.9,0-1.4-0.1-1.7c-0.1-0.2-0.2-0.4-0.3-0.5c-0.2-0.1-0.3-0.2-0.6-0.2
				c-0.3,0-0.6,0.1-0.9,0.3c-0.3,0.2-0.6,0.6-0.9,1.1v5.7c0,0.8,0.1,1.2,0.2,1.4c0.1,0.3,0.4,0.4,0.9,0.5v0.4h-5.4V161
				c0.4,0,0.8-0.2,1-0.4c0.1-0.2,0.2-0.7,0.2-1.5v-10.9c0-0.8-0.1-1.3-0.2-1.5s-0.5-0.3-0.9-0.4v-0.4H96.1z"/>
			<path class="st0" d="M109.3,150.4c0.9,0,1.8,0.2,2.6,0.7c0.8,0.5,1.4,1.2,1.8,2c0.4,0.9,0.6,1.9,0.6,2.9c0,1.5-0.4,2.8-1.2,3.8
				c-0.9,1.2-2.2,1.9-3.9,1.9c-1.6,0-2.8-0.6-3.7-1.7s-1.3-2.4-1.3-3.9c0-1.5,0.4-2.9,1.3-4C106.5,151,107.7,150.4,109.3,150.4z
				 M109.3,151.2c-0.4,0-0.7,0.1-1,0.4c-0.3,0.3-0.5,0.9-0.5,1.7c-0.1,0.9-0.1,2.1-0.1,3.6c0,0.8,0.1,1.6,0.2,2.3
				c0.1,0.5,0.3,1,0.5,1.2c0.3,0.3,0.6,0.4,0.9,0.4c0.3,0,0.6-0.1,0.9-0.3c0.3-0.3,0.5-0.6,0.6-1.1c0.2-0.7,0.2-2.2,0.2-4.4
				c0-1.3-0.1-2.2-0.2-2.7c-0.1-0.5-0.4-0.8-0.6-1.1C109.9,151.3,109.6,151.2,109.3,151.2z"/>
			<path class="st0" d="M119.8,150.7v2.4c0.7-1.1,1.3-1.8,1.9-2.2c0.5-0.4,1-0.5,1.5-0.5c0.4,0,0.8,0.1,1,0.4
				c0.3,0.3,0.4,0.6,0.4,1.1c0,0.5-0.1,0.9-0.4,1.2c-0.2,0.3-0.5,0.4-0.9,0.4c-0.4,0-0.8-0.1-1.1-0.4c-0.3-0.3-0.5-0.4-0.5-0.4
				c-0.1,0-0.2-0.1-0.3-0.1c-0.2,0-0.4,0.1-0.6,0.3c-0.3,0.3-0.5,0.6-0.7,1.1c-0.2,0.7-0.4,1.6-0.4,2.4v2.5l0,0.6
				c0,0.4,0,0.7,0.1,0.8c0.1,0.2,0.2,0.4,0.4,0.5c0.2,0.1,0.5,0.2,0.9,0.2v0.4h-5.8V161c0.5,0,0.8-0.2,0.9-0.4
				c0.2-0.2,0.2-0.8,0.2-1.7V153c0-0.6,0-1-0.1-1.2c-0.1-0.2-0.2-0.4-0.3-0.5c-0.1-0.1-0.4-0.2-0.8-0.2v-0.4L119.8,150.7
				L119.8,150.7z"/>
			<path class="st0" d="M130.3,150.7v8.5c0,0.8,0.1,1.2,0.3,1.4c0.2,0.2,0.5,0.3,1,0.4v0.4h-5.8V161c0.5,0,0.8-0.2,1.1-0.4
				c0.2-0.2,0.2-0.6,0.2-1.4v-6.2c0-0.8-0.1-1.2-0.3-1.4c-0.2-0.2-0.5-0.3-1-0.4v-0.4L130.3,150.7L130.3,150.7z M128.7,145.5
				c0.5,0,0.9,0.2,1.3,0.5c0.3,0.3,0.5,0.8,0.5,1.3c0,0.5-0.2,0.9-0.5,1.2c-0.3,0.3-0.8,0.5-1.3,0.5c-0.5,0-0.9-0.2-1.2-0.5
				c-0.3-0.3-0.5-0.8-0.5-1.2s0.2-0.9,0.5-1.3C127.8,145.7,128.2,145.5,128.7,145.5z"/>
			<path class="st0" d="M141.9,161.4h-9.3v-0.3l5.9-9.7h-1.7c-0.7,0-1.3,0.1-1.6,0.2c-0.3,0.1-0.6,0.3-0.8,0.6
				c-0.2,0.3-0.4,0.8-0.6,1.6h-0.4v-3.1h9v0.3l-5.8,9.7h0.7c1.5,0,2.5-0.2,3.2-0.6c0.6-0.4,1.1-1.2,1.5-2.3h0.3L141.9,161.4z"/>
			<path class="st0" d="M152.5,155.7h-5.9c0.1,1.4,0.4,2.5,1.1,3.4c0.5,0.6,1.2,0.9,1.9,0.9c0.5,0,0.9-0.1,1.2-0.4
				c0.4-0.3,0.8-0.7,1.2-1.4l0.4,0.3c-0.6,1.2-1.2,2-1.9,2.5c-0.7,0.5-1.5,0.7-2.4,0.7c-1.6,0-2.8-0.6-3.6-1.8c-0.7-1-1-2.2-1-3.7
				c0-1.8,0.5-3.2,1.4-4.3c1-1.1,2.1-1.6,3.4-1.6c1.1,0,2,0.4,2.8,1.3C152,152.6,152.5,153.9,152.5,155.7z M149.7,154.9
				c0-1.2-0.1-2.1-0.2-2.5c-0.1-0.5-0.3-0.8-0.6-1c-0.2-0.1-0.4-0.2-0.6-0.2c-0.4,0-0.7,0.2-1,0.6c-0.4,0.7-0.7,1.6-0.7,2.8v0.4
				L149.7,154.9L149.7,154.9z"/>
			<path class="st0" d="M164.2,145.9v12.3c0,0.8,0,1.3,0.1,1.5c0.1,0.3,0.2,0.4,0.3,0.6c0.2,0.1,0.5,0.2,0.9,0.2v0.4l-4.5,0.9V160
				c-0.5,0.7-1,1.1-1.4,1.3c-0.4,0.2-0.9,0.4-1.4,0.4c-1.4,0-2.4-0.6-3.2-1.8c-0.6-1-1-2.2-1-3.6c0-1.2,0.2-2.2,0.6-3.1
				c0.4-0.9,0.9-1.6,1.6-2.1c0.7-0.5,1.4-0.7,2.2-0.7c0.5,0,1,0.1,1.4,0.3c0.4,0.2,0.8,0.5,1.3,1v-3.2c0-0.8,0-1.3-0.1-1.5
				c-0.1-0.2-0.2-0.4-0.4-0.5s-0.5-0.2-1-0.2v-0.5H164.2z M161,153.1c-0.6-1.1-1.3-1.6-2.1-1.6c-0.3,0-0.5,0.1-0.7,0.2
				c-0.3,0.2-0.5,0.7-0.7,1.2c-0.2,0.6-0.3,1.5-0.3,2.7c0,1.4,0.1,2.3,0.3,3c0.2,0.6,0.5,1.1,0.8,1.4c0.2,0.1,0.4,0.2,0.7,0.2
				c0.7,0,1.3-0.5,1.9-1.6V153.1z"/>
		</g>
		<g>
			<path class="st0" d="M65.4,164.6v3.8h-0.3c-0.4-1-0.9-1.8-1.6-2.4c-0.7-0.5-1.5-0.8-2.3-0.8c-0.8,0-1.5,0.2-2,0.7
				c-0.5,0.5-0.9,1.1-1.1,1.9c-0.2,0.8-0.3,1.6-0.3,2.5c0,1,0.1,1.9,0.4,2.7c0.2,0.8,0.6,1.3,1.2,1.7c0.5,0.4,1.2,0.5,1.9,0.5
				c0.3,0,0.5,0,0.8-0.1c0.3-0.1,0.5-0.1,0.8-0.2v-2.2c0-0.4,0-0.7-0.1-0.8c-0.1-0.1-0.2-0.2-0.4-0.3c-0.2-0.1-0.4-0.1-0.7-0.1h-0.3
				v-0.3h5.2v0.3c-0.4,0-0.7,0.1-0.8,0.2c-0.2,0.1-0.3,0.2-0.4,0.4c0,0.1-0.1,0.3-0.1,0.7v2.2c-0.7,0.3-1.4,0.5-2.1,0.7
				c-0.7,0.2-1.5,0.2-2.3,0.2c-1,0-1.9-0.1-2.5-0.4s-1.3-0.6-1.8-1.1c-0.5-0.5-0.9-1-1.2-1.5c-0.4-0.7-0.6-1.5-0.6-2.4
				c0-1.6,0.6-3,1.7-4.1s2.6-1.7,4.3-1.7c0.5,0,1,0,1.4,0.1c0.2,0,0.6,0.2,1.1,0.4s0.8,0.3,0.9,0.3c0.1,0,0.3-0.1,0.4-0.2
				c0.1-0.1,0.2-0.3,0.3-0.6L65.4,164.6L65.4,164.6z"/>
			<path class="st0" d="M73.8,171.7h-4.1c0,1,0.3,1.8,0.8,2.3c0.4,0.4,0.8,0.7,1.3,0.7c0.3,0,0.6-0.1,0.9-0.3c0.3-0.2,0.5-0.5,0.8-1
				l0.3,0.2c-0.4,0.8-0.8,1.4-1.3,1.7c-0.5,0.3-1,0.5-1.7,0.5c-1.1,0-1.9-0.4-2.5-1.3c-0.5-0.7-0.7-1.5-0.7-2.5c0-1.2,0.3-2.2,1-3
				c0.7-0.7,1.5-1.1,2.3-1.1c0.7,0,1.4,0.3,2,0.9C73.4,169.5,73.7,170.5,73.8,171.7z M71.8,171.1c0-0.8,0-1.4-0.1-1.7
				c-0.1-0.3-0.2-0.6-0.4-0.7c-0.1-0.1-0.3-0.1-0.4-0.1c-0.3,0-0.5,0.1-0.7,0.4c-0.3,0.5-0.5,1.1-0.5,1.9v0.3L71.8,171.1L71.8,171.1
				z"/>
			<path class="st0" d="M77.5,168.2v1c0.4-0.4,0.7-0.7,1.1-0.9c0.3-0.2,0.7-0.3,1.1-0.3c0.5,0,0.9,0.1,1.2,0.4
				c0.3,0.3,0.5,0.6,0.6,1c0.1,0.3,0.1,0.9,0.1,1.7v2.9c0,0.6,0,0.9,0.2,1.1c0.1,0.1,0.3,0.2,0.6,0.3v0.3h-3.7v-0.3
				c0.3,0,0.5-0.2,0.6-0.3c0.1-0.1,0.1-0.5,0.1-1v-3.3c0-0.6,0-1-0.1-1.1c0-0.2-0.1-0.3-0.2-0.4c-0.1-0.1-0.2-0.1-0.4-0.1
				c-0.5,0-0.9,0.3-1.3,1v4c0,0.6,0,0.9,0.2,1.1c0.1,0.1,0.3,0.2,0.6,0.3v0.3h-3.7v-0.3c0.3,0,0.5-0.1,0.7-0.3
				c0.1-0.1,0.1-0.5,0.1-1v-4.2c0-0.6,0-0.9-0.2-1c-0.1-0.1-0.3-0.2-0.6-0.3v-0.3L77.5,168.2L77.5,168.2z"/>
			<path class="st0" d="M89.5,171.7h-4.1c0,1,0.3,1.8,0.8,2.3c0.4,0.4,0.8,0.7,1.3,0.7c0.3,0,0.6-0.1,0.9-0.3c0.3-0.2,0.5-0.5,0.8-1
				l0.3,0.2c-0.4,0.8-0.8,1.4-1.3,1.7c-0.5,0.3-1,0.5-1.7,0.5c-1.1,0-1.9-0.4-2.5-1.3c-0.5-0.7-0.7-1.5-0.7-2.5c0-1.2,0.3-2.2,1-3
				c0.7-0.7,1.5-1.1,2.3-1.1c0.7,0,1.4,0.3,2,0.9C89.1,169.5,89.4,170.5,89.5,171.7z M87.5,171.1c0-0.8,0-1.4-0.1-1.7
				c-0.1-0.3-0.2-0.6-0.4-0.7c-0.1-0.1-0.3-0.1-0.4-0.1c-0.3,0-0.5,0.1-0.7,0.4c-0.3,0.5-0.5,1.1-0.5,1.9v0.3L87.5,171.1L87.5,171.1
				z"/>
			<path class="st0" d="M93.2,168.2v1.7c0.5-0.8,0.9-1.3,1.3-1.5c0.4-0.2,0.7-0.4,1.1-0.4c0.3,0,0.5,0.1,0.7,0.3
				c0.2,0.2,0.3,0.4,0.3,0.8c0,0.4-0.1,0.6-0.3,0.8c-0.2,0.2-0.4,0.3-0.6,0.3c-0.3,0-0.5-0.1-0.7-0.3s-0.3-0.3-0.4-0.3
				c-0.1,0-0.1,0-0.2,0c-0.2,0-0.3,0.1-0.4,0.2c-0.2,0.2-0.4,0.4-0.5,0.8c-0.2,0.5-0.3,1.1-0.3,1.7v1.7l0,0.4c0,0.3,0,0.5,0.1,0.6
				c0.1,0.1,0.2,0.2,0.3,0.3c0.1,0.1,0.3,0.1,0.6,0.1v0.3h-4v-0.3c0.3,0,0.5-0.1,0.7-0.3c0.1-0.1,0.2-0.5,0.2-1.2v-4.1
				c0-0.4,0-0.7-0.1-0.8c-0.1-0.1-0.1-0.3-0.2-0.3c-0.1-0.1-0.3-0.1-0.5-0.1v-0.3H93.2z"/>
			<path class="st0" d="M101.3,174.5c-0.9,0.8-1.7,1.2-2.4,1.2c-0.4,0-0.8-0.1-1.1-0.4c-0.3-0.3-0.4-0.6-0.4-1
				c0-0.6,0.2-1.1,0.7-1.5c0.5-0.5,1.5-1.1,3.2-1.8v-0.7c0-0.6,0-0.9-0.1-1.1c-0.1-0.1-0.2-0.3-0.3-0.4c-0.2-0.1-0.4-0.2-0.6-0.2
				c-0.3,0-0.6,0.1-0.8,0.2c-0.1,0.1-0.2,0.2-0.2,0.3c0,0.1,0.1,0.2,0.2,0.4c0.2,0.2,0.3,0.4,0.3,0.7c0,0.3-0.1,0.5-0.3,0.7
				c-0.2,0.2-0.4,0.3-0.8,0.3c-0.3,0-0.6-0.1-0.8-0.3c-0.2-0.2-0.3-0.4-0.3-0.7c0-0.4,0.1-0.7,0.5-1.1c0.3-0.3,0.7-0.6,1.3-0.8
				c0.5-0.2,1.1-0.3,1.7-0.3c0.7,0,1.3,0.1,1.7,0.4c0.4,0.3,0.7,0.6,0.8,1c0.1,0.2,0.1,0.7,0.1,1.5v2.9c0,0.3,0,0.5,0,0.6
				c0,0.1,0.1,0.2,0.1,0.2c0.1,0,0.1,0.1,0.2,0.1c0.1,0,0.3-0.1,0.4-0.3l0.2,0.2c-0.3,0.4-0.5,0.7-0.8,0.9c-0.3,0.2-0.6,0.3-1,0.3
				c-0.4,0-0.8-0.1-1-0.3C101.5,175.2,101.4,174.9,101.3,174.5z M101.3,174v-2.5c-0.6,0.4-1.1,0.8-1.4,1.2c-0.2,0.3-0.3,0.6-0.3,0.9
				c0,0.2,0.1,0.5,0.3,0.6c0.1,0.1,0.3,0.2,0.6,0.2C100.6,174.4,101,174.3,101.3,174z"/>
			<path class="st0" d="M108.2,164.9v9.2c0,0.5,0.1,0.9,0.2,1c0.1,0.1,0.4,0.2,0.7,0.2v0.3h-4v-0.3c0.3,0,0.6-0.1,0.7-0.3
				c0.1-0.1,0.2-0.4,0.2-1v-7.7c0-0.5-0.1-0.8-0.2-1s-0.4-0.2-0.7-0.2v-0.3H108.2z"/>
			<path class="st0" d="M121.3,164.6l0.1,3.6H121c-0.2-0.9-0.5-1.6-1.1-2.2c-0.6-0.5-1.2-0.8-1.9-0.8c-0.5,0-1,0.1-1.3,0.4
				c-0.3,0.3-0.5,0.6-0.5,1c0,0.2,0.1,0.4,0.2,0.6c0.2,0.2,0.4,0.5,0.7,0.7c0.2,0.2,0.8,0.5,1.7,0.9c1.3,0.6,2.1,1.2,2.5,1.7
				c0.4,0.5,0.6,1.2,0.6,1.9c0,0.9-0.3,1.7-1,2.3c-0.7,0.6-1.6,1-2.7,1c-0.3,0-0.7,0-1-0.1s-0.7-0.2-1.1-0.4
				c-0.3-0.1-0.5-0.2-0.6-0.2c-0.1,0-0.3,0.1-0.4,0.2c-0.2,0.1-0.3,0.3-0.4,0.5h-0.3v-4.1h0.3c0.2,1.1,0.7,2,1.3,2.6
				c0.7,0.6,1.4,0.9,2.1,0.9c0.6,0,1.1-0.2,1.4-0.5c0.4-0.3,0.5-0.7,0.5-1.1c0-0.3-0.1-0.5-0.2-0.7c-0.1-0.2-0.3-0.5-0.6-0.7
				c-0.3-0.2-0.8-0.5-1.5-0.8c-1-0.5-1.7-0.9-2.1-1.2c-0.4-0.3-0.8-0.7-1-1.1c-0.2-0.4-0.3-0.9-0.3-1.4c0-0.9,0.3-1.6,0.9-2.2
				s1.4-0.9,2.4-0.9c0.3,0,0.7,0,1,0.1c0.2,0.1,0.5,0.2,0.9,0.4c0.4,0.2,0.6,0.3,0.7,0.3c0.1,0,0.2,0,0.3-0.1s0.2-0.3,0.2-0.6
				L121.3,164.6L121.3,164.6z"/>
			<path class="st0" d="M127.1,174.5c-0.9,0.8-1.7,1.2-2.4,1.2c-0.4,0-0.8-0.1-1.1-0.4c-0.3-0.3-0.4-0.6-0.4-1
				c0-0.6,0.2-1.1,0.7-1.5c0.5-0.5,1.5-1.1,3.2-1.8v-0.7c0-0.6,0-0.9-0.1-1.1c-0.1-0.1-0.2-0.3-0.3-0.4c-0.2-0.1-0.4-0.2-0.6-0.2
				c-0.3,0-0.6,0.1-0.8,0.2c-0.1,0.1-0.2,0.2-0.2,0.3c0,0.1,0.1,0.2,0.2,0.4c0.2,0.2,0.3,0.4,0.3,0.7c0,0.3-0.1,0.5-0.3,0.7
				s-0.4,0.3-0.8,0.3c-0.3,0-0.6-0.1-0.8-0.3c-0.2-0.2-0.3-0.4-0.3-0.7c0-0.4,0.1-0.7,0.5-1.1c0.3-0.3,0.7-0.6,1.3-0.8
				c0.5-0.2,1.1-0.3,1.7-0.3c0.7,0,1.3,0.1,1.7,0.4c0.4,0.3,0.7,0.6,0.8,1c0.1,0.2,0.1,0.7,0.1,1.5v2.9c0,0.3,0,0.5,0,0.6
				c0,0.1,0.1,0.2,0.1,0.2c0.1,0,0.1,0.1,0.2,0.1c0.1,0,0.3-0.1,0.4-0.3l0.2,0.2c-0.3,0.4-0.5,0.7-0.8,0.9c-0.3,0.2-0.6,0.3-1,0.3
				c-0.4,0-0.8-0.1-1-0.3C127.3,175.2,127.1,174.9,127.1,174.5z M127.1,174v-2.5c-0.6,0.4-1.1,0.8-1.4,1.2c-0.2,0.3-0.3,0.6-0.3,0.9
				c0,0.2,0.1,0.5,0.3,0.6c0.1,0.1,0.3,0.2,0.6,0.2C126.4,174.4,126.7,174.3,127.1,174z"/>
			<path class="st0" d="M134,164.9v9.2c0,0.5,0.1,0.9,0.2,1c0.1,0.1,0.4,0.2,0.7,0.2v0.3h-4v-0.3c0.3,0,0.6-0.1,0.7-0.3
				c0.1-0.1,0.2-0.4,0.2-1v-7.7c0-0.5-0.1-0.8-0.2-1s-0.4-0.2-0.7-0.2v-0.3H134z"/>
			<path class="st0" d="M141.6,171.7h-4.1c0,1,0.3,1.8,0.8,2.3c0.4,0.4,0.8,0.7,1.3,0.7c0.3,0,0.6-0.1,0.9-0.3
				c0.3-0.2,0.5-0.5,0.8-1l0.3,0.2c-0.4,0.8-0.8,1.4-1.3,1.7c-0.5,0.3-1,0.5-1.7,0.5c-1.1,0-1.9-0.4-2.5-1.3
				c-0.5-0.7-0.7-1.5-0.7-2.5c0-1.2,0.3-2.2,1-3s1.5-1.1,2.3-1.1c0.7,0,1.4,0.3,2,0.9C141.3,169.5,141.6,170.5,141.6,171.7z
				 M139.7,171.1c0-0.8,0-1.4-0.1-1.7c-0.1-0.3-0.2-0.6-0.4-0.7c-0.1-0.1-0.3-0.1-0.4-0.1c-0.3,0-0.5,0.1-0.7,0.4
				c-0.3,0.5-0.5,1.1-0.5,1.9v0.3L139.7,171.1L139.7,171.1z"/>
			<path class="st0" d="M147.3,168l0.1,2.5h-0.3c-0.3-0.7-0.7-1.3-1-1.5c-0.3-0.3-0.7-0.4-1-0.4c-0.2,0-0.4,0.1-0.6,0.2
				c-0.2,0.1-0.2,0.3-0.2,0.5c0,0.1,0.1,0.3,0.2,0.4c0.2,0.2,0.6,0.6,1.4,1.1c0.8,0.5,1.3,1,1.5,1.3c0.2,0.4,0.4,0.8,0.4,1.2
				c0,0.4-0.1,0.8-0.3,1.2c-0.2,0.4-0.5,0.7-0.9,0.9c-0.4,0.2-0.8,0.3-1.2,0.3c-0.4,0-0.8-0.1-1.4-0.3c-0.2-0.1-0.3-0.1-0.3-0.1
				c-0.2,0-0.3,0.1-0.4,0.4h-0.3l-0.1-2.7h0.3c0.2,0.7,0.6,1.2,1,1.6c0.4,0.3,0.8,0.5,1.2,0.5c0.3,0,0.5-0.1,0.6-0.2
				c0.2-0.2,0.2-0.3,0.2-0.6c0-0.3-0.1-0.5-0.2-0.7c-0.2-0.2-0.5-0.5-1.1-0.8c-0.8-0.6-1.3-1-1.6-1.3c-0.3-0.4-0.5-0.9-0.5-1.4
				c0-0.6,0.2-1.1,0.6-1.5c0.4-0.5,1-0.7,1.7-0.7c0.4,0,0.8,0.1,1.2,0.3c0.1,0.1,0.3,0.1,0.3,0.1c0.1,0,0.2,0,0.2-0.1
				c0.1,0,0.1-0.2,0.3-0.3L147.3,168L147.3,168z"/>
			<path class="st0" d="M162,169.2h3.3v0.3c-0.4,0.1-0.7,0.2-0.9,0.3c-0.2,0.2-0.5,0.6-0.8,1.2c-0.3,0.6-0.8,1.3-1.4,2
				c0.5,0.5,1,0.8,1.3,1c0.2,0.1,0.5,0.2,0.7,0.2c0.4,0,0.7-0.3,1.1-0.8l0.3,0.2c-0.4,0.9-0.9,1.5-1.4,1.8c-0.4,0.3-0.8,0.4-1.3,0.4
				c-0.4,0-0.8-0.1-1.2-0.3c-0.4-0.2-0.8-0.5-1.4-1c-0.7,0.4-1.3,0.8-1.9,1c-0.6,0.2-1.2,0.3-1.8,0.3c-1,0-1.8-0.3-2.4-0.8
				c-0.6-0.5-0.9-1.2-0.9-1.9c0-0.8,0.3-1.5,0.8-2.1c0.6-0.6,1.4-1.1,2.5-1.5c-0.1-0.3-0.2-0.7-0.3-1c-0.1-0.3-0.1-0.6-0.1-1
				c0-0.8,0.3-1.5,0.9-2.1s1.4-0.8,2.3-0.8c0.7,0,1.3,0.2,1.8,0.6c0.4,0.4,0.7,0.8,0.7,1.3c0,0.6-0.2,1.1-0.7,1.5s-1.2,0.8-2.1,1.2
				c0.6,1.1,1.5,2.2,2.6,3.4c0.8-0.9,1.2-1.6,1.2-2.2c0-0.2-0.1-0.4-0.2-0.6c-0.2-0.2-0.4-0.2-0.7-0.3L162,169.2L162,169.2z
				 M156.9,170.1c-0.4,0.2-0.7,0.4-0.9,0.6c-0.2,0.3-0.4,0.6-0.4,1c0,0.5,0.1,1,0.4,1.5c0.3,0.5,0.6,0.9,1,1.1
				c0.4,0.3,0.8,0.4,1.2,0.4c0.2,0,0.4,0,0.7-0.1c0.2-0.1,0.5-0.2,0.8-0.4C158.6,172.8,157.6,171.5,156.9,170.1z M158.8,168.7
				c0.6-0.2,0.9-0.4,1.1-0.7c0.2-0.2,0.3-0.5,0.3-0.9c0-0.6-0.2-1.1-0.5-1.5c-0.2-0.3-0.5-0.4-0.8-0.4c-0.2,0-0.5,0.1-0.6,0.3
				c-0.2,0.2-0.3,0.5-0.3,0.8c0,0.3,0,0.5,0.1,0.8C158.3,167.5,158.5,168,158.8,168.7z"/>
		</g>
		<g>
			<path class="st0" d="M62.4,179.1l0.1,3.9h-0.4c-0.2-1-0.6-1.8-1.2-2.4c-0.7-0.6-1.4-0.9-2.1-0.9c-0.6,0-1.1,0.2-1.4,0.5
				c-0.3,0.3-0.5,0.7-0.5,1.1c0,0.3,0.1,0.5,0.2,0.7c0.2,0.3,0.4,0.5,0.8,0.8c0.3,0.2,0.9,0.5,1.9,1c1.4,0.7,2.3,1.3,2.8,1.9
				c0.5,0.6,0.7,1.3,0.7,2.1c0,1-0.4,1.8-1.2,2.6c-0.8,0.7-1.7,1.1-2.9,1.1c-0.4,0-0.7,0-1.1-0.1c-0.3-0.1-0.7-0.2-1.2-0.4
				c-0.3-0.1-0.5-0.2-0.7-0.2c-0.1,0-0.3,0.1-0.5,0.2c-0.2,0.1-0.3,0.3-0.4,0.5h-0.3V187h0.3c0.3,1.3,0.7,2.2,1.5,2.9
				c0.7,0.7,1.5,1,2.4,1c0.7,0,1.2-0.2,1.6-0.5c0.4-0.4,0.6-0.8,0.6-1.2c0-0.3-0.1-0.5-0.2-0.8c-0.1-0.3-0.4-0.5-0.7-0.7
				c-0.3-0.2-0.8-0.5-1.6-0.9c-1.1-0.5-1.8-1-2.3-1.4c-0.5-0.4-0.8-0.8-1.1-1.2s-0.4-1-0.4-1.5c0-0.9,0.3-1.7,1-2.4
				c0.7-0.7,1.6-1,2.6-1c0.4,0,0.8,0,1.1,0.1c0.3,0.1,0.6,0.2,1,0.4c0.4,0.2,0.7,0.3,0.8,0.3c0.1,0,0.3,0,0.4-0.1
				c0.1-0.1,0.2-0.3,0.2-0.7L62.4,179.1L62.4,179.1z"/>
			<path class="st0" d="M71.3,186.8h-4.5c0.1,1.1,0.3,1.9,0.9,2.6c0.4,0.5,0.9,0.7,1.4,0.7c0.3,0,0.7-0.1,1-0.3s0.6-0.5,0.9-1.1
				l0.3,0.2c-0.4,0.9-0.9,1.5-1.5,1.9c-0.5,0.4-1.2,0.6-1.9,0.6c-1.2,0-2.1-0.5-2.7-1.4c-0.5-0.7-0.7-1.7-0.7-2.8
				c0-1.4,0.4-2.4,1.1-3.2c0.7-0.8,1.6-1.2,2.6-1.2c0.8,0,1.5,0.3,2.1,1C71,184.5,71.3,185.5,71.3,186.8z M69.2,186.2
				c0-0.9,0-1.6-0.2-1.9c-0.1-0.3-0.3-0.6-0.5-0.8c-0.1-0.1-0.3-0.2-0.5-0.2c-0.3,0-0.5,0.1-0.7,0.4c-0.3,0.5-0.5,1.2-0.5,2.1v0.3
				L69.2,186.2L69.2,186.2z"/>
			<path class="st0" d="M75.5,183v1.8c0.5-0.8,1-1.4,1.4-1.7c0.4-0.3,0.8-0.4,1.2-0.4c0.3,0,0.6,0.1,0.8,0.3
				c0.2,0.2,0.3,0.5,0.3,0.9c0,0.4-0.1,0.7-0.3,0.9c-0.2,0.2-0.4,0.3-0.7,0.3c-0.3,0-0.6-0.1-0.8-0.3s-0.4-0.3-0.4-0.3
				c-0.1,0-0.1-0.1-0.2-0.1c-0.2,0-0.3,0.1-0.5,0.2c-0.2,0.2-0.4,0.5-0.5,0.8c-0.2,0.6-0.3,1.2-0.3,1.9v1.9l0,0.5
				c0,0.3,0,0.5,0.1,0.6c0.1,0.2,0.2,0.3,0.3,0.3c0.1,0.1,0.4,0.1,0.7,0.1v0.3h-4.4v-0.3c0.4,0,0.6-0.1,0.7-0.3
				c0.1-0.2,0.2-0.6,0.2-1.3v-4.5c0-0.5,0-0.8-0.1-0.9c-0.1-0.2-0.1-0.3-0.3-0.4c-0.1-0.1-0.3-0.1-0.6-0.2V183L75.5,183L75.5,183z"
				/>
			<path class="st0" d="M84,191.4l-2.7-6.3c-0.3-0.8-0.6-1.2-0.8-1.4c-0.1-0.1-0.3-0.3-0.6-0.3V183h4.3v0.3c-0.3,0-0.5,0-0.6,0.1
				c-0.1,0.1-0.2,0.3-0.2,0.5c0,0.2,0.1,0.6,0.4,1.2l1.3,3.1l1.1-2.6c0.3-0.8,0.5-1.3,0.5-1.6c0-0.2-0.1-0.3-0.2-0.4
				c-0.1-0.1-0.4-0.2-0.7-0.2V183h2.7v0.3c-0.3,0-0.5,0.1-0.6,0.3c-0.2,0.2-0.4,0.6-0.7,1.4l-2.7,6.4L84,191.4L84,191.4z"/>
			<path class="st0" d="M92.8,183v6.5c0,0.6,0.1,0.9,0.2,1.1c0.1,0.2,0.4,0.3,0.8,0.3v0.3h-4.4v-0.3c0.4,0,0.6-0.1,0.8-0.3
				c0.1-0.1,0.2-0.5,0.2-1.1v-4.8c0-0.6-0.1-0.9-0.2-1.1c-0.1-0.2-0.4-0.3-0.8-0.3V183H92.8z M91.5,179.1c0.4,0,0.7,0.1,1,0.4
				c0.3,0.3,0.4,0.6,0.4,1s-0.1,0.7-0.4,1c-0.3,0.3-0.6,0.4-1,0.4s-0.7-0.1-1-0.4c-0.3-0.3-0.4-0.6-0.4-1s0.1-0.7,0.4-1
				C90.8,179.2,91.2,179.1,91.5,179.1z"/>
			<path class="st0" d="M101,189.1l0.3,0.2c-0.4,0.7-0.9,1.3-1.4,1.6c-0.6,0.4-1.2,0.5-1.8,0.5c-1.1,0-2-0.4-2.6-1.2
				c-0.7-0.8-1-1.8-1-3c0-1.1,0.3-2.1,0.9-2.9c0.7-1,1.7-1.5,3-1.5c0.8,0,1.5,0.2,2,0.6c0.5,0.4,0.7,0.9,0.7,1.4
				c0,0.3-0.1,0.6-0.3,0.8c-0.2,0.2-0.5,0.3-0.8,0.3c-0.3,0-0.6-0.1-0.9-0.3c-0.2-0.2-0.4-0.6-0.4-1.2c0-0.4-0.1-0.6-0.3-0.8
				s-0.3-0.2-0.5-0.2c-0.3,0-0.5,0.1-0.7,0.4c-0.3,0.4-0.5,1.1-0.5,2.1c0,0.8,0.1,1.5,0.4,2.2c0.2,0.7,0.6,1.2,1,1.6
				c0.3,0.2,0.7,0.4,1.1,0.4c0.3,0,0.6-0.1,0.8-0.2C100.3,189.7,100.6,189.4,101,189.1z"/>
			<path class="st0" d="M109,186.8h-4.5c0.1,1.1,0.3,1.9,0.9,2.6c0.4,0.5,0.9,0.7,1.4,0.7c0.3,0,0.7-0.1,1-0.3s0.6-0.5,0.9-1.1
				l0.3,0.2c-0.4,0.9-0.9,1.5-1.5,1.9c-0.5,0.4-1.2,0.6-1.9,0.6c-1.2,0-2.1-0.5-2.7-1.4c-0.5-0.7-0.7-1.7-0.7-2.8
				c0-1.4,0.4-2.4,1.1-3.2c0.7-0.8,1.6-1.2,2.6-1.2c0.8,0,1.5,0.3,2.1,1C108.6,184.5,108.9,185.5,109,186.8z M106.8,186.2
				c0-0.9,0-1.6-0.2-1.9c-0.1-0.3-0.3-0.6-0.5-0.8c-0.1-0.1-0.3-0.2-0.5-0.2c-0.3,0-0.5,0.1-0.7,0.4c-0.3,0.5-0.5,1.2-0.5,2.1v0.3
				L106.8,186.2L106.8,186.2z"/>
			<path class="st0" d="M115.2,182.8l0.1,2.8H115c-0.4-0.8-0.7-1.4-1.1-1.7c-0.4-0.3-0.8-0.5-1.1-0.5c-0.2,0-0.4,0.1-0.6,0.2
				c-0.2,0.2-0.3,0.3-0.3,0.6c0,0.2,0.1,0.3,0.2,0.5c0.2,0.2,0.7,0.6,1.6,1.2c0.9,0.6,1.4,1.1,1.7,1.5c0.3,0.4,0.4,0.9,0.4,1.4
				c0,0.5-0.1,0.9-0.3,1.3c-0.2,0.4-0.5,0.8-1,1c-0.4,0.2-0.9,0.3-1.4,0.3c-0.4,0-0.9-0.1-1.6-0.4c-0.2-0.1-0.3-0.1-0.4-0.1
				c-0.2,0-0.4,0.1-0.5,0.4h-0.3l-0.1-2.9h0.3c0.3,0.8,0.6,1.3,1.1,1.7c0.5,0.4,0.9,0.6,1.3,0.6c0.3,0,0.5-0.1,0.7-0.3
				c0.2-0.2,0.3-0.4,0.3-0.6c0-0.3-0.1-0.5-0.3-0.7c-0.2-0.2-0.6-0.5-1.2-0.9c-0.9-0.6-1.5-1.1-1.7-1.4c-0.4-0.5-0.6-1-0.6-1.6
				c0-0.6,0.2-1.2,0.6-1.7c0.4-0.5,1.1-0.8,1.9-0.8c0.4,0,0.9,0.1,1.3,0.3c0.2,0.1,0.3,0.1,0.4,0.1c0.1,0,0.2,0,0.3-0.1
				c0.1,0,0.2-0.2,0.3-0.4L115.2,182.8L115.2,182.8z"/>
			<path class="st0" d="M128.6,187.8h-4.2l-0.5,1.2c-0.2,0.4-0.2,0.7-0.2,1c0,0.3,0.1,0.6,0.4,0.7c0.2,0.1,0.5,0.2,1.2,0.2v0.3h-3.9
				v-0.3c0.4-0.1,0.8-0.2,1-0.5c0.3-0.3,0.6-0.9,1-1.8l4.2-9.4h0.2l4.3,9.7c0.4,0.9,0.7,1.5,1,1.7c0.2,0.2,0.5,0.3,0.8,0.3v0.3h-5.7
				v-0.3h0.2c0.5,0,0.8-0.1,1-0.2c0.1-0.1,0.2-0.2,0.2-0.4c0-0.1,0-0.2-0.1-0.3c0-0.1-0.1-0.3-0.3-0.7L128.6,187.8z M128.3,187.1
				l-1.8-4.1l-1.8,4.1H128.3z"/>
			<path class="st0" d="M139.9,183.1h2.7v1h-1.6c0.3,0.3,0.5,0.5,0.6,0.8c0.1,0.3,0.2,0.6,0.2,1c0,0.6-0.2,1.1-0.5,1.5
				c-0.3,0.4-0.8,0.8-1.3,1c-0.6,0.2-1,0.4-1.5,0.4c0,0-0.4,0-1,0c-0.3,0-0.5,0.1-0.7,0.3c-0.2,0.2-0.3,0.4-0.3,0.6
				c0,0.2,0.1,0.4,0.2,0.5c0.2,0.1,0.4,0.2,0.8,0.2l1.5,0c1.2,0,2.1,0.1,2.5,0.4c0.7,0.4,1,0.9,1,1.7c0,0.5-0.1,0.9-0.5,1.3
				c-0.3,0.4-0.7,0.7-1.2,0.9c-0.7,0.3-1.6,0.4-2.6,0.4c-0.7,0-1.4-0.1-2-0.2c-0.6-0.1-1-0.3-1.3-0.6c-0.3-0.3-0.4-0.5-0.4-0.8
				c0-0.3,0.1-0.5,0.3-0.7c0.2-0.2,0.6-0.4,1.1-0.5c-0.8-0.4-1.1-0.9-1.1-1.6c0-0.4,0.2-0.8,0.5-1.2c0.3-0.4,0.8-0.7,1.5-1
				c-0.8-0.3-1.3-0.7-1.7-1.1c-0.3-0.5-0.5-1-0.5-1.6c0-0.8,0.3-1.5,1-2.1c0.7-0.6,1.5-0.9,2.5-0.9
				C138.7,182.8,139.3,182.9,139.9,183.1z M137.9,192.4c-0.6,0-1,0-1.2,0.1c-0.3,0.2-0.5,0.4-0.5,0.7c0,0.3,0.2,0.6,0.5,0.8
				c0.3,0.2,1,0.4,1.9,0.4c0.8,0,1.4-0.1,1.9-0.3c0.5-0.2,0.7-0.5,0.7-0.9c0-0.1,0-0.3-0.1-0.4c-0.2-0.2-0.4-0.3-0.7-0.4
				C140.1,192.4,139.2,192.4,137.9,192.4z M138.4,183.3c-0.3,0-0.6,0.2-0.9,0.5c-0.2,0.3-0.3,1-0.3,2.1c0,0.9,0.1,1.5,0.3,1.8
				c0.2,0.3,0.5,0.5,0.8,0.5c0.3,0,0.6-0.2,0.9-0.5s0.3-0.9,0.3-1.9c0-1-0.1-1.7-0.4-2.1C139,183.4,138.7,183.3,138.4,183.3z"/>
			<path class="st0" d="M150.1,186.8h-4.5c0.1,1.1,0.3,1.9,0.9,2.6c0.4,0.5,0.9,0.7,1.4,0.7c0.3,0,0.7-0.1,1-0.3s0.6-0.5,0.9-1.1
				l0.3,0.2c-0.4,0.9-0.9,1.5-1.5,1.9c-0.5,0.4-1.2,0.6-1.9,0.6c-1.2,0-2.1-0.5-2.7-1.4c-0.5-0.7-0.7-1.7-0.7-2.8
				c0-1.4,0.4-2.4,1.1-3.2c0.7-0.8,1.6-1.2,2.6-1.2c0.8,0,1.5,0.3,2.1,1C149.7,184.5,150,185.5,150.1,186.8z M147.9,186.2
				c0-0.9,0-1.6-0.2-1.9c-0.1-0.3-0.3-0.6-0.5-0.8c-0.1-0.1-0.3-0.2-0.5-0.2c-0.3,0-0.5,0.1-0.7,0.4c-0.3,0.5-0.5,1.2-0.5,2.1v0.3
				L147.9,186.2L147.9,186.2z"/>
			<path class="st0" d="M154.2,183v1.1c0.4-0.5,0.8-0.8,1.2-1c0.4-0.2,0.8-0.3,1.2-0.3c0.5,0,1,0.1,1.3,0.4c0.3,0.3,0.6,0.7,0.7,1.1
				c0.1,0.3,0.1,1,0.1,1.9v3.2c0,0.6,0.1,1,0.2,1.2s0.3,0.3,0.7,0.3v0.3h-4.1v-0.3c0.3,0,0.5-0.2,0.7-0.4c0.1-0.1,0.1-0.5,0.1-1.1
				v-3.6c0-0.7,0-1.1-0.1-1.3c-0.1-0.2-0.1-0.3-0.3-0.4s-0.3-0.1-0.4-0.1c-0.5,0-1,0.4-1.4,1.1v4.4c0,0.6,0.1,1,0.2,1.2
				s0.3,0.3,0.6,0.3v0.3h-4.1v-0.3c0.3,0,0.6-0.1,0.7-0.3c0.1-0.1,0.1-0.5,0.1-1.1v-4.6c0-0.6-0.1-1-0.2-1.2
				c-0.1-0.1-0.3-0.2-0.7-0.3V183L154.2,183L154.2,183z"/>
			<path class="st0" d="M163.6,180v3h1.9v0.9h-1.9v5c0,0.5,0,0.8,0.1,0.9c0,0.1,0.1,0.2,0.2,0.3c0.1,0.1,0.2,0.1,0.3,0.1
				c0.4,0,0.7-0.3,1.1-0.9l0.3,0.2c-0.5,1.1-1.2,1.7-2.3,1.7c-0.5,0-1-0.1-1.3-0.4c-0.4-0.3-0.6-0.6-0.7-1c-0.1-0.2-0.1-0.7-0.1-1.6
				v-4.4h-1.1v-0.3c0.7-0.5,1.4-1.1,1.9-1.6c0.5-0.6,1-1.2,1.3-1.9L163.6,180L163.6,180z"/>
		</g>
	</g>
	
		<linearGradient id="SVGID_4_" gradientUnits="userSpaceOnUse" x1="111.2944" y1="224.3909" x2="111.2944" y2="-28.3147" gradientTransform="matrix(1 0 0 -1 0 220.4752)">
		<stop  offset="0.4922" style="stop-color:#6E4A2C"/>
		<stop  offset="1" style="stop-color:#000000"/>
	</linearGradient>
	<path class="st4" d="M210.8,111.3c0,7.9-0.9,15.6-2.7,23v0c-18.9,9.6-41.6,9.8-62.6,6.3c-22.2-3.7-43.7-11.1-65.9-14.5
		c-22-3.4-45.9-2.5-64.9,9.1c-1.9-7.7-2.9-15.7-2.9-23.9c0-54.9,44.5-99.5,99.5-99.5S210.8,56.3,210.8,111.3z"/>
	<g>
		<path class="st5" d="M27.3,94.8c-0.2-0.4-0.4-0.8-0.4-1.3V72.7h-4.1v0.2c0.5,0,0.9,0.2,1.1,0.6c0.2,0.4,0.4,0.8,0.4,1.3v18.7
			c0,0.5-0.2,0.9-0.4,1.3c-0.2,0.4-0.6,0.6-1.1,0.6v0.2h5.6v-0.2C27.9,95.4,27.6,95.2,27.3,94.8z"/>
		<path class="st5" d="M37.7,78.2c0,0.7-0.2,1.4-0.5,2c-0.3,0.7-0.8,1.2-1.4,1.8c-0.6,0.5-1.4,0.9-2.4,1.2c-1,0.3-2.1,0.5-3.3,0.5
			h-3.1v-0.5h2.4c1,0,1.8-0.1,2.6-0.4c0.8-0.3,1.4-0.7,1.9-1.1c0.5-0.5,0.8-1,1.1-1.6c0.3-0.6,0.4-1.2,0.4-1.8s-0.1-1.2-0.4-1.8
			c-0.3-0.6-0.6-1.1-1.1-1.6c-0.5-0.5-1.1-0.8-1.9-1.1c-0.8-0.3-1.6-0.4-2.6-0.4h-2.4v-0.5H30c1.2,0,2.3,0.2,3.3,0.5
			c1,0.3,1.8,0.7,2.4,1.2c0.6,0.5,1.1,1.1,1.4,1.8C37.5,76.9,37.7,77.5,37.7,78.2z"/>
		<path class="st5" d="M60.7,76.2c0.2-0.4,0.5-0.6,1-0.6v-0.2h-5v0.2c0.3,0,0.6,0.1,0.8,0.3c0.2,0.2,0.4,0.5,0.4,0.7
			c0.1,0.3,0.1,0.5,0.1,0.8v16.1c0,0.3,0,0.6-0.1,0.8c-0.1,0.3-0.2,0.5-0.4,0.7c-0.2,0.2-0.5,0.3-0.8,0.3v0.1h5v-0.1
			c-0.5,0-0.8-0.2-1-0.7c-0.2-0.3-0.3-0.7-0.3-1.2V77.5C60.4,77,60.5,76.6,60.7,76.2z"/>
		<path class="st5" d="M80.1,75.4l0,0.2c0.6,0,1,0.2,1.2,0.7c0.3,0.5,0.3,1.1,0,1.9l-6.5,14.6l-6.9-15.7c-0.1-0.4-0.2-0.8,0-1.1
			c0.1-0.3,0.4-0.5,0.9-0.5l0-0.2h-5.8v0.2c0.5,0,1,0.2,1.5,0.7c0.5,0.5,1,0.9,1.2,1.5l7.9,17.8h0.6l7.9-17.7
			c0.4-0.7,0.8-1.2,1.4-1.7c0.5-0.4,1-0.6,1.5-0.6l0.1-0.2L80.1,75.4L80.1,75.4z"/>
		<path class="st5" d="M89.6,76.2c0.2-0.4,0.5-0.6,1-0.6v-0.2h-5v0.2c0.3,0,0.6,0.1,0.8,0.3c0.2,0.2,0.4,0.5,0.4,0.7
			c0.1,0.3,0.1,0.5,0.1,0.8v16.1c0,0.3,0,0.6-0.1,0.8c-0.1,0.3-0.2,0.5-0.4,0.7c-0.2,0.2-0.5,0.3-0.8,0.3v0.1h5v-0.1
			c-0.5,0-0.8-0.2-1-0.7c-0.2-0.3-0.3-0.7-0.3-1.2V77.5C89.2,77,89.3,76.6,89.6,76.2z"/>
		<path class="st5" d="M107.3,92.2c-0.1,0.4-0.6,1-1.4,1.7s-1.5,1.1-2.1,1.1h-7.1V77.2c0-0.4,0.2-0.8,0.4-1.1s0.5-0.5,1-0.5v-0.2h-5
			v0.2c0.3,0,0.6,0.1,0.8,0.3c0.2,0.2,0.4,0.5,0.4,0.7c0.1,0.3,0.1,0.5,0.1,0.8v16.2c0,0.3,0,0.5-0.1,0.8c-0.1,0.3-0.2,0.5-0.4,0.7
			c-0.2,0.2-0.5,0.3-0.8,0.3v0.1h13.7L107.3,92.2L107.3,92.2L107.3,92.2z"/>
		<path class="st5" d="M159.5,92.2c-0.1,0.4-0.6,1-1.4,1.7c-0.8,0.7-1.5,1-2,1.1H149v-9.2h6.3c0.5,0,1,0.2,1.5,0.7
			c0.4,0.5,0.7,0.9,0.7,1.1h0.1v-4.3h-0.1c0,0.1-0.1,0.3-0.3,0.6c-0.2,0.3-0.4,0.6-0.8,0.9c-0.4,0.3-0.7,0.5-1.1,0.5H149V76h5.2
			c0.6,0,1.2,0.4,2,1.1c0.8,0.7,1.2,1.2,1.4,1.7h0.1l-0.6-3.3h-11.7v0.2c0.4,0,0.7,0.2,0.9,0.5c0.2,0.3,0.3,0.7,0.4,1.2v16.5
			c0,0.4-0.2,0.8-0.4,1.2c-0.2,0.3-0.5,0.5-0.9,0.5v0.1H159L159.5,92.2L159.5,92.2L159.5,92.2z"/>
		<path class="st5" d="M122.9,92.2c-0.1,0.4-0.6,1-1.4,1.7c-0.8,0.7-1.5,1-2,1.1h-7.1v-9.2h6.3c0.5,0,1,0.2,1.5,0.7
			c0.4,0.5,0.7,0.9,0.7,1.1h0.1v-4.3h-0.1c0,0.1-0.1,0.3-0.3,0.6c-0.2,0.3-0.4,0.6-0.8,0.9c-0.4,0.3-0.7,0.4-1.1,0.4h-6.3V76h5.2
			c0.6,0,1.2,0.4,2,1.1c0.8,0.7,1.2,1.2,1.4,1.7h0.1l-0.6-3.3h-11.7v0.2c0.4,0,0.7,0.2,0.9,0.5c0.2,0.3,0.3,0.7,0.4,1.2v16.5
			c0,0.4-0.2,0.8-0.4,1.2c-0.2,0.3-0.5,0.5-0.9,0.5v0.1h13.6L122.9,92.2L122.9,92.2L122.9,92.2z"/>
		<path class="st5" d="M142.6,87.3c0-0.3,0.1-0.6,0.1-0.9c0.2-1,1.3-1.6,1.3-1.6h-10.4l-0.6,3.3h0.1c0.1-0.4,0.6-1,1.4-1.7
			c0.8-0.7,1.5-1,2-1.1h2.8c0.1,0,0.2,0.1,0.3,0.2c0.2,0.2,0.3,0.5,0.4,0.8c0.1,0.3,0.1,0.6,0.1,0.9c0,0.3,0,0.5,0,0.8V94
			c0,0-2.7,1.4-5.2,1.4c-1.6,0-3-0.4-4.2-1.3c-1.2-0.9-2.2-2.1-2.8-3.6c-0.7-1.5-1-3.2-1-5s0.3-3.5,1-5c0.7-1.5,1.6-2.7,2.8-3.6
			c1.2-0.9,2.6-1.3,4.2-1.3c0.4,0,0.9,0.1,1.4,0.2c0.5,0.2,1,0.4,1.5,0.7c0.5,0.3,1,0.7,1.4,1.1c0.4,0.4,0.8,1,1.2,1.6
			c0.3,0.6,0.6,1.3,0.7,2h0.1v-4.4c-2.2-1.1-4.3-1.7-6.3-1.8c-1.4,0-2.8,0.2-4.1,0.8c-1.3,0.5-2.4,1.3-3.4,2.2
			c-0.9,1-1.7,2.1-2.2,3.4c-0.6,1.3-0.8,2.7-0.8,4.1c0,1.9,0.5,3.7,1.4,5.3c0.9,1.6,2.2,2.9,3.8,3.8c1.6,0.9,3.4,1.4,5.3,1.4
			c1.1,0,7.5-0.4,7.5-0.4h0.7v-0.1c0,0-0.7-0.8-0.7-1.7v-5.7C142.6,87.8,142.6,87.5,142.6,87.3z"/>
		<path class="st5" d="M52.7,55.6l-0.5,2.8h0.1c0.1-0.4,0.5-0.9,1.2-1.4c0.7-0.6,1.4-0.9,1.9-0.9h3v14.7c0,0.2,0,0.5-0.1,0.7
			c-0.1,0.2-0.2,0.4-0.4,0.6c-0.2,0.2-0.4,0.3-0.7,0.3v0.1h4.2v-0.1c-0.3,0-0.5-0.1-0.7-0.3c-0.2-0.2-0.3-0.4-0.4-0.6
			c-0.1-0.2-0.1-0.5-0.1-0.7V56.1h3.1c0.6,0,1.2,0.3,1.9,0.9c0.7,0.6,1.1,1.1,1.2,1.4h0.1l-0.5-2.8H52.7z"/>
		<path class="st5" d="M78.7,55.7c0.4,0,0.7,0.2,0.8,0.5c0.2,0.3,0.3,0.7,0.3,1.1V62l0,0c0,1-0.8,1.8-1.8,1.8h-5.1
			c-0.7,0-1.4,0.3-1.8,0.9v-7.5c0-0.4,0.1-0.7,0.3-1c0.2-0.3,0.5-0.4,0.8-0.4v-0.1h-4.2v0.1c0.4,0,0.6,0.1,0.8,0.4
			c0.2,0.3,0.3,0.6,0.3,1v13.6c0,0.4-0.1,0.7-0.3,1.1c-0.2,0.3-0.5,0.5-0.8,0.5v0.1h4.2v-0.1c-0.4,0-0.6-0.1-0.8-0.4
			c-0.2-0.3-0.3-0.6-0.3-1v-4.8c0-1,0.8-1.8,1.8-1.8H78c0.7,0,1.4-0.3,1.8-0.9v7.4c0,0.4-0.1,0.7-0.3,1.1c-0.2,0.3-0.5,0.5-0.8,0.5
			l0,0.1h4.1v-0.1c-0.3,0-0.5-0.1-0.7-0.3c-0.2-0.2-0.3-0.4-0.4-0.6c-0.1-0.2-0.1-0.5-0.1-0.7V57.3c0-0.2,0-0.5,0.1-0.7
			c0.1-0.2,0.2-0.4,0.4-0.6c0.2-0.2,0.4-0.3,0.7-0.3v-0.1h-4.1L78.7,55.7z"/>
		<path class="st5" d="M101.8,72c-0.3-0.3-0.5-0.6-0.7-0.9l-6.9-15.5h-2.6v0.1c0.2,0,0.3,0,0.5,0.1c0.1,0.1,0.3,0.2,0.4,0.4
			c0.1,0.2,0.2,0.3,0.3,0.5c0.1,0.1,0.1,0.3,0.2,0.5l-5.7,12.9c-0.3,0.5-0.7,1-1.2,1.5c-0.5,0.4-1,0.7-1.4,0.7v0.1h4.1v-0.1
			c-0.2,0-0.4-0.1-0.5-0.2c-0.1-0.1-0.3-0.2-0.3-0.4c0,0,0-0.1,0-0.1c-0.2-0.4-0.2-0.9-0.1-1.4l0.2-0.5l0.3-0.7l0-0.1
			c0.1-0.2,0.2-0.4,0.4-0.5c0.3-0.3,0.8-0.5,1.3-0.5h5.7c0.6,0,1.2-0.3,1.6-0.7l0.2,0.4l0.2,0.5l1.3,2.8c0.1,0.4,0,0.7-0.1,1
			c-0.1,0.3-0.3,0.5-0.7,0.5v0.1h4.5l0-0.1C102.3,72.4,102,72.2,101.8,72z M95.6,67.4h-5.7c-0.4,0-0.8,0.1-1.1,0.3l0-0.1l4.3-9.7
			l3.6,8.1l0.3,0.6l0,0C96.7,67.2,96.2,67.4,95.6,67.4z"/>
		<path class="st5" d="M104.3,55.7c0.3,0,0.5,0.1,0.7,0.3c0.2,0.2,0.3,0.4,0.4,0.6c0.1,0.2,0.1,0.5,0.1,0.7v13.4
			c0,0.2,0,0.5-0.1,0.7c-0.1,0.2-0.2,0.4-0.4,0.6c-0.2,0.2-0.4,0.3-0.7,0.3v0.1h4.2v-0.1c-0.4,0-0.7-0.2-0.9-0.6
			c-0.2-0.3-0.2-0.6-0.2-1V57.3c0-0.4,0.1-0.7,0.3-1.1c0.2-0.3,0.5-0.5,0.8-0.5v-0.1h-4.2V55.7z"/>
		<path class="st5" d="M122.3,69.7c-0.1,0.4-0.5,0.8-1.2,1.4c-0.7,0.6-1.2,0.9-1.7,0.9h-5.9V57.1c0-0.4,0.1-0.7,0.3-0.9
			c0.2-0.3,0.4-0.4,0.8-0.4v-0.1h-4.2v0.1c0.3,0,0.5,0.1,0.7,0.3c0.2,0.2,0.3,0.4,0.4,0.6c0.1,0.2,0.1,0.4,0.1,0.7v13.5
			c0,0.2,0,0.5-0.1,0.7c-0.1,0.2-0.2,0.4-0.4,0.6c-0.2,0.2-0.4,0.3-0.7,0.3v0.1h11.4L122.3,69.7L122.3,69.7L122.3,69.7z"/>
		<path class="st5" d="M152.1,55.6v0.1c0.4,0,0.8,0.2,1.1,0.6c0.3,0.4,0.5,0.9,0.6,1.5v11.4l-10.4-13.6h-2.8v0.1
			c0.3,0,0.5,0.1,0.7,0.3c0.2,0.2,0.3,0.4,0.4,0.7c0.1,0.2,0.1,0.5,0.1,0.7v12.8c0,0.5-0.2,1-0.6,1.5c-0.3,0.4-0.6,0.6-0.9,0.7
			l0,0.1h3.6v-0.1c-0.4,0-0.7-0.2-1.1-0.7c-0.3-0.4-0.5-0.9-0.6-1.4V57.2l11.6,15.3h0.5V57.8c0-0.6,0.2-1,0.6-1.5
			c0.3-0.4,0.7-0.6,1.1-0.6v-0.1L152.1,55.6L152.1,55.6z"/>
		<path class="st5" d="M170.5,60.7c-0.5-1-1.1-1.9-1.9-2.7c-0.8-0.7-1.7-1.3-2.8-1.8c-1.1-0.4-2.2-0.7-3.4-0.7h-5.2v0.1
			c0.3,0,0.5,0.1,0.7,0.3c0.2,0.2,0.3,0.4,0.4,0.6c0.1,0.2,0.1,0.5,0.1,0.7v13.4c0,0.2,0,0.5-0.1,0.7c-0.1,0.2-0.2,0.4-0.4,0.6
			c-0.2,0.2-0.4,0.3-0.7,0.3v0.1h5.2c1.2,0,2.3-0.2,3.4-0.7s2-1,2.8-1.8c0.8-0.7,1.4-1.6,1.9-2.7c0.5-1,0.7-2.2,0.7-3.3
			C171.2,62.9,171,61.8,170.5,60.7z M168.3,68.1c-0.6,1.2-1.4,2.2-2.5,2.8c-1,0.7-2.2,1-3.5,1h-2V56.1h2c1.3,0,2.5,0.3,3.5,1
			c1,0.7,1.9,1.6,2.5,2.8c0.6,1.2,0.9,2.6,0.9,4.1C169.1,65.5,168.8,66.9,168.3,68.1z"/>
		<path class="st5" d="M139.3,72c-0.3-0.3-0.5-0.6-0.7-0.9l-6.9-15.5h-2.6v0.1c0.2,0,0.3,0,0.5,0.1c0.1,0.1,0.3,0.2,0.4,0.4
			c0.1,0.2,0.2,0.3,0.3,0.5c0.1,0.1,0.1,0.3,0.2,0.5l-5.7,12.9c-0.3,0.5-0.7,1-1.2,1.5c-0.5,0.4-1,0.7-1.4,0.7v0.1h4.1v-0.1
			c-0.2,0-0.4-0.1-0.5-0.2c-0.1-0.1-0.3-0.2-0.3-0.4c0,0,0-0.1,0-0.1c-0.2-0.4-0.2-0.9-0.1-1.4l0.2-0.5l0.3-0.7l0-0.1
			c0.1-0.2,0.2-0.4,0.4-0.5c0.3-0.3,0.8-0.5,1.3-0.5h5.7c0.6,0,1.2-0.3,1.6-0.7l0.2,0.4l0.2,0.5l1.3,2.8c0.1,0.4,0,0.7-0.1,1
			c-0.1,0.3-0.3,0.5-0.7,0.5v0.1h4.5l0-0.1C139.9,72.3,139.6,72.2,139.3,72z M133.2,67.4h-5.7c-0.4,0-0.8,0.1-1.1,0.3l0-0.1l4.3-9.7
			l3.6,8.1l0.3,0.6l0,0C134.3,67.2,133.8,67.4,133.2,67.4z"/>
		<path class="st5" d="M199.3,82.3c-0.1,0-0.2,0-0.3,0c-0.9-0.1-1.8-0.3-2.6-0.6c-1.4-0.6-2.6-1.5-3.8-2.4c-0.3-0.2-0.6-0.5-0.9-0.7
			c-0.7-0.6-1.4-1.2-2.2-1.7c-0.4-0.3-0.8-0.6-1.2-0.8c-1.6-1-3.2-1.6-4.9-1.9c-0.6-0.1-1.3-0.2-1.9-0.2c-1.3,0-2.7,0.2-3.9,0.6
			c-1.6,0.6-3,1.5-4,2.7c-1.6,1.9-2.3,4.5-2.1,7.3h0l0,0c-1.1,0.2-1.9,1.1-2.2,1.5c-3.1,5-7.1,9.3-11.5,13.1c-2.2,1.9-4.5,3.7-7,5.2
			c-2.4,1.6-4.9,3-7.6,4.3c-5.2,2.6-10.7,4.6-16.3,6c-5.6,1.4-11.5,2.1-17.3,2.3c-5.8,0.2-11.7-0.2-17.4-1.3
			c-5.7-1-11.4-2.7-16.7-4.9c-5.4-2.2-10.5-5.1-15.1-8.7c-4.6-3.5-8.8-7.7-12.2-12.4l0,0c-0.8-1.3-2.2-3-4.2-3.6h2.2
			c0.9,0,3.5-0.2,5.1-1.1c0.7-0.4,1.3-0.9,1.7-1.4c0.4-0.5,0.7-1.1,0.9-1.7c0.2-0.6,0.2-1.2,0.1-1.8c-0.1-0.6-0.3-1.2-0.7-1.7
			c-0.4-0.6-0.9-1.1-1.5-1.5c-0.6-0.4-1.4-0.8-2.4-1c-1-0.3-2-0.4-3.2-0.4h-3.2h-3.6v0.2c0.3,0,0.6,0.1,0.8,0.3
			c0.2,0.2,0.4,0.5,0.4,0.7c0.1,0.3,0.1,0.5,0.1,0.8v16.1c0,0.3,0,0.5-0.1,0.8c-0.1,0.3-0.2,0.5-0.4,0.7c-0.2,0.2-0.5,0.3-0.8,0.3
			v0.1h5v-0.1c-0.4,0-0.7-0.2-0.9-0.5c-0.2-0.4-0.3-0.8-0.4-1.2v-7.1c2.2,0.2,3.9,3.3,4,3.6c1.6,2.5,3.4,4.9,5.5,7.2
			c2,2.2,4.2,4.3,6.6,6.2c4.7,3.8,9.9,6.9,15.4,9.4c5.5,2.5,11.3,4.2,17.2,5.4c5.9,1.1,12,1.6,18,1.5c3-0.1,6-0.3,9-0.7
			c3-0.4,6-0.9,8.9-1.7c5.9-1.4,11.6-3.5,17-6.3c2.7-1.4,5.3-3,7.7-4.7c2.5-1.8,4.8-3.7,7-5.8c2.2-2.1,4.2-4.4,6-6.8
			c0.9-1.2,1.7-2.5,2.5-3.8c0.2-0.3,0.4-0.6,0.6-1l0.5-1c0.2-0.4,0.4-0.8,0.6-1.2c0.1,1.2,1.1,2.2,2.4,2.3c0.1,2.9,2,5.8,4.8,7.2
			c0.6,0.3,1.3,0.5,1.9,0.7c0.9,0.2,1.9,0.4,2.9,0.4c1.5,0,3.1-0.3,4.7-0.8l0.1,0c2.2-0.8,4.3-2.1,6.4-4c0.5-0.4,1-0.9,1.5-1.4
			c0.7-0.7,1.4-1.5,2-2.2c1.8-2.1,3-4.3,3.5-6.4l0.1-0.5L199.3,82.3z M43.1,85.5L43.1,85.5V76v-0.1h2.4c1,0,1.9,0.1,2.6,0.4
			c0.8,0.3,1.4,0.6,1.9,1.1c0.5,0.4,0.9,1,1.1,1.5c0.3,0.6,0.4,1.2,0.4,1.7c0,0.6-0.1,1.2-0.4,1.8C51,83,50.6,83.5,50.1,84
			c-0.5,0.5-1.1,0.8-1.9,1.1c-0.8,0.3-1.7,0.4-2.6,0.4h-1.8L43.1,85.5L43.1,85.5z M196,82.4c0.6,0.2,1.2,0.4,1.9,0.5
			c-2.9,1.2-6.5,2.1-10.6,2.7c-3.3,0.5-6.5,0.6-10,0.7c5.4-0.7,10.6-2.9,14.9-6.3C193.4,80.9,194.6,81.8,196,82.4z M183.5,75
			c1.4,0.3,2.7,0.8,4,1.6c-3.4,4.3-8.3,7.4-13.6,8.7c0,0-0.1-0.1-0.1-0.1c2.3-1.4,4.3-2.7,6-4.4C181.7,79,182.9,77,183.5,75z
			 M191.2,79.2c0.2,0.2,0.4,0.3,0.6,0.5c-4.9,3.9-11.1,6.1-17.3,6.3c0-0.1-0.1-0.1-0.1-0.2c5.3-1.4,10.3-4.6,13.7-8.9
			c0.3,0.2,0.6,0.4,1,0.6C189.7,78,190.5,78.6,191.2,79.2z M181.4,74.7c0.5,0,1,0.1,1.4,0.1c-0.6,1.9-1.7,3.8-3.4,5.4
			c-1.7,1.7-3.8,3-6.1,4.4c0,0-0.1,0-0.1-0.1c2.6-2.5,4.3-5.9,4.7-9.4C179.1,74.9,180.3,74.7,181.4,74.7z M174.2,77.7
			c0.8-0.9,1.8-1.7,3.1-2.2c-0.5,3.4-2.2,6.6-4.7,9c-0.1,0-0.2,0-0.3,0C172.1,81.8,172.8,79.4,174.2,77.7z M170.4,86.9
			c0-0.9,0.7-1.6,1.5-1.7c0,0,0.1,0,0.1,0c0.1,0,0.3,0,0.4,0.1c0.2,0,0.4,0.1,0.5,0.2c0.1,0.1,0.3,0.2,0.4,0.4
			c0.1,0.2,0.2,0.4,0.3,0.6c0,0.1,0.1,0.2,0.1,0.3c0,0,0,0.1,0,0.1c0,0.1,0,0.3-0.1,0.4c0,0.1-0.1,0.3-0.1,0.4
			c-0.1,0.2-0.2,0.3-0.3,0.4c-0.1,0.1-0.2,0.2-0.3,0.2c-0.2,0.1-0.4,0.2-0.6,0.2c-0.1,0-0.1,0-0.2,0
			C171.2,88.5,170.4,87.8,170.4,86.9z M172.8,89.3c0.1,0,0.1,0,0.2-0.1c1.1,2.5,2.6,4.8,4.4,6.7c-0.1,0-0.2-0.1-0.3-0.1
			C174.5,94.5,172.8,91.9,172.8,89.3z M178.9,96.5c0,0-0.1,0-0.1,0c-2.3-2.1-4.1-4.7-5.3-7.5l0,0c1.9,2.6,4,4.6,6.5,5.8
			c1.3,0.7,2.9,1.2,4.7,1.7C182.7,96.9,180.7,96.9,178.9,96.5z M186,96L186,96c-0.1,0-0.1,0-0.1,0.1c-2.3-0.4-4.1-1-5.6-1.8
			c-2.3-1.2-4.5-3.1-6.3-5.7c0,0,0.1-0.1,0.1-0.1c2.6,1.9,5.7,3.1,9.4,3.8c2.2,0.4,4.5,0.6,7.3,0.6c0.2,0,0.4,0,0.7,0
			C189.6,94.2,187.8,95.3,186,96z M193.6,90.8c-0.5,0.5-1,0.9-1.4,1.3c0,0,0,0,0,0c-3.4,0.1-6.1-0.1-8.5-0.6
			c-3.6-0.7-6.7-1.9-9.2-3.7c0,0,0,0,0,0c4.6,1.3,9.4,1.9,14.2,1.9c2.1,0,4.2-0.1,6.3-0.4C194.5,89.8,194.1,90.3,193.6,90.8z
			 M195.6,88.6c-7,0.9-14.2,0.4-21-1.5c0-0.1,0-0.1,0-0.2c4.5-0.1,8.7-0.2,12.8-0.8c4.4-0.6,8.2-1.6,11.3-2.9
			C198.1,85.1,197,86.9,195.6,88.6z"/>
	</g>
</g>
</svg>
