<svg width="44" height="44" viewBox="0 0 44 44" fill="none" xmlns="http://www.w3.org/2000/svg">
<g clip-path="url(#clip0_1311_2089)">
<path d="M28.8836 32.9337L25.0888 31.8364V29.8137C26.1218 28.8591 26.6898 27.7082 26.6898 26.5541V25.0249C27.1254 24.6231 28.0055 23.7523 28.3609 22.9731C30.0453 19.2808 27.7541 16.8151 27.6557 16.7119C27.5891 16.6428 27.5089 16.5883 27.42 16.5519C27.3312 16.5155 27.2357 16.498 27.1398 16.5006C27.0438 16.5032 26.9494 16.5257 26.8626 16.5668C26.7759 16.6079 26.6986 16.6666 26.6358 16.7392C26.6302 16.7457 26.0616 17.3816 25.5291 17.2753C25.184 17.1981 24.8445 17.0976 24.5129 16.9745C23.6853 16.6901 22.6553 16.3359 20.9174 16.3359C16.9139 16.3359 15.6455 18.3235 15.2864 19.9909C14.7029 22.7 16.4559 24.4557 17.1979 25.0612V26.5548C17.1979 27.7255 17.7795 28.8932 18.836 29.8554V31.8405L15.0526 32.9346C14.3071 33.1534 13.6523 33.6074 13.186 34.2288C12.7197 34.8502 12.4668 35.6057 12.4651 36.3827L12.5291 43.3201C12.5308 43.5014 12.604 43.6746 12.7327 43.8022C12.8615 43.9297 13.0354 44.0013 13.2166 44.0013H13.2231C13.3134 44.0005 13.4027 43.9818 13.4858 43.9465C13.5689 43.9112 13.6442 43.8599 13.7074 43.7954C13.7707 43.731 13.8206 43.6547 13.8544 43.571C13.8882 43.4873 13.9051 43.3977 13.9043 43.3074L13.8403 36.3763C13.8418 35.8981 13.9978 35.4331 14.2851 35.0508C14.5723 34.6684 14.9755 34.3892 15.4344 34.2546L19.0953 33.196C19.5153 34.0696 20.436 35.0872 22.0718 35.0872C23.7059 35.0872 24.5361 34.0912 24.8858 33.209L28.5016 34.2546C28.9614 34.3896 29.3651 34.6698 29.6525 35.0532C29.9399 35.4366 30.0955 35.9026 30.0962 36.3818L30.1602 43.3193C30.1619 43.5005 30.2351 43.6738 30.3638 43.8013C30.4926 43.9289 30.6665 44.0004 30.8477 44.0004H30.8542C30.9445 43.9996 31.0338 43.981 31.1169 43.9457C31.2 43.9103 31.2753 43.859 31.3385 43.7946C31.4018 43.7301 31.4517 43.6539 31.4855 43.5701C31.5193 43.4864 31.5362 43.3968 31.5354 43.3066L31.4714 36.3754C31.4686 35.5995 31.2151 34.8452 30.7488 34.225C30.2825 33.6048 29.6283 33.1519 28.8836 32.9337ZM16.6305 20.2801C16.9977 18.5752 18.44 17.7106 20.9173 17.7106C22.4254 17.7106 23.2594 17.9973 24.0659 18.2745C24.4555 18.4184 24.8546 18.5351 25.2604 18.6237C25.834 18.7381 26.4417 18.5954 27.017 18.2112L27.0384 18.1967C27.4711 18.9478 28.006 20.4379 27.11 22.4026C26.9792 22.689 26.7036 23.037 26.4129 23.3558C26.2153 22.7077 25.9186 22.1441 25.4742 21.9532C25.3197 21.8872 25.1505 21.863 24.9836 21.883C24.8168 21.9029 24.6581 21.9663 24.5234 22.0669C23.6514 22.6851 23.1729 22.9742 21.8336 22.7887C21.1025 22.6922 20.3984 22.4491 19.7634 22.0742C19.677 22.0164 19.5787 21.9789 19.4758 21.9645C19.3728 21.9501 19.268 21.9591 19.1691 21.9909C19.0701 22.0227 18.9796 22.0764 18.9044 22.1481C18.8291 22.2198 18.771 22.3075 18.7344 22.4048C18.7323 22.4103 18.5175 22.9703 17.9234 23.7454C17.9032 23.7717 17.883 23.7968 17.8627 23.8205C17.2643 23.2705 16.2508 22.0434 16.6305 20.2801ZM18.5727 25.0546C18.735 24.9117 18.883 24.7534 19.0146 24.5819C19.2597 24.2643 19.4829 23.9305 19.6826 23.5826C20.3063 23.8645 20.967 24.0557 21.6448 24.1505C23.2496 24.3728 24.0775 24.0261 24.9792 23.4229C25.135 23.8598 25.2472 24.3109 25.3144 24.7698V26.5541C25.3144 28.3601 23.0478 29.9166 21.9351 29.9166C20.8278 29.9166 18.5725 28.3601 18.5725 26.5541L18.5727 25.0546ZM22.0714 33.7122C20.751 33.7122 20.3239 32.6507 20.2203 32.3075C20.2187 32.2811 20.2154 32.2548 20.2107 32.2287V30.8126C20.8109 31.1186 21.4144 31.2916 21.9352 31.2916C22.471 31.2916 23.0954 31.1084 23.7135 30.7864V32.3096C23.6658 32.5728 23.5669 32.8241 23.4226 33.0493C23.1292 33.4954 22.6875 33.7122 22.0716 33.7122H22.0714Z" fill="white"/>
<path d="M13.2764 26.2004C13.6276 26.3043 13.9357 26.5189 14.155 26.8122C14.3743 27.1055 14.4929 27.4619 14.4931 27.8281L14.4835 31.0984C14.4832 31.1887 14.5008 31.2781 14.5351 31.3616C14.5695 31.4451 14.6199 31.5211 14.6836 31.5851C14.7473 31.6491 14.8229 31.6999 14.9063 31.7347C14.9896 31.7694 15.079 31.7874 15.1693 31.7877H15.171C15.353 31.7877 15.5276 31.7155 15.6565 31.5869C15.7854 31.4584 15.858 31.2839 15.8585 31.1019L15.8681 27.8317C15.8676 27.1677 15.6525 26.5217 15.255 25.9899C14.8574 25.4581 14.2987 25.069 13.662 24.8805L10.6356 23.9965L10.6398 22.4813C11.4914 21.683 11.9598 20.721 11.9623 19.7531L11.9656 18.5499C12.342 18.2006 13.0398 17.5008 13.332 16.8656C14.7578 13.7617 12.827 11.6725 12.7442 11.585C12.6784 11.5147 12.5985 11.4592 12.5097 11.422C12.421 11.3847 12.3254 11.3667 12.2292 11.3689C12.133 11.3712 12.0383 11.3937 11.9514 11.435C11.8645 11.4763 11.7873 11.5356 11.7248 11.6088C11.5891 11.7635 11.2167 12.0642 10.9311 12.0072C10.6532 11.9439 10.3798 11.862 10.1129 11.762C9.42537 11.5234 8.569 11.2266 7.12078 11.2227H7.095C4.47992 11.2227 2.80088 12.3183 2.36638 14.3092C1.87885 16.5436 3.27302 18.014 3.92253 18.561L3.91944 19.7316C3.91686 20.7133 4.39149 21.691 5.25757 22.5005L5.25353 23.9849L2.23197 24.8498C1.59416 25.0348 1.03322 25.421 0.632766 25.9508C0.232308 26.4806 0.0137659 27.1257 0.00971137 27.7898L4.36289e-07 36.0197C-0.000204818 36.202 0.0720194 36.3769 0.200787 36.506C0.329555 36.6351 0.50432 36.7077 0.686641 36.7079H0.6875C0.869703 36.7079 1.04445 36.6356 1.17336 36.5068C1.30227 36.3781 1.3748 36.2034 1.375 36.0212L1.38471 27.7924C1.38702 27.4262 1.50758 27.0706 1.72842 26.7785C1.94927 26.4864 2.25858 26.2734 2.61027 26.1714L5.52217 25.3378C5.9003 26.0661 6.68001 26.8712 8.02656 26.8748H8.03593C9.37501 26.8748 10.0879 26.0947 10.4132 25.3638L13.2764 26.2004ZM6.28109 21.5737C5.65263 21.0188 5.2928 20.3486 5.29487 19.7346L5.29813 18.5579C5.42148 18.4454 5.53477 18.3223 5.63673 18.19C5.81935 17.9543 5.98777 17.7079 6.14109 17.4522C6.63369 17.6656 7.15259 17.8121 7.68402 17.8881C8.9583 18.0685 9.67441 17.8086 10.3784 17.3638C10.473 17.668 10.5443 17.979 10.5916 18.294L10.5878 19.7491C10.584 21.1398 8.77783 22.3833 7.92722 22.3815C7.5625 22.3806 6.8799 22.1028 6.28066 21.5737H6.28109ZM3.71001 14.6026C3.81838 14.1061 4.14709 12.5979 7.09337 12.5979H7.117C8.33542 12.6012 9.00995 12.8351 9.6623 13.0613C9.98717 13.1823 10.3201 13.2805 10.6586 13.3552C11.1587 13.4453 11.6743 13.3411 12.1002 13.0639C12.4244 13.6889 12.7565 14.8244 12.0825 16.2919C11.9706 16.5051 11.8319 16.7032 11.67 16.8814C11.4764 16.3387 11.2189 15.9957 10.8996 15.8576C10.7536 15.7945 10.5935 15.7708 10.4354 15.789C10.2773 15.8072 10.1267 15.8666 9.99883 15.9612C9.30798 16.4483 8.92891 16.6758 7.87617 16.5269C7.29433 16.4484 6.73414 16.254 6.22875 15.9552C6.14283 15.8963 6.04459 15.8578 5.94152 15.8425C5.83845 15.8273 5.73327 15.8358 5.63398 15.8674C5.53469 15.899 5.44392 15.9528 5.36858 16.0247C5.29324 16.0967 5.23531 16.1849 5.19922 16.2827C5.03759 16.6482 4.83029 16.9919 4.58227 17.3053C4.10781 16.8335 3.42693 15.8996 3.71001 14.6026ZM8.03516 25.5H8.03017C7.04138 25.4973 6.71533 24.7054 6.6336 24.4402C6.63209 24.424 6.63003 24.4079 6.62742 24.3919L6.62999 23.432C7.03363 23.6296 7.4743 23.7403 7.92344 23.7566H7.92902C8.39242 23.7402 8.847 23.6252 9.26252 23.4194L9.25968 24.4669C9.22109 24.7007 9.01906 25.5 8.03516 25.5ZM41.7937 24.8805L39.3561 24.1685H41.1821C41.3644 24.1685 41.5393 24.096 41.6682 23.9671C41.7972 23.8382 41.8696 23.6633 41.8696 23.481V17.6834C41.8696 16.1473 41.2594 14.6742 40.1733 13.5881C39.0872 12.5019 37.614 11.8918 36.078 11.8918C34.542 11.8918 33.0689 12.5019 31.9828 13.5881C30.8966 14.6742 30.2864 16.1473 30.2864 17.6834V23.481C30.2864 23.6633 30.3589 23.8382 30.4878 23.9671C30.6167 24.096 30.7916 24.1685 30.9739 24.1685H32.7431L30.3636 24.8495C29.726 25.0345 29.1652 25.4206 28.7648 25.9502C28.3643 26.4798 28.1457 27.1246 28.1415 27.7886L28.1319 31.0982C28.1314 31.2805 28.2034 31.4556 28.332 31.5848C28.4606 31.7141 28.6353 31.7869 28.8176 31.7874H28.8194C29.0014 31.7874 29.176 31.7152 29.3049 31.5867C29.4338 31.4581 29.5064 31.2837 29.5069 31.1016L29.5165 27.7922C29.5188 27.426 29.6394 27.0703 29.8602 26.7782C30.0811 26.4861 30.3904 26.2732 30.7421 26.1711L33.7442 25.3118C34.0082 26.091 34.718 26.8746 36.0895 26.8746C37.0235 26.8746 37.58 26.509 37.8824 26.2022C38.1237 25.9542 38.3043 25.6537 38.4098 25.3241L41.4082 26.2C41.7595 26.3041 42.0678 26.5189 42.2871 26.8125C42.5064 27.106 42.6249 27.4626 42.625 27.829L42.6153 36.0588C42.6152 36.1491 42.6328 36.2386 42.6673 36.322C42.7017 36.4055 42.7523 36.4813 42.816 36.5452C42.8798 36.6092 42.9555 36.6599 43.0389 36.6945C43.1223 36.7292 43.2116 36.7471 43.3019 36.7472H43.3028C43.485 36.7472 43.6597 36.6749 43.7887 36.5461C43.9176 36.4174 43.9901 36.2427 43.9903 36.0605L44 27.8317C43.9994 27.1677 43.7843 26.5217 43.3867 25.9899C42.9892 25.4581 42.4304 25.069 41.7937 24.8805ZM33.7488 20.2227V18.8206C33.7488 18.8157 33.7666 18.318 34.0519 18.0358C34.3063 17.7842 34.513 17.5592 34.6809 17.3595C35.0405 17.8134 35.4909 18.1873 36.0032 18.4572C36.7643 18.8606 37.5715 19.17 38.4073 19.3786V20.2233C38.4066 20.8392 38.1616 21.4297 37.7261 21.8652C37.2906 22.3007 36.7002 22.5457 36.0843 22.5464H36.0718C35.4558 22.5457 34.8653 22.3007 34.4298 21.8651C33.9943 21.4295 33.7494 20.839 33.7488 20.2231V20.2227ZM31.6614 17.683C31.6687 16.5164 32.1372 15.4001 32.9647 14.5778C33.7922 13.7554 34.9114 13.2939 36.078 13.2939C37.2446 13.2939 38.3638 13.7554 39.1913 14.5778C40.0188 15.4001 40.4873 16.5164 40.4946 17.683V22.7931H38.7392C39.4084 22.1049 39.7827 21.1827 39.7823 20.2227V18.8206C39.7823 18.6557 39.7229 18.4962 39.6151 18.3713C39.5072 18.2465 39.3581 18.1646 39.1949 18.1405C38.3056 17.9743 37.4473 17.6719 36.6503 17.244C35.6457 16.7082 35.3972 15.8806 35.3892 15.8534C35.3109 15.5239 35.013 15.2631 34.6755 15.2892C34.5206 15.2939 34.3726 15.3543 34.2585 15.4592C34.1445 15.564 34.072 15.7065 34.0543 15.8604C34.0099 15.9569 33.8019 16.3493 33.0851 17.0582C32.3937 17.7419 32.3738 18.7123 32.3738 18.8206V20.2233C32.3734 21.1833 32.7476 22.1055 33.4168 22.7937H31.6614V17.683ZM37.1606 24.5958C37.1558 24.872 37.0397 25.4996 36.0895 25.4996C35.127 25.4996 35.0035 24.8609 34.9954 24.5831V23.7605C35.3443 23.8669 35.707 23.9209 36.0718 23.9208H36.0843C36.449 23.9209 36.8118 23.8669 37.1607 23.7605V24.589C37.1607 24.5972 37.1604 24.5923 37.1606 24.5962V24.5958Z" fill="white"/>
<path d="M14.6926 17.6898H14.7123C14.8912 17.6897 15.0631 17.6199 15.1913 17.4952C15.3196 17.3704 15.3941 17.2006 15.3992 17.0217L15.409 16.6773V16.6597C15.4109 16.2916 15.5315 15.934 15.7529 15.6399C15.9743 15.3459 16.2847 15.1311 16.6379 15.0276L19.619 14.2064C19.7305 14.513 19.9061 14.7923 20.1339 15.0257C20.5909 15.4894 21.2187 15.7244 22 15.7244C23.3578 15.7244 24.0921 14.9877 24.397 14.2188L27.374 15.0547C27.65 15.1344 27.9012 15.2829 28.1042 15.4863C28.3071 15.6897 28.455 15.9413 28.5341 16.2174C28.5848 16.3926 28.7029 16.5405 28.8626 16.6286C29.0222 16.7166 29.2104 16.7376 29.3855 16.687C29.5607 16.6364 29.7086 16.5182 29.7966 16.3586C29.8847 16.1989 29.9057 16.0108 29.8551 15.8356C29.7285 15.3941 29.5042 14.9867 29.1988 14.6436C28.8934 14.3005 28.5147 14.0305 28.0908 13.8536V6.05542C28.0847 4.44733 27.4417 2.90717 26.3025 1.77221C25.1632 0.637254 23.6207 0 22.0126 0C20.4045 0 18.8619 0.637254 17.7227 1.77221C16.5834 2.90717 15.9404 4.44733 15.9343 6.05542V13.8208C15.3761 14.0546 14.8987 14.4469 14.5611 14.9492C14.2234 15.4515 14.0404 16.0417 14.0347 16.6469L14.0251 16.9831C14.0199 17.1654 14.0873 17.3422 14.2125 17.4747C14.3377 17.6072 14.5104 17.6846 14.6926 17.6898ZM24.5109 8.73787C24.5102 9.39862 24.2474 10.0321 23.7801 10.4993C23.3129 10.9665 22.6795 11.2293 22.0187 11.2301H22.0054C21.3446 11.2293 20.7112 10.9665 20.2439 10.4993C19.7767 10.0321 19.5139 9.39862 19.5132 8.73787V7.81533C20.4034 7.59592 21.2632 7.26781 22.0732 6.8384C22.6237 6.54845 23.1058 6.14388 23.4868 5.65194C23.6684 5.87065 23.8956 6.11936 24.1792 6.3996C24.4436 6.66102 24.5083 7.11056 24.5109 7.25605V8.73787ZM23.0461 13.8585C22.8618 14.189 22.5197 14.3497 22.0001 14.3497C20.9539 14.3497 20.8334 13.6513 20.8301 13.3592C20.8303 13.356 20.8303 13.3527 20.8301 13.3494V12.4217C21.21 12.5432 21.6066 12.605 22.0055 12.6049H22.0188C22.4177 12.605 22.8142 12.5432 23.1942 12.4217V13.3494C23.1811 13.5276 23.1307 13.7011 23.0461 13.8585ZM22.0123 1.37449C23.2562 1.37296 24.45 1.86492 25.3317 2.74246C26.2135 3.62 26.7111 4.81145 26.7154 6.05542V13.4418L24.5696 12.8392V11.6409C24.9832 11.2788 25.3147 10.8324 25.5418 10.3318C25.7689 9.83107 25.8863 9.28764 25.8862 8.73787V7.2564C25.8862 7.14356 25.8655 6.13336 25.1463 5.42232C24.3736 4.65808 24.1564 4.23844 24.1123 4.1403C24.0938 3.98815 24.0215 3.84761 23.9086 3.74396C23.7957 3.6403 23.6495 3.58033 23.4963 3.57483C23.1627 3.54622 22.8643 3.80119 22.7793 4.12483C22.7686 4.1623 22.5033 5.05072 21.4264 5.62496C20.5798 6.07736 19.6691 6.39813 18.7258 6.5762C18.5626 6.60023 18.4135 6.68216 18.3056 6.80703C18.1978 6.93191 18.1384 7.0914 18.1385 7.2564V8.73787C18.1384 9.28764 18.2558 9.83107 18.4829 10.3318C18.71 10.8324 19.0415 11.2788 19.4551 11.6409V12.8256L17.3089 13.4168V6.05542C17.3133 4.81142 17.8109 3.61994 18.6927 2.7424C19.5744 1.86486 20.7682 1.37291 22.0123 1.37449Z" fill="white"/>
</g>
<defs>
<clipPath id="clip0_1311_2089">
<rect width="44" height="44" fill="white"/>
</clipPath>
</defs>
</svg>
