<svg width="44" height="44" viewBox="0 0 44 44" fill="none" xmlns="http://www.w3.org/2000/svg">
<g clip-path="url(#clip0_1311_2096)">
<path d="M11.4583 31.5759L8.99431 32.1244C7.68817 32.4078 6.51903 33.1313 5.68266 34.1738C4.84629 35.2163 4.39345 36.5145 4.39997 37.851V39.0375C4.4011 39.8414 4.66571 40.6226 5.15326 41.2617C5.64081 41.9008 6.32442 42.3624 7.09937 42.5759C9.47904 43.2249 13.9956 44 22 44C30.0043 44 34.5209 43.2249 36.9006 42.5759C37.6755 42.3624 38.3591 41.9008 38.8467 41.2617C39.3342 40.6226 39.5988 39.8414 39.6 39.0375V37.851C39.6065 36.5145 39.1537 35.2163 38.3173 34.1738C37.4809 33.1313 36.3118 32.4078 35.0056 32.1244L32.5416 31.5759L29.18 29.5599L27.8285 26.4066L28.2685 25.8999L28.5992 25.9886C28.9453 26.0801 29.3017 26.1267 29.6596 26.1272C30.741 26.1249 31.7772 25.6936 32.541 24.9281C33.3047 24.1626 33.7335 23.1253 33.7333 22.044V21.164C34.3614 21.0018 34.918 20.636 35.3161 20.1239C35.7141 19.6117 35.9312 18.982 35.9333 18.3333V15.4C35.9309 14.7516 35.7137 14.1222 35.3156 13.6104C34.9176 13.0985 34.3611 12.7329 33.7333 12.5708V11.7333C33.7333 8.62146 32.4971 5.63704 30.2967 3.43661C28.0963 1.23619 25.1118 0 22 0C18.8881 0 15.9037 1.23619 13.7033 3.43661C11.5028 5.63704 10.2666 8.62146 10.2666 11.7333V12.5708C9.6388 12.7329 9.08237 13.0985 8.68432 13.6104C8.28628 14.1222 8.06907 14.7516 8.06664 15.4V18.3333C8.06664 19.1113 8.37569 19.8574 8.92579 20.4075C9.4759 20.9576 10.222 21.2667 11 21.2667H12.4666C12.717 21.2642 12.9651 21.2186 13.2 21.1317V21.3847C13.1995 22.4317 13.5795 23.4431 14.2692 24.2308L16.1758 26.4051L14.8236 29.5585L11.4583 31.5759ZM15.1917 31.0471C16.5181 32.7949 18.3343 34.1087 20.4094 34.8216C19.7022 35.5141 19.1147 36.3189 18.6706 37.2035C16.3621 36.1259 14.3491 34.5049 12.804 32.4793L15.1917 31.0471ZM38.1333 37.851V39.0375C38.1336 39.5204 37.9753 39.9901 37.6828 40.3743C37.3903 40.7585 36.9797 41.036 36.5141 41.1642C34.221 41.7868 29.8415 42.5333 22 42.5333C14.1584 42.5333 9.77897 41.7868 7.48584 41.1605C7.02087 41.0325 6.61072 40.7555 6.31826 40.3721C6.02579 39.9886 5.86714 39.5198 5.86664 39.0375V37.851C5.86161 36.8485 6.20131 35.8747 6.82881 35.0929C7.45631 34.3111 8.33348 33.7687 9.31331 33.5566L11.4209 33.088C12.2474 34.1975 14.7532 37.2431 18.301 38.6349C18.6046 38.7516 18.9411 38.7488 19.2427 38.6272C19.5443 38.5055 19.7885 38.274 19.9261 37.9793C20.4072 36.9615 21.1169 36.0685 22 35.3701C22.8833 36.0683 23.5935 36.961 24.0753 37.9786C24.1792 38.2 24.344 38.3872 24.5503 38.5185C24.7566 38.6498 24.996 38.7197 25.2406 38.72C25.3982 38.7202 25.5545 38.6906 25.7011 38.6327C29.2482 37.2394 31.754 34.1953 32.5805 33.0858L34.6881 33.5544C35.668 33.7668 36.5451 34.3097 37.1724 35.0919C37.7996 35.8742 38.1389 36.8483 38.1333 37.851ZM25.3293 37.2035C24.8856 36.3187 24.298 35.5138 23.5906 34.8216C25.6656 34.1087 27.4818 32.7949 28.8082 31.0471L31.196 32.4793C29.6507 34.5048 27.6377 36.1257 25.3293 37.2035ZM31.2473 24.1157C30.7153 24.5207 30.0475 24.7046 29.3832 24.629L29.7308 24.2315C30.4204 23.4435 30.8003 22.4319 30.8 21.3847V21.1317C31.0348 21.2186 31.2829 21.2642 31.5333 21.2667H32.2666V22.044C32.2681 22.4445 32.1768 22.84 32 23.1994C31.8231 23.5588 31.5655 23.8724 31.2473 24.1157ZM29.3333 12.4557C22.5962 12.2533 21.2234 9.28253 21.2146 9.26127C21.1602 9.12507 21.0662 9.00832 20.9447 8.9261C20.8233 8.84387 20.68 8.79995 20.5333 8.8C18.3997 8.80336 16.3471 9.61759 14.7913 11.0777C15.4476 7.4382 18.5885 4.4 22 4.4C23.9442 4.40214 25.8083 5.17544 27.1831 6.55024C28.5579 7.92505 29.3312 9.78907 29.3333 11.7333V12.4557ZM34.4666 15.4V18.3333C34.4666 18.7223 34.3121 19.0954 34.0371 19.3704C33.762 19.6455 33.389 19.8 33 19.8H31.5333C31.3388 19.8 31.1523 19.7227 31.0148 19.5852C30.8772 19.4477 30.8 19.2612 30.8 19.0667V14.6667C30.8 14.4722 30.8772 14.2856 31.0148 14.1481C31.1523 14.0106 31.3388 13.9333 31.5333 13.9333H33C33.389 13.9333 33.762 14.0879 34.0371 14.3629C34.3121 14.638 34.4666 15.011 34.4666 15.4ZM22 1.46667C24.722 1.46958 27.3316 2.55218 29.2564 4.47692C31.1811 6.40166 32.2637 9.01134 32.2666 11.7333V12.4667H31.5333C31.2829 12.4691 31.0348 12.5147 30.8 12.6016V11.7333C30.7974 9.4002 29.8695 7.16335 28.2197 5.51358C26.57 3.86381 24.3331 2.93586 22 2.93333C17.3118 2.93333 13.2 7.38833 13.2 12.4667V12.6016C12.9651 12.5147 12.717 12.4691 12.4666 12.4667H11.7333V11.7333C11.7362 9.01134 12.8188 6.40166 14.7436 4.47692C16.6683 2.55218 19.278 1.46958 22 1.46667ZM12.4666 19.8H11C10.611 19.8 10.2379 19.6455 9.96288 19.3704C9.68783 19.0954 9.53331 18.7223 9.53331 18.3333V15.4C9.53331 15.011 9.68783 14.638 9.96288 14.3629C10.2379 14.0879 10.611 13.9333 11 13.9333H12.4666C12.6611 13.9333 12.8477 14.0106 12.9852 14.1481C13.1227 14.2856 13.2 14.4722 13.2 14.6667V19.0667C13.2 19.2612 13.1227 19.4477 12.9852 19.5852C12.8477 19.7227 12.6611 19.8 12.4666 19.8ZM14.6666 21.3847V13.42C15.2848 12.5254 16.0943 11.7795 17.0365 11.2365C17.9787 10.6935 19.0298 10.367 20.1138 10.2806C20.8061 11.3285 23.0853 13.7383 29.3333 13.9172V21.3847C29.3334 22.0767 29.0822 22.7451 28.6264 23.2657L27.7684 24.2462L25.715 23.6977L25.737 23.6067C25.7819 23.4193 25.7894 23.2249 25.7591 23.0346C25.7288 22.8443 25.6612 22.6618 25.5604 22.4976C25.4595 22.3334 25.3273 22.1907 25.1713 22.0777C25.0152 21.9646 24.8384 21.8834 24.651 21.8387L22.5118 21.3253C21.9441 21.1894 21.3456 21.2845 20.8481 21.5898C20.3505 21.8951 19.9946 22.3856 19.8586 22.9533C19.7227 23.5211 19.8178 24.1195 20.1231 24.6171C20.4285 25.1147 20.9189 25.4706 21.4866 25.6065L23.6258 26.1199C23.7387 26.1469 23.8543 26.1607 23.9704 26.1609C24.2834 26.1611 24.588 26.0603 24.839 25.8735C25.0901 25.6867 25.2741 25.4238 25.3638 25.124L26.6904 25.4789L25.5933 26.73C25.2811 27.087 24.8962 27.3731 24.4644 27.5691C24.0326 27.7652 23.5639 27.8666 23.0897 27.8667H20.9102C20.4361 27.8664 19.9674 27.7648 19.5356 27.5688C19.1039 27.3728 18.719 27.0868 18.4066 26.73L15.375 23.265C14.9187 22.7449 14.6669 22.0767 14.6666 21.3847ZM24.31 23.2657L23.9697 24.6913L21.8298 24.178C21.7351 24.1567 21.6454 24.1168 21.5662 24.0606C21.487 24.0044 21.4197 23.933 21.3683 23.8505C21.3169 23.7681 21.2824 23.6763 21.2668 23.5804C21.2512 23.4845 21.2548 23.3865 21.2773 23.292C21.2999 23.1975 21.3411 23.1084 21.3984 23.03C21.4557 22.9515 21.528 22.8853 21.6111 22.835C21.6942 22.7847 21.7865 22.7515 21.8826 22.7372C21.9787 22.7229 22.0767 22.7278 22.1708 22.7517L24.31 23.2657ZM17.3008 27.6958C17.7508 28.2104 18.3058 28.6227 18.9283 28.9051C19.5509 29.1876 20.2266 29.3336 20.9102 29.3333H23.0897C23.7733 29.3335 24.4491 29.1875 25.0716 28.9051C25.6941 28.6226 26.2491 28.2103 26.6992 27.6958L26.7578 27.6291L27.7676 29.9867C26.3763 31.9056 24.3201 33.2374 22 33.7223C19.6799 33.2374 17.6236 31.9056 16.2323 29.9867L17.2428 27.6291L17.3008 27.6958Z" fill="white"/>
</g>
<defs>
<clipPath id="clip0_1311_2096">
<rect width="44" height="44" fill="white"/>
</clipPath>
</defs>
</svg>
