<svg width="40" height="40" viewBox="0 0 40 40" fill="none" xmlns="http://www.w3.org/2000/svg">
<g clip-path="url(#clip0_1311_2101)">
<path d="M39.5085 26.6871C38.752 25.4081 37.4106 24.9558 36.2408 25.5953L35.2347 26.1412V17.5158C36.0692 17.2506 36.6775 16.4707 36.6775 15.5427V11.0038C36.6775 9.86518 35.7495 8.93713 34.6108 8.93713H28.8944C30.8362 8.11827 32.0217 6.6755 32.0918 5.01436C32.1542 3.62619 31.39 2.37839 30.1656 1.81688C29.3935 1.46593 27.3034 0.93562 24.644 3.48581C23.4196 4.66342 22.4058 6.13738 21.7273 7.68933C21.041 6.13738 20.0272 4.66342 18.8106 3.48581C16.1512 0.927821 14.0611 1.46593 13.2891 1.81688C12.0491 2.37839 11.2926 3.63399 11.3472 5.01436C11.4174 6.6755 12.6028 8.11047 14.5447 8.93713H9.75624C8.61762 8.93713 7.68957 9.86518 7.68957 11.0038V15.5427C7.68957 16.4629 8.29787 17.2506 9.13234 17.5158V24.402L7.38542 25.1039C7.11246 24.6438 6.61334 24.3397 6.03624 24.3397H1.60655C0.740889 24.3319 0.0390015 25.0337 0.0390015 25.8994V36.4355C0.0390015 37.3012 0.740889 38.0031 1.60655 38.0031H6.04404C6.62894 38.0031 7.13586 37.6833 7.40882 37.2076L10.4269 38.2292C10.9416 38.4086 11.4174 38.4866 11.9633 38.4866H24.8702C25.6579 38.4866 26.3364 38.2838 27.0071 37.8549L38.9547 30.2199C40.2025 29.4166 40.1713 27.8023 39.5085 26.6871ZM27.5296 30.3291C26.9837 30.6254 26.4767 30.758 25.8918 30.758H25.6735L25.7593 30.7034C26.7107 30.0873 27.1318 28.9487 26.8121 27.8647C26.4923 26.7807 25.5175 26.0476 24.3867 26.0476H22.3434V17.6093H33.9869V26.8197L27.5296 30.3291ZM35.4297 11.0038V15.5427C35.4297 15.995 35.0632 16.3615 34.6108 16.3615H22.3434V10.2551C23.5444 10.5281 24.3243 11.5887 25.2134 12.7897C25.7983 13.5774 26.3988 14.3963 27.163 14.9968C27.28 15.0903 27.4126 15.1293 27.553 15.1293C27.7401 15.1293 27.9195 15.0514 28.0443 14.8954C28.2549 14.6224 28.2159 14.2325 27.9429 14.0219C27.3112 13.515 26.7809 12.8053 26.2272 12.0488C25.7593 11.4171 25.2601 10.7386 24.6674 10.1849H34.6186C35.0632 10.1849 35.4297 10.5515 35.4297 11.0038ZM25.5019 4.39046C26.6171 3.32984 27.7401 2.76833 28.715 2.76833C29.0425 2.76833 29.3545 2.83072 29.6508 2.96329C30.4151 3.30644 30.883 4.09411 30.844 4.96757C30.7895 6.22317 29.7366 7.33839 28.0209 7.93889C26.5859 8.44581 24.722 8.77336 22.5852 8.89814C23.1779 7.2526 24.2385 5.61487 25.5019 4.39046ZM12.595 4.96757C12.556 4.09411 13.0239 3.30644 13.7882 2.96329C14.0767 2.83072 14.3887 2.76833 14.724 2.76833C15.6989 2.76833 16.8219 3.32983 17.9293 4.39826C19.2005 5.61487 20.2533 7.2526 20.8539 8.89814C18.717 8.77336 16.8453 8.44581 15.4181 7.93889C13.7024 7.33059 12.6496 6.22317 12.595 4.96757ZM8.93737 11.0038C8.93737 10.5515 9.30391 10.1849 9.75624 10.1849H18.7794C18.1867 10.7386 17.6954 11.4093 17.2196 12.0488C16.6581 12.8053 16.1356 13.5228 15.5039 14.0219C15.231 14.2325 15.192 14.6302 15.4025 14.8954C15.5273 15.0514 15.7067 15.1293 15.8939 15.1293C16.0264 15.1293 16.1668 15.0825 16.2838 14.9968C17.0481 14.3885 17.6486 13.5774 18.2335 12.7897C19.1225 11.5887 19.9024 10.5281 21.1034 10.2551V16.3615H9.75624C9.30391 16.3615 8.93737 15.995 8.93737 15.5427V11.0038ZM10.3801 17.6093H21.0956V26.0554H18.561C18.1789 26.0554 17.8591 25.9774 17.5238 25.798L13.8194 23.8249C12.8991 23.3336 11.9087 23.279 10.9416 23.669L10.3801 23.8951V17.6093ZM6.04404 36.7553H1.60655C1.43498 36.7553 1.2868 36.6071 1.2868 36.4355V25.8994C1.2868 25.7278 1.43498 25.5797 1.60655 25.5797H6.04404C6.21561 25.5797 6.36378 25.7278 6.36378 25.8994V36.4277C6.36378 36.6071 6.21561 36.7553 6.04404 36.7553ZM38.284 29.1671L26.3364 36.8099C25.8684 37.1062 25.4161 37.2466 24.8702 37.2466H11.9711C11.5577 37.2466 11.2224 37.192 10.8325 37.0594L7.61158 35.9676V26.3517L11.4096 24.8232C12.0335 24.5736 12.6418 24.6048 13.2345 24.9246L16.9389 26.8976C17.4536 27.1706 17.9683 27.3032 18.561 27.3032H24.3867C24.9716 27.3032 25.4473 27.6619 25.6111 28.2234C25.7749 28.7849 25.5643 29.3465 25.073 29.6584L23.8486 30.4461C23.5132 30.6644 23.1857 30.758 22.7801 30.758H17.2976C16.9545 30.758 16.6737 31.0388 16.6737 31.3819C16.6737 31.7251 16.9545 32.0058 17.2976 32.0058H25.884C26.6795 32.0058 27.3892 31.8187 28.1145 31.4287L36.8257 26.6871C37.7069 26.2036 38.3152 27.1316 38.4244 27.3188C38.7364 27.8257 38.9469 28.7459 38.284 29.1671Z" fill="white"/>
<path d="M24.8702 38.5268H11.9633C11.4069 38.5268 10.9292 38.4468 10.4141 38.2672L7.42636 37.256C7.13429 37.7425 6.60757 38.0433 6.04403 38.0433H1.60654C0.720682 38.0433 0 37.3226 0 36.4367V25.9006C0 25.4694 0.168297 25.0651 0.473852 24.7623C0.777379 24.4615 1.18042 24.2952 1.60693 24.3019H6.03623C6.59984 24.3019 7.1077 24.5833 7.40156 25.0566L9.09334 24.3769V17.5453C8.24242 17.2617 7.65057 16.4428 7.65057 15.5438V11.0049C7.65057 9.84384 8.59515 8.89926 9.75623 8.89926H14.3591C12.4857 8.0488 11.3769 6.64191 11.3083 5.01712C11.2529 3.61771 12.0241 2.348 13.273 1.78243C14.0534 1.42774 16.1578 0.881052 18.8376 3.45877C20.0307 4.61369 21.0285 6.04211 21.7271 7.59429C22.4181 6.04226 23.416 4.61392 24.6171 3.45877C27.3027 0.883392 29.4033 1.42868 30.1818 1.78243C31.4284 2.35416 32.1935 3.62387 32.1308 5.0172C32.0619 6.64924 30.9536 8.05598 29.0814 8.89926H34.6108C35.7719 8.89926 36.7165 9.84384 36.7165 11.0049V15.5438C36.7165 16.4573 36.138 17.258 35.2737 17.5453V26.0769L36.2222 25.5621C37.4079 24.9137 38.7733 25.3687 39.542 26.6684C40.2132 27.7976 40.2429 29.4382 38.9758 30.2539L27.028 37.8889C26.3477 38.3241 25.662 38.5268 24.8702 38.5268ZM7.39095 37.1616L10.4394 38.1935C10.9462 38.3701 11.416 38.4487 11.9633 38.4487H24.8702C25.6464 38.4487 26.3187 38.2499 26.986 37.8232L38.9337 30.1882C40.1596 29.399 40.1276 27.8061 39.4748 26.7082L39.4748 26.7081C38.7287 25.4466 37.4065 25.0036 36.2594 25.6306L35.1957 26.2079V17.4885L35.223 17.4798C36.0696 17.2108 36.6385 16.4328 36.6385 15.5439V11.005C36.6385 9.88697 35.7289 8.97732 34.6108 8.97732H28.7016L28.8792 8.90237C30.8264 8.08132 31.9832 6.66398 32.0528 5.01392C32.1141 3.65241 31.3669 2.41187 30.1493 1.85356C29.3853 1.50628 27.3221 0.972922 24.671 3.51516C23.4567 4.6831 22.4511 6.13242 21.763 7.7062L21.7275 7.78747L21.6917 7.70636C20.9956 6.13218 19.99 4.68286 18.7835 3.51508C16.1381 0.970504 14.0712 1.50558 13.3052 1.85363C12.0853 2.40602 11.332 3.64657 11.3862 5.01408C11.4556 6.6561 12.6124 8.07345 14.5599 8.90245L14.7358 8.97732H9.75623C8.6382 8.97732 7.72856 9.88697 7.72856 11.005V15.5439C7.72856 16.4189 8.31066 17.215 9.14411 17.4798L9.17133 17.4885V24.4296L7.36896 25.1538L7.35188 25.125C7.0751 24.6585 6.58331 24.3798 6.03623 24.3798H1.60654C1.19953 24.3733 0.817387 24.5316 0.528677 24.8177C0.238096 25.1058 0.0779875 25.4904 0.0779875 25.9007V36.4368C0.0779875 37.2797 0.763653 37.9654 1.60654 37.9654H6.04403C6.59033 37.9654 7.10037 37.668 7.37496 37.1895L7.39095 37.1616ZM24.8702 37.2868H11.9711C11.5543 37.2868 11.2101 37.2302 10.8199 37.0976L7.57258 35.9968V26.3266L11.395 24.7883C12.0301 24.5343 12.6552 24.569 13.253 24.8914L16.9572 26.8644C17.473 27.138 17.9827 27.2655 18.561 27.2655H24.3867C24.9852 27.2655 25.4805 27.6377 25.6486 28.2138C25.817 28.7912 25.5992 29.3717 25.0939 29.6926L23.8697 30.4802C23.5319 30.7001 23.1957 30.7983 22.7801 30.7983H17.2976C16.9751 30.7983 16.7127 31.0606 16.7127 31.3832C16.7127 31.7058 16.9751 31.9681 17.2976 31.9681H25.884C26.6666 31.9681 27.3695 31.7862 28.096 31.3956L36.807 26.654C37.7452 26.1392 38.3878 27.18 38.458 27.3004C38.7662 27.8012 38.9978 28.761 38.3049 29.2012L26.3574 36.8439C25.8738 37.1503 25.4152 37.2868 24.8702 37.2868ZM7.65057 35.9409L10.8449 37.0237C11.2316 37.1553 11.5579 37.2089 11.971 37.2089H24.8701C25.3994 37.2089 25.8452 37.076 26.3154 36.7781L38.263 29.1354C38.9086 28.7253 38.6842 27.8168 38.3911 27.3405C38.2824 27.1542 37.6996 26.2533 36.8443 26.7225L28.133 31.4642C27.3946 31.8613 26.68 32.0461 25.884 32.0461H17.2976C16.9321 32.0461 16.6347 31.7487 16.6347 31.3832C16.6347 31.0177 16.9321 30.7203 17.2976 30.7203H22.7801C23.1797 30.7203 23.5027 30.626 23.8274 30.4147L25.0519 29.6268C25.5274 29.325 25.7322 28.7789 25.5737 28.2355C25.4156 27.6936 24.9497 27.3434 24.3867 27.3434H18.561C17.9695 27.3434 17.4481 27.2131 16.9206 26.9333L13.2162 24.9602C12.6395 24.6491 12.0367 24.6157 11.4241 24.8606L7.65057 26.3793V35.9409ZM6.04403 36.7955H1.60654C1.41204 36.7955 1.2478 36.6313 1.2478 36.4367V25.9006C1.2478 25.7061 1.41204 25.5418 1.60654 25.5418H6.04403C6.23853 25.5418 6.40277 25.706 6.40277 25.9006V36.4289C6.40277 36.6276 6.23853 36.7955 6.04403 36.7955ZM1.60654 25.6198C1.45696 25.6198 1.32579 25.7511 1.32579 25.9007V36.4368C1.32579 36.5864 1.45696 36.7176 1.60654 36.7176H6.04403C6.19626 36.7176 6.32478 36.5855 6.32478 36.4291V25.9008C6.32478 25.7512 6.19361 25.6199 6.04403 25.6199H1.60654V25.6198ZM25.8918 30.7982H25.5396L25.7383 30.6717C26.6726 30.0667 27.0893 28.9435 26.7747 27.877C26.459 26.8067 25.4993 26.0878 24.3867 26.0878H22.3044V17.5715H34.0259V26.844L34.0055 26.8552L27.5481 30.3646C26.9957 30.6645 26.4849 30.7982 25.8918 30.7982ZM25.8065 30.7202H25.8918C26.4712 30.7202 26.9705 30.5894 27.511 30.296L33.9479 26.7978V17.6495H22.3824V26.0098H24.3867C25.5343 26.0098 26.5239 26.7513 26.8494 27.8549C27.171 28.9449 26.752 30.0923 25.8065 30.7202ZM21.1346 26.0956H18.561C18.1697 26.0956 17.8442 26.0149 17.5054 25.8337L13.8011 23.8606C12.8926 23.3756 11.9088 23.3223 10.9561 23.7063L10.3411 23.9541V17.5716H21.1346V26.0956ZM12.2239 23.3747C12.7733 23.3747 13.3175 23.514 13.8378 23.7917L17.5422 25.7649C17.869 25.9397 18.1832 26.0177 18.5611 26.0177H21.0567V17.6496H10.4191V23.8387L10.9271 23.6341C11.3562 23.4609 11.7917 23.3747 12.2239 23.3747ZM34.6108 16.4017H22.3044V10.2075L22.352 10.2183C23.5609 10.4931 24.3348 11.5386 25.2308 12.7491L25.2843 12.8212C25.8546 13.5894 26.4442 14.3837 27.1871 14.9674C27.2902 15.0499 27.4132 15.0916 27.5529 15.0916C27.7369 15.0916 27.9006 15.0137 28.0137 14.8722C28.1091 14.7498 28.153 14.5951 28.1361 14.4408C28.128 14.365 28.1046 14.2916 28.0672 14.2251C28.0299 14.1587 27.9795 14.1005 27.919 14.0541C27.3054 13.5617 26.7967 12.8943 26.1956 12.0732L26.1697 12.0382C25.7027 11.4077 25.2198 10.7557 24.6407 10.2147L24.5685 10.1473H34.6186C35.0873 10.1473 35.4686 10.5322 35.4686 11.0052V15.544C35.4687 16.0169 35.0838 16.4017 34.6108 16.4017ZM22.3824 16.3237H34.6108C35.0409 16.3237 35.3907 15.9739 35.3907 15.5439V11.005C35.3907 10.575 35.0444 10.2251 34.6187 10.2251H24.7652C25.3181 10.757 25.7827 11.3842 26.2325 11.9917L26.2585 12.0268C26.8563 12.8435 27.3617 13.5067 27.9672 13.9927C28.0359 14.0454 28.0932 14.1116 28.1355 14.1871C28.1779 14.2627 28.2044 14.346 28.2136 14.4322C28.2329 14.6061 28.1837 14.7796 28.0751 14.9204C27.9465 15.0812 27.7612 15.1695 27.553 15.1695C27.3951 15.1695 27.2557 15.122 27.1386 15.0284C26.3878 14.4385 25.795 13.6399 25.2217 12.8676L25.1681 12.7954C24.2933 11.6135 23.5361 10.5906 22.3823 10.3056V16.3237H22.3824ZM21.1424 16.4017H9.75623C9.28324 16.4017 8.89837 16.0169 8.89837 15.5439V11.005C8.89837 10.532 9.28324 10.1471 9.75623 10.1471H18.8782L18.806 10.2146C18.2388 10.7444 17.7646 11.3822 17.3062 11.9989L17.1909 12.1542C16.6511 12.8819 16.1413 13.5692 15.5281 14.0536C15.407 14.147 15.3302 14.283 15.3114 14.437C15.3021 14.514 15.308 14.5921 15.3289 14.6668C15.3497 14.7415 15.3852 14.8113 15.4331 14.8723C15.5462 15.0137 15.7098 15.0915 15.8938 15.0915C16.0186 15.0915 16.1524 15.046 16.2607 14.9664C17.0155 14.3657 17.6137 13.5601 18.1922 12.781L18.2162 12.7488C19.1122 11.5384 19.886 10.493 21.0948 10.2183L21.1424 10.2074V16.4017ZM9.75623 10.2252C9.32621 10.2252 8.97636 10.5751 8.97636 11.0051V15.5439C8.97636 15.974 9.32621 16.3238 9.75623 16.3238H21.0644V10.3058C19.9107 10.5907 19.1537 11.6135 18.2789 12.7953L18.2549 12.8276C17.6734 13.6108 17.0721 14.4205 16.3081 15.0286C16.1836 15.1199 16.037 15.1697 15.8938 15.1697C15.6857 15.1697 15.5003 15.0814 15.3721 14.9211C15.3178 14.8519 15.2776 14.7728 15.2539 14.6881C15.2302 14.6035 15.2234 14.515 15.234 14.4277C15.2553 14.2529 15.3427 14.0983 15.4801 13.9923C16.0848 13.5146 16.5916 12.8313 17.1282 12.1079L17.2436 11.9525C17.6849 11.3589 18.1407 10.7458 18.6816 10.2252H9.75623ZM20.9109 8.94176L20.8516 8.93833C18.7066 8.81308 16.8232 8.48062 15.4051 7.9769C13.6763 7.36399 12.6113 6.24012 12.5561 4.97056C12.5163 4.07994 12.9936 3.27854 13.7723 2.929C14.0586 2.79736 14.379 2.7306 14.7241 2.7306C15.7118 2.7306 16.8598 3.31333 17.9565 4.37146C19.2129 5.57395 20.2824 7.21948 20.8906 8.88608L20.9109 8.94176ZM14.724 2.80859C14.3902 2.80859 14.0809 2.87301 13.8044 2.99997C13.0549 3.33649 12.5956 4.10856 12.6339 4.96705C12.6876 6.20377 13.7334 7.30145 15.4311 7.90336C16.8294 8.39998 18.6836 8.72948 20.7967 8.85691C20.1891 7.22026 19.1366 5.60881 17.9023 4.42769C16.8202 3.38351 15.6915 2.80859 14.724 2.80859ZM22.5284 8.94176L22.5484 8.88615C23.1415 7.23953 24.2082 5.59118 25.4748 4.36366L25.475 4.36343C26.5982 3.29523 27.7186 2.73053 28.715 2.73053C29.0524 2.73053 29.3726 2.79728 29.6667 2.92885C30.4453 3.27839 30.9227 4.07979 30.883 4.97048C30.8274 6.24792 29.7623 7.37187 28.0338 7.97682C26.6065 8.48101 24.7232 8.81355 22.5874 8.93825L22.5284 8.94176ZM25.5289 4.41981C24.285 5.62542 23.2351 7.23984 22.642 8.85699C24.7461 8.73002 26.6005 8.40053 28.0079 7.90336C29.7053 7.30925 30.751 6.21157 30.805 4.96705C30.8434 4.10856 30.3841 3.33649 29.6348 3.00005C29.3508 2.87301 29.0414 2.80851 28.715 2.80851C27.739 2.80859 26.6372 3.36581 25.5289 4.41981Z" fill="white"/>
</g>
<defs>
<clipPath id="clip0_1311_2101">
<rect width="40" height="40" fill="white"/>
</clipPath>
</defs>
</svg>
