<svg width="44" height="44" viewBox="0 0 44 44" fill="none" xmlns="http://www.w3.org/2000/svg">
<path d="M23.9942 21.1406C24.462 20.6473 24.75 19.9819 24.75 19.25C24.75 17.7336 23.5164 16.5 22 16.5C20.4836 16.5 19.25 17.7336 19.25 19.25C19.25 19.9818 19.538 20.6473 20.0058 21.1406C18.7364 21.8447 17.875 23.1984 17.875 24.75V25.4375C17.875 25.6198 17.9474 25.7947 18.0764 25.9236C18.2053 26.0526 18.3802 26.125 18.5625 26.125H25.4375C25.6198 26.125 25.7947 26.0526 25.9236 25.9236C26.0526 25.7947 26.125 25.6198 26.125 25.4375V24.75C26.125 23.1984 25.2636 21.8447 23.9942 21.1406ZM20.625 19.25C20.625 18.4919 21.2419 17.875 22 17.875C22.7581 17.875 23.375 18.4919 23.375 19.25C23.375 20.0081 22.7581 20.625 22 20.625C21.2419 20.625 20.625 20.0081 20.625 19.25ZM19.25 24.75C19.25 23.2336 20.4836 22 22 22C23.5164 22 24.75 23.2336 24.75 24.75H19.25ZM13.0625 12.375V11.6875C13.0625 10.1358 12.2007 8.78264 10.9312 8.07855C11.3994 7.58527 11.6875 6.9196 11.6875 6.1875C11.6875 4.67113 10.4539 3.4375 8.9375 3.4375C7.42113 3.4375 6.1875 4.67113 6.1875 6.1875C6.1875 6.91952 6.47556 7.5851 6.94358 8.07838C5.67402 8.78238 4.8125 10.1358 4.8125 11.6875V12.375C4.8125 12.5573 4.88493 12.7322 5.01386 12.8611C5.1428 12.9901 5.31766 13.0625 5.5 13.0625H12.375C12.5573 13.0625 12.7322 12.9901 12.8611 12.8611C12.9901 12.7322 13.0625 12.5573 13.0625 12.375ZM8.9375 4.8125C9.69564 4.8125 10.3125 5.42936 10.3125 6.1875C10.3125 6.94564 9.69564 7.5625 8.9375 7.5625C8.17936 7.5625 7.5625 6.94564 7.5625 6.1875C7.5625 5.42936 8.17936 4.8125 8.9375 4.8125ZM6.1875 11.6875C6.1875 10.1711 7.42113 8.9375 8.9375 8.9375C10.4539 8.9375 11.6875 10.1711 11.6875 11.6875H6.1875ZM31.625 13.0625H38.5C38.6823 13.0625 38.8572 12.9901 38.9861 12.8611C39.1151 12.7322 39.1875 12.5573 39.1875 12.375V11.6875C39.1875 10.1359 38.3261 8.78221 37.0567 8.07812C37.5245 7.58484 37.8125 6.91934 37.8125 6.1875C37.8125 4.67113 36.5789 3.4375 35.0625 3.4375C33.5461 3.4375 32.3125 4.67113 32.3125 6.1875C32.3125 6.91934 32.6005 7.58484 33.0683 8.07812C31.7989 8.78221 30.9375 10.1359 30.9375 11.6875V12.375C30.9375 12.5573 31.0099 12.7322 31.1389 12.8611C31.2678 12.9901 31.4427 13.0625 31.625 13.0625ZM33.6875 6.1875C33.6875 5.42936 34.3044 4.8125 35.0625 4.8125C35.8206 4.8125 36.4375 5.42936 36.4375 6.1875C36.4375 6.94564 35.8206 7.5625 35.0625 7.5625C34.3044 7.5625 33.6875 6.94564 33.6875 6.1875ZM35.0625 8.9375C36.5789 8.9375 37.8125 10.1711 37.8125 11.6875H32.3125C32.3125 10.1711 33.5461 8.9375 35.0625 8.9375ZM10.9317 34.2031C11.3995 33.7098 11.6875 33.0444 11.6875 32.3125C11.6875 30.7961 10.4539 29.5625 8.9375 29.5625C7.42113 29.5625 6.1875 30.7961 6.1875 32.3125C6.1875 33.0443 6.47548 33.7098 6.94332 34.2031C5.67394 34.9072 4.8125 36.2609 4.8125 37.8125V38.5C4.8125 38.6823 4.88493 38.8572 5.01386 38.9861C5.1428 39.1151 5.31766 39.1875 5.5 39.1875H12.375C12.5573 39.1875 12.7322 39.1151 12.8611 38.9861C12.9901 38.8572 13.0625 38.6823 13.0625 38.5V37.8125C13.0625 36.2609 12.2011 34.9072 10.9317 34.2031ZM7.5625 32.3125C7.5625 31.5544 8.17936 30.9375 8.9375 30.9375C9.69564 30.9375 10.3125 31.5544 10.3125 32.3125C10.3125 33.0706 9.69564 33.6875 8.9375 33.6875C8.17936 33.6875 7.5625 33.0706 7.5625 32.3125ZM6.1875 37.8125C6.1875 36.2961 7.42113 35.0625 8.9375 35.0625C10.4539 35.0625 11.6875 36.2961 11.6875 37.8125H6.1875Z" fill="white"/>
<path d="M35.75 27.5317V23.9443C36.5502 23.6606 37.125 22.8963 37.125 22.0001C37.125 21.1038 36.5502 20.3397 35.75 20.0558V16.4685C39.599 16.1199 42.625 12.8758 42.625 8.9375C42.625 4.76755 39.2324 1.375 35.0625 1.375C31.1243 1.375 27.8801 4.40103 27.5316 8.25H23.9443C23.6604 7.44984 22.8962 6.875 22 6.875C21.1038 6.875 20.3396 7.44984 20.0557 8.25H16.4684C16.1199 4.4012 12.8757 1.37517 8.9375 1.37517C4.76755 1.37517 1.375 4.76773 1.375 8.93767C1.375 12.8758 4.40103 16.1201 8.25 16.4686V20.056C7.44984 20.3398 6.875 21.104 6.875 22.0003C6.875 22.8965 7.44984 23.6607 8.25 23.9445V27.5319C4.40103 27.8803 1.375 31.1245 1.375 35.0627C1.375 39.2326 4.76755 42.6252 8.9375 42.6252C12.8757 42.6252 16.1199 39.5991 16.4685 35.7502H20.0558C20.3396 36.5503 21.1038 37.1252 22.0001 37.1252C22.8963 37.1252 23.6605 36.5503 23.9443 35.7502H27.5317C27.8802 39.5991 31.1244 42.6252 35.0626 42.6252C39.2325 42.6252 42.6251 39.2326 42.6251 35.0627C42.625 31.1245 39.599 27.8803 35.75 27.5317ZM30.2259 29.2537L27.8089 26.8368C28.9032 25.5248 29.5625 23.8381 29.5625 22.0002C29.5625 20.1622 28.9032 18.4755 27.8089 17.1635L30.2259 14.7466C31.3723 15.7028 32.8052 16.3264 34.375 16.4685V20.0559C33.5748 20.3397 33 21.1039 33 22.0002C33 22.8964 33.5748 23.6606 34.375 23.9444V27.5318C32.8052 27.6739 31.3724 28.2975 30.2259 29.2537ZM27.5316 34.3752H23.9443C23.6604 33.575 22.8962 33.0002 22 33.0002C21.1038 33.0002 20.3396 33.575 20.0557 34.3752H16.4684C16.3262 32.8054 15.7027 31.3726 14.7464 30.226L17.1634 27.8091C18.4754 28.9034 20.1621 29.5627 22 29.5627C23.8379 29.5627 25.5246 28.9034 26.8366 27.8091L29.2536 30.226C28.2973 31.3726 27.6737 32.8054 27.5316 34.3752ZM11 22.0002C11 21.1039 10.4252 20.3398 9.625 20.0559V16.4685C11.1948 16.3264 12.6276 15.7028 13.7741 14.7466L16.1911 17.1635C15.0968 18.4755 14.4375 20.1622 14.4375 22.0002C14.4375 23.8381 15.0968 25.5248 16.1911 26.8368L13.7741 29.2537C12.6277 28.2975 11.1948 27.6739 9.625 27.5318V23.9444C10.4252 23.6606 11 22.8964 11 22.0002ZM16.4685 9.62517H20.0558C20.3396 10.4253 21.1038 11.0002 22.0001 11.0002C22.8963 11.0002 23.6605 10.4253 23.9443 9.62517H27.5317C27.6739 11.195 28.2974 12.6277 29.2536 13.7743L26.8367 16.1912C25.5246 15.097 23.8379 14.4377 22 14.4377C20.1621 14.4377 18.4754 15.097 17.1634 16.1912L14.7464 13.7743C15.7027 12.6277 16.3263 11.195 16.4685 9.62517ZM22 28.1877C18.5882 28.1877 15.8125 25.412 15.8125 22.0002C15.8125 18.5884 18.5882 15.8127 22 15.8127C25.4118 15.8127 28.1875 18.5884 28.1875 22.0002C28.1875 25.412 25.4118 28.1877 22 28.1877ZM35.0625 22.6877C34.6834 22.6877 34.375 22.3792 34.375 22.0002C34.375 21.6211 34.6834 21.3127 35.0625 21.3127C35.4416 21.3127 35.75 21.6211 35.75 22.0002C35.75 22.3792 35.4416 22.6877 35.0625 22.6877ZM35.0625 2.75017C38.4743 2.75017 41.25 5.52587 41.25 8.93767C41.25 12.3495 38.4743 15.1252 35.0625 15.1252C31.6507 15.1252 28.875 12.3495 28.875 8.93767C28.875 5.52587 31.6507 2.75017 35.0625 2.75017ZM22 8.25017C22.3791 8.25017 22.6875 8.5586 22.6875 8.93767C22.6875 9.31674 22.3791 9.62517 22 9.62517C21.6209 9.62517 21.3125 9.31674 21.3125 8.93767C21.3125 8.5586 21.6209 8.25017 22 8.25017ZM2.75 8.93767C2.75 5.52587 5.5257 2.75017 8.9375 2.75017C12.3493 2.75017 15.125 5.52587 15.125 8.93767C15.125 12.3495 12.3493 15.1252 8.9375 15.1252C5.5257 15.1252 2.75 12.3495 2.75 8.93767ZM8.9375 21.3127C9.31657 21.3127 9.625 21.6211 9.625 22.0002C9.625 22.3792 9.31657 22.6877 8.9375 22.6877C8.55843 22.6877 8.25 22.3792 8.25 22.0002C8.25 21.6211 8.55843 21.3127 8.9375 21.3127ZM8.9375 41.2502C5.5257 41.2502 2.75 38.4745 2.75 35.0627C2.75 31.6509 5.5257 28.8752 8.9375 28.8752C12.3493 28.8752 15.125 31.6509 15.125 35.0627C15.125 38.4745 12.3493 41.2502 8.9375 41.2502ZM22 35.7502C21.6209 35.7502 21.3125 35.4417 21.3125 35.0627C21.3125 34.6836 21.6209 34.3752 22 34.3752C22.3791 34.3752 22.6875 34.6836 22.6875 35.0627C22.6875 35.4417 22.3791 35.7502 22 35.7502ZM35.0625 41.2502C31.6507 41.2502 28.875 38.4745 28.875 35.0627C28.875 31.6509 31.6507 28.8752 35.0625 28.8752C38.4743 28.8752 41.25 31.6509 41.25 35.0627C41.25 38.4745 38.4743 41.2502 35.0625 41.2502Z" fill="white"/>
<path d="M37.0567 34.2031C37.5245 33.7098 37.8125 33.0444 37.8125 32.3125C37.8125 30.7961 36.5789 29.5625 35.0625 29.5625C33.5461 29.5625 32.3125 30.7961 32.3125 32.3125C32.3125 33.0443 32.6005 33.7098 33.0683 34.2031C31.7989 34.9072 30.9375 36.2609 30.9375 37.8125V38.5C30.9375 38.6823 31.0099 38.8572 31.1389 38.9861C31.2678 39.1151 31.4427 39.1875 31.625 39.1875H38.5C38.6823 39.1875 38.8572 39.1151 38.9861 38.9861C39.1151 38.8572 39.1875 38.6823 39.1875 38.5V37.8125C39.1875 36.2609 38.3261 34.9072 37.0567 34.2031ZM33.6875 32.3125C33.6875 31.5544 34.3044 30.9375 35.0625 30.9375C35.8206 30.9375 36.4375 31.5544 36.4375 32.3125C36.4375 33.0706 35.8206 33.6875 35.0625 33.6875C34.3044 33.6875 33.6875 33.0706 33.6875 32.3125ZM32.3125 37.8125C32.3125 36.2961 33.5461 35.0625 35.0625 35.0625C36.5789 35.0625 37.8125 36.2961 37.8125 37.8125H32.3125Z" fill="white"/>
</svg>
