<svg width="44" height="44" viewBox="0 0 44 44" fill="none" xmlns="http://www.w3.org/2000/svg">
<path d="M40.4566 2.94252C32.2823 1.91333 24.3169 4.90395 18.2593 10.6652C9.56933 9.47376 4.16971 16.3969 3.37909 22.0509C3.29934 22.4868 3.70221 22.9055 4.14015 22.8415L10.6604 22.0495C11.1231 22.5122 11.7006 23.0876 12.4218 23.8054L11.3066 26.0535C11.1149 26.4404 11.0494 26.8777 11.1195 27.3037C11.1896 27.7298 11.3916 28.1231 11.6971 28.4281L15.5712 32.3022C15.8763 32.6077 16.2697 32.8097 16.6957 32.8796C17.1218 32.9496 17.5591 32.8839 17.9458 32.692L20.1905 31.579L22.1863 33.5755C22.4029 33.792 22.735 33.8374 23.001 33.6937C25.1508 32.525 28.6853 30.3346 32.074 27.0456C32.4452 33.7047 27.2491 38.0827 22.6387 39.0741L22.9426 36.5819C23.0354 35.6785 21.6989 35.5204 21.5786 36.4155L21.1592 39.8599C21.1462 39.9657 21.158 40.0731 21.1937 40.1736C21.2294 40.2741 21.2879 40.3648 21.3648 40.4388C21.4416 40.5127 21.5346 40.5677 21.6364 40.5994C21.7382 40.6312 21.846 40.6388 21.9512 40.6216C27.2752 39.8764 34.5352 34.7126 33.3383 25.7545C38.509 20.5542 42.2696 11.691 41.0575 3.5427C41.0393 3.38957 40.9702 3.247 40.8612 3.1379C40.7523 3.02879 40.6098 2.9595 40.4566 2.94114V2.94252ZM17.3346 31.46C17.2059 31.524 17.0604 31.546 16.9185 31.5228C16.7767 31.4996 16.6457 31.4324 16.544 31.3308L12.6693 27.4567C12.5675 27.3552 12.5001 27.2243 12.4767 27.0824C12.4533 26.9406 12.4749 26.795 12.5386 26.6661L13.4482 24.8311C15.2268 26.6131 17.3848 28.7733 19.1648 30.5539L17.3346 31.4607V31.46ZM39.4852 11.1066C37.3897 22.7817 27.4498 29.6251 22.7927 32.2383C20.524 29.9702 14.8892 24.3231 11.7618 21.2066C12.7738 19.3745 14.4513 16.894 15.9088 15.1663C16.4794 14.4719 15.4248 13.5988 14.8493 14.289C13.3265 16.0855 11.4985 18.8073 10.4789 20.6862L4.9239 21.3613C5.39965 19.4295 6.85921 15.3959 10.9986 13.2234C13.9487 11.6745 16.8747 11.8367 18.3563 12.0684C18.566 12.0945 18.7839 12.0471 18.9461 11.8993C24.6111 6.42539 32.0416 3.43683 39.7513 4.24877C39.9804 6.536 39.8908 8.84397 39.4852 11.1066ZM11.768 32.2555C7.02146 28.028 2.81671 36.3722 2.7514 40.5192C2.71702 40.9193 3.0814 41.2837 3.48084 41.2486C7.61752 41.184 15.9418 36.9965 11.768 32.2555ZM10.472 36.9146C9.4159 37.8591 8.19747 38.6044 6.87571 39.1146C6.01458 39.4463 5.11741 39.6754 4.20271 39.7973C4.51339 37.4622 5.52005 35.2747 7.09159 33.5198C9.54321 30.6529 13.3698 34.4218 10.472 36.9146Z" fill="white"/>
<path d="M24.3033 11.885C20.8301 15.2895 23.3463 21.3656 28.209 21.3161C33.0765 21.3574 35.5818 15.3074 32.1161 11.885C29.9621 9.73105 26.4566 9.73105 24.3033 11.885ZM31.1439 18.7256C27.1468 22.4869 21.5148 16.8522 25.2754 12.8571C29.2966 9.1123 34.8881 14.7051 31.1439 18.7256Z" fill="white"/>
</svg>
