<svg width="44" height="44" viewBox="0 0 44 44" fill="none" xmlns="http://www.w3.org/2000/svg">
<path d="M37.0933 27.7655L29.6133 30.9255C29.6266 30.8321 29.6399 30.7388 29.6399 30.6388C29.6399 29.1855 28.4599 28.0055 27.0066 28.0055H21.6199C21.3999 28.0055 21.1866 27.9588 20.9866 27.8655L16.4199 25.7988C15.7005 25.4764 14.9216 25.3084 14.1333 25.3055H10.4133V26.6388H14.1333C14.7266 26.6388 15.3266 26.7655 15.8733 27.0121L20.4399 29.0788C20.8133 29.2455 21.2133 29.3321 21.6266 29.3321H27.0133C27.7333 29.3321 28.3133 29.9188 28.3133 30.6321C28.3133 31.3455 27.7266 31.9321 27.0133 31.9321H20.0333V33.2655H27.0066C27.4666 33.2655 27.8933 33.1388 28.2666 32.9321V32.9388L37.6066 28.9855C37.9841 28.8243 38.3908 28.7423 38.8013 28.7446C39.2118 28.7469 39.6175 28.8334 39.9933 28.9988C40.5799 29.2588 41.0599 29.6788 41.3799 30.2255L24.8933 38.9721C23.6333 39.6388 22.1333 39.7721 20.7733 39.3388L12.7066 36.7455L10.4066 36.7121V38.0455H12.3999L20.3666 40.6055C21.0266 40.8188 21.7066 40.9188 22.3933 40.9188C23.4733 40.9188 24.5533 40.6588 25.5133 40.1455L43.0799 30.8388L42.8866 30.2921C42.6873 29.7344 42.3756 29.2235 41.9708 28.7912C41.566 28.3589 41.0767 28.0143 40.5333 27.7788C39.4266 27.3055 38.2066 27.2921 37.0933 27.7655ZM8.96659 39.0921V24.9388C8.96659 24.2055 8.36659 23.6055 7.63325 23.6055H0.919922V24.9388H7.63325V39.0988H0.919922V40.4321H7.63325C8.36659 40.4255 8.96659 39.8255 8.96659 39.0921Z" fill="white"/>
<path d="M5.87994 37.0193C5.87959 37.1422 5.85503 37.2638 5.80767 37.3773C5.76031 37.4907 5.69107 37.5937 5.6039 37.6803C5.51674 37.767 5.41336 37.8357 5.29967 37.8824C5.18597 37.9291 5.06419 37.953 4.94127 37.9526C4.81835 37.9523 4.69671 37.9277 4.58328 37.8803C4.46986 37.833 4.36687 37.7637 4.2802 37.6766C4.19353 37.5894 4.12488 37.486 4.07817 37.3723C4.03145 37.2586 4.00759 37.1369 4.00794 37.0139C4.00865 36.7657 4.10794 36.5279 4.28397 36.3529C4.46001 36.1778 4.69836 36.0799 4.94661 36.0806C5.19485 36.0813 5.43264 36.1806 5.60768 36.3566C5.78271 36.5327 5.88065 36.771 5.87994 37.0193ZM16.6933 18.9526L17.4133 19.4859L22.3733 16.7393L26.8599 19.4393L27.2466 19.6659L27.9666 19.1459L26.8866 13.5859L30.8533 10.1459L31.1733 9.83927L30.8933 9.0126L25.2799 8.31927L23.2399 3.4926L23.0533 3.0926L22.6266 3.08594H22.1733L19.7799 8.22594L14.5533 8.66594L14.1066 8.71927L13.8399 9.5526L17.9799 13.4126L16.6933 18.9526ZM16.1266 9.8726L20.2733 9.5126L20.6666 9.46594L22.5799 5.35927L24.1999 9.17927L24.3666 9.54594L28.8733 10.0993L25.7533 12.8059L25.4399 13.0726L26.3066 17.5393L22.7333 15.3859L22.3933 15.2059L18.4399 17.3993L19.3666 13.3993L19.4799 12.9859L16.1266 9.8726Z" fill="white"/>
<path d="M7.92661 16.4951L6.95994 20.6484L6.82661 21.1284L7.57994 21.6818L11.7333 19.3818L15.3999 21.5818L15.8133 21.8418L16.5533 21.3018L15.6466 16.6418L16.6133 15.8084L15.7399 14.8018L14.4533 15.9151L14.2599 16.1418V16.4084L14.8866 19.7218L12.1799 18.0884L12.0399 17.9551L11.4733 17.9418L11.3399 18.0751L8.57327 19.6084L9.31994 16.3684V15.9751L6.72661 13.5618L9.89994 13.2818L10.2066 13.2751L10.4866 12.9951L11.9066 9.94177L13.1866 12.9618L13.3933 13.3551H13.7666L15.3733 13.5551L15.5399 12.2284L14.2533 12.0751L12.5599 8.0751L12.3333 7.64844L11.4133 7.72177L11.2866 8.1151L9.48661 11.9884L5.24661 12.3551L4.71994 12.3818L4.43994 13.3551L4.80661 13.5951L7.92661 16.4951ZM29.8399 12.0751L29.9599 13.4018L31.2466 13.2818L31.5466 13.2684L31.8266 12.9884L33.2466 9.9351L34.4666 12.8084L34.4799 13.3484H35.1066L38.2866 13.7418L35.8133 15.8884L35.5933 16.1218V16.4084L36.2266 19.7151L33.5133 18.0884L33.3733 17.9484L32.7866 17.9551L32.6666 18.0818L29.9133 19.6084L30.6666 16.3684L30.6599 15.9751L28.9533 14.3818L28.0399 15.3551L29.2599 16.4951L28.2999 20.6484L28.1666 21.0951L28.8933 21.6951L33.0733 19.3818L36.7466 21.5884L37.1599 21.8418L37.8866 21.2951L36.9799 16.6418L40.1866 13.8618C40.4066 13.6884 40.4999 13.3951 40.4266 13.1284L40.2733 12.6551L35.5933 12.0818L33.8866 8.06844L33.6866 7.70177L32.8933 7.6751L32.6866 8.00177L30.8199 11.9884L29.8399 12.0751Z" fill="white"/>
</svg>
