<svg width="420" height="124" viewBox="0 0 420 124" fill="none" xmlns="http://www.w3.org/2000/svg">
<g clip-path="url(#clip0_1076_746)">
<path d="M243.547 115.258C243.547 115.316 243.535 115.374 243.512 115.427C243.49 115.48 243.456 115.528 243.414 115.568C243.283 115.682 243.122 115.756 242.95 115.781C242.66 115.845 242.366 115.891 242.07 115.918C241.623 115.955 241.175 115.973 240.726 115.971C240.196 115.971 239.687 115.971 239.334 115.918C239.042 115.889 238.753 115.843 238.467 115.781C238.295 115.756 238.134 115.682 238.003 115.568C237.96 115.529 237.926 115.481 237.904 115.428C237.881 115.374 237.869 115.317 237.87 115.258V102.389H218.307V115.254C218.308 115.312 218.296 115.37 218.273 115.423C218.25 115.476 218.217 115.524 218.175 115.564C218.042 115.676 217.881 115.749 217.71 115.777C217.42 115.839 217.126 115.885 216.831 115.914C216.37 115.951 215.909 115.969 215.447 115.967C214.894 115.967 214.465 115.967 214.09 115.914C213.788 115.887 213.488 115.841 213.192 115.777C213.02 115.752 212.859 115.678 212.728 115.564C212.686 115.524 212.653 115.476 212.63 115.423C212.607 115.369 212.595 115.312 212.595 115.254V87.4116C212.595 87.3537 212.607 87.2963 212.63 87.243C212.653 87.1898 212.686 87.1416 212.728 87.1016C212.859 86.9875 213.02 86.9137 213.192 86.889C213.488 86.827 213.789 86.7828 214.09 86.7562C214.465 86.7208 214.921 86.6986 215.447 86.6986C215.977 86.6986 216.464 86.6986 216.831 86.7562C217.127 86.7828 217.419 86.827 217.71 86.889C217.881 86.9164 218.042 86.9899 218.175 87.1016C218.217 87.1415 218.25 87.1896 218.273 87.2429C218.296 87.2962 218.307 87.3536 218.307 87.4116V99.0233H237.87V87.4116C237.87 87.3537 237.882 87.2963 237.905 87.243C237.928 87.1898 237.961 87.1416 238.003 87.1016C238.134 86.9877 238.295 86.9139 238.467 86.889C238.755 86.827 239.042 86.7828 239.334 86.7562C239.798 86.7119 240.262 86.6942 240.726 86.6986C241.257 86.6986 241.708 86.7208 242.07 86.7562C242.367 86.7828 242.663 86.827 242.95 86.889C243.127 86.9156 243.286 86.9865 243.419 87.1016C243.461 87.1416 243.494 87.1898 243.517 87.243C243.54 87.2963 243.551 87.3537 243.551 87.4116V115.254L243.547 115.258ZM278.734 104.966C278.752 106.534 278.425 108.084 277.77 109.51C277.107 110.914 276.121 112.141 274.897 113.084C273.466 114.16 271.844 114.954 270.118 115.422C267.946 116.017 265.701 116.3 263.451 116.264C261.284 116.299 259.127 116.051 257.027 115.524C255.377 115.116 253.825 114.385 252.46 113.372C251.277 112.478 250.338 111.299 249.732 109.944C249.114 108.5 248.809 106.941 248.835 105.369C248.816 103.808 249.139 102.262 249.781 100.839C250.429 99.4306 251.409 98.201 252.637 97.2563C254.065 96.1802 255.687 95.3919 257.407 94.9313C259.582 94.3423 261.828 94.0589 264.083 94.0988C266.249 94.0633 268.407 94.3113 270.511 94.8428C272.156 95.2458 273.707 95.9765 275.074 96.9906C276.254 97.8852 277.196 99.0632 277.815 100.418C278.442 101.849 278.761 103.399 278.734 104.966ZM273.058 105.219C273.062 104.169 272.909 103.123 272.602 102.119C272.309 101.163 271.799 100.289 271.112 99.5636C270.321 98.7717 269.355 98.1784 268.292 97.832C266.864 97.3731 265.369 97.159 263.871 97.1988C262.447 97.1699 261.029 97.3657 259.666 97.7789C258.589 98.1107 257.598 98.6745 256.762 99.4308C256.01 100.126 255.435 100.99 255.068 101.955C254.695 102.973 254.509 104.05 254.52 105.135C254.513 106.192 254.665 107.245 254.971 108.257C255.267 109.205 255.784 110.073 256.474 110.777C257.279 111.561 258.251 112.15 259.312 112.504C260.74 112.964 262.239 113.177 263.738 113.133C265.153 113.159 266.567 112.964 267.925 112.557C268.999 112.225 269.994 111.671 270.843 110.918C271.594 110.228 272.169 109.36 272.514 108.394C272.881 107.376 273.066 106.299 273.058 105.219ZM303.947 109.785C303.965 110.772 303.664 111.733 303.103 112.539C302.466 113.403 301.644 114.103 300.689 114.585C299.513 115.187 298.254 115.611 296.953 115.843C295.387 116.14 293.795 116.284 292.201 116.273C290.309 116.279 288.421 116.078 286.573 115.675C285.914 115.534 285.265 115.355 284.627 115.139C284.227 115.008 283.841 114.839 283.474 114.634C283.227 114.49 283.037 114.267 282.934 114.001C282.814 113.649 282.761 113.278 282.775 112.907C282.77 112.666 282.791 112.426 282.837 112.189C282.87 112.026 282.927 111.868 283.005 111.72C283.067 111.606 283.165 111.516 283.283 111.463C283.417 111.408 283.559 111.379 283.703 111.379C284.076 111.418 284.44 111.521 284.778 111.685C285.26 111.893 285.843 112.105 286.542 112.313C287.36 112.584 288.191 112.805 289.031 112.978C290.114 113.19 291.219 113.288 292.32 113.279C293.169 113.283 294.013 113.217 294.849 113.075C295.525 112.969 296.184 112.765 296.803 112.482C297.306 112.263 297.747 111.922 298.085 111.49C298.316 111.174 298.464 110.804 298.516 110.416C298.568 110.028 298.521 109.632 298.381 109.267C298.274 109.019 298.114 108.799 297.913 108.62C297.402 108.185 296.824 107.837 296.202 107.588C295.425 107.265 294.625 106.999 293.81 106.791C292.926 106.561 292.011 106.317 291.069 106.06C290.138 105.808 289.218 105.52 288.31 105.197C287.464 104.903 286.657 104.509 285.905 104.023C285.229 103.593 284.647 103.029 284.194 102.367C283.76 101.679 283.543 100.877 283.571 100.064C283.572 99.2544 283.807 98.4625 284.247 97.7833C284.773 96.9995 285.472 96.3529 286.294 95.8923C287.355 95.29 288.505 94.8472 289.698 94.5815C291.263 94.2338 292.862 94.0703 294.464 94.0943C295.994 94.0897 297.521 94.247 299.018 94.5638C299.571 94.6745 300.123 94.8206 300.658 94.9978C301.012 95.1129 301.352 95.2546 301.688 95.414C301.859 95.4922 302.016 95.5984 302.152 95.7285C302.228 95.817 302.285 95.9233 302.32 96.034C302.425 96.3708 302.476 96.7221 302.471 97.0748C302.472 97.2853 302.455 97.4957 302.422 97.7036C302.395 97.8661 302.338 98.0222 302.254 98.1642C302.186 98.273 302.09 98.3616 301.976 98.421C301.859 98.4755 301.733 98.5042 301.604 98.5052C301.305 98.4739 301.013 98.3899 300.742 98.2572C300.268 98.0493 299.78 97.8718 299.283 97.7258C298.59 97.5134 297.886 97.3375 297.174 97.1988C296.261 97.0243 295.332 96.9413 294.402 96.9508C293.576 96.944 292.752 97.0166 291.94 97.1678C291.329 97.2821 290.741 97.4945 290.198 97.7966C289.784 98.018 289.431 98.3373 289.168 98.7266C288.974 99.013 288.855 99.3442 288.825 99.689C288.794 100.034 288.851 100.381 288.991 100.697C289.102 100.952 289.268 101.179 289.477 101.362C289.999 101.804 290.583 102.154 291.21 102.407C292.002 102.73 292.811 103 293.633 103.213L296.405 103.948C297.347 104.209 298.275 104.484 299.195 104.798C300.052 105.086 300.87 105.467 301.64 105.941C302.293 106.359 302.856 106.906 303.293 107.548C303.739 108.207 303.968 108.989 303.947 109.785ZM337.724 104.878C337.75 106.502 337.462 108.116 336.875 109.63C336.332 111.003 335.478 112.229 334.382 113.204C333.197 114.231 331.812 115 330.315 115.462C328.519 116.021 326.646 116.292 324.766 116.264C323.944 116.268 323.126 116.211 322.312 116.087C321.56 115.968 320.82 115.78 320.102 115.524C319.363 115.263 318.647 114.94 317.962 114.559C317.188 114.138 316.433 113.683 315.699 113.195V123.283C315.698 123.341 315.687 123.398 315.664 123.452C315.641 123.505 315.608 123.553 315.566 123.593C315.443 123.702 315.296 123.781 315.137 123.823C314.864 123.892 314.586 123.936 314.306 123.956C313.952 123.956 313.501 124 312.944 124C312.392 124 311.972 124 311.618 123.956C311.332 123.936 311.048 123.891 310.769 123.823C310.607 123.789 310.457 123.711 310.336 123.597C310.26 123.51 310.219 123.398 310.221 123.283V95.104C310.216 94.9889 310.252 94.8782 310.318 94.7852C310.428 94.678 310.566 94.6043 310.716 94.5726C310.966 94.5023 311.222 94.4593 311.481 94.4442C311.79 94.4442 312.166 94.4132 312.613 94.4132C313.055 94.4132 313.457 94.4132 313.758 94.4442C314.011 94.4601 314.261 94.5032 314.505 94.5726C314.659 94.6081 314.802 94.6811 314.92 94.7852C315.001 94.8734 315.043 94.9893 315.04 95.1085V97.8143C315.951 97.1855 316.822 96.6452 317.662 96.1846C318.475 95.7285 319.324 95.3432 320.204 95.0332C321.052 94.7232 321.928 94.4885 322.825 94.3379C323.763 94.174 324.713 94.0943 325.664 94.0988C327.547 94.0545 329.426 94.3379 331.212 94.949C332.614 95.4362 333.891 96.2333 334.948 97.2829C335.903 98.2483 336.628 99.4263 337.061 100.724C337.503 102.061 337.729 103.465 337.724 104.878ZM332.043 105.303C332.043 104.298 331.924 103.292 331.69 102.309C331.472 101.381 331.064 100.508 330.491 99.7452C329.884 98.97 329.096 98.3557 328.197 97.956C327.07 97.4712 325.85 97.2414 324.625 97.2829C323.917 97.2829 323.21 97.3493 322.52 97.4955C321.798 97.6448 321.093 97.8674 320.416 98.1598C319.639 98.5047 318.891 98.9104 318.179 99.3732C317.308 99.9365 316.475 100.556 315.685 101.229V109.244C317.012 110.36 318.457 111.317 320.005 112.092C321.335 112.747 322.799 113.088 324.28 113.084C325.5 113.111 326.711 112.88 327.839 112.411C328.767 112.008 329.59 111.392 330.239 110.613C330.853 109.869 331.314 109.011 331.597 108.089C331.888 107.181 332.039 106.233 332.039 105.281V105.303H332.043ZM349.736 90.8792C349.769 91.1595 349.729 91.4436 349.621 91.7042C349.512 91.9648 349.339 92.1931 349.117 92.3672C348.41 92.6905 347.632 92.8233 346.863 92.7613C346.105 92.8254 345.344 92.6927 344.652 92.376C344.428 92.2106 344.253 91.9884 344.143 91.7323C344.033 91.4762 343.994 91.1955 344.029 90.919C343.997 90.64 344.037 90.3574 344.145 90.0984C344.254 89.8394 344.427 89.6126 344.648 89.4399C345.355 89.1122 346.133 88.9749 346.902 89.0413C347.66 88.9774 348.422 89.1117 349.113 89.431C349.335 89.5967 349.51 89.8183 349.619 90.0734C349.729 90.3285 349.769 90.6035 349.736 90.8792ZM349.851 115.276C349.85 115.333 349.837 115.389 349.814 115.441C349.79 115.493 349.756 115.539 349.714 115.577C349.587 115.678 349.439 115.751 349.281 115.79C349.01 115.862 348.734 115.907 348.454 115.923C348.1 115.954 347.645 115.967 347.092 115.967C346.535 115.967 346.111 115.967 345.766 115.923C345.48 115.906 345.195 115.861 344.917 115.79C344.757 115.755 344.606 115.682 344.48 115.577C344.405 115.495 344.366 115.387 344.369 115.276V95.104C344.369 94.9978 344.413 94.8959 344.48 94.8162C344.603 94.7026 344.754 94.6232 344.917 94.5859C345.196 94.5195 345.479 94.4752 345.766 94.453C346.111 94.422 346.562 94.4088 347.092 94.4088C347.623 94.4088 348.1 94.4088 348.454 94.453C348.733 94.4752 349.011 94.5195 349.285 94.5859C349.44 94.6302 349.59 94.7055 349.714 94.8162C349.754 94.8529 349.787 94.8972 349.81 94.9467C349.832 94.9961 349.845 95.0496 349.847 95.104L349.851 115.276ZM375.613 113.793C375.625 114.144 375.577 114.494 375.471 114.829C375.405 115.056 375.265 115.254 375.073 115.391C374.827 115.542 374.558 115.654 374.277 115.723C373.88 115.843 373.464 115.936 373.048 115.994C372.57 116.067 372.089 116.124 371.607 116.166C371.103 116.211 370.586 116.228 370.073 116.228C368.733 116.251 367.396 116.111 366.09 115.812C365.102 115.593 364.173 115.162 363.366 114.55C362.662 114 362.126 113.264 361.819 112.424C361.48 111.45 361.318 110.422 361.342 109.391V97.6018H357.155C357.003 97.6082 356.853 97.5791 356.714 97.5168C356.576 97.4545 356.455 97.3608 356.359 97.243C356.132 96.8995 356.027 96.4889 356.063 96.0783C356.056 95.8352 356.083 95.5923 356.142 95.3565C356.187 95.1851 356.262 95.0232 356.363 94.8782C356.446 94.7526 356.567 94.6576 356.708 94.608C356.863 94.5555 357.026 94.53 357.19 94.5328H361.346V89.7366C361.346 89.6259 361.381 89.524 361.452 89.4443C361.576 89.327 361.728 89.2445 361.894 89.2052C362.168 89.1257 362.45 89.0767 362.734 89.059C363.088 89.059 363.534 89.0148 364.06 89.0148C364.591 89.0148 365.073 89.0148 365.431 89.059C365.711 89.0756 365.989 89.1247 366.258 89.2052C366.417 89.2495 366.567 89.3336 366.687 89.4443C366.727 89.4815 366.76 89.5266 366.783 89.5768C366.806 89.6271 366.818 89.6814 366.819 89.7366V94.5328H374.494C374.653 94.5328 374.808 94.5549 374.958 94.608C375.096 94.6644 375.215 94.7579 375.303 94.8782C375.412 95.0187 375.488 95.1823 375.524 95.3565C375.572 95.594 375.595 95.836 375.591 96.0783C375.626 96.4889 375.522 96.8995 375.294 97.243C375.198 97.3595 375.076 97.4523 374.938 97.5145C374.8 97.5766 374.65 97.6065 374.499 97.6018H366.824V108.85C366.745 109.974 367.067 111.088 367.734 111.995C368.344 112.708 369.436 113.062 371.006 113.062C371.461 113.071 371.917 113.035 372.363 112.964C372.993 112.857 373.616 112.713 374.229 112.535C374.43 112.473 374.638 112.438 374.848 112.433C374.958 112.433 375.069 112.451 375.166 112.491C375.268 112.535 375.347 112.606 375.4 112.703C375.462 112.84 375.515 112.982 375.546 113.133C375.591 113.354 375.617 113.576 375.608 113.797L375.613 113.793ZM404.809 115.303C404.808 115.388 404.781 115.471 404.733 115.542C404.685 115.613 404.618 115.668 404.54 115.701C404.308 115.805 404.062 115.873 403.81 115.905C403.358 115.955 402.903 115.976 402.448 115.967C401.988 115.974 401.527 115.953 401.069 115.905C400.811 115.881 400.558 115.814 400.322 115.706C400.25 115.667 400.19 115.608 400.149 115.537C400.109 115.466 400.089 115.385 400.092 115.303V113.283C398.761 114.235 397.29 114.974 395.733 115.475C394.088 116.007 392.368 116.273 390.64 116.264C389.204 116.278 387.771 116.138 386.365 115.847C385.226 115.62 384.129 115.215 383.115 114.647C382.277 114.179 381.56 113.519 381.024 112.721C380.521 111.949 380.259 111.043 380.272 110.121C380.245 109.051 380.598 108.006 381.267 107.172C382.072 106.242 383.089 105.529 384.225 105.082C385.737 104.462 387.32 104.041 388.938 103.824C391.017 103.532 393.116 103.393 395.216 103.408H399.332V101.835C399.346 101.132 399.224 100.433 398.974 99.7762C398.723 99.18 398.313 98.665 397.789 98.2882C397.155 97.8497 396.439 97.5453 395.684 97.3936C394.637 97.1711 393.567 97.0672 392.497 97.0836C391.276 97.0732 390.057 97.1829 388.858 97.4113C387.902 97.5986 386.958 97.8396 386.029 98.1332C385.347 98.3496 384.674 98.5888 384.008 98.8506C383.614 99.0288 383.192 99.1367 382.762 99.1695C382.604 99.1746 382.446 99.1443 382.302 99.0809C382.163 99.025 382.041 98.9333 381.948 98.8152C381.851 98.6753 381.787 98.5146 381.762 98.3458C381.716 98.1394 381.694 97.9284 381.696 97.7169C381.684 97.4155 381.724 97.1143 381.815 96.8268C381.931 96.5609 382.129 96.3401 382.381 96.1979C382.868 95.9145 383.389 95.6886 383.929 95.5159C384.742 95.228 385.573 94.9845 386.418 94.7985C387.368 94.5815 388.407 94.4043 389.53 94.2626C390.667 94.1177 391.811 94.0452 392.956 94.0456C394.796 94.019 396.63 94.1785 398.439 94.5372C399.734 94.7852 400.972 95.2768 402.086 95.9898C402.97 96.5655 403.673 97.3848 404.12 98.3502C404.553 99.3909 404.765 100.511 404.739 101.641L404.809 115.303ZM399.358 106.087H394.672C393.363 106.075 392.055 106.16 390.759 106.344C389.806 106.471 388.875 106.727 387.992 107.105C387.361 107.365 386.809 107.783 386.387 108.319C386.044 108.79 385.862 109.361 385.87 109.944C385.865 110.459 385.999 110.966 386.259 111.411C386.519 111.855 386.895 112.221 387.346 112.468C388.611 113.155 390.043 113.478 391.48 113.398C392.85 113.412 394.208 113.159 395.485 112.659C396.865 112.074 398.164 111.313 399.349 110.391L399.358 106.087ZM417.104 115.276C417.106 115.334 417.095 115.391 417.072 115.444C417.049 115.496 417.015 115.544 416.972 115.582C416.841 115.681 416.692 115.753 416.534 115.794C416.264 115.866 415.987 115.911 415.707 115.927C415.354 115.958 414.898 115.971 414.346 115.971C413.788 115.971 413.373 115.971 413.019 115.927C412.733 115.91 412.448 115.865 412.17 115.794C412.012 115.761 411.864 115.687 411.742 115.582C411.702 115.542 411.671 115.494 411.65 115.441C411.63 115.389 411.62 115.333 411.622 115.276V85.339C411.622 85.2195 411.662 85.1088 411.742 85.0202C411.861 84.9073 412.01 84.8292 412.17 84.7943C412.449 84.7267 412.733 84.6823 413.019 84.6615C413.373 84.6615 413.815 84.6172 414.346 84.6172C414.876 84.6172 415.354 84.6172 415.707 84.6615C415.986 84.6836 416.264 84.7235 416.538 84.7943C416.698 84.8386 416.848 84.9139 416.972 85.0202C417.014 85.061 417.047 85.1099 417.07 85.1639C417.093 85.2179 417.104 85.276 417.104 85.3346V115.276Z" fill="white"/>
<path d="M315.575 38.2152V34.5306C315.594 32.9372 315.512 31.3442 315.332 29.761C315.088 27.3156 314.255 24.9659 312.904 22.9145C311.464 20.7371 309.299 19.1427 306.795 18.415C304.895 17.8591 302.924 17.5905 300.945 17.6179H274.879C274.7 17.6174 274.523 17.6524 274.357 17.7208C274.192 17.7892 274.042 17.8897 273.915 18.0165C273.66 18.2762 273.517 18.6262 273.517 18.9908V24.8763C273.517 25.2439 273.659 25.5938 273.915 25.8506C274.041 25.979 274.191 26.0811 274.356 26.1511C274.522 26.221 274.699 26.2574 274.879 26.258H297.798C298.837 26.258 299.778 26.2935 300.654 26.3643C301.463 26.3776 302.254 26.6079 302.948 27.0286C303.799 27.5842 304.473 28.3727 304.889 29.3005C305.234 30.0356 305.428 30.8372 305.455 31.6476C305.455 32.8433 305.455 34.039 305.486 35.2348H283.213C281.77 35.2816 280.337 35.494 278.942 35.868C276.311 36.521 274.014 38.1271 272.496 40.3763C271.66 41.6606 271.033 43.0689 270.63 44.548C270.073 46.5852 269.773 48.6932 269.737 50.8056C269.69 52.539 269.767 54.2735 269.967 55.9959C270.184 57.8869 270.648 59.738 271.351 61.505C272.854 65.1719 275.653 67.3862 279.915 68.2719C281.197 68.5332 282.501 68.6616 283.805 68.6572H305.959C307.44 68.666 308.912 68.5022 310.353 68.17C311.397 67.984 312.365 67.5058 313.156 66.7972C313.948 66.0886 314.527 65.1675 314.836 64.1445L314.894 63.9673C315.088 63.4359 315.225 62.8868 315.305 62.3288C315.455 61.1773 315.544 60.017 315.561 58.8568V38.8485L315.575 38.2152ZM303.001 59.9949H286.246C285.251 60.0477 284.255 59.937 283.297 59.6672C282.818 59.51 282.379 59.2503 282.01 58.9062C281.641 58.5621 281.352 58.1417 281.161 57.6743C280.665 56.5561 280.364 55.3607 280.273 54.1403C279.997 51.823 280.162 49.4743 280.759 47.2185C280.956 46.2904 281.459 45.4557 282.187 44.8492C282.911 44.2461 283.819 43.9086 284.76 43.8926C285.18 43.8528 285.596 43.8483 286.069 43.8483H305.495V57.816C305.538 58.3316 305.45 58.8497 305.238 59.3218C305.169 59.4928 305.054 59.6419 304.907 59.7533C304.76 59.8648 304.586 59.9345 304.403 59.955C303.939 59.9993 303.47 60.0126 303.001 59.9993V59.9949ZM375.201 2.43234V2.06919C375.278 1.58095 375.191 1.08117 374.954 0.647621C374.912 0.587743 374.858 0.537421 374.796 0.500006C374.733 0.46259 374.664 0.438937 374.591 0.430621C373.972 0.337621 372.177 0.288907 370.276 0.275621H369.658C367.469 0.275621 365.294 0.324335 364.534 0.430621C364.462 0.438983 364.393 0.462686 364.331 0.500125C364.269 0.537564 364.216 0.587865 364.175 0.647621C363.929 1.08274 363.836 1.58794 363.91 2.08248V67.2445C363.835 67.7419 363.928 68.2502 364.175 68.6882C364.217 68.7465 364.27 68.7953 364.332 68.8312C364.394 68.8671 364.462 68.8893 364.534 68.8963C365.97 69.0248 367.407 69.0735 368.853 69.0558H369.472C371.66 69.0558 373.835 69.007 374.591 68.8919C374.663 68.8849 374.733 68.8627 374.795 68.8269C374.858 68.791 374.912 68.7422 374.954 68.6838C375.201 68.2457 375.294 67.7374 375.219 67.24V66.8858L375.197 2.43676L375.201 2.43234ZM263.831 19.5576V18.3973C263.785 15.9121 263.444 13.4412 262.814 11.0371C262.31 8.86954 261.302 6.85162 259.874 5.14705C258.024 3.06033 255.602 1.5636 252.911 0.842478C250.817 0.254719 248.648 -0.0227952 246.474 0.0187638H215.986C214.173 0.0143352 212.361 0.284478 210.628 0.824764C208.174 1.58648 206.591 3.06119 205.933 5.19134C205.555 6.29312 205.347 7.44581 205.314 8.61019C205.314 9.01762 205.252 10.7448 205.252 11.192V67.8069C205.269 68.089 205.396 68.353 205.605 68.542C205.818 68.7325 206.092 68.8255 206.37 68.8078H215.089C215.227 68.8157 215.365 68.7963 215.495 68.7507C215.626 68.7051 215.746 68.6342 215.849 68.542C216.058 68.3541 216.185 68.0918 216.203 67.8113V43.2062C216.29 43.0962 216.401 43.0073 216.527 42.946C216.654 42.8846 216.792 42.8525 216.932 42.8519H245.227C247.261 42.8918 249.281 42.7456 251.284 42.4268C256.664 41.4348 260.32 38.4676 262.261 33.5342C263.164 30.9681 263.667 28.2779 263.751 25.5583C263.875 23.5655 263.853 21.5372 263.831 19.5576ZM253.87 23.22C253.87 23.22 253.543 27.6309 253.03 29.11C252.662 30.2445 252.04 31.2798 251.212 32.1371C250.383 32.9943 249.371 33.6509 248.251 34.0568C247.053 34.4775 245.784 34.6768 244.515 34.6413H216.189L216.238 10.8422V9.73505C216.404 9.36867 216.652 9.04578 216.963 8.79176C217.431 8.38915 218.026 8.16626 218.643 8.16291H241.195C242.99 8.16291 244.444 8.22048 245.766 8.30462C246.933 8.38576 248.072 8.7031 249.113 9.23745C250.154 9.77179 251.076 10.5121 251.823 11.4135C252.221 11.9095 252.539 12.4763 252.752 13.0786C253.136 14.0972 253.415 15.1512 253.583 16.2318C253.888 18.5523 253.976 20.8995 253.848 23.2378L253.87 23.22ZM131.73 24.6815C129.509 20.9642 125.938 18.2531 121.765 17.1175C118.874 16.3516 115.903 15.928 112.914 15.8553C110.022 15.7096 107.123 15.8744 104.266 16.3469C102.339 16.6259 100.46 17.144 98.6602 17.8969C96.2941 18.9001 94.2076 20.4658 92.5813 22.4583C91.0339 24.4069 89.8844 26.6522 89.2124 29.0613C88.2522 32.5809 87.7294 36.2058 87.6562 39.8538C87.4926 43.8262 87.6695 47.8075 88.1912 51.7533C88.5139 54.6673 89.3583 57.4928 90.6846 60.0968C91.8341 62.3553 93.5716 64.2463 95.707 65.5705C97.7963 66.8433 100.132 67.6555 102.56 67.953C103.886 68.1302 130.501 68.2188 130.585 68.2188C131.013 68.1833 131.438 68.1258 131.862 68.0416C132.176 67.9733 132.46 67.8085 132.674 67.5702C132.889 67.3319 133.024 67.0321 133.06 66.713C133.237 64.5785 133.215 62.4262 132.99 60.2916C132.943 60.0743 132.85 59.8698 132.716 59.6923C132.582 59.5149 132.412 59.3688 132.216 59.2642C131.635 58.9829 130.987 58.8709 130.346 58.9409C130.346 58.9409 107.635 58.8878 106.561 58.808C105.113 58.7489 103.713 58.2722 102.529 57.4352C101.341 56.5969 100.416 55.4371 99.8627 54.0916C99.4383 53.2059 99.1554 52.2582 99.0272 51.2883C98.8281 49.6987 98.6733 48.1038 98.563 46.5055V46.3018H124.718C125.677 46.2708 126.663 46.3018 127.658 46.2132C128.847 46.1468 130.001 45.7615 130.987 45.0883C131.977 44.4196 132.769 43.4896 133.281 42.4002C133.856 41.1956 134.21 39.898 134.329 38.565C134.558 35.9793 134.442 33.3745 133.984 30.8195C133.616 28.6521 132.851 26.5713 131.73 24.6815ZM123.449 35.7618L123.255 36.9663C123.072 37.0414 122.877 37.079 122.68 37.077H98.5408C98.6048 35.0188 98.9621 32.9802 99.6019 31.0232C100.106 29.5928 100.964 28.3218 102.091 27.3209C102.984 26.5503 104.058 26.0145 105.208 25.7709C107.456 25.2134 109.775 25.0014 112.087 25.142C113.263 25.1686 114.43 25.2926 115.588 25.5052C117.419 25.793 119.139 26.568 120.571 27.7549C121.941 28.9949 122.87 30.6556 123.197 32.4846C123.418 33.5608 123.502 34.6635 123.449 35.7618ZM78.6771 9.60219C78.6703 8.50576 78.5473 7.41315 78.3101 6.34276C77.5674 3.34019 75.5072 1.30305 72.3373 0.470478C70.2212 -0.0780433 68.0046 -0.109936 65.8737 0.377478C64.4147 0.665335 63.0752 1.39605 62.0406 2.47662C61.0105 3.49519 60.1661 4.69091 59.5516 6.01062C58.4684 8.57034 41.4518 51.1112 41.4518 51.1112C40.7444 52.8605 40.0503 54.623 39.3341 56.3812L39.2589 56.5583L39.0158 55.9738L37.1501 51.306C37.1501 51.306 19.4792 7.03805 18.7895 5.63419C18.1635 4.2124 17.1923 2.97011 15.9644 2.02048C14.742 1.07791 13.302 0.45949 11.7777 0.222478C9.31824 -0.248659 6.77355 0.0529549 4.49179 1.08605C3.24312 1.6499 2.17272 2.54597 1.39705 3.67676C0.616063 4.81273 0.157649 6.1398 0.0707368 7.51634C0.0265263 7.91048 0 65.9558 0 66.093C0.0137319 66.6438 0.234828 67.169 0.618947 67.5633C0.999497 67.955 1.51506 68.1863 2.06021 68.2099H8.91284C9.27994 68.2433 9.64991 68.1974 9.99773 68.0751C10.3455 67.9529 10.6631 67.7572 10.9288 67.5013C11.034 67.3918 11.1233 67.2681 11.1941 67.1338C11.4152 66.4916 11.5036 65.8096 11.4594 65.1365C11.4594 63.5068 11.1941 14.1548 11.1941 14.1548V12.9325C11.5611 13.8049 11.9059 14.6862 12.2507 15.563C12.2507 15.563 27.6891 54.5389 29.6874 59.552C30.4964 61.7442 31.5752 63.8256 32.8971 65.752C33.4095 66.5309 34.0761 67.1962 34.8556 67.7065C35.635 68.2169 36.5108 68.5616 37.4286 68.7192C37.9724 68.7856 38.5251 68.8166 39.0733 68.8078H40.2006C42.4421 68.8078 44.3122 67.7228 45.7579 65.6635C46.956 63.861 47.9507 61.9213 48.7156 59.893C50.1171 56.3856 63.6234 22.4185 63.6234 22.4185C64.8701 19.2698 66.1124 16.1565 67.3592 13.0299V13.4639C67.3592 13.4639 67.2088 60.0392 67.2 65.1453C67.1558 65.8273 67.2442 66.5049 67.4608 67.147C67.5316 67.2799 67.62 67.4128 67.7261 67.5191C67.9932 67.7743 68.3116 67.9695 68.66 68.0917C69.0084 68.2139 69.3788 68.2602 69.7465 68.2276H76.5992C77.1449 68.2029 77.6606 67.97 78.0404 67.5766C78.4245 67.1823 78.6456 66.6571 78.6594 66.1063V14.4559C78.7036 12.8262 78.7036 11.2098 78.6771 9.60219ZM188.005 3.03019C188.004 2.46502 187.782 1.92275 187.386 1.52005C187.19 1.32176 186.957 1.16445 186.699 1.05726C186.442 0.950071 186.166 0.895128 185.888 0.895621H179.442C179.164 0.895376 178.889 0.950017 178.633 1.05641C178.376 1.1628 178.143 1.31886 177.947 1.51562C177.549 1.9187 177.325 2.46286 177.324 3.03019L177.289 16.6082C177.289 16.6082 162.628 16.524 160.378 16.7588C158.3 16.927 156.253 17.4053 154.312 18.1759C152.433 18.894 150.708 19.9641 149.228 21.329C147.135 23.3985 145.567 25.9407 144.657 28.7425C143.773 31.3908 143.242 34.1453 143.074 36.9353C142.72 41.2753 142.787 45.6463 143.286 49.9775C143.565 52.5992 144.171 55.1766 145.103 57.6389C145.943 59.8399 147.239 61.8239 148.905 63.4669C151.027 65.4728 153.647 66.8722 156.492 67.5191C158.676 68.0726 160.913 68.3693 163.168 68.3959H179.358C184.026 68.3959 185.715 66.2569 186.736 64.7556C187.355 63.8433 188.019 60.9736 188.019 56.9613L188.005 3.03019ZM177.293 56.0092C177.293 56.6031 177.12 57.184 176.794 57.68C176.468 58.1759 176.003 58.5651 175.458 58.7992C175.097 58.9509 174.709 59.0291 174.318 59.0295H163.734C162.144 58.9774 160.581 58.6085 159.136 57.9445C157.484 57.2167 156.171 55.8845 155.466 54.22C154.812 52.7143 154.392 51.12 154.22 49.4903C153.801 46.133 153.688 42.7444 153.884 39.3666C153.922 36.927 154.294 34.5042 154.989 32.1658C155.296 31.0807 155.826 30.0716 156.544 29.2025C157.261 28.3334 158.152 27.6232 159.158 27.1172C160.033 26.6832 160.971 26.3865 161.934 26.2403C163.605 25.9879 177.293 26.0809 177.293 26.0809V56.0092ZM419.876 67.9398L419.553 67.6253C419.364 67.4336 419.167 67.2504 418.961 67.0762C414.063 62.9798 397.55 49.2202 394.203 46.439C393.174 45.6329 392.266 44.6829 391.506 43.618C390.963 42.9226 390.698 42.0489 390.765 41.1682C390.831 40.2875 391.223 39.4634 391.864 38.8573C392.395 38.2772 403.443 28.924 408.324 24.7966L414.204 19.8366C414.876 19.2742 415.548 18.7073 416.211 18.1316C416.37 17.9855 416.932 17.3168 417.087 17.144C417.139 17.0877 417.172 17.0156 417.18 16.9389C417.188 16.8622 417.171 16.7849 417.131 16.7189C417.084 16.6487 417.02 16.5916 416.945 16.5529C416.87 16.5142 416.786 16.4951 416.702 16.4975H405.976C405.261 16.4871 404.567 16.7445 404.031 17.2193C402.546 18.4771 387.554 31.4572 384.99 33.6582C383.823 34.628 382.766 35.7219 381.833 36.922C380.983 37.9544 380.419 39.1935 380.2 40.514C379.981 41.8344 380.115 43.1894 380.586 44.4418C381.232 46.1645 382.275 47.7056 383.632 48.9368C384.362 49.6232 405.017 66.8282 406.498 68.0903C407.036 68.5646 407.731 68.8205 408.448 68.8078H418.714C418.97 68.8078 419.231 68.7635 419.474 68.6749C419.646 68.6315 419.803 68.5428 419.929 68.418C419.982 68.3463 420.006 68.2572 419.996 68.1685C419.986 68.0798 419.944 67.9981 419.876 67.9398ZM355.059 17.6046V16.555C355.175 15.5574 355.08 14.5465 354.781 13.5879C354.748 13.5029 354.692 13.4288 354.619 13.374C354.547 13.3192 354.46 13.2859 354.37 13.2779L354.078 13.2425C353.886 13.2117 353.692 13.1984 353.499 13.2026H350.682C348.155 13.1287 345.625 13.2368 343.113 13.5259C340.719 13.7775 338.366 14.3325 336.111 15.1778C334.016 15.9683 332.111 17.1903 330.518 18.7649C328.919 20.3432 327.664 22.2374 326.835 24.3272C325.878 26.6941 325.29 29.1945 325.093 31.7406C325.093 32.0683 325.049 32.3739 325.031 32.6883C324.912 34.2073 324.85 35.5802 324.841 36.8468V67.5589C324.861 67.7475 324.897 67.9341 324.947 68.1169L324.996 68.3206C325.02 68.3957 325.063 68.4634 325.12 68.5176C325.177 68.5717 325.247 68.6106 325.323 68.6306L325.5 68.6749C325.654 68.7404 325.819 68.7778 325.986 68.7856H334.196C334.375 68.7832 334.552 68.7624 334.727 68.7236L335.089 68.666C335.192 68.6585 335.288 68.6155 335.363 68.5444C335.437 68.4733 335.484 68.3785 335.496 68.2763V37.5199C335.47 35.8946 335.629 34.2738 335.974 32.6883C336.062 32.1879 336.159 31.6963 336.279 31.2003C336.592 29.8718 337.101 28.5963 337.782 27.4183C338.825 25.5495 340.479 24.1058 342.459 23.3396C343.989 22.7196 345.603 22.3653 347.243 22.2768C348.49 22.2192 349.736 22.1882 350.979 22.1749L353.118 22.0775H353.339C353.605 22.1091 353.874 22.0827 354.128 22.0002C354.382 21.9176 354.615 21.7808 354.812 21.5992C354.88 21.537 354.926 21.4548 354.944 21.3645C355.139 20.3902 355.192 19.3893 355.112 18.3973C355.081 18.1327 355.063 17.8711 355.059 17.6046Z" fill="white"/>
</g>
<defs>
<clipPath id="clip0_1076_746">
<rect width="420" height="124" fill="white"/>
</clipPath>
</defs>
</svg>
