<svg width="424" height="184" viewBox="0 0 424 184" fill="none" xmlns="http://www.w3.org/2000/svg">
<path d="M238.743 135.7H243.643V170H238.743V135.7ZM219.045 170H214.145V135.7H219.045V170ZM239.184 154.712H218.555V150.449H239.184V154.712ZM264.347 170.294C261.733 170.294 259.414 169.722 257.389 168.579C255.363 167.436 253.763 165.868 252.587 163.875C251.411 161.85 250.823 159.563 250.823 157.015C250.823 154.434 251.411 152.148 252.587 150.155C253.763 148.162 255.363 146.611 257.389 145.5C259.414 144.357 261.733 143.785 264.347 143.785C266.927 143.785 269.23 144.357 271.256 145.5C273.314 146.611 274.914 148.162 276.058 150.155C277.234 152.115 277.822 154.402 277.822 157.015C277.822 159.596 277.234 161.882 276.058 163.875C274.914 165.868 273.314 167.436 271.256 168.579C269.23 169.722 266.927 170.294 264.347 170.294ZM264.347 166.178C266.013 166.178 267.499 165.802 268.806 165.051C270.145 164.3 271.19 163.238 271.942 161.866C272.693 160.461 273.069 158.844 273.069 157.015C273.069 155.153 272.693 153.552 271.942 152.213C271.19 150.841 270.145 149.779 268.806 149.028C267.499 148.277 266.013 147.901 264.347 147.901C262.681 147.901 261.194 148.277 259.888 149.028C258.581 149.779 257.536 150.841 256.752 152.213C255.968 153.552 255.576 155.153 255.576 157.015C255.576 158.844 255.968 160.461 256.752 161.866C257.536 163.238 258.581 164.3 259.888 165.051C261.194 165.802 262.681 166.178 264.347 166.178ZM291.775 170.294C289.619 170.294 287.561 170 285.601 169.412C283.674 168.824 282.155 168.105 281.044 167.256L283.004 163.532C284.115 164.283 285.487 164.92 287.12 165.443C288.753 165.966 290.419 166.227 292.118 166.227C294.307 166.227 295.875 165.917 296.822 165.296C297.802 164.675 298.292 163.81 298.292 162.699C298.292 161.882 297.998 161.245 297.41 160.788C296.822 160.331 296.038 159.988 295.058 159.759C294.111 159.53 293.049 159.334 291.873 159.171C290.697 158.975 289.521 158.746 288.345 158.485C287.169 158.191 286.091 157.799 285.111 157.309C284.131 156.786 283.347 156.084 282.759 155.202C282.171 154.287 281.877 153.079 281.877 151.576C281.877 150.008 282.318 148.636 283.2 147.46C284.082 146.284 285.323 145.386 286.924 144.765C288.557 144.112 290.485 143.785 292.706 143.785C294.405 143.785 296.12 143.997 297.851 144.422C299.615 144.814 301.052 145.386 302.163 146.137L300.154 149.861C298.978 149.077 297.753 148.538 296.479 148.244C295.205 147.95 293.931 147.803 292.657 147.803C290.599 147.803 289.064 148.146 288.051 148.832C287.038 149.485 286.532 150.335 286.532 151.38C286.532 152.262 286.826 152.948 287.414 153.438C288.035 153.895 288.819 154.255 289.766 154.516C290.746 154.777 291.824 155.006 293 155.202C294.176 155.365 295.352 155.594 296.528 155.888C297.704 156.149 298.766 156.525 299.713 157.015C300.693 157.505 301.477 158.191 302.065 159.073C302.686 159.955 302.996 161.131 302.996 162.601C302.996 164.169 302.539 165.525 301.624 166.668C300.709 167.811 299.419 168.71 297.753 169.363C296.087 169.984 294.094 170.294 291.775 170.294ZM322.644 170.294C320.488 170.294 318.512 169.804 316.715 168.824C314.951 167.811 313.53 166.325 312.452 164.365C311.407 162.405 310.884 159.955 310.884 157.015C310.884 154.075 311.39 151.625 312.403 149.665C313.448 147.705 314.853 146.235 316.617 145.255C318.414 144.275 320.423 143.785 322.644 143.785C325.192 143.785 327.446 144.34 329.406 145.451C331.366 146.562 332.918 148.113 334.061 150.106C335.204 152.066 335.776 154.369 335.776 157.015C335.776 159.661 335.204 161.98 334.061 163.973C332.918 165.966 331.366 167.517 329.406 168.628C327.446 169.739 325.192 170.294 322.644 170.294ZM308.875 179.506V144.03H313.383V151.037L313.089 157.064L313.579 163.091V179.506H308.875ZM322.252 166.178C323.918 166.178 325.404 165.802 326.711 165.051C328.05 164.3 329.096 163.238 329.847 161.866C330.631 160.461 331.023 158.844 331.023 157.015C331.023 155.153 330.631 153.552 329.847 152.213C329.096 150.841 328.05 149.779 326.711 149.028C325.404 148.277 323.918 147.901 322.252 147.901C320.619 147.901 319.132 148.277 317.793 149.028C316.486 149.779 315.441 150.841 314.657 152.213C313.906 153.552 313.53 155.153 313.53 157.015C313.53 158.844 313.906 160.461 314.657 161.866C315.441 163.238 316.486 164.3 317.793 165.051C319.132 165.802 320.619 166.178 322.252 166.178ZM342.275 170V144.03H346.979V170H342.275ZM344.627 139.032C343.713 139.032 342.945 138.738 342.324 138.15C341.736 137.562 341.442 136.843 341.442 135.994C341.442 135.112 341.736 134.377 342.324 133.789C342.945 133.201 343.713 132.907 344.627 132.907C345.542 132.907 346.293 133.201 346.881 133.789C347.502 134.344 347.812 135.047 347.812 135.896C347.812 136.778 347.518 137.529 346.93 138.15C346.342 138.738 345.575 139.032 344.627 139.032ZM364.879 170.294C362.266 170.294 360.24 169.592 358.803 168.187C357.366 166.782 356.647 164.773 356.647 162.16V138.346H361.351V161.964C361.351 163.369 361.694 164.447 362.38 165.198C363.099 165.949 364.111 166.325 365.418 166.325C366.888 166.325 368.113 165.917 369.093 165.1L370.563 168.481C369.844 169.102 368.979 169.559 367.966 169.853C366.986 170.147 365.957 170.294 364.879 170.294ZM352.237 147.901V144.03H368.799V147.901H352.237ZM392.371 170V164.512L392.126 163.483V154.124C392.126 152.131 391.538 150.596 390.362 149.518C389.219 148.407 387.487 147.852 385.168 147.852C383.633 147.852 382.13 148.113 380.66 148.636C379.19 149.126 377.949 149.796 376.936 150.645L374.976 147.117C376.315 146.039 377.916 145.222 379.778 144.667C381.673 144.079 383.649 143.785 385.707 143.785C389.268 143.785 392.012 144.651 393.939 146.382C395.866 148.113 396.83 150.759 396.83 154.32V170H392.371ZM383.845 170.294C381.918 170.294 380.219 169.967 378.749 169.314C377.312 168.661 376.201 167.762 375.417 166.619C374.633 165.443 374.241 164.12 374.241 162.65C374.241 161.245 374.568 159.971 375.221 158.828C375.907 157.685 377.001 156.77 378.504 156.084C380.039 155.398 382.097 155.055 384.678 155.055H392.91V158.436H384.874C382.522 158.436 380.938 158.828 380.121 159.612C379.304 160.396 378.896 161.343 378.896 162.454C378.896 163.728 379.402 164.757 380.415 165.541C381.428 166.292 382.832 166.668 384.629 166.668C386.393 166.668 387.928 166.276 389.235 165.492C390.574 164.708 391.538 163.565 392.126 162.062L393.057 165.296C392.436 166.831 391.342 168.056 389.774 168.971C388.206 169.853 386.23 170.294 383.845 170.294ZM405.535 170V133.642H410.239V170H405.535Z" fill="white"/>
<path d="M19.9142 74.7803V89.716C19.9142 92.1015 20.2254 93.2424 20.744 93.9685C21.8849 95.2131 24.063 95.1094 25.204 95.1094H46.7777C48.9558 95.1094 52.6898 95.0057 54.7642 92.5164C56.32 90.5457 56.6311 87.5378 56.6311 85.1523C56.6311 83.0779 56.4237 79.7588 55.0753 77.7882C54.2456 76.6472 52.1712 74.7803 47.7112 74.7803H19.9142ZM19.9142 48.3317V63.8897H46.4666C49.267 63.8897 51.9637 63.8897 53.9344 61.2967C54.453 60.5706 55.4902 58.9111 55.4902 53.9326C55.4902 51.9619 55.4902 48.3317 53.1046 46.1536C51.134 44.1829 48.7484 44.2866 46.3628 44.2866H23.9593C21.5738 43.4568 19.4994 46.2573 19.9142 48.3317ZM59.3278 69.2831C62.7506 69.5943 65.551 71.1501 67.3143 73.1208C70.6333 77.0621 70.737 81.937 70.737 86.0858C70.737 90.9606 70.737 96.6652 66.5882 101.333C62.4394 106 57.772 106 53.3121 106H18.5659C14.9357 106 11.6166 106.415 8.71248 103.096C7.98644 102.266 6.2232 99.8805 6.2232 95.7317V43.8717C6.2232 41.0713 6.94924 38.3746 8.50504 36.4039C10.6832 33.8109 13.7948 33.396 16.1803 33.396H51.86C55.9051 33.396 61.0911 33.8109 65.0324 37.7522C69.0775 41.7973 69.5961 48.6428 69.5961 53.3102C69.5961 57.3553 69.3887 61.2967 66.1734 65.1343C64.099 67.6236 62.1283 68.5571 59.3278 68.8682V69.2831ZM81.5944 51.0284H112.814C117.482 51.0284 121.734 52.6879 124.223 55.2809C126.609 57.6665 128.268 62.0227 128.268 68.2459V96.7689C128.268 98.7396 128.061 101.851 126.09 103.822C124.12 105.793 121.112 106 118.519 106H92.2776C89.2697 106 85.5358 106.104 82.3205 103.303C77.8605 99.3619 77.5493 92.5164 77.5493 88.3676C77.5493 83.4928 78.0679 78.6179 82.2167 74.9877C85.6395 71.9798 89.3734 71.7724 92.2776 71.7724H116.133V67.9348C116.133 66.2752 115.926 64.4083 114.577 62.7488C112.918 60.6744 110.636 60.3632 108.665 60.3632H81.5944V51.0284ZM116.133 81.1072H95.9078C95.078 81.1072 92.7962 81.2109 91.4478 82.9742C91.0329 83.4928 90.0995 84.8411 90.0995 88.8862C90.0995 90.5457 90.2032 93.4499 91.759 95.0057C92.5887 95.8354 94.1445 96.6652 95.7003 96.6652H112.607C114.266 97.0801 116.755 95.4206 116.133 93.761V81.1072ZM136.534 106V59.4297C136.534 57.7702 136.637 55.2809 138.297 53.5177C140.682 50.9247 144.313 51.0284 146.698 51.0284H166.094C171.902 51.0284 176.984 51.4433 181.444 55.4884C184.349 58.0814 186.838 62.2302 186.838 69.8017V106H174.703V73.4319C174.703 69.8017 174.391 66.2752 172.421 63.6822C170.657 61.2967 168.168 60.3632 163.708 60.3632H151.366C150.017 59.8446 148.15 61.7116 148.669 63.2674V106H136.534ZM234.075 106H214.576C208.975 106 202.129 105.481 197.98 98.947C195.18 94.4871 193.728 87.4341 193.728 77.6844C193.728 68.972 194.661 62.3339 199.536 57.0442C204.722 51.3396 210.842 51.0284 216.443 51.0284H234.179C237.394 51.0284 240.506 51.1321 243.099 53.2065C245.899 55.5921 246.314 58.8074 246.314 61.193V99.7768C246.314 106.83 245.484 113.053 241.854 117.513C236.875 123.529 227.229 124.151 223.496 124.151H197.566V114.816H220.695C223.288 114.816 227.955 114.712 230.86 112.327C232.623 110.771 233.764 108.593 234.075 106ZM234.179 96.6652V64.7194C234.179 63.1636 233.971 62.1264 232.623 61.193C231.482 60.4669 230.548 60.3632 229.408 60.3632H219.036C214.99 60.3632 211.568 61.6078 209.597 63.786C206.278 67.6236 206.278 76.0249 206.278 78.6179C206.278 88.3676 208.041 92.1015 209.39 93.4499C212.19 96.6652 216.131 96.6652 219.762 96.6652H234.179ZM307.638 106H293.117L274.136 85.8783C272.58 84.2188 270.402 81.4184 270.402 77.5807C270.402 73.4319 272.684 71.0464 274.24 69.2831L290.835 51.0284H304.941L284.301 73.2245C283.367 74.3654 282.537 75.4026 282.537 77.1658C282.537 78.9291 283.782 80.6923 285.13 82.2481L307.638 106ZM266.772 106H254.637V33.396H266.772V106ZM333.99 50.4061C340.628 50.4061 350.066 50.6135 356.186 56.2144C362.616 62.0227 363.239 72.6022 363.239 78.3068C363.239 90.0271 360.231 96.8726 356.186 100.71C350.377 106.207 340.213 106.622 333.99 106.622C327.352 106.622 317.913 106.207 311.794 100.71C305.259 94.6945 304.741 84.3225 304.741 78.7216C304.741 72.6022 305.363 62.0227 311.794 56.2144C317.913 50.6135 327.352 50.4061 333.99 50.4061ZM317.291 78.6179C317.291 83.1816 317.395 88.6788 320.817 92.7238C324.447 96.7689 329.53 97.2875 333.99 97.2875C338.553 97.2875 343.428 96.7689 347.058 92.7238C350.689 88.6788 350.689 83.4928 350.689 78.6179V75.2989C350.689 71.6687 349.963 67.105 347.162 64.0971C343.532 60.1558 338.45 59.7409 333.99 59.7409C330.048 59.7409 324.136 60.1558 320.714 64.0971C317.291 68.0385 317.291 75.0914 317.291 78.6179ZM423.107 106H408.586L389.606 85.8783C388.05 84.2188 385.872 81.4184 385.872 77.5807C385.872 73.4319 388.153 71.0464 389.709 69.2831L406.304 51.0284H420.41L399.77 73.2245C398.837 74.3654 398.007 75.4026 398.007 77.1658C398.007 78.9291 399.252 80.6923 400.6 82.2481L423.107 106ZM382.241 106H370.106V33.396H382.241V106Z" fill="white"/>
</svg>
