<svg width="418" height="125" viewBox="0 0 418 125" fill="none" xmlns="http://www.w3.org/2000/svg">
<path d="M232.988 87.22H237.925V116.33H232.988V87.22ZM213.143 116.33H208.206V87.22H213.143V116.33ZM233.432 103.355H212.649V99.7372H233.432V103.355ZM258.782 116.579C256.15 116.579 253.813 116.094 251.772 115.124C249.732 114.154 248.119 112.823 246.934 111.132C245.75 109.413 245.157 107.472 245.157 105.31C245.157 103.119 245.75 101.179 246.934 99.4877C248.119 97.7963 249.732 96.48 251.772 95.5371C253.813 94.567 256.15 94.0816 258.782 94.0816C261.383 94.0816 263.703 94.567 265.743 95.5371C267.816 96.48 269.429 97.7963 270.581 99.4877C271.766 101.151 272.358 103.092 272.358 105.31C272.358 107.5 271.766 109.44 270.581 111.132C269.429 112.823 267.816 114.154 265.743 115.124C263.703 116.094 261.383 116.579 258.782 116.579ZM258.782 113.086C260.461 113.086 261.959 112.767 263.275 112.13C264.625 111.492 265.677 110.591 266.434 109.427C267.192 108.234 267.57 106.862 267.57 105.31C267.57 103.729 267.192 102.371 266.434 101.234C265.677 100.07 264.625 99.1686 263.275 98.5312C261.959 97.8939 260.461 97.5748 258.782 97.5748C257.104 97.5748 255.607 97.8939 254.29 98.5312C252.974 99.1686 251.92 100.07 251.131 101.234C250.341 102.371 249.946 103.729 249.946 105.31C249.946 106.862 250.341 108.234 251.131 109.427C251.92 110.591 252.974 111.492 254.29 112.13C255.607 112.767 257.104 113.086 258.782 113.086ZM286.416 116.579C284.244 116.579 282.171 116.33 280.196 115.831C278.254 115.332 276.723 114.722 275.605 114.001L277.58 110.841C278.698 111.478 280.08 112.018 281.727 112.462C283.372 112.906 285.05 113.128 286.762 113.128C288.966 113.128 290.546 112.865 291.501 112.338C292.488 111.811 292.982 111.076 292.982 110.134C292.982 109.44 292.686 108.9 292.093 108.512C291.501 108.124 290.711 107.833 289.724 107.638C288.769 107.444 287.7 107.278 286.515 107.139C285.33 106.973 284.146 106.779 282.961 106.557C281.776 106.308 280.69 105.975 279.703 105.559C278.715 105.115 277.925 104.52 277.333 103.771C276.741 102.994 276.444 101.969 276.444 100.694C276.444 99.3629 276.889 98.1986 277.777 97.2005C278.666 96.2024 279.916 95.4403 281.529 94.9133C283.174 94.3591 285.116 94.0816 287.354 94.0816C289.065 94.0816 290.793 94.2615 292.538 94.6222C294.315 94.9549 295.763 95.4403 296.882 96.0777L294.858 99.2382C293.673 98.5728 292.439 98.1154 291.156 97.8659C289.872 97.6164 288.588 97.4916 287.305 97.4916C285.232 97.4916 283.684 97.7827 282.665 98.3649C281.644 98.9191 281.134 99.6405 281.134 100.527C281.134 101.276 281.43 101.858 282.023 102.274C282.647 102.662 283.437 102.967 284.392 103.189C285.38 103.41 286.466 103.605 287.651 103.771C288.835 103.909 290.02 104.104 291.205 104.353C292.39 104.575 293.459 104.894 294.414 105.31C295.401 105.726 296.191 106.308 296.783 107.056C297.408 107.805 297.721 108.803 297.721 110.05C297.721 111.381 297.26 112.532 296.339 113.502C295.417 114.472 294.117 115.235 292.439 115.789C290.761 116.316 288.753 116.579 286.416 116.579ZM317.516 116.579C315.344 116.579 313.352 116.163 311.543 115.332C309.766 114.472 308.334 113.211 307.248 111.547C306.194 109.884 305.668 107.805 305.668 105.31C305.668 102.815 306.178 100.735 307.199 99.0718C308.251 97.4084 309.667 96.1609 311.444 95.3292C313.253 94.4974 315.277 94.0816 317.516 94.0816C320.083 94.0816 322.354 94.5526 324.329 95.4955C326.303 96.4384 327.866 97.7547 329.018 99.4461C330.17 101.11 330.746 103.064 330.746 105.31C330.746 107.555 330.17 109.523 329.018 111.215C327.866 112.906 326.303 114.223 324.329 115.165C322.354 116.108 320.083 116.579 317.516 116.579ZM303.644 124.397V94.2895H308.186V100.236L307.89 105.351L308.383 110.466V124.397H303.644ZM317.121 113.086C318.8 113.086 320.297 112.767 321.613 112.13C322.963 111.492 324.015 110.591 324.773 109.427C325.563 108.234 325.958 106.862 325.958 105.31C325.958 103.729 325.563 102.371 324.773 101.234C324.015 100.07 322.963 99.1686 321.613 98.5312C320.297 97.8939 318.8 97.5748 317.121 97.5748C315.475 97.5748 313.978 97.8939 312.629 98.5312C311.312 99.1686 310.259 100.07 309.469 101.234C308.712 102.371 308.334 103.729 308.334 105.31C308.334 106.862 308.712 108.234 309.469 109.427C310.259 110.591 311.312 111.492 312.629 112.13C313.978 112.767 315.475 113.086 317.121 113.086ZM337.294 116.33V94.2895H342.033V116.33H337.294ZM339.663 90.0478C338.742 90.0478 337.969 89.7983 337.343 89.2993C336.751 88.8002 336.455 88.19 336.455 87.4695C336.455 86.721 336.751 86.0972 337.343 85.5982C337.969 85.0991 338.742 84.8496 339.663 84.8496C340.585 84.8496 341.342 85.0991 341.934 85.5982C342.56 86.0692 342.872 86.6658 342.872 87.3863C342.872 88.1349 342.576 88.7722 341.984 89.2993C341.391 89.7983 340.617 90.0478 339.663 90.0478ZM360.067 116.579C357.433 116.579 355.393 115.984 353.945 114.791C352.497 113.599 351.773 111.894 351.773 109.676V89.4656H356.512V109.51C356.512 110.702 356.858 111.617 357.549 112.254C358.272 112.892 359.293 113.211 360.61 113.211C362.091 113.211 363.325 112.865 364.312 112.171L365.793 115.041C365.069 115.568 364.196 115.956 363.177 116.205C362.19 116.455 361.153 116.579 360.067 116.579ZM347.33 97.5748V94.2895H364.016V97.5748H347.33ZM387.764 116.33V111.672L387.517 110.799V102.856C387.517 101.165 386.925 99.862 385.74 98.9471C384.588 98.0042 382.844 97.5332 380.507 97.5332C378.96 97.5332 377.447 97.7547 375.966 98.1985C374.485 98.6144 373.234 99.183 372.214 99.9036L370.239 96.9094C371.588 95.9945 373.201 95.3011 375.077 94.8301C376.985 94.3311 378.977 94.0816 381.05 94.0816C384.637 94.0816 387.402 94.8165 389.344 96.2856C391.285 97.7547 392.257 100 392.257 103.022V116.33H387.764ZM379.175 116.579C377.232 116.579 375.521 116.302 374.04 115.748C372.592 115.193 371.473 114.43 370.684 113.46C369.894 112.462 369.499 111.34 369.499 110.092C369.499 108.9 369.827 107.818 370.486 106.848C371.177 105.878 372.279 105.102 373.794 104.52C375.34 103.937 377.414 103.646 380.014 103.646H388.307V106.516H380.211C377.842 106.516 376.245 106.848 375.423 107.514C374.6 108.179 374.189 108.983 374.189 109.926C374.189 111.007 374.698 111.88 375.719 112.546C376.739 113.183 378.154 113.502 379.964 113.502C381.742 113.502 383.288 113.169 384.605 112.504C385.954 111.839 386.925 110.869 387.517 109.593L388.455 112.338C387.83 113.64 386.728 114.68 385.148 115.457C383.568 116.205 381.576 116.579 379.175 116.579ZM401.027 116.33V85.4734H405.766V116.33H401.027Z" fill="white"/>
<path d="M14.017 35.5186V48.1943C14.017 50.2188 14.3305 51.1871 14.853 51.8033C16.0024 52.8596 18.1968 52.7716 19.3463 52.7716H41.0813C43.2757 52.7716 47.0376 52.6836 49.1275 50.571C50.6949 48.8985 51.0083 46.3457 51.0083 44.3212C51.0083 42.5607 50.7994 39.7438 49.4409 38.0714C48.605 37.103 46.5151 35.5186 42.0218 35.5186H14.017ZM14.017 13.0722V26.276H40.7679C43.5892 26.276 46.306 26.276 48.2915 24.0753C48.8139 23.4591 49.8589 22.0507 49.8589 17.8255C49.8589 16.153 49.8589 13.0722 47.4555 11.2236C45.4701 9.55114 43.0667 9.63915 40.6633 9.63915H18.0923C15.689 8.93491 13.5991 11.3116 14.017 13.0722ZM53.7252 30.8532C57.1736 31.1174 59.9949 32.4377 61.7714 34.1102C65.1152 37.4552 65.2197 41.5924 65.2197 45.1134C65.2197 49.2506 65.2197 54.092 61.0399 58.0535C56.8601 62.0143 52.1578 62.0143 47.6645 62.0143H12.6586C9.00126 62.0143 5.65735 62.3665 2.73152 59.5497C2.00005 58.8453 0.223633 56.8207 0.223633 53.2997V9.28703C0.223633 6.91038 0.9551 4.62174 2.52253 2.94924C4.71697 0.748603 7.85183 0.396484 10.2552 0.396484H46.2016C50.2769 0.396484 55.5017 0.748604 59.4724 4.09352C63.5478 7.52653 64.0702 13.3362 64.0702 17.2973C64.0702 20.7303 63.8613 24.0753 60.622 27.3322C58.5321 29.4449 56.5466 30.2371 53.7252 30.5011V30.8532ZM76.1582 15.3608H107.611C112.314 15.3608 116.598 16.7692 119.105 18.9698C121.509 20.9944 123.181 24.6915 123.181 29.973V54.18C123.181 55.8525 122.972 58.4931 120.986 60.1658C119.002 61.8386 115.971 62.0143 113.359 62.0143H86.9213C83.8909 62.0143 80.1291 62.1025 76.8898 59.7254C72.3964 56.3806 72.0829 50.571 72.0829 47.0499C72.0829 42.9128 72.6054 38.7755 76.7852 35.6946C80.2336 33.1419 83.9954 32.9659 86.9213 32.9659H110.955V29.709C110.955 28.3005 110.746 26.7161 109.387 25.3077C107.716 23.5472 105.417 23.2831 103.431 23.2831H76.1582V15.3608ZM110.955 40.8882H90.5786C89.7426 40.8882 87.4438 40.9762 86.0853 42.4727C85.6673 42.9128 84.7269 44.0571 84.7269 47.4901C84.7269 48.8985 84.8314 51.3632 86.3988 52.6836C87.2347 53.3877 88.8022 54.092 90.3696 54.092H107.403C109.074 54.4441 111.582 53.0357 110.955 51.6272V40.8882ZM131.508 62.0143V22.4908C131.508 21.0824 131.612 18.9698 133.285 17.4734C135.688 15.2728 139.346 15.3608 141.748 15.3608H161.289C167.141 15.3608 172.261 15.7129 176.754 19.1459C179.681 21.3466 182.189 24.8676 182.189 31.2934V62.0143H169.963V34.3743C169.963 31.2934 169.648 28.3005 167.664 26.0999C165.887 24.0753 163.379 23.2831 158.886 23.2831H146.451C145.092 22.843 143.211 24.4274 143.734 25.7478V62.0143H131.508ZM229.779 62.0143H210.134C204.491 62.0143 197.594 61.5738 193.414 56.0285C190.593 52.2435 189.13 46.2577 189.13 37.9833C189.13 30.5892 190.07 24.9556 194.981 20.4663C200.206 15.6249 206.372 15.3608 212.015 15.3608H229.883C233.122 15.3608 236.258 15.4488 238.87 17.2093C241.691 19.2339 242.109 21.9627 242.109 23.9873V56.7327C242.109 62.7187 241.273 68 237.616 71.7851C232.6 76.8908 222.881 77.4187 219.121 77.4187H192.997V69.4962H216.299C218.911 69.4962 223.613 69.408 226.54 67.3839C228.316 66.0633 229.465 64.2149 229.779 62.0143ZM229.883 54.092V26.9801C229.883 25.6597 229.674 24.7795 228.316 23.9873C227.166 23.3711 226.225 23.2831 225.077 23.2831H214.627C210.551 23.2831 207.103 24.3394 205.118 26.188C201.774 29.4449 201.774 36.5749 201.774 38.7755C201.774 47.0499 203.55 50.2188 204.909 51.3632C207.73 54.092 211.7 54.092 215.359 54.092H229.883ZM303.892 62.0143H289.262L270.139 44.9373C268.571 43.5289 266.377 41.1523 266.377 37.8953C266.377 34.3743 268.676 32.3497 270.244 30.8532L286.963 15.3608H301.174L280.38 34.1983C279.439 35.1665 278.603 36.0468 278.603 37.5432C278.603 39.0396 279.857 40.536 281.215 41.8564L303.892 62.0143ZM262.72 62.0143H250.494V0.396484H262.72V62.0143ZM330.44 14.8327C337.128 14.8327 346.637 15.0087 352.802 19.7621C359.28 24.6915 359.908 33.6701 359.908 38.5115C359.908 48.4583 356.878 54.268 352.802 57.5247C346.95 62.1899 336.71 62.5421 330.44 62.5421C323.753 62.5421 314.243 62.1899 308.079 57.5247C301.495 52.4195 300.973 43.6169 300.973 38.8635C300.973 33.6701 301.6 24.6915 308.079 19.7621C314.243 15.0087 323.753 14.8327 330.44 14.8327ZM313.617 38.7755C313.617 42.6487 313.721 47.3141 317.169 50.747C320.826 54.18 325.947 54.6201 330.44 54.6201C335.038 54.6201 339.949 54.18 343.606 50.747C347.264 47.3141 347.264 42.9128 347.264 38.7755V35.9588C347.264 32.8779 346.533 29.0047 343.711 26.452C340.054 23.1071 334.934 22.7549 330.44 22.7549C326.469 22.7549 320.513 23.1071 317.065 26.452C313.617 29.797 313.617 35.7827 313.617 38.7755ZM420.224 62.0143H405.594L386.472 44.9373C384.905 43.5289 382.71 41.1523 382.71 37.8953C382.71 34.3743 385.008 32.3497 386.576 30.8532L403.295 15.3608H417.506L396.712 34.1983C395.772 35.1665 394.936 36.0468 394.936 37.5432C394.936 39.0396 396.19 40.536 397.548 41.8564L420.224 62.0143ZM379.052 62.0143H366.826V0.396484H379.052V62.0143Z" fill="white"/>
</svg>
