<svg width="411" height="100" viewBox="0 0 411 100" fill="none" xmlns="http://www.w3.org/2000/svg">
<path d="M153.629 24.8106C154.812 23.9492 155.761 22.8057 156.39 21.4841C157.019 20.1625 157.307 18.7047 157.229 17.2432C157.246 14.4994 156.189 11.8579 154.284 9.88345C151.761 7.36101 147.977 6.09978 143.348 6.09978H126.505C126.283 6.09656 126.062 6.13792 125.856 6.22142C125.651 6.30492 125.464 6.42886 125.307 6.58591C125.15 6.74296 125.026 6.92992 124.942 7.13573C124.859 7.34153 124.817 7.562 124.82 7.78407V44.9981C124.817 45.2198 124.859 45.4399 124.942 45.6453C125.026 45.8507 125.15 46.0371 125.307 46.1935C125.464 46.3499 125.651 46.4731 125.857 46.5557C126.063 46.6384 126.283 46.6787 126.505 46.6744H143.747C153.206 46.6744 159.097 42.0526 159.097 34.7008C159.278 32.6946 158.854 30.6803 157.879 28.9175C156.904 27.1547 155.424 25.7242 153.629 24.8106ZM149.422 34.4853C149.422 37.4228 146.477 38.0534 143.747 38.0534H134.288V31.1326H143.324C147.53 30.9091 149.422 32.1704 149.422 34.4853ZM147.53 18.2969C147.53 20.3963 145.639 21.6575 142.063 21.6575H134.495V14.7208H142.478C145.631 14.7208 147.522 15.982 147.522 18.2969H147.53Z" fill="white"/>
<path d="M202.196 44.3666L185.8 6.72946C185.69 6.42471 185.489 6.16069 185.225 5.97249C184.962 5.78428 184.647 5.68079 184.323 5.67578H178.224C177.902 5.6824 177.589 5.78662 177.326 5.97473C177.064 6.16283 176.865 6.42597 176.756 6.72946L160.36 44.3666C160.237 44.6025 160.191 44.8709 160.228 45.1342C160.266 45.3974 160.384 45.6426 160.567 45.8353C160.709 46.0367 160.898 46.1998 161.118 46.3099C161.338 46.42 161.582 46.4736 161.828 46.4659H168.558C168.876 46.4546 169.184 46.3481 169.441 46.1604C169.699 45.9726 169.894 45.712 170.002 45.4122L173.371 37.4298H188.929L192.289 45.4122C192.399 45.717 192.6 45.981 192.864 46.1692C193.127 46.3574 193.442 46.4609 193.766 46.4659H200.703C200.955 46.4675 201.203 46.4079 201.427 46.2922C201.651 46.1765 201.844 46.0082 201.988 45.8017C202.133 45.5952 202.225 45.3567 202.257 45.1067C202.289 44.8567 202.259 44.6027 202.172 44.3666H202.196ZM185.169 28.5933H177.187L181.178 19.3417L185.169 28.5933Z" fill="white"/>
<path d="M239.832 6.09838H233.311C233.089 6.09512 232.869 6.13652 232.663 6.22012C232.458 6.30371 232.272 6.42778 232.115 6.58494C231.959 6.74211 231.836 6.92914 231.753 7.13491C231.67 7.34068 231.63 7.56097 231.634 7.78267V28.8083L214.6 6.72899C214.458 6.52757 214.269 6.36448 214.049 6.2544C213.829 6.14433 213.585 6.09071 213.339 6.09838H207.24C207.018 6.09512 206.798 6.13652 206.593 6.22012C206.388 6.30371 206.201 6.42778 206.045 6.58494C205.888 6.74211 205.765 6.92914 205.682 7.13491C205.6 7.34068 205.559 7.56097 205.564 7.78267V44.9967C205.561 45.2177 205.602 45.4371 205.685 45.642C205.768 45.8468 205.891 46.0329 206.048 46.1892C206.204 46.3455 206.39 46.4689 206.595 46.552C206.8 46.6351 207.019 46.6762 207.24 46.673H213.762C213.983 46.6762 214.203 46.6351 214.408 46.5521C214.613 46.4691 214.8 46.3458 214.957 46.1897C215.114 46.0335 215.238 45.8475 215.322 45.6426C215.406 45.4377 215.448 45.2181 215.446 44.9967V23.1488L233.103 45.8588C233.245 46.0602 233.434 46.2233 233.654 46.3334C233.874 46.4435 234.118 46.4971 234.364 46.4894H239.832C240.054 46.4926 240.275 46.4513 240.481 46.3678C240.686 46.2843 240.873 46.1603 241.03 46.0033C241.188 45.8462 241.311 45.6593 241.395 45.4535C241.478 45.2477 241.52 45.0272 241.517 44.8051V7.78267C241.52 7.56059 241.478 7.34012 241.395 7.13432C241.311 6.92851 241.188 6.74155 241.03 6.58451C240.873 6.42746 240.686 6.30351 240.481 6.22001C240.275 6.13651 240.054 6.09515 239.832 6.09838Z" fill="white"/>
<path d="M283.982 22.4947H268.425C268.203 22.4915 267.982 22.5329 267.776 22.6164C267.571 22.6999 267.384 22.8238 267.227 22.9809C267.07 23.1379 266.946 23.3249 266.862 23.5307C266.779 23.7365 266.737 23.957 266.74 24.179V29.8545C266.737 30.0766 266.779 30.2971 266.862 30.5029C266.946 30.7087 267.07 30.8956 267.227 31.0527C267.384 31.2097 267.571 31.3337 267.776 31.4172C267.982 31.5007 268.203 31.542 268.425 31.5388H275.992V35.9212C273.775 37.2757 271.231 38.0014 268.632 38.0205C262.119 38.0205 257.457 33.3987 257.457 26.2465C257.457 19.7328 262.087 14.6879 267.97 14.6879C269.705 14.6321 271.435 14.9193 273.06 15.5329C274.684 16.1466 276.172 17.0747 277.437 18.2641C277.774 18.5359 278.203 18.6655 278.634 18.6252C279.065 18.585 279.463 18.378 279.744 18.0485L283.951 13.0037C284.224 12.6666 284.355 12.2363 284.316 11.8041C284.277 11.3719 284.072 10.9719 283.743 10.6888C279.507 7.00674 274.034 5.06461 268.425 5.25273C265.683 5.22389 262.963 5.74268 260.424 6.77867C257.885 7.81467 255.579 9.34704 253.64 11.286C251.701 13.2249 250.169 15.5313 249.133 18.0701C248.097 20.6089 247.578 23.329 247.607 26.0709V26.2784C247.607 38.252 256.443 47.0965 268.632 47.0965C274.715 47.0842 280.598 44.9244 285.244 40.998C285.445 40.8565 285.608 40.6672 285.718 40.447C285.828 40.2269 285.882 39.9828 285.874 39.7368V23.9475C285.459 23.3409 284.829 22.4947 283.982 22.4947Z" fill="white"/>
<path d="M328.556 43.9437L313.206 23.7561L327.718 8.58954C327.928 8.36919 328.076 8.0979 328.149 7.80251C328.222 7.50712 328.216 7.19784 328.133 6.90525C328.022 6.60325 327.823 6.34181 327.56 6.15521C327.298 5.96861 326.986 5.86556 326.664 5.85955H318.259C317.813 5.90122 317.381 6.04311 316.998 6.27464L302.278 22.0798V7.36025C302.281 7.13817 302.24 6.9177 302.156 6.7119C302.073 6.50609 301.949 6.31913 301.792 6.16208C301.635 6.00504 301.448 5.88109 301.242 5.79759C301.036 5.71409 300.816 5.67273 300.594 5.67596H294.08C293.858 5.67273 293.638 5.71409 293.432 5.79759C293.226 5.88109 293.039 6.00504 292.882 6.16208C292.725 6.31913 292.601 6.50609 292.517 6.7119C292.434 6.9177 292.393 7.13817 292.396 7.36025V44.5743C292.387 44.7997 292.424 45.0244 292.505 45.2349C292.586 45.4454 292.71 45.6372 292.867 45.7985C293.025 45.9599 293.214 46.0874 293.422 46.1734C293.631 46.2593 293.855 46.3019 294.08 46.2985H300.594C300.816 46.3017 301.036 46.2603 301.242 46.1768C301.448 46.0933 301.635 45.9694 301.792 45.8123C301.949 45.6553 302.073 45.4683 302.156 45.2625C302.24 45.0567 302.281 44.8363 302.278 44.6142V34.4845L306.269 30.2778L317.628 45.6279C317.771 45.8278 317.961 45.9898 318.181 46.0997C318.4 46.2096 318.644 46.2641 318.889 46.2586H326.872C327.169 46.2513 327.459 46.1702 327.717 46.0225C327.975 45.8747 328.192 45.6651 328.349 45.4124C328.979 45.2049 328.772 44.5743 328.556 43.9437Z" fill="white"/>
<path d="M349.159 5.46867C346.396 5.43176 343.653 5.94174 341.088 6.96925C338.523 7.99676 336.186 9.5215 334.212 11.4557C332.239 13.3899 330.667 15.6953 329.588 18.2393C328.51 20.7833 327.944 23.5156 327.926 26.2788V26.4943C327.926 38.2684 336.97 47.3045 348.951 47.3045C351.731 47.3362 354.49 46.8156 357.066 45.7727C359.643 44.7299 361.987 43.1857 363.963 41.2297C365.938 39.2737 367.505 36.9448 368.573 34.3783C369.641 31.8118 370.189 29.0587 370.185 26.2788C370.185 14.2972 361.149 5.46867 349.159 5.46867ZM360.095 26.2788C360.095 33.008 355.473 37.8453 349.159 37.8453C342.845 37.8453 337.984 32.8005 337.984 26.0713C337.984 19.5576 342.613 14.5048 348.92 14.5048C351.961 14.5904 354.844 15.8775 356.939 18.0841C359.033 20.2908 360.168 23.2373 360.095 26.2788Z" fill="white"/>
<path d="M410.561 43.9437L395.21 23.7561L409.714 8.58954C409.926 8.36999 410.076 8.09908 410.15 7.80364C410.224 7.50821 410.22 7.19852 410.137 6.90525C410.022 6.61047 409.821 6.35669 409.561 6.17618C409.301 5.99567 408.993 5.89657 408.677 5.89148H400.463C400.017 5.93553 399.586 6.07725 399.202 6.30657L384.482 22.0798V7.36025C384.485 7.13885 384.444 6.91905 384.361 6.71378C384.278 6.50851 384.155 6.32191 383.999 6.16498C383.842 6.00804 383.656 5.88393 383.452 5.79994C383.247 5.71596 383.027 5.67381 382.806 5.67596H376.284C376.062 5.6727 375.842 5.71411 375.637 5.7977C375.431 5.88129 375.245 6.00536 375.089 6.16252C374.932 6.31969 374.809 6.50672 374.726 6.71249C374.644 6.91826 374.603 7.13856 374.608 7.36025V44.5743C374.605 44.7957 374.646 45.0155 374.729 45.2207C374.812 45.426 374.935 45.6126 375.091 45.7695C375.247 45.9265 375.433 46.0506 375.638 46.1346C375.843 46.2186 376.063 46.2607 376.284 46.2586H382.806C383.027 46.2618 383.247 46.2204 383.453 46.1368C383.658 46.0532 383.845 45.9292 384.001 45.772C384.158 45.6148 384.281 45.4278 384.363 45.222C384.446 45.0163 384.486 44.796 384.482 44.5743V34.4845L388.473 30.2778L399.824 45.6279C399.968 45.8268 400.158 45.988 400.378 46.0978C400.597 46.2076 400.84 46.2628 401.085 46.2586H409.068C409.365 46.2513 409.655 46.1702 409.913 46.0225C410.171 45.8747 410.388 45.6651 410.545 45.4124C410.976 45.2049 410.976 44.5743 410.561 43.9437Z" fill="white"/>
<path d="M157.62 52.7717H151.107C150.885 52.7684 150.664 52.8098 150.458 52.8933C150.252 52.9768 150.065 53.1007 149.908 53.2578C149.751 53.4148 149.627 53.6018 149.544 53.8076C149.46 54.0134 149.419 54.2339 149.422 54.4559V68.5449H134.703V54.4559C134.706 54.2346 134.665 54.0148 134.582 53.8095C134.499 53.6042 134.376 53.4176 134.219 53.2607C134.063 53.1037 133.877 52.9796 133.672 52.8956C133.467 52.8117 133.248 52.7695 133.026 52.7717H126.505C126.283 52.7684 126.062 52.8098 125.856 52.8933C125.651 52.9768 125.464 53.1007 125.307 53.2578C125.15 53.4148 125.026 53.6018 124.942 53.8076C124.859 54.0134 124.817 54.2339 124.82 54.4559V91.67C124.817 91.892 124.859 92.1125 124.942 92.3183C125.026 92.5241 125.15 92.7111 125.307 92.8681C125.464 93.0252 125.651 93.1491 125.856 93.2326C126.062 93.3161 126.283 93.3575 126.505 93.3543H133.234C133.456 93.3575 133.676 93.3161 133.882 93.2326C134.088 93.1491 134.275 93.0252 134.432 92.8681C134.589 92.7111 134.713 92.5241 134.797 92.3183C134.88 92.1125 134.921 91.892 134.918 91.67V77.581H149.63V91.67C149.627 91.892 149.668 92.1125 149.751 92.3183C149.835 92.5241 149.959 92.7111 150.116 92.8681C150.273 93.0252 150.46 93.1491 150.666 93.2326C150.872 93.3161 151.092 93.3575 151.314 93.3543H157.836C158.057 93.3575 158.278 93.3161 158.483 93.2325C158.688 93.1489 158.875 93.0249 159.031 92.8677C159.188 92.7105 159.311 92.5235 159.393 92.3177C159.476 92.112 159.516 91.8917 159.512 91.67V54.2803C159.403 53.8577 159.16 53.4819 158.818 53.2097C158.477 52.9376 158.057 52.7838 157.62 52.7717Z" fill="white"/>
<path d="M185.799 51.9335C183.035 51.8966 180.292 52.4065 177.726 53.4339C175.161 54.4614 172.824 55.986 170.849 57.9201C168.875 59.8542 167.303 62.1596 166.223 64.7036C165.143 67.2476 164.577 69.98 164.558 72.7437V72.9592C164.558 84.7333 173.602 93.7694 185.583 93.7694C188.363 93.8011 191.122 93.2804 193.699 92.2377C196.277 91.195 198.621 89.6509 200.597 87.695C202.573 85.7391 204.141 83.4103 205.21 80.8438C206.279 78.2772 206.828 75.5239 206.825 72.7437C206.825 60.9696 197.78 51.9335 185.799 51.9335ZM196.727 72.9592C196.727 79.6884 192.105 84.5177 185.799 84.5177C179.493 84.5177 174.623 79.4728 174.623 72.7437C174.623 66.23 179.245 61.1851 185.551 61.1851C191.897 61.3927 196.727 66.254 196.727 72.9592Z" fill="white"/>
<path d="M229.949 68.3308C222.167 66.439 222.167 65.3933 222.167 63.9165C222.167 62.2322 224.058 61.1865 226.796 61.1865C230.272 61.1975 233.656 62.3005 236.471 64.3396C236.649 64.4732 236.857 64.5619 237.076 64.5981C237.296 64.6342 237.521 64.6167 237.732 64.5471C237.948 64.5509 238.161 64.4937 238.346 64.3822C238.531 64.2706 238.68 64.1093 238.778 63.9165L242.146 59.2947C242.266 59.1317 242.351 58.9455 242.395 58.748C242.439 58.5504 242.441 58.3459 242.401 58.1475C242.361 57.9491 242.28 57.7612 242.164 57.5959C242.047 57.4305 241.897 57.2914 241.723 57.1873C237.546 53.8577 232.346 52.0753 227.004 52.1425C218.598 52.1425 212.284 57.4029 212.284 64.7627C212.284 73.3757 219.229 75.938 226.166 77.3749C233.733 79.0592 233.733 80.3204 233.733 81.5816C233.733 83.2579 231.418 84.7746 228.265 84.7746C224.274 84.7746 220.698 83.2978 217.09 80.3603C216.708 80.1231 216.276 79.9782 215.828 79.9372C215.613 79.9335 215.4 79.9907 215.215 80.1022C215.03 80.2137 214.88 80.3751 214.783 80.5678L210.991 85.1897C210.719 85.5277 210.589 85.9586 210.629 86.3908C210.669 86.8231 210.877 87.2226 211.207 87.5046C215.837 91.6195 221.831 93.867 228.026 93.8107C237.277 93.8107 243.583 88.7658 243.583 80.9909C243.615 72.7451 236.679 70.0151 229.949 68.3308Z" fill="white"/>
<path d="M266.741 52.7717H251.423C251.201 52.7684 250.98 52.8098 250.774 52.8933C250.569 52.9768 250.382 53.1007 250.225 53.2578C250.068 53.4148 249.944 53.6018 249.86 53.8076C249.777 54.0134 249.735 54.2339 249.739 54.4559V91.67C249.73 91.8954 249.767 92.1201 249.848 92.3306C249.929 92.5411 250.052 92.7329 250.21 92.8942C250.368 93.0556 250.556 93.1831 250.765 93.2691C250.973 93.355 251.197 93.3976 251.423 93.3942H257.936C258.159 93.3974 258.379 93.356 258.585 93.2725C258.791 93.189 258.978 93.0651 259.135 92.908C259.292 92.751 259.416 92.564 259.499 92.3582C259.583 92.1524 259.624 91.932 259.621 91.7099V81.3647H266.134C276.017 81.3647 282.746 75.6892 282.746 66.8606C282.554 58.2715 276.208 52.7717 266.741 52.7717ZM272.632 67.0522C272.632 70.2452 270.11 72.0971 266.11 72.0971H259.405V62.0233H266.126C269.056 61.8157 272.632 62.6539 272.632 67.0522Z" fill="white"/>
<path d="M296.603 52.7716H290.081C289.859 52.7684 289.638 52.8098 289.433 52.8933C289.227 52.9768 289.04 53.1007 288.883 53.2578C288.726 53.4148 288.602 53.6018 288.518 53.8076C288.435 54.0134 288.393 54.2339 288.397 54.4559V91.67C288.393 91.892 288.435 92.1125 288.518 92.3183C288.602 92.5241 288.726 92.7111 288.883 92.8681C289.04 93.0252 289.227 93.1491 289.433 93.2326C289.638 93.3161 289.859 93.3575 290.081 93.3542H296.603C296.824 93.3575 297.044 93.3161 297.25 93.2325C297.455 93.1489 297.642 93.0248 297.798 92.8677C297.954 92.7105 298.078 92.5235 298.16 92.3177C298.243 92.1119 298.283 91.8917 298.279 91.67V54.2803C298.256 53.8581 298.067 53.4622 297.753 53.1794C297.438 52.8965 297.025 52.7499 296.603 52.7716Z" fill="white"/>
<path d="M336.969 52.772H306.268C306.046 52.7688 305.826 52.8102 305.62 52.8937C305.414 52.9772 305.227 53.1011 305.07 53.2582C304.913 53.4152 304.789 53.6022 304.706 53.808C304.622 54.0138 304.581 54.2343 304.584 54.4563V60.5549C304.581 60.7766 304.622 60.9967 304.706 61.2021C304.789 61.4075 304.914 61.5939 305.071 61.7503C305.228 61.9067 305.415 62.0299 305.621 62.1125C305.826 62.1952 306.047 62.2355 306.268 62.2312H316.151V91.8779C316.147 92.1 316.189 92.3204 316.272 92.5262C316.356 92.7321 316.48 92.919 316.637 93.0761C316.794 93.2331 316.981 93.357 317.187 93.4405C317.392 93.524 317.613 93.5654 317.835 93.5622H324.349C324.571 93.5654 324.791 93.524 324.997 93.4405C325.203 93.357 325.39 93.2331 325.547 93.0761C325.704 92.919 325.828 92.7321 325.911 92.5262C325.995 92.3204 326.036 92.1 326.033 91.8779V62.0237H336.969C337.191 62.0269 337.411 61.9855 337.616 61.9019C337.821 61.8183 338.008 61.6943 338.164 61.5371C338.321 61.3799 338.444 61.1929 338.526 60.9871C338.609 60.7814 338.649 60.5611 338.645 60.3394V54.2807C338.648 54.0673 338.605 53.8558 338.519 53.6602C338.433 53.4647 338.307 53.2897 338.148 53.147C337.99 53.0042 337.803 52.8969 337.599 52.8322C337.396 52.7676 337.181 52.747 336.969 52.772Z" fill="white"/>
<path d="M377.129 91.0402L360.725 53.4031C360.614 53.1011 360.415 52.8397 360.153 52.6531C359.891 52.4665 359.578 52.3634 359.257 52.3574H353.158C352.836 52.3634 352.524 52.4665 352.262 52.6531C352 52.8397 351.8 53.1011 351.689 53.4031L335.285 91.0402C335.166 91.277 335.122 91.5446 335.159 91.8071C335.196 92.0696 335.313 92.3144 335.493 92.509C335.636 92.7089 335.825 92.8708 336.045 92.9807C336.265 93.0906 336.508 93.1451 336.754 93.1396H343.483C343.806 93.1352 344.12 93.0329 344.384 92.8462C344.648 92.6595 344.849 92.3971 344.96 92.0939L348.321 84.1115H363.878L367.247 92.0939C367.358 92.3959 367.557 92.6573 367.82 92.8439C368.082 93.0305 368.394 93.1336 368.716 93.1396H375.652C375.902 93.172 376.155 93.1294 376.379 93.017C376.604 92.9047 376.79 92.7277 376.914 92.509C377.096 92.3159 377.215 92.0714 377.253 91.8086C377.292 91.5458 377.248 91.2775 377.129 91.0402ZM360.095 75.0355H352.112L356.103 65.7839L360.095 75.0355Z" fill="white"/>
<path d="M409.298 83.8869H391.632V54.2802C391.636 54.0581 391.594 53.8376 391.511 53.6318C391.427 53.426 391.303 53.2391 391.146 53.082C390.989 52.925 390.802 52.801 390.596 52.7175C390.391 52.634 390.17 52.5927 389.948 52.5959H383.434C383.212 52.5927 382.992 52.634 382.786 52.7175C382.58 52.801 382.393 52.925 382.236 53.082C382.079 53.2391 381.955 53.426 381.872 53.6318C381.788 53.8376 381.747 54.0581 381.75 54.2802V91.4942C381.747 91.7159 381.788 91.936 381.872 92.1414C381.956 92.3468 382.08 92.5332 382.237 92.6896C382.394 92.846 382.581 92.9692 382.787 93.0518C382.992 93.1344 383.213 93.1748 383.434 93.1705H409.298C409.519 93.1737 409.738 93.1326 409.943 93.0495C410.148 92.9664 410.334 92.843 410.49 92.6867C410.646 92.5304 410.77 92.3443 410.853 92.1395C410.936 91.9346 410.977 91.7152 410.974 91.4942V85.3956C410.951 84.9734 410.762 84.5775 410.448 84.2947C410.133 84.0118 409.72 83.8652 409.298 83.8869Z" fill="white"/>
<path d="M84.6616 49.618H75.2025V58.8697C75.2025 59.7096 74.8716 60.5158 74.2814 61.1134C73.6912 61.7111 72.8893 62.0521 72.0494 62.0626H53.3386C52.502 62.0832 51.7059 62.4275 51.1179 63.023C50.5299 63.6184 50.1956 64.4188 50.1856 65.2556V83.9664C50.1735 84.8026 49.8387 85.6018 49.251 86.1968C48.6634 86.7919 47.8685 87.1368 47.0325 87.1593H28.3137C27.4778 87.1368 26.6828 86.7919 26.0952 86.1968C25.5076 85.6018 25.1727 84.8026 25.1607 83.9664V65.1758C25.1506 64.3389 24.8164 63.5386 24.2284 62.9431C23.6403 62.3476 22.8443 62.0034 22.0076 61.9828H0.774414V99.1968H74.5718C80.5037 99.1484 86.2389 97.0636 90.8171 93.2914C95.3954 89.5192 98.5387 84.2887 99.7207 78.4755C100.903 72.6624 100.052 66.6197 97.3105 61.3591C94.569 56.0984 90.1035 51.9393 84.6616 49.5781V49.618Z" fill="white"/>
<path d="M74.5718 0H0.774414V37.214H22.4307C23.2637 37.2037 24.0597 36.8682 24.6488 36.2791C25.2379 35.69 25.5734 34.894 25.5838 34.061V15.5577C25.5943 14.7178 25.9353 13.9159 26.533 13.3257C27.1306 12.7355 27.9368 12.4046 28.7767 12.4047H47.4476C48.2876 12.4046 49.0937 12.7355 49.6914 13.3257C50.289 13.9159 50.6301 14.7178 50.6406 15.5577V34.2685C50.6509 35.1121 50.9906 35.9183 51.5872 36.5148C52.1838 37.1114 52.9899 37.4511 53.8335 37.4615H72.257C73.1006 37.4718 73.9067 37.8116 74.5033 38.4081C75.0998 39.0047 75.4396 39.8108 75.4499 40.6544V49.8262H84.9171C90.3189 47.3858 94.7279 43.1775 97.417 37.8951C100.106 32.6126 100.915 26.5715 99.7099 20.7678C98.5048 14.964 95.358 9.7442 90.7883 5.9689C86.2186 2.1936 80.4987 0.0882561 74.5718 0Z" fill="white"/>
<path opacity="0.5" d="M22.4307 37.2134C23.2637 37.203 24.0597 36.8675 24.6488 36.2784C25.2379 35.6893 25.5734 34.8934 25.5838 34.0603V15.5571C25.6215 14.678 25.9993 13.848 26.6374 13.2422L0.774414 37.2134H22.4307Z" fill="white"/>
</svg>
