<svg id="Layer_1" data-name="Layer 1" xmlns="http://www.w3.org/2000/svg" viewBox="0 0 411 100"><defs><style>.cls-1{fill:#fff;}.cls-2{fill:#939393;opacity:0.5;isolation:isolate;}.cls-3{fill:#23356f;}</style></defs><path class="cls-1" d="M153.63,25.21a8.83,8.83,0,0,0,2.76-3.33,8.74,8.74,0,0,0,.84-4.24,10.49,10.49,0,0,0-2.95-7.36C151.76,7.76,148,6.5,143.35,6.5H126.5a1.73,1.73,0,0,0-.64.12,1.49,1.49,0,0,0-.55.37,1.68,1.68,0,0,0-.37.54,1.82,1.82,0,0,0-.12.65V45.4a1.73,1.73,0,0,0,.12.64,1.62,1.62,0,0,0,.37.55,1.46,1.46,0,0,0,.55.36,1.41,1.41,0,0,0,.64.12h17.25c9.46,0,15.35-4.62,15.35-12a10.09,10.09,0,0,0-5.47-9.89Zm-4.21,9.67c0,2.94-2.94,3.57-5.67,3.57h-9.46V31.53h9C147.53,31.31,149.42,32.57,149.42,34.88ZM147.53,18.7c0,2.1-1.89,3.36-5.47,3.36h-7.57V15.12h8c3.15,0,5,1.26,5,3.58Z"/><path class="cls-1" d="M202.2,44.77,185.8,7.13a1.6,1.6,0,0,0-.57-.76,1.65,1.65,0,0,0-.91-.3h-6.1a1.66,1.66,0,0,0-.89.3,1.59,1.59,0,0,0-.57.76l-16.4,37.64a1.25,1.25,0,0,0-.13.76,1.22,1.22,0,0,0,.34.7,1.41,1.41,0,0,0,.55.48,1.57,1.57,0,0,0,.71.16h6.73a1.64,1.64,0,0,0,.88-.31,1.6,1.6,0,0,0,.56-.75l3.37-8h15.56l3.36,8a1.6,1.6,0,0,0,.57.76,1.65,1.65,0,0,0,.91.3h6.93A1.58,1.58,0,0,0,202,46.2a1.59,1.59,0,0,0,.27-.69,1.55,1.55,0,0,0-.09-.74ZM185.17,29h-8l4-9.25Z"/><path class="cls-1" d="M239.83,6.5h-6.52a1.63,1.63,0,0,0-.65.12,1.65,1.65,0,0,0-.54.36,1.84,1.84,0,0,0-.37.55,1.82,1.82,0,0,0-.12.65v21l-17-22.08a1.5,1.5,0,0,0-.55-.48,1.44,1.44,0,0,0-.71-.15h-6.1a1.63,1.63,0,0,0-.65.12,1.61,1.61,0,0,0-.91.91,1.82,1.82,0,0,0-.12.65V45.4a1.63,1.63,0,0,0,.49,1.19,1.59,1.59,0,0,0,.55.36,1.55,1.55,0,0,0,.64.12h6.52a1.67,1.67,0,0,0,1.2-.48,1.69,1.69,0,0,0,.36-.55,1.56,1.56,0,0,0,.13-.64V23.55L233.1,46.26a1.51,1.51,0,0,0,1.26.63h5.47a1.82,1.82,0,0,0,.65-.12,1.72,1.72,0,0,0,.55-.37,1.62,1.62,0,0,0,.37-.55,1.75,1.75,0,0,0,.12-.65v-37a1.82,1.82,0,0,0-.12-.65A1.84,1.84,0,0,0,241,7a1.69,1.69,0,0,0-.55-.36A1.63,1.63,0,0,0,239.83,6.5Z"/><path class="cls-1" d="M284,22.89H268.42a1.56,1.56,0,0,0-.64.13,1.46,1.46,0,0,0-.55.36,1.72,1.72,0,0,0-.37.55,1.82,1.82,0,0,0-.12.65v5.67a1.75,1.75,0,0,0,.12.65,1.72,1.72,0,0,0,.37.55,1.62,1.62,0,0,0,.55.37,1.73,1.73,0,0,0,.64.12H276v4.38a14.38,14.38,0,0,1-7.36,2.1c-6.51,0-11.17-4.62-11.17-11.77,0-6.52,4.63-11.56,10.51-11.56a13.22,13.22,0,0,1,5.09.84,13.4,13.4,0,0,1,4.38,2.73,1.6,1.6,0,0,0,1.19.36,1.63,1.63,0,0,0,1.11-.57l4.21-5a1.65,1.65,0,0,0-.21-2.31,22.21,22.21,0,0,0-15.32-5.44,20.59,20.59,0,0,0-20.81,20.82v.21c0,12,8.83,20.82,21,20.82a25.88,25.88,0,0,0,16.61-6.1,1.41,1.41,0,0,0,.48-.55,1.47,1.47,0,0,0,.15-.71V24.35C285.46,23.74,284.83,22.89,284,22.89Z"/><path class="cls-1" d="M328.56,44.34,313.21,24.16,327.72,9a1.7,1.7,0,0,0,.43-.79,1.72,1.72,0,0,0,0-.9,1.63,1.63,0,0,0-.57-.75,1.58,1.58,0,0,0-.9-.29h-8.4a2.93,2.93,0,0,0-1.26.41L302.28,22.48V7.76a1.82,1.82,0,0,0-.12-.65,1.84,1.84,0,0,0-.37-.55,1.46,1.46,0,0,0-.55-.36,1.42,1.42,0,0,0-.65-.12h-6.51a1.47,1.47,0,0,0-.65.12,1.64,1.64,0,0,0-.55.36,1.8,1.8,0,0,0-.36.55,1.47,1.47,0,0,0-.12.65V45a1.48,1.48,0,0,0,.11.66,1.62,1.62,0,0,0,.36.57,1.49,1.49,0,0,0,.55.37,1.69,1.69,0,0,0,.66.13h6.51a1.75,1.75,0,0,0,.65-.12,1.62,1.62,0,0,0,.55-.37,1.72,1.72,0,0,0,.37-.55,1.75,1.75,0,0,0,.12-.65V34.88l4-4.2L317.63,46a1.47,1.47,0,0,0,.55.47,1.57,1.57,0,0,0,.71.16h8a1.81,1.81,0,0,0,.85-.24,1.84,1.84,0,0,0,.63-.61C329,45.6,328.77,45,328.56,44.34Z"/><path class="cls-1" d="M349.16,5.87a20.84,20.84,0,0,0-8.07,1.5,20.86,20.86,0,0,0-11.5,11.27,20.73,20.73,0,0,0-1.66,8v.21c0,11.78,9,20.81,21,20.81a21,21,0,0,0,21.23-21C370.18,14.7,361.15,5.87,349.16,5.87ZM360.1,26.68c0,6.73-4.63,11.56-10.94,11.56S338,33.2,338,26.47c0-6.51,4.63-11.57,10.94-11.57A11.51,11.51,0,0,1,360.1,26.68Z"/><path class="cls-1" d="M410.56,44.34,395.21,24.16,409.71,9a1.64,1.64,0,0,0,.44-.79,1.83,1.83,0,0,0,0-.9,1.63,1.63,0,0,0-.58-.72,1.57,1.57,0,0,0-.88-.29h-8.22a3,3,0,0,0-1.26.42L384.48,22.48V7.76a1.82,1.82,0,0,0-.12-.65,1.8,1.8,0,0,0-.36-.55,1.69,1.69,0,0,0-.55-.36,1.55,1.55,0,0,0-.64-.12h-6.53a1.41,1.41,0,0,0-.64.12,1.46,1.46,0,0,0-.55.36,1.64,1.64,0,0,0-.36.55,1.47,1.47,0,0,0-.12.65V45a1.82,1.82,0,0,0,.12.65,1.69,1.69,0,0,0,1.55,1h6.53a1.73,1.73,0,0,0,.64-.12,1.62,1.62,0,0,0,.55-.37,1.54,1.54,0,0,0,.36-.55,1.42,1.42,0,0,0,.12-.65V34.88l4-4.2L399.82,46a1.59,1.59,0,0,0,.56.47,1.56,1.56,0,0,0,.7.16h8a1.81,1.81,0,0,0,.84-.24,1.87,1.87,0,0,0,.64-.61C411,45.6,411,45,410.56,44.34Z"/><path class="cls-1" d="M157.62,53.17h-6.51a1.75,1.75,0,0,0-.65.12,1.72,1.72,0,0,0-.55.37,1.62,1.62,0,0,0-.37.55,1.75,1.75,0,0,0-.12.65V68.94H134.7V54.86a1.57,1.57,0,0,0-.12-.65,1.54,1.54,0,0,0-.36-.55,1.63,1.63,0,0,0-1.19-.49H126.5a1.73,1.73,0,0,0-.64.12,1.73,1.73,0,0,0-.92.92,1.75,1.75,0,0,0-.12.65V92.07a1.63,1.63,0,0,0,.49,1.2,1.59,1.59,0,0,0,.55.36,1.41,1.41,0,0,0,.64.12h6.73a1.42,1.42,0,0,0,.65-.12,1.69,1.69,0,0,0,.55-.36,1.63,1.63,0,0,0,.49-1.2V78h14.71V92.07a1.63,1.63,0,0,0,.49,1.2,1.59,1.59,0,0,0,.55.36,1.41,1.41,0,0,0,.64.12h6.53a1.41,1.41,0,0,0,.64-.12,1.59,1.59,0,0,0,.55-.36,1.64,1.64,0,0,0,.36-.55,1.47,1.47,0,0,0,.12-.65V54.68a2,2,0,0,0-1.89-1.51Z"/><path class="cls-1" d="M185.8,52.33A21,21,0,0,0,166.22,65.1a21,21,0,0,0-1.66,8v.22c0,11.77,9,20.81,21,20.81a21,21,0,0,0,19.63-12.93,20.83,20.83,0,0,0,1.61-8.1C206.82,61.37,197.78,52.33,185.8,52.33Zm10.93,21c0,6.73-4.63,11.56-10.93,11.56s-11.18-5-11.18-11.78c0-6.51,4.62-11.56,10.93-11.56A11.38,11.38,0,0,1,196.73,73.36Z"/><path class="cls-1" d="M230,68.73c-7.78-1.89-7.78-2.94-7.78-4.41,0-1.69,1.89-2.73,4.63-2.73a16.55,16.55,0,0,1,9.67,3.15,1.51,1.51,0,0,0,.61.26,1.43,1.43,0,0,0,.65,0,1.23,1.23,0,0,0,.62-.17,1.19,1.19,0,0,0,.43-.46l3.37-4.63a1.56,1.56,0,0,0,.25-.54,1.52,1.52,0,0,0,0-.6,1.36,1.36,0,0,0-.24-.55,1.24,1.24,0,0,0-.44-.41A23.11,23.11,0,0,0,227,52.54c-8.4,0-14.72,5.26-14.72,12.62,0,8.61,6.95,11.18,13.89,12.61,7.56,1.69,7.56,3,7.56,4.21,0,1.68-2.31,3.19-5.47,3.19-4,0-7.56-1.47-11.17-4.41a2.81,2.81,0,0,0-1.26-.42,1.13,1.13,0,0,0-.62.16,1.15,1.15,0,0,0-.43.47L211,85.59a1.68,1.68,0,0,0-.36,1.2,1.66,1.66,0,0,0,.58,1.11A24.93,24.93,0,0,0,228,94.21c9.25,0,15.55-5,15.55-12.82C243.62,73.14,236.68,70.41,230,68.73Z"/><path class="cls-1" d="M266.74,53.17H251.42a1.82,1.82,0,0,0-.65.12,1.68,1.68,0,0,0-.54.37,1.49,1.49,0,0,0-.37.55,1.75,1.75,0,0,0-.12.65V92.07a1.67,1.67,0,0,0,.11.66,1.58,1.58,0,0,0,.36.56,1.87,1.87,0,0,0,.55.38,1.68,1.68,0,0,0,.66.12h6.52a1.41,1.41,0,0,0,.64-.12,1.74,1.74,0,0,0,.56-.36,1.8,1.8,0,0,0,.36-.55,1.82,1.82,0,0,0,.12-.65V81.76h6.51c9.89,0,16.62-5.67,16.62-14.5C282.55,58.67,276.21,53.17,266.74,53.17Zm5.89,14.28c0,3.19-2.52,5-6.52,5H259.4V62.42h6.73C269.06,62.21,272.63,63.05,272.63,67.45Z"/><path class="cls-1" d="M296.6,53.17h-6.52a1.63,1.63,0,0,0-1.2.49,1.59,1.59,0,0,0-.36.55,1.42,1.42,0,0,0-.12.65V92.07a1.47,1.47,0,0,0,.12.65,1.61,1.61,0,0,0,.91.91,1.47,1.47,0,0,0,.65.12h6.52a1.47,1.47,0,0,0,.65-.12,1.61,1.61,0,0,0,.91-.91,1.82,1.82,0,0,0,.12-.65V54.68a1.56,1.56,0,0,0-.53-1.1A1.61,1.61,0,0,0,296.6,53.17Z"/><path class="cls-1" d="M337,53.17h-30.7a1.82,1.82,0,0,0-.65.12,1.72,1.72,0,0,0-.55.37,1.46,1.46,0,0,0-.36.55,1.57,1.57,0,0,0-.13.65V61a1.57,1.57,0,0,0,.13.65,1.54,1.54,0,0,0,.36.55,1.64,1.64,0,0,0,.55.36,1.82,1.82,0,0,0,.65.12h9.88V92.28a1.63,1.63,0,0,0,.49,1.2,1.59,1.59,0,0,0,.55.36,1.73,1.73,0,0,0,.64.12h6.52a1.82,1.82,0,0,0,.65-.12,1.61,1.61,0,0,0,.91-.91,1.63,1.63,0,0,0,.12-.65V62.42H337a1.63,1.63,0,0,0,.65-.12,1.65,1.65,0,0,0,.54-.36,1.84,1.84,0,0,0,.37-.55,1.62,1.62,0,0,0,.11-.65V54.68a1.35,1.35,0,0,0-.12-.62,1.46,1.46,0,0,0-.37-.51,1.53,1.53,0,0,0-.55-.32A1.67,1.67,0,0,0,337,53.17Z"/><path class="cls-1" d="M377.13,91.44,360.73,53.8a1.65,1.65,0,0,0-.58-.75,1.57,1.57,0,0,0-.89-.29h-6.1a1.61,1.61,0,0,0-.9.29,1.63,1.63,0,0,0-.57.75l-16.4,37.64a1.28,1.28,0,0,0-.13.77,1.34,1.34,0,0,0,.33.7,1.59,1.59,0,0,0,.56.47,1.56,1.56,0,0,0,.7.16h6.73a1.66,1.66,0,0,0,.9-.29,1.56,1.56,0,0,0,.58-.76l3.36-8h15.56l3.37,8a1.53,1.53,0,0,0,.57.75,1.59,1.59,0,0,0,.9.3h6.93a1.32,1.32,0,0,0,.73-.12,1.3,1.3,0,0,0,.53-.51,1.25,1.25,0,0,0,.34-.7A1.29,1.29,0,0,0,377.13,91.44Zm-17-16h-8l4-9.25Z"/><path class="cls-1" d="M409.3,84.29H391.63V54.68a1.63,1.63,0,0,0-.12-.65,1.8,1.8,0,0,0-.36-.55,1.64,1.64,0,0,0-.55-.36A1.47,1.47,0,0,0,390,53h-6.52a1.41,1.41,0,0,0-.64.12,1.46,1.46,0,0,0-.55.36,1.67,1.67,0,0,0-.37.55,1.82,1.82,0,0,0-.12.65V91.89a1.75,1.75,0,0,0,.12.65,1.72,1.72,0,0,0,.37.55,1.46,1.46,0,0,0,.55.36,1.73,1.73,0,0,0,.64.12H409.3a1.73,1.73,0,0,0,.64-.12,1.69,1.69,0,0,0,.55-.36,1.64,1.64,0,0,0,.36-.55,1.47,1.47,0,0,0,.12-.65v-6.1a1.61,1.61,0,0,0-.52-1.1A1.58,1.58,0,0,0,409.3,84.29Z"/><path class="cls-1" d="M99.72,78.87A25.88,25.88,0,0,1,74.57,99.6H.77V62.38H22a3.25,3.25,0,0,1,1.89.68h0c.11.09.22.18.32.28a3.24,3.24,0,0,1,.93,2.24V84.37a3.25,3.25,0,0,0,.94,2.23,3.28,3.28,0,0,0,2.21,1H47a3.25,3.25,0,0,0,2.22-1,3.29,3.29,0,0,0,.94-2.23V65.65a3.23,3.23,0,0,1,3.15-3.19H72.05a3.19,3.19,0,0,0,3.15-3.19V50h9.46v0l.4.18A25.87,25.87,0,0,1,99.72,78.87Z"/><path class="cls-1" d="M97.42,38.29A26,26,0,0,1,85.06,50.16l-.14.07H75.45V41.05a3.25,3.25,0,0,0-3.19-3.19H53.83a3.18,3.18,0,0,1-2.1-.82.86.86,0,0,1-.14-.13,3.2,3.2,0,0,1-1-2.24V16a3.19,3.19,0,0,0-3.19-3.16H28.78a3.21,3.21,0,0,0-2.25.92l-.13.14a3.25,3.25,0,0,0-.82,2.1v18.5a3.19,3.19,0,0,1-.93,2.22l-.25.22,0,0a3.19,3.19,0,0,1-1.95.69H.77V.4h73.8A26.07,26.07,0,0,1,97.42,38.29Z"/><path class="cls-2" d="M26.64,13.64A3.42,3.42,0,0,0,25.58,16v18.5a3.19,3.19,0,0,1-.93,2.22l-.25.22,0,0a3.19,3.19,0,0,1-1.95.69H.77l25-23.12.68-.63Z"/><path class="cls-3" d="M22,62.38a3.25,3.25,0,0,1,1.89.68,3.14,3.14,0,0,0-1.47-.4H.77v-.28Z"/><path class="cls-3" d="M26.4,13.86l.24-.22A3.42,3.42,0,0,0,25.58,16v18.5a3.19,3.19,0,0,1-.93,2.22l-.25.22a3.25,3.25,0,0,0,.94-2.23V16a3.25,3.25,0,0,1,.95-2.24,3.17,3.17,0,0,1,2.24-.92h.25a3.21,3.21,0,0,0-2.25.92Z"/><path class="cls-3" d="M75.45,40.77v.28a3.25,3.25,0,0,0-3.19-3.19H53.83a3.18,3.18,0,0,1-2.1-.82,3.19,3.19,0,0,0,1.82.57H72.26a3.19,3.19,0,0,1,3.19,3.16Z"/><path class="cls-3" d="M75.2,50h.25v9.42a3.19,3.19,0,0,1-3.19,3.16H53.83a3.25,3.25,0,0,0-3.19,3.19V84.57a3.25,3.25,0,0,1-3.19,3.19H28.78a3.27,3.27,0,0,1-1.57-.43,3.18,3.18,0,0,0,1.1.23H47a3.25,3.25,0,0,0,2.22-1,3.29,3.29,0,0,0,.94-2.23V65.65a3.23,3.23,0,0,1,3.15-3.19H72.05a3.19,3.19,0,0,0,3.15-3.19Z"/></svg>