<svg width="197" height="49" viewBox="0 0 197 49" fill="none" xmlns="http://www.w3.org/2000/svg">
<g clip-path="url(#clip0_1908_960)">
<path d="M75.3416 25.6289H72.2441C71.8444 25.6289 71.4447 25.924 71.4447 26.4157V33.0051H64.4502V26.4157C64.4502 26.0223 64.1504 25.6289 63.6508 25.6289H60.5533C60.1536 25.6289 59.7539 25.924 59.7539 26.4157V43.9218C59.7539 44.3152 60.0537 44.7086 60.5533 44.7086H63.6508C64.0505 44.7086 64.4502 44.4136 64.4502 43.9218V37.3324H71.4447V43.9218C71.4447 44.3152 71.7445 44.7086 72.2441 44.7086H75.3416C75.7413 44.7086 76.141 44.4136 76.141 43.9218V26.4157C76.141 26.0223 75.7413 25.6289 75.3416 25.6289Z" fill="#002D73"/>
<path d="M88.7307 25.334C83.0352 25.334 78.6387 29.6613 78.6387 35.1689V35.2672C78.6387 40.7748 82.9353 45.0038 88.6308 45.0038C94.3263 45.0038 98.7229 40.6764 98.7229 35.1689C98.7229 29.563 94.4263 25.334 88.7307 25.334ZM93.9266 35.1689C93.9266 38.3161 91.7284 40.5781 88.7307 40.5781C85.7331 40.5781 83.4349 38.2177 83.4349 35.0705C83.4349 32.0217 85.6332 29.6613 88.6308 29.6613C91.6285 29.6613 93.9266 32.0217 93.9266 35.1689Z" fill="#002D73"/>
<path d="M109.715 33.0045C106.018 32.1194 106.018 31.6276 106.018 30.9392C106.018 30.1524 106.917 29.6606 108.216 29.6606C109.815 29.6606 111.414 30.1524 112.813 31.1359C113.012 31.2342 113.212 31.3326 113.412 31.2342C113.612 31.2342 113.812 31.1359 113.912 30.9392L115.51 28.7755C115.71 28.4805 115.71 27.9887 115.311 27.792C113.212 26.2184 111.014 25.4316 108.316 25.4316C104.319 25.4316 101.322 27.8904 101.322 31.3326C101.322 35.3649 104.619 36.5451 107.916 37.3319C111.514 38.1187 111.514 38.7088 111.514 39.2989C111.514 40.0857 110.414 40.7741 108.916 40.7741C107.017 40.7741 105.318 40.0857 103.62 38.7088C103.42 38.6104 103.22 38.5121 103.02 38.5121C102.82 38.5121 102.621 38.6104 102.521 38.8071L100.722 40.9708C100.422 41.2658 100.522 41.7576 100.822 42.0526C103.12 44.0196 105.818 45.0031 108.916 45.0031C113.312 45.0031 116.31 42.6427 116.31 39.0038C116.21 35.0698 112.912 33.7913 109.715 33.0045Z" fill="#002D73"/>
<path d="M127.2 25.6289H119.806C119.407 25.6289 119.007 25.924 119.007 26.4157V43.9218C119.007 44.3152 119.307 44.7086 119.806 44.7086H122.904C123.303 44.7086 123.703 44.4136 123.703 43.9218V39.1027H126.801C131.497 39.1027 134.694 36.4473 134.694 32.3166C134.794 28.2843 131.697 25.6289 127.2 25.6289ZM129.998 32.3166C129.998 33.7919 128.799 34.677 126.901 34.677H123.703V29.8579H126.901C128.399 29.9563 129.998 30.3497 129.998 32.3166Z" fill="#002D73"/>
<path d="M141.49 25.6289H138.392C137.992 25.6289 137.593 25.924 137.593 26.4157V43.9218C137.593 44.3152 137.893 44.7086 138.392 44.7086H141.49C141.889 44.7086 142.289 44.4136 142.289 43.9218V26.4157C142.189 26.0223 141.889 25.6289 141.49 25.6289Z" fill="#002D73"/>
<path d="M160.674 25.6289H146.086C145.686 25.6289 145.286 25.924 145.286 26.4157V29.2678C145.286 29.6612 145.586 30.0546 146.086 30.0546H150.782V43.9218C150.782 44.3152 151.082 44.7086 151.581 44.7086H154.679C155.078 44.7086 155.478 44.4136 155.478 43.9218V29.9563H160.674C161.074 29.9563 161.473 29.6612 161.473 29.1695V26.3173C161.473 26.0223 161.174 25.6289 160.674 25.6289Z" fill="#002D73"/>
<path d="M179.76 43.5279L171.966 25.9234C171.866 25.6283 171.566 25.4316 171.266 25.4316H168.369C168.069 25.4316 167.769 25.6283 167.669 25.9234L159.875 43.5279C159.775 43.7246 159.775 44.0196 159.975 44.2163C160.075 44.413 160.375 44.5114 160.575 44.5114H163.772C164.072 44.5114 164.372 44.3147 164.472 44.0196L166.07 40.2823H173.465L175.063 44.0196C175.163 44.3147 175.463 44.5114 175.763 44.5114H179.06C179.36 44.5114 179.56 44.413 179.66 44.2163C179.859 44.0196 179.859 43.8229 179.76 43.5279ZM171.666 36.1517H167.869L169.767 31.8243L171.666 36.1517Z" fill="#002D73"/>
<path d="M195.048 40.1846H186.654V26.4157C186.654 26.0223 186.355 25.6289 185.855 25.6289H182.757C182.358 25.6289 181.958 25.924 181.958 26.4157V43.9218C181.958 44.3152 182.258 44.7086 182.757 44.7086H195.048C195.447 44.7086 195.847 44.4136 195.847 43.9218V41.0697C195.847 40.578 195.547 40.1846 195.048 40.1846Z" fill="#002D73"/>
<path d="M40.6687 24.252H36.1723V28.5793C36.1723 29.3661 35.4728 30.0545 34.6735 30.0545H25.7805C24.9811 30.0545 24.2816 30.743 24.2816 31.5298V40.2829C24.2816 41.0696 23.5822 41.7581 22.7828 41.7581H13.8898C13.0904 41.7581 12.391 41.0696 12.391 40.2829V31.5298C12.391 30.743 11.6915 30.0545 10.8922 30.0545H0.700195V47.5607H35.6727H35.8725C42.6672 47.4623 48.0629 42.0531 48.0629 35.3654C47.963 30.3496 44.9654 26.1206 40.6687 24.252Z" fill="#002D73"/>
<path d="M35.7726 0.943359H0.700195V18.4495H11.092C11.8914 18.4495 12.5908 17.761 12.5908 16.9743V8.22119C12.5908 7.4344 13.2903 6.74595 14.0897 6.74595H22.9827C23.782 6.74595 24.4815 7.4344 24.4815 8.22119V16.9743C24.4815 17.761 25.1809 18.4495 25.9803 18.4495H34.6735C35.4728 18.4495 36.1723 19.1379 36.1723 19.9247V24.2521H40.6687C44.9654 22.3835 47.963 18.0561 47.963 13.1386C47.963 6.45091 42.5673 1.04171 35.7726 0.943359Z" fill="#B21E28"/>
<path opacity="0.5" d="M11.092 18.3505C11.8914 18.3505 12.5908 17.662 12.5908 16.8752V8.22051C12.5908 7.82712 12.7907 7.43372 13.0904 7.13867L0.700195 18.3505H11.092Z" fill="#002D73"/>
<path d="M34.6735 18.3513H25.7805C24.9811 18.3513 24.2816 17.6628 24.2816 16.876V8.22133C24.2816 7.43454 23.5822 6.74609 22.7828 6.74609H13.8898C13.0904 6.74609 12.391 7.43454 12.391 8.22133V16.9744C12.391 17.7612 11.6915 18.4496 10.8922 18.4496H0.700195V30.0548H11.092C11.8914 30.0548 12.5908 30.7433 12.5908 31.5301V40.2831C12.5908 41.0699 13.2903 41.7584 14.0897 41.7584H22.9827C23.782 41.7584 24.4815 41.0699 24.4815 40.2831V31.5301C24.4815 30.7433 25.1809 30.0548 25.9803 30.0548H34.6735C35.4728 30.0548 36.1723 29.3664 36.1723 28.5796V19.8265C36.1723 19.0397 35.4728 18.3513 34.6735 18.3513Z" fill="white"/>
<path d="M75.3413 3.79688H72.2438C71.8441 3.79688 71.4444 4.19027 71.4444 4.58367V11.0747H64.5498V4.58367C64.5498 4.19027 64.1501 3.79688 63.7504 3.79688H60.6529C60.2532 3.79688 59.8535 4.19027 59.8535 4.58367V21.9915C59.8535 22.3848 60.2532 22.7782 60.6529 22.7782H63.7504C64.1501 22.7782 64.5498 22.3848 64.5498 21.9915V15.4021H71.4444V21.9915C71.4444 22.3848 71.8441 22.7782 72.2438 22.7782H75.3413C75.741 22.7782 76.1407 22.3848 76.1407 21.9915V4.58367C76.1407 4.19027 75.741 3.79688 75.3413 3.79688Z" fill="#B21E28"/>
<path d="M94.0264 18.5492H84.6338V15.4021H92.7274C93.1271 15.4021 93.5268 15.0087 93.5268 14.6153V11.8615C93.5268 11.4681 93.1271 11.0747 92.7274 11.0747H84.6338V8.12423H93.8266C94.2263 8.12423 94.6259 7.73084 94.6259 7.33744V4.58367C94.6259 4.19027 94.2263 3.79688 93.8266 3.79688H80.7369C80.3372 3.79688 79.9375 4.19027 79.9375 4.58367V21.9915C79.9375 22.3848 80.3372 22.7782 80.7369 22.7782H94.0264C94.4261 22.7782 94.8258 22.3848 94.8258 21.9915V19.2377C94.8258 18.8443 94.526 18.5492 94.0264 18.5492Z" fill="#B21E28"/>
<path d="M116.509 21.6958L108.715 4.09135C108.615 3.79631 108.315 3.59961 108.015 3.59961H105.118C104.818 3.59961 104.518 3.79631 104.418 4.09135L96.6242 21.6958C96.5243 21.8925 96.5243 22.1876 96.7241 22.4826C96.8241 22.6793 97.1238 22.876 97.4236 22.876H100.621C100.921 22.876 101.221 22.6793 101.321 22.3843L102.919 18.647H110.214L111.812 22.3843C111.912 22.6793 112.212 22.876 112.512 22.876H115.809C116.109 22.876 116.309 22.7777 116.509 22.4826C116.609 22.1876 116.609 21.9909 116.509 21.6958ZM108.415 14.3197H104.718L106.516 10.0906L108.415 14.3197Z" fill="#B21E28"/>
<path d="M135.594 21.5981L131.397 15.7955C133.795 14.7136 135.094 12.7466 135.094 10.0912C135.094 8.41928 134.495 6.94404 133.396 5.76386C132.097 4.48532 130.098 3.79688 127.7 3.79688H119.806C119.407 3.79688 119.007 4.19027 119.007 4.58367V21.9915C119.007 22.3848 119.407 22.7782 119.806 22.7782H122.904C123.303 22.7782 123.703 22.3848 123.703 21.9915V16.6806H126.401L130.498 22.3848C130.598 22.5815 130.897 22.6799 131.097 22.6799H134.794C135.094 22.6799 135.394 22.4832 135.494 22.2865C135.794 22.0898 135.794 21.7948 135.594 21.5981ZM123.803 8.12423H127.5C129.399 8.12423 130.398 8.81268 130.398 10.2879C130.398 11.6648 129.299 12.4516 127.5 12.4516H123.703V8.12423H123.803Z" fill="#B21E28"/>
<path d="M153.78 3.79688H138.192C137.792 3.79688 137.393 4.19027 137.393 4.58367V7.43579C137.393 7.82919 137.792 8.22258 138.192 8.22258H143.388V21.9915C143.388 22.3848 143.788 22.7782 144.187 22.7782H147.285C147.684 22.7782 148.084 22.3848 148.084 21.9915V8.22258H153.78C154.179 8.22258 154.579 7.82919 154.579 7.43579V4.58367C154.579 4.19027 154.279 3.79688 153.78 3.79688Z" fill="#B21E28"/>
</g>
<defs>
<clipPath id="clip0_1908_960">
<rect width="195.846" height="47.2076" fill="white" transform="translate(0.700195 0.943359)"/>
</clipPath>
</defs>
</svg>
