<svg width="189" height="33" viewBox="0 0 189 33" fill="none" xmlns="http://www.w3.org/2000/svg">
<g clip-path="url(#clip0_1908_988)">
<path d="M50.7004 17.4453H48.5921C48.311 17.4453 48.0651 17.6874 48.0651 17.9641V22.3909H43.3567V17.9641C43.3567 17.6874 43.1107 17.4453 42.8296 17.4453H40.7214C40.4403 17.4453 40.1943 17.6874 40.1943 17.9641V29.7227C40.1943 29.9994 40.4403 30.2415 40.7214 30.2415H42.8296C43.1107 30.2415 43.3567 29.9994 43.3567 29.7227V25.2959H48.0651V29.7227C48.0651 29.9994 48.311 30.2415 48.5921 30.2415H50.7004C50.9815 30.2415 51.2274 29.9994 51.2274 29.7227V17.9641C51.2274 17.6874 50.9815 17.4453 50.7004 17.4453Z" fill="#002D73"/>
<path d="M59.7307 17.2383C55.9359 17.2383 52.9492 20.1434 52.9492 23.8439V23.8785C52.9492 27.6136 55.8656 30.4495 59.6956 30.4495C63.4904 30.4495 66.477 27.5444 66.477 23.8093C66.477 20.0742 63.5607 17.2383 59.7307 17.2383ZM63.2444 23.8439C63.2444 25.9535 61.7335 27.5098 59.7307 27.5098C57.6927 27.5098 56.1818 25.9189 56.1818 23.8093C56.1818 21.7342 57.6927 20.1779 59.6956 20.1779C61.6984 20.1779 63.2444 21.7688 63.2444 23.8439Z" fill="#002D73"/>
<path d="M73.8553 22.4251C71.3606 21.8718 71.3606 21.5259 71.3606 21.0417C71.3606 20.523 71.9579 20.1426 72.8363 20.1426C73.9256 20.1426 74.9797 20.4884 75.9284 21.1801C76.0338 21.2492 76.1744 21.2838 76.3149 21.2838C76.4555 21.2492 76.5609 21.1801 76.6663 21.0763L77.7204 19.5892C77.8609 19.3817 77.8258 19.0704 77.615 18.8975C76.2095 17.8254 74.7337 17.3066 72.9066 17.3066C70.201 17.3066 68.1982 18.9667 68.1982 21.2492C68.1982 23.9814 70.4119 24.7423 72.6606 25.261C75.0851 25.8144 75.0851 26.1948 75.0851 26.6098C75.0851 27.1632 74.3472 27.5782 73.3634 27.5782C72.0633 27.5782 70.9389 27.1286 69.7794 26.1602C69.674 26.0565 69.5334 26.0219 69.3929 26.0565C69.2523 26.0565 69.1118 26.1256 69.0415 26.2294L67.8117 27.7165C67.636 27.924 67.6712 28.2353 67.882 28.4082C69.3929 29.7224 71.2903 30.4141 73.2931 30.4141C76.2798 30.4141 78.2826 28.7886 78.2826 26.3677C78.2826 23.7739 76.0338 22.9093 73.8553 22.4251Z" fill="#002D73"/>
<path d="M85.6621 17.4453H80.7077C80.4266 17.4453 80.1807 17.6874 80.1807 17.9641V29.7227C80.1807 29.9994 80.4266 30.2415 80.7077 30.2415H82.816C83.097 30.2415 83.343 29.9994 83.343 29.7227V26.4372H85.4512C88.6487 26.4372 90.7921 24.6043 90.7921 21.8721C90.757 19.2437 88.719 17.4453 85.6621 17.4453ZM87.5595 21.9759C87.5595 22.9442 86.7513 23.5667 85.4864 23.5667H83.3079V20.3504H85.4864C86.4351 20.3504 87.5595 20.6271 87.5595 21.9759Z" fill="#002D73"/>
<path d="M95.2544 17.4453H93.1462C92.8651 17.4453 92.6191 17.6874 92.6191 17.9641V29.7227C92.6191 29.9994 92.8651 30.2415 93.1462 30.2415H95.2544C95.5355 30.2415 95.7815 29.9994 95.7815 29.7227V17.9641C95.7815 17.6874 95.5355 17.4453 95.2544 17.4453Z" fill="#002D73"/>
<path d="M108.22 17.4453H98.3815C98.1004 17.4453 97.8545 17.6874 97.8545 17.9641V19.8662C97.8545 20.1429 98.1004 20.385 98.3815 20.385H101.579V29.7227C101.579 29.9994 101.825 30.2415 102.106 30.2415H104.214C104.495 30.2415 104.741 29.9994 104.741 29.7227V20.385H108.255C108.536 20.385 108.782 20.1429 108.782 19.8662V17.9641C108.747 17.6874 108.501 17.4453 108.22 17.4453Z" fill="#002D73"/>
<path d="M121.045 29.5155L115.774 17.6531C115.704 17.4801 115.493 17.3418 115.282 17.3418H113.35C113.139 17.3418 112.963 17.4455 112.858 17.6531L107.587 29.5155C107.517 29.6884 107.517 29.8613 107.622 29.9996C107.728 30.138 107.868 30.2417 108.044 30.2417H110.187C110.398 30.2417 110.574 30.1034 110.679 29.9305L111.768 27.4058H116.723L117.812 29.9305C117.882 30.1034 118.093 30.2417 118.304 30.2417H120.518C120.693 30.2417 120.869 30.138 120.939 29.9996C121.115 29.8613 121.115 29.6884 121.045 29.5155ZM115.598 24.5353H113.068L114.333 21.6302L115.598 24.5353Z" fill="#002D73"/>
<path d="M131.375 27.2686H125.718V17.9309C125.718 17.6542 125.472 17.4121 125.191 17.4121H123.083C122.802 17.4121 122.556 17.6542 122.556 17.9309V29.6895C122.556 29.9662 122.802 30.2083 123.083 30.2083H131.375C131.656 30.2083 131.902 29.9662 131.902 29.6895V27.7874C131.902 27.5107 131.656 27.2686 131.375 27.2686Z" fill="#002D73"/>
<path d="M42.8296 2.74609H40.7214C40.4403 2.74609 40.1943 2.98818 40.1943 3.26486V15.0235C40.1943 15.3002 40.4403 15.5423 40.7214 15.5423H42.8296C43.1107 15.5423 43.3567 15.3002 43.3567 15.0235V3.26486C43.3567 2.98818 43.1459 2.74609 42.8296 2.74609Z" fill="#B21E28"/>
<path d="M56.5331 2.74609H54.46C54.1789 2.74609 53.933 2.98818 53.933 3.26486V9.87046L48.4867 2.9536C48.3813 2.81526 48.2408 2.74609 48.0651 2.74609H46.1325C45.8514 2.74609 45.6055 2.98818 45.6055 3.26486V15.0235C45.6055 15.3002 45.8514 15.5423 46.1325 15.5423H48.2056C48.4867 15.5423 48.7327 15.3002 48.7327 15.0235V8.17583L54.3546 15.3348C54.46 15.4731 54.6006 15.5423 54.7763 15.5423H56.5331C56.8142 15.5423 57.0602 15.3002 57.0602 15.0235V3.26486C57.0602 2.98818 56.8142 2.74609 56.5331 2.74609Z" fill="#B21E28"/>
<path d="M68.5501 2.74609H58.8523C58.5712 2.74609 58.3252 2.98818 58.3252 3.26486V5.16699C58.3252 5.44367 58.5712 5.68576 58.8523 5.68576H62.12V15.0235C62.12 15.3002 62.366 15.5423 62.6471 15.5423H64.7553C65.0364 15.5423 65.2824 15.3002 65.2824 15.0235V5.68576H68.5501C68.8312 5.68576 69.0772 5.44367 69.0772 5.16699V3.26486C69.0772 2.98818 68.8312 2.74609 68.5501 2.74609Z" fill="#B21E28"/>
<path d="M79.7585 12.6372H73.4338V10.5276H78.8801C79.1612 10.5276 79.4072 10.2855 79.4072 10.0088V8.14124C79.4072 7.86457 79.1612 7.62248 78.8801 7.62248H73.4338V5.61659H79.6531C79.9342 5.61659 80.1802 5.3745 80.1802 5.09783V3.26486C80.1802 2.98818 79.9342 2.74609 79.6531 2.74609H70.7985C70.5174 2.74609 70.2715 2.98818 70.2715 3.26486V15.0235C70.2715 15.3002 70.5174 15.5423 70.7985 15.5423H79.7234C80.0045 15.5423 80.2504 15.3002 80.2504 15.0235V13.1905C80.2856 12.8793 80.0396 12.6372 79.7585 12.6372Z" fill="#B21E28"/>
<path d="M90.1244 10.8394C91.7407 10.1477 92.6543 8.79892 92.6543 7.00053C92.6543 5.85925 92.2678 4.85631 91.4948 4.09545C90.5812 3.23085 89.2811 2.78125 87.6648 2.78125H82.3591C82.078 2.78125 81.832 3.02334 81.832 3.30001V15.0587C81.832 15.3353 82.078 15.5774 82.3591 15.5774H84.4673C84.7484 15.5774 84.9944 15.3353 84.9944 15.0587V11.4273H86.8215L89.5974 15.3008C89.7028 15.4391 89.8433 15.5083 90.019 15.5083H92.5137C92.7246 15.5083 92.9002 15.4045 92.9705 15.2316C93.0759 15.0587 93.0408 14.8512 92.9354 14.6782L90.1244 10.8394ZM84.9592 5.65175H87.4891C88.3676 5.65175 89.4217 5.89384 89.4217 7.10429C89.4217 8.00348 88.6838 8.55683 87.4891 8.55683H84.9592V5.65175Z" fill="#B21E28"/>
<path d="M105.198 2.74609H103.125C102.844 2.74609 102.598 2.98818 102.598 3.26486V9.87046L97.1518 2.9536C97.0463 2.81526 96.9058 2.74609 96.7301 2.74609H94.7976C94.5165 2.74609 94.2705 2.98818 94.2705 3.26486V15.0235C94.2705 15.3002 94.5165 15.5423 94.7976 15.5423H96.8707C97.1518 15.5423 97.3977 15.3002 97.3977 15.0235V8.17583L103.02 15.3348C103.125 15.4731 103.266 15.5423 103.441 15.5423H105.198C105.479 15.5423 105.725 15.3002 105.725 15.0235V3.26486C105.725 2.98818 105.479 2.74609 105.198 2.74609Z" fill="#B21E28"/>
<path d="M115.037 2.98899C114.966 2.81607 114.756 2.67773 114.545 2.67773H112.612C112.401 2.67773 112.226 2.81607 112.12 2.98899L106.85 14.8168C106.779 14.9897 106.779 15.1627 106.885 15.301C106.99 15.4393 107.131 15.5431 107.342 15.5431H109.485C109.696 15.5431 109.872 15.4048 109.977 15.2318L111.066 12.7072H116.021L117.11 15.2318C117.18 15.4393 117.391 15.5431 117.602 15.5431H119.815C119.991 15.5431 120.167 15.4393 120.272 15.301C120.378 15.1627 120.378 14.9552 120.307 14.8168L115.037 2.98899ZM114.791 9.83668H112.296L113.561 6.96619L114.791 9.83668Z" fill="#B21E28"/>
<path d="M129.232 2.74609H119.534C119.253 2.74609 119.007 2.98818 119.007 3.26486V5.16699C119.007 5.44367 119.253 5.68576 119.534 5.68576H122.802V15.0235C122.802 15.3002 123.048 15.5423 123.329 15.5423H125.437C125.718 15.5423 125.964 15.3002 125.964 15.0235V5.68576H129.232C129.513 5.68576 129.759 5.44367 129.759 5.16699V3.26486C129.759 2.98818 129.548 2.74609 129.232 2.74609Z" fill="#B21E28"/>
<path d="M133.764 2.74609H131.656C131.375 2.74609 131.129 2.98818 131.129 3.26486V15.0235C131.129 15.3002 131.375 15.5423 131.656 15.5423H133.764C134.045 15.5423 134.291 15.3002 134.291 15.0235V3.26486C134.291 2.98818 134.045 2.74609 133.764 2.74609Z" fill="#B21E28"/>
<path d="M142.76 2.53906C138.965 2.53906 135.979 5.44414 135.979 9.14466V9.17924C135.979 12.9143 138.895 15.7503 142.725 15.7503C146.52 15.7503 149.506 12.8452 149.506 9.11008C149.541 5.37497 146.625 2.53906 142.76 2.53906ZM142.76 12.776C140.757 12.776 139.211 11.2197 139.211 9.11008C139.211 7.03502 140.722 5.51331 142.725 5.51331C144.728 5.51331 146.274 7.0696 146.274 9.14466V9.17924C146.274 11.2197 144.763 12.776 142.76 12.776Z" fill="#B21E28"/>
<path d="M162.05 2.74609H159.977C159.696 2.74609 159.45 2.98818 159.45 3.26486V9.87046L154.003 2.9536C153.898 2.81526 153.757 2.74609 153.582 2.74609H151.649C151.368 2.74609 151.122 2.98818 151.122 3.26486V15.0235C151.122 15.3002 151.368 15.5423 151.649 15.5423H153.722C154.003 15.5423 154.249 15.3002 154.249 15.0235V8.17583L159.871 15.3348C159.977 15.4731 160.117 15.5423 160.293 15.5423H162.05C162.331 15.5423 162.577 15.3002 162.577 15.0235V3.26486C162.577 2.98818 162.331 2.74609 162.05 2.74609Z" fill="#B21E28"/>
<path d="M171.888 2.98899C171.818 2.81607 171.607 2.67773 171.396 2.67773H169.464C169.253 2.67773 169.077 2.81607 168.972 2.98899L163.701 14.8168C163.631 14.9897 163.631 15.1627 163.736 15.301C163.842 15.4393 163.982 15.5431 164.193 15.5431H166.337C166.547 15.5431 166.723 15.4048 166.829 15.2318L167.918 12.7072H172.872L173.961 15.2318C174.032 15.4393 174.242 15.5431 174.453 15.5431H176.667C176.843 15.5431 177.018 15.4393 177.124 15.301C177.229 15.1627 177.229 14.9552 177.159 14.8168L171.888 2.98899ZM171.642 9.83668H169.148L170.413 6.96619L171.642 9.83668Z" fill="#B21E28"/>
<path d="M187.173 12.6026H181.41V3.26486C181.41 2.98818 181.164 2.74609 180.883 2.74609H178.775C178.494 2.74609 178.248 2.98818 178.248 3.26486V15.0235C178.248 15.3002 178.494 15.5423 178.775 15.5423H187.138C187.419 15.5423 187.665 15.3002 187.665 15.0235V13.156C187.7 12.8447 187.454 12.6026 187.173 12.6026Z" fill="#B21E28"/>
<path d="M27.334 16.5117H24.3122V19.4514C24.3122 20.0047 23.8555 20.4197 23.3284 20.4197H17.3551C16.7929 20.4197 16.3712 20.8693 16.3712 21.3881V27.2674C16.3712 27.8208 15.9144 28.2358 15.3874 28.2358H9.41407C8.85187 28.2358 8.43023 27.7862 8.43023 27.2674V21.3881C8.43023 20.8348 7.97344 20.4197 7.44638 20.4197H0.418945V32.1784H23.9609H24.0663C28.6341 32.1092 32.2884 28.4779 32.2884 23.9819C32.2884 20.6272 30.2504 17.7568 27.334 16.5117Z" fill="#002D73"/>
<path d="M24.0663 0.810547H0.418945V12.5692H7.37611C7.9383 12.5692 8.35995 12.1196 8.35995 11.6008V5.72152C8.35995 5.16817 8.81673 4.75316 9.34379 4.75316H15.3171C15.8793 4.75316 16.301 5.20275 16.301 5.72152V11.6008C16.301 12.1542 16.7577 12.5692 17.2848 12.5692H23.2581C23.8203 12.5692 24.242 13.0188 24.242 13.5376V16.4772H27.2638C30.1801 15.1976 32.2181 12.3271 32.2181 8.97244C32.2884 4.51107 28.6341 0.879715 24.0663 0.810547Z" fill="#B21E28"/>
<path opacity="0.5" d="M7.37613 12.5687C7.93832 12.5687 8.35997 12.1191 8.35997 11.6003V5.72098C8.35997 5.44431 8.46538 5.20222 8.6762 5.0293L0.454102 12.5687H7.37613Z" fill="#002D73"/>
<path d="M23.3284 12.57H17.3551C16.7929 12.57 16.3712 12.1204 16.3712 11.6016V5.72227C16.3712 5.16892 15.9144 4.75391 15.3874 4.75391H9.41407C8.85187 4.75391 8.43023 5.2035 8.43023 5.72227V11.6016C8.43023 12.1549 7.97344 12.57 7.44638 12.57H0.418945V20.4206H7.37611C7.9383 20.4206 8.35995 20.8702 8.35995 21.3889V27.2683C8.35995 27.8216 8.81673 28.2366 9.34379 28.2366H15.3171C15.8793 28.2366 16.301 27.787 16.301 27.2683V21.3889C16.301 20.8356 16.7577 20.4206 17.2848 20.4206H23.2581C23.8203 20.4206 24.242 19.971 24.242 19.4522V13.5729C24.3122 13.0196 23.8906 12.57 23.3284 12.57Z" fill="white"/>
</g>
<defs>
<clipPath id="clip0_1908_988">
<rect width="187.852" height="31.4717" fill="white" transform="translate(0.418945 0.810547)"/>
</clipPath>
</defs>
</svg>
