<svg width="64" height="64" viewBox="0 0 64 64" fill="none" xmlns="http://www.w3.org/2000/svg">
<path d="M17.1432 33.5171C19.6373 36.0037 24.0665 35.6376 27.0143 32.7011C27.3352 32.3764 27.6335 32.0272 27.899 31.6667C28.9651 30.2206 30.2439 28.944 31.6919 27.8804C32.0469 27.6175 32.3825 27.3294 32.6961 27.0183C35.6326 24.0724 35.994 19.6432 33.499 17.1482C32.6991 16.3607 31.6855 15.8256 30.5841 15.6093C25.8472 14.6578 21.2665 12.078 17.339 8.15051L12.1879 2.99756C11.7766 2.58721 11.2307 2.36133 10.65 2.36133C10.0693 2.36133 9.52343 2.58721 9.11308 2.99756L2.99167 9.11898C2.58037 9.52933 2.35449 10.0752 2.35449 10.6559C2.35449 11.2366 2.58037 11.7825 2.99167 12.1929L8.14367 17.3458C12.027 21.2291 14.6105 25.8258 15.6138 30.6371C15.8304 31.7262 16.3622 32.7277 17.1432 33.5171ZM61.0077 51.8296L55.8557 46.6766C51.9714 42.7924 49.3879 38.1966 48.3855 33.3853C48.1687 32.2963 47.6369 31.2949 46.8561 30.5053C44.3611 28.0187 39.9319 28.3839 36.9851 31.3213C36.6651 31.646 36.3658 31.9943 36.1004 32.3566C35.0341 33.8027 33.7554 35.0792 32.3074 36.143C31.9521 36.4055 31.6162 36.6933 31.3023 37.0042C28.3658 39.95 28.0053 44.3792 30.5004 46.8743C31.3005 47.6613 32.314 48.1963 33.4152 48.4131C38.1521 49.3646 42.7328 51.9444 46.6604 55.8719L51.8124 61.0249C52.6331 61.8456 54.0655 61.8456 54.8872 61.0249L61.0077 54.9044C61.419 54.494 61.6448 53.9472 61.6448 53.3665C61.6448 52.7858 61.419 52.2399 61.0077 51.8296ZM33.3606 27.6846C33.0114 28.031 32.6387 28.351 32.25 28.6371C30.8786 29.6444 29.6674 30.8534 28.6575 32.223C28.3658 32.6211 28.0364 33.006 27.6806 33.3646C26.9277 34.1157 26.0834 34.7058 25.1987 35.15L28.858 38.8093C29.3013 37.9284 29.8905 37.087 30.6387 36.3378C30.9888 35.9905 31.3615 35.6714 31.7493 35.3853C33.1209 34.3782 34.3321 33.1692 35.3418 31.7994C35.6336 31.4004 35.963 31.0164 36.3178 30.6569C37.0707 29.9077 37.9131 29.3176 38.7959 28.8733L35.1385 25.2169C34.6803 26.1286 34.0808 26.9617 33.3606 27.6846ZM41.6514 20.5703C41.6514 20.6107 41.6608 20.6503 41.6627 20.6898C41.691 21.1745 41.882 21.6517 42.2519 22.0216C42.3244 22.0931 42.4044 22.1514 42.4834 22.2098C42.8341 22.478 43.2636 22.6229 43.7051 22.622C44.0119 22.622 44.315 22.5467 44.5964 22.4103C44.8055 22.3132 44.9965 22.1811 45.1611 22.0197L45.9592 21.2197L48.7978 18.3811C49.1855 17.9933 49.4001 17.4776 49.4001 16.9279C49.4001 16.3783 49.1855 15.8644 48.7978 15.4757C48.6153 15.2958 48.3991 15.1538 48.1615 15.0578C47.6518 14.8461 47.0799 14.8394 46.5653 15.039C46.3131 15.1363 46.084 15.285 45.8924 15.4757L43.5281 17.8399L42.2538 19.1105C42.1954 19.1698 42.1503 19.2366 42.1013 19.3006C41.8126 19.6603 41.654 20.1071 41.6514 20.5684V20.5703ZM36.347 15.7279C36.3939 15.9019 36.4642 16.0688 36.5559 16.2239C36.634 16.3557 36.7244 16.4799 36.8336 16.5929C36.8467 16.607 36.8543 16.6239 36.8674 16.6371C36.9427 16.7124 37.0293 16.7717 37.114 16.8329C37.2175 16.9091 37.3277 16.974 37.4453 17.0277C37.515 17.0616 37.579 17.102 37.6524 17.1265C37.8736 17.2027 38.0976 17.2394 38.3178 17.2394C38.4976 17.2394 38.6717 17.2018 38.842 17.1566C39.1687 17.0742 39.4698 16.9122 39.7186 16.6851C39.9675 16.458 40.1562 16.1728 40.2679 15.855L41.4001 12.5402L41.9347 10.9825C42.0332 10.6943 42.0664 10.3879 42.0321 10.0853C41.9977 9.78269 41.8966 9.4915 41.7361 9.23272C41.5756 8.97393 41.3596 8.75402 41.1037 8.58885C40.8479 8.42367 40.5585 8.31735 40.2566 8.27756C39.8571 8.22649 39.4514 8.29359 39.0896 8.47055C38.7278 8.64752 38.4258 8.92661 38.2208 9.27333C38.1936 9.31945 38.1766 9.37215 38.1531 9.42015C38.1164 9.49545 38.0759 9.56698 38.0477 9.64792V9.65074L38.0467 9.65262L37.9752 9.85968L36.3761 14.5166C36.3686 14.5411 36.3695 14.5665 36.362 14.5919C36.3237 14.7225 36.2978 14.8564 36.2848 14.9919C36.2792 15.0437 36.2726 15.0936 36.2717 15.1453C36.2717 15.1623 36.2679 15.1792 36.2679 15.1962C36.2679 15.3383 36.2848 15.4785 36.3131 15.6169C36.3216 15.6545 36.3366 15.6903 36.347 15.7279ZM47.5037 24.6531C47.4848 24.6776 47.4623 24.7002 47.4434 24.7256C47.3681 24.8272 47.2994 24.9345 47.242 25.0493C47.2015 25.134 47.1743 25.2225 47.146 25.311C47.0019 25.7351 47.0019 26.195 47.146 26.6192C47.1771 26.7114 47.2251 26.7933 47.2684 26.878C47.3164 26.974 47.3719 27.0663 47.434 27.1529C47.4961 27.2394 47.5583 27.3279 47.6345 27.4042C47.9059 27.6776 48.249 27.8698 48.6243 27.9567C48.9997 28.0436 49.3919 28.0227 49.7559 27.8964L52.9531 26.799L54.6303 26.2258C55.1479 26.047 55.562 25.6799 55.8067 25.1811C55.8463 25.0992 55.8726 25.0117 55.9008 24.926C56.042 24.5006 56.0496 24.046 55.9008 23.615C55.7233 23.1004 55.349 22.6771 54.86 22.4379C54.371 22.1987 53.8071 22.163 53.2919 22.3387L52.2416 22.6983L48.4185 24.0056C48.0591 24.1317 47.7422 24.3561 47.5037 24.6531ZM27.3098 47.5745C27.108 47.389 26.8708 47.2462 26.6124 47.1547C26.2346 47.0257 25.8274 47.0094 25.4405 47.1078C25.0536 47.2063 24.7037 47.4152 24.4335 47.7091L24.4147 47.726C24.2359 47.9256 24.0938 48.1618 24.0006 48.431L22.33 53.2997L22.3291 53.3034C22.1597 53.8046 22.1902 54.3518 22.4143 54.831C22.6384 55.3101 23.0387 55.6844 23.5319 55.8757C23.5583 55.8851 23.5799 55.9011 23.6063 55.9096L23.6081 55.9105C23.8246 55.9858 24.0505 56.0234 24.267 56.0234C24.8364 56.0234 25.3663 55.7703 25.7531 55.3599C25.9488 55.1529 26.1183 54.9194 26.2171 54.6333L26.9634 52.4573L27.8914 49.7656C28.1455 49.0126 27.9573 48.2032 27.402 47.6479C27.3738 47.6197 27.339 47.6009 27.3098 47.5745ZM22.6208 43.7129C22.6208 43.4164 22.5474 43.1237 22.4166 42.8507C22.3181 42.6316 22.1814 42.4318 22.0128 42.2606C21.6271 41.8763 21.1047 41.6605 20.5601 41.6605C20.0156 41.6605 19.4932 41.8763 19.1074 42.2606L16.7921 44.5759L15.4679 45.8973C15.3879 45.9783 15.3211 46.0667 15.2561 46.1571C15.0028 46.5042 14.866 46.9227 14.8656 47.3524V47.3562C14.8656 47.4766 14.8797 47.5943 14.9004 47.7119C14.9032 47.727 14.9023 47.742 14.9051 47.7571C14.9098 47.7806 14.9201 47.8023 14.9258 47.8258C15.0431 48.3359 15.3526 48.7812 15.7898 49.0691C16.1314 49.2959 16.5211 49.4079 16.9173 49.4079C17.4444 49.4079 17.9714 49.2103 18.3761 48.8056L19.1545 48.0244L22.0128 45.166C22.1768 44.999 22.3106 44.8047 22.4081 44.5919C22.5437 44.3143 22.6208 44.0178 22.6208 43.7129ZM16.6397 39.7599C16.7733 39.6234 16.8891 39.471 16.9804 39.2987C16.9926 39.2762 17.0096 39.2554 17.0218 39.2319C17.141 38.9897 17.211 38.7262 17.2276 38.4567C17.2442 38.1872 17.2072 37.9171 17.1187 37.662C17.082 37.5547 17.0284 37.4587 16.9766 37.3609C16.8874 37.1847 16.7722 37.0229 16.635 36.8809H16.6331L16.6303 36.8771C16.4213 36.6761 16.1721 36.5217 15.899 36.4244C15.4548 36.2467 14.9622 36.2314 14.5079 36.3811L10.6783 37.6997L9.6392 38.0573C9.38226 38.1449 9.15637 38.2813 8.96155 38.4498C8.95496 38.4564 8.94461 38.4611 8.93708 38.4686C8.91826 38.4865 8.9032 38.5082 8.88437 38.5251C8.60269 38.795 8.4039 39.1396 8.31137 39.5186C8.21883 39.8976 8.23641 40.2951 8.36202 40.6644C8.44952 40.9204 8.58666 41.1567 8.76559 41.3596C8.94452 41.5626 9.16172 41.7282 9.40475 41.8471C9.64779 41.966 9.91189 42.0358 10.1819 42.0525C10.452 42.0692 10.7227 42.0324 10.9785 41.9444L13.0519 41.2291L15.8425 40.2719C16.1512 40.1665 16.4185 39.9858 16.6397 39.7599Z" fill="#2C392C"/>
</svg>
