<svg width="60" height="60" viewBox="0 0 60 60" fill="none" xmlns="http://www.w3.org/2000/svg">
<g clip-path="url(#clip0_1908_787)">
<path d="M55.3097 34.4682C54.57 35.3242 53.6556 36.0118 52.6279 36.4848C51.6002 36.9578 50.4832 37.2052 49.3519 37.2104C49.2675 37.2104 49.1878 37.2104 49.1034 37.2057C48.9791 37.2038 48.8606 37.1525 48.7741 37.0633C48.6876 36.974 48.64 36.854 48.6419 36.7297C48.6439 36.6054 48.6951 36.4869 48.7844 36.4004C48.8736 36.3138 48.9936 36.2663 49.118 36.2682H49.1316C49.2066 36.2729 49.2769 36.2729 49.3519 36.2729C53.2894 36.2729 56.4909 32.9354 56.4909 28.8338C56.5017 27.84 56.3136 26.854 55.9376 25.934C55.5617 25.014 55.0055 24.1784 54.3019 23.4765C54.2717 23.4445 54.2464 23.4081 54.2269 23.3687C54.2269 23.364 54.2222 23.3593 54.2222 23.3546C54.1891 23.2939 54.1703 23.2266 54.167 23.1575C54.1638 23.0885 54.1762 23.0197 54.2034 22.9562C54.4433 22.2013 54.565 21.4139 54.5644 20.6218C54.5644 16.5109 51.3581 13.1738 47.4211 13.1738C43.4841 13.1738 40.2773 16.5109 40.2773 20.6218C40.2773 20.7461 40.2279 20.8653 40.14 20.9532C40.0521 21.0412 39.9329 21.0905 39.8086 21.0905C39.6843 21.0905 39.565 21.0412 39.4771 20.9532C39.3892 20.8653 39.3398 20.7461 39.3398 20.6218C39.3398 15.9952 42.9633 12.2363 47.4211 12.2363H47.4586C47.7027 11.5582 47.8279 10.843 47.8289 10.1223C47.8289 6.96757 45.5273 4.39882 42.7055 4.39882C41.7641 4.4219 40.8478 4.70639 40.0588 5.22046C39.2699 5.73454 38.6396 6.45793 38.2383 7.30976C38.2115 7.36536 38.1737 7.41498 38.1273 7.45565C38.0809 7.49632 38.0267 7.5272 37.9681 7.54646C37.9094 7.56571 37.8475 7.57294 37.786 7.56771C37.7245 7.56248 37.6647 7.54489 37.6101 7.51601C37.4997 7.45981 37.4161 7.3622 37.3774 7.2445C37.3388 7.1268 37.3483 6.99859 37.4039 6.88789C37.8707 5.90838 38.5939 5.07342 39.4967 4.47149C40.3995 3.86957 41.4483 3.52311 42.532 3.46882C40.313 1.92195 36.0117 -0.667896 33.0637 0.161791C31.845 0.508666 30.9966 1.3946 30.4669 2.88054V13.9337C30.9371 13.2814 31.5825 12.7758 32.3284 12.4755C33.0742 12.1752 33.8899 12.0924 34.6809 12.2368C34.8046 12.2523 34.9171 12.3164 34.9936 12.4148C35.07 12.5133 35.1043 12.6381 35.0887 12.7618C35.0732 12.8855 35.0092 12.9979 34.9107 13.0744C34.8122 13.1509 34.6874 13.1851 34.5637 13.1696C31.3387 12.7618 30.5559 15.6769 30.4669 16.0519V50.5782C30.4669 55.7715 34.2778 60.0001 38.9648 60.0001C42.0305 60.0001 44.843 58.1344 46.3008 55.1344C46.3055 55.1251 46.3148 55.1204 46.3195 55.111C46.3353 55.0854 46.3542 55.0618 46.3758 55.0407C46.3936 55.0166 46.414 54.9946 46.4367 54.9751C46.4584 54.9583 46.482 54.9441 46.507 54.9329C46.5345 54.9156 46.5646 54.903 46.5961 54.8954L46.6242 54.8813C48.2672 54.4904 49.7287 53.5531 50.7693 52.223C51.8099 50.8928 52.3679 49.2487 52.3519 47.5599C52.3475 46.9852 52.2783 46.4129 52.1456 45.8537C52.148 45.8366 52.148 45.8192 52.1456 45.8021C52.1433 45.7725 52.1433 45.7427 52.1456 45.713C52.1461 45.6878 52.1493 45.6626 52.155 45.638C52.1657 45.5972 52.1815 45.5578 52.2019 45.5209C52.2063 45.509 52.2126 45.4979 52.2206 45.488C52.2503 45.445 52.2867 45.407 52.3284 45.3755L52.3378 45.3662C52.3612 45.3521 52.3753 45.3334 52.3987 45.3193C53.3357 44.8313 54.161 44.154 54.8222 43.3302C55.4835 42.5063 55.9663 41.5541 56.24 40.5338C56.5137 39.5135 56.5723 38.4474 56.4122 37.4032C56.252 36.3591 55.8766 35.3596 55.3097 34.4682ZM44.2758 44.574C43.6343 44.5949 42.9966 44.6813 42.3726 44.8318C42.2867 44.9099 42.1748 44.9534 42.0586 44.9537H42.0473C42.0169 44.9519 41.9868 44.9456 41.9583 44.9349C39.7505 45.549 36.7598 47.2084 36.7973 51.6849C36.7972 51.8096 36.7479 51.9293 36.6602 52.0179C36.5724 52.1065 36.4533 52.157 36.3286 52.1584C36.2673 52.1587 36.2066 52.147 36.1498 52.1239C36.0931 52.1007 36.0415 52.0666 35.998 52.0235C35.9544 51.9804 35.9198 51.9292 35.8961 51.8727C35.8724 51.8162 35.8601 51.7556 35.8598 51.6943C35.8181 46.7396 39.1083 44.8318 41.5833 44.0959C41.4942 36.3573 34.5759 35.6354 34.2759 35.6073C34.1521 35.5949 34.038 35.5345 33.9583 35.4389C33.8785 35.3434 33.8394 35.2204 33.8494 35.0963C33.8612 34.9726 33.9217 34.8587 34.0175 34.7796C34.1133 34.7005 34.2366 34.6627 34.3603 34.6744C34.44 34.6791 42.2864 35.4666 42.5166 43.8619C43.0917 43.7364 43.6768 43.6611 44.265 43.6369H44.2697C44.394 43.6363 44.5135 43.6851 44.6018 43.7726C44.6902 43.8601 44.7402 43.979 44.7408 44.1034C44.7414 44.2277 44.6926 44.3471 44.6051 44.4355C44.5177 44.5238 44.3987 44.5738 44.2744 44.5744L44.2758 44.574ZM47.4211 32.4666H47.3883C42.5976 32.1244 41.5476 28.3323 41.332 27.0624C39.2606 26.8689 37.3426 25.8873 35.9742 24.3202C35.8973 24.2258 35.8601 24.1051 35.8706 23.9837C35.8811 23.8624 35.9384 23.7499 36.0304 23.67C36.1224 23.5902 36.2419 23.5493 36.3635 23.5561C36.4852 23.5628 36.5994 23.6167 36.682 23.7062C37.3614 24.4829 38.1998 25.1046 39.1403 25.5292C40.0809 25.9538 41.1017 26.1713 42.1336 26.1671C43.9895 26.1949 45.7807 25.4857 47.1145 24.1949C48.4483 22.9041 49.2158 21.137 49.2487 19.2812C49.2487 19.1568 49.2981 19.0376 49.386 18.9497C49.4739 18.8618 49.5932 18.8124 49.7175 18.8124C49.8418 18.8124 49.961 18.8618 50.0489 18.9497C50.1369 19.0376 50.1862 19.1568 50.1862 19.2812C50.1536 21.3589 49.3075 23.341 47.8295 24.8018C46.3516 26.2626 44.3597 27.0855 42.2817 27.0938C42.5114 28.3027 43.477 31.2465 47.452 31.5277C47.5763 31.5321 47.6938 31.5856 47.7787 31.6766C47.8635 31.7676 47.9087 31.8886 47.9044 32.0129C47.9 32.1372 47.8465 32.2547 47.7555 32.3395C47.6645 32.4244 47.5435 32.4696 47.4192 32.4652L47.4211 32.4666ZM25.32 12.2344C26.1108 12.0892 26.9267 12.1718 27.6724 12.4725C28.4181 12.7733 29.063 13.2799 29.5317 13.9332V2.88007C29.0067 1.3946 28.1536 0.508666 26.9395 0.161323C23.9841 -0.672584 19.6814 1.92195 17.4642 3.46882C18.5482 3.52345 19.5973 3.86978 20.5007 4.47126C21.4042 5.07273 22.1285 5.90702 22.597 6.88601C22.653 6.99728 22.6624 7.12621 22.6233 7.24445C22.5842 7.36268 22.4997 7.46053 22.3884 7.51648C22.2772 7.57242 22.1482 7.58188 22.03 7.54276C21.9118 7.50364 21.8139 7.41915 21.758 7.30789C21.3571 6.45666 20.7275 5.73364 19.9395 5.21959C19.1515 4.70555 18.236 4.42073 17.2955 4.39695C14.4689 4.39695 12.172 6.9657 12.172 10.1204C12.1707 10.8413 12.296 11.5569 12.5423 12.2344H12.5798C17.033 12.2344 20.6611 15.9934 20.6611 20.6199C20.6611 20.7442 20.6117 20.8635 20.5238 20.9514C20.4359 21.0393 20.3167 21.0887 20.1923 21.0887C20.068 21.0887 19.9488 21.0393 19.8609 20.9514C19.773 20.8635 19.7236 20.7442 19.7236 20.6199C19.7236 16.509 16.5173 13.1719 12.5798 13.1719C8.64234 13.1719 5.43187 16.5109 5.43187 20.6218C5.4312 21.4139 5.55295 22.2013 5.79281 22.9562C5.82068 23.0193 5.83389 23.088 5.83146 23.157C5.82902 23.226 5.811 23.2936 5.77874 23.3546C5.77524 23.3617 5.77047 23.368 5.76468 23.3734C5.74847 23.4121 5.72455 23.4472 5.69437 23.4765C4.99126 24.1786 4.43577 25.0143 4.06062 25.9343C3.68547 26.8544 3.49825 27.8403 3.50999 28.8338C3.50999 32.9354 6.71156 36.2729 10.6491 36.2729C10.7189 36.2729 10.7939 36.2729 10.8642 36.2682C10.987 36.2698 11.1048 36.3173 11.1942 36.4015C11.2836 36.4857 11.3381 36.6004 11.347 36.7229C11.3495 36.7845 11.3396 36.8461 11.318 36.9039C11.2964 36.9617 11.2635 37.0146 11.2212 37.0596C11.1789 37.1045 11.1281 37.1406 11.0717 37.1657C11.0153 37.1908 10.9545 37.2044 10.8928 37.2057C10.8126 37.2104 10.7283 37.2104 10.6491 37.2104C9.51732 37.2051 8.39982 36.9576 7.37164 36.4846C6.34345 36.0117 5.42841 35.3241 4.68796 34.4682C4.12268 35.36 3.74857 36.3595 3.58929 37.4033C3.43002 38.4471 3.48904 39.5126 3.76262 40.5324C4.03621 41.5523 4.5184 42.5042 5.17873 43.3282C5.83905 44.1521 6.66314 44.8301 7.5989 45.3193C7.62007 45.3338 7.64041 45.3494 7.65984 45.3662C7.66453 45.3709 7.66921 45.3709 7.6739 45.3755C7.71448 45.4083 7.75071 45.4461 7.78171 45.488C7.78615 45.4999 7.79248 45.511 7.80046 45.5209C7.81937 45.558 7.83354 45.5974 7.84265 45.638C7.85002 45.6625 7.85473 45.6876 7.85671 45.713C7.85749 45.7428 7.85592 45.7726 7.85203 45.8021C7.85437 45.8192 7.85437 45.8366 7.85203 45.8537C7.72167 46.4133 7.65251 46.9854 7.64577 47.5599C7.62993 49.2491 8.1884 50.8936 9.22964 52.2238C10.2709 53.554 11.7331 54.4911 13.3767 54.8813C13.3856 54.8869 13.395 54.8917 13.4048 54.8954C13.4338 54.9059 13.462 54.9184 13.4892 54.9329C13.5152 54.9451 13.5402 54.9592 13.5642 54.9751C13.5842 54.9942 13.603 55.0145 13.6205 55.036C13.6444 55.0596 13.6649 55.0864 13.6814 55.1157C13.6861 55.1204 13.6955 55.1251 13.6955 55.1344C15.158 58.1344 17.9658 60.0001 21.0361 60.0001C25.7184 60.0001 29.5317 55.7719 29.5317 50.5782V16.0515C29.4473 15.6765 28.6645 12.766 25.4348 13.1691C25.3111 13.1841 25.1866 13.1492 25.0886 13.0723C24.9905 12.9954 24.9271 12.8827 24.9122 12.759C24.8973 12.6353 24.9321 12.5107 25.009 12.4127C25.0859 12.3147 25.1986 12.2512 25.3223 12.2363L25.32 12.2344ZM12.6126 32.4666H12.5798C12.4555 32.471 12.3346 32.4258 12.2436 32.3409C12.1526 32.2561 12.099 32.1386 12.0947 32.0143C12.0903 31.89 12.1355 31.769 12.2204 31.678C12.3052 31.587 12.4227 31.5335 12.547 31.5291C16.5173 31.2479 17.4877 28.3041 17.7173 27.0952C15.6387 27.0874 13.646 26.2645 12.1675 24.8034C10.689 23.3423 9.84251 21.3596 9.80999 19.2812C9.80999 19.1568 9.85938 19.0376 9.94729 18.9497C10.0352 18.8618 10.1544 18.8124 10.2787 18.8124C10.4031 18.8124 10.5223 18.8618 10.6102 18.9497C10.6981 19.0376 10.7475 19.1568 10.7475 19.2812C10.7805 21.137 11.5481 22.9041 12.882 24.1949C14.2159 25.4857 16.0072 26.1949 17.8631 26.1671C18.8952 26.1723 19.9163 25.9551 20.857 25.5305C21.7977 25.1059 22.6359 24.4836 23.3147 23.7062C23.3541 23.6568 23.4031 23.6159 23.4587 23.5859C23.5143 23.5559 23.5755 23.5375 23.6384 23.5318C23.7013 23.526 23.7647 23.5331 23.8249 23.5524C23.885 23.5718 23.9406 23.6032 23.9883 23.6446C24.036 23.686 24.0749 23.7367 24.1025 23.7935C24.1302 23.8503 24.1461 23.9121 24.1492 23.9752C24.1524 24.0383 24.1427 24.1014 24.1209 24.1607C24.099 24.22 24.0654 24.2743 24.022 24.3202C22.6557 25.8872 20.7393 26.869 18.6694 27.0624C18.4486 28.3323 17.4033 32.1244 12.6126 32.4666ZM25.6411 34.6744C25.7022 34.6682 25.7639 34.6742 25.8226 34.6921C25.8813 34.7101 25.9358 34.7396 25.983 34.7789C26.0302 34.8182 26.069 34.8665 26.0972 34.921C26.1254 34.9755 26.1425 35.0351 26.1473 35.0963C26.1582 35.2206 26.1194 35.344 26.0394 35.4398C25.9595 35.5355 25.845 35.5957 25.7208 35.6073C25.4255 35.6354 18.502 36.3573 18.4134 44.0959C20.8884 44.8318 24.1791 46.7396 24.1411 51.6943C24.1399 51.8178 24.0899 51.9358 24.0021 52.0227C23.9144 52.1096 23.7959 52.1584 23.6723 52.1584H23.6677C23.6061 52.1577 23.5453 52.145 23.4886 52.1209C23.432 52.0968 23.3807 52.0617 23.3376 52.0177C23.2945 51.9738 23.2605 51.9218 23.2375 51.8647C23.2145 51.8076 23.203 51.7465 23.2036 51.6849C23.2364 47.2037 20.2603 45.549 18.0473 44.9349C18.0151 44.9439 17.9822 44.9501 17.9489 44.9537H17.9442C17.8836 44.9545 17.8234 44.9433 17.7671 44.9208C17.7107 44.8983 17.6594 44.8648 17.6161 44.8224C16.9965 44.6754 16.3635 44.5922 15.727 44.574C15.6027 44.5734 15.4837 44.5234 15.3963 44.435C15.3088 44.3467 15.26 44.2272 15.2606 44.1029C15.2612 43.9786 15.3112 43.8596 15.3996 43.7721C15.4879 43.6846 15.6074 43.6359 15.7317 43.6365H15.7364C16.3231 43.6606 16.9066 43.7359 17.4802 43.8615C17.7127 35.4666 25.5544 34.6791 25.6411 34.6744Z" fill="#2C392C"/>
</g>
<defs>
<clipPath id="clip0_1908_787">
<rect width="60" height="60" fill="white"/>
</clipPath>
</defs>
</svg>
