<svg width="64" height="64" viewBox="0 0 64 64" fill="none" xmlns="http://www.w3.org/2000/svg">
<path fill-rule="evenodd" clip-rule="evenodd" d="M52.0504 53.975C38.3879 39.075 29.6879 28.4375 24.7254 20.5125C21.6254 15.575 19.9379 11.65 19.5754 8.425C17.1879 12.725 15.8754 17.5125 15.7379 22.5C15.6879 24.35 17.1629 28.625 24.5004 38.475C29.6129 45.3375 35.9879 52.8125 40.6379 58.275C42.6129 60.6 44.2754 62.5375 45.4629 64L52.0504 53.975ZM30.6129 49.7125C28.0504 52.8 25.5754 55.7125 23.3879 58.275C21.4129 60.6 19.7504 62.5375 18.5629 64L11.9629 53.975C16.5129 48.9875 18.5504 46.5 22.1379 42.1375C22.5379 41.65 22.9629 41.1375 23.4004 40.6C25.5754 43.5 28.0254 46.5625 30.6129 49.7125ZM32.0004 11.5625C29.0254 11.5625 26.0879 12.4625 23.6129 14.1C21.6754 9.9875 21.1879 6.9 22.1129 4.5625C24.5879 1.6625 28.1754 0 32.0004 0C35.8254 0 39.4129 1.6625 41.8879 4.5625C42.4379 6.0375 42.2379 8.75 39.7754 13.7125C37.4254 12.3 34.7504 11.5625 32.0004 11.5625ZM32.9504 28.425C37.3629 22.4125 40.5254 17.3375 42.3379 13.3375C43.2754 11.275 43.8754 9.475 44.1379 7.9C46.7129 12.325 48.1379 17.3125 48.2754 22.5125C48.3254 24.2875 46.9629 28.325 40.2754 37.45C37.5004 34.1625 35.0629 31.1625 32.9504 28.425Z" fill="#2C392C"/>
</svg>
