<svg width="132" height="57" viewBox="0 0 132 57" fill="none" xmlns="http://www.w3.org/2000/svg">
<g clip-path="url(#clip0_1908_1023)">
<path d="M2.97094 44.6598V38.9457H0.892578V37.7852H6.44821V38.9457H4.37983V44.6598H2.97094Z" fill="#88652A"/>
<path d="M9.12598 44.661V37.7766H12.1236C12.6732 37.7523 13.2232 37.8154 13.7523 37.9634C14.0894 38.0878 14.3744 38.3198 14.5617 38.6224C14.7697 38.9456 14.8773 39.3216 14.8715 39.7042C14.8893 40.1725 14.7249 40.6298 14.4118 40.9827C14.0433 41.3495 13.5548 41.5759 13.0329 41.622C13.3136 41.7776 13.5695 41.9732 13.7923 42.2023C14.0914 42.5524 14.3588 42.9276 14.5917 43.3235L15.451 44.661H13.7224L12.7231 43.1661C12.4988 42.8227 12.2518 42.4941 11.9837 42.1826C11.869 42.0559 11.7251 41.9581 11.5641 41.8974C11.333 41.8359 11.0938 41.8093 10.8546 41.8187H10.5349V44.6905H9.12598V44.661ZM10.5349 40.727H11.5341C11.987 40.7435 12.4402 40.7039 12.883 40.609C13.0459 40.5572 13.1865 40.4533 13.2827 40.314C13.3821 40.1582 13.4309 39.9764 13.4226 39.7927C13.4327 39.5891 13.3649 39.3891 13.2327 39.2321C13.0934 39.0851 12.9059 38.9911 12.7032 38.9666C12.5932 38.9666 12.2435 38.9666 11.7039 38.9666H10.6048V40.7074L10.5349 40.727Z" fill="#88652A"/>
<path d="M24.2344 44.6598H22.6956L22.0861 43.0961H19.2883L18.7088 44.6598H17.21L19.9378 37.7754H21.4266L24.2344 44.6598ZM21.6365 41.9356L20.6373 39.3785L19.688 41.9356H21.5965H21.6365Z" fill="#88652A"/>
<path d="M26.752 44.6598V37.7852H28.1309L30.9886 42.3781V37.7852H32.2976V44.6598H30.8887L28.0709 40.175V44.6598H26.752Z" fill="#88652A"/>
<path d="M35.1953 42.4378L36.5642 42.3099C36.6126 42.684 36.7888 43.0309 37.0638 43.2934C37.3484 43.5118 37.7026 43.6234 38.0631 43.6081C38.4193 43.6269 38.7715 43.5264 39.0623 43.3229C39.169 43.2455 39.2561 43.1449 39.3168 43.0289C39.3775 42.9129 39.4101 42.7846 39.412 42.6541C39.414 42.5032 39.3608 42.3566 39.2621 42.2411C39.152 42.1155 39.0157 42.0149 38.8624 41.946C38.6926 41.887 38.3228 41.7887 37.7333 41.651C37.1582 41.5466 36.6149 41.3145 36.1446 40.9724C35.9409 40.8017 35.778 40.589 35.6675 40.3493C35.557 40.1096 35.5015 39.8489 35.5051 39.5856C35.5041 39.2359 35.6084 38.8936 35.8048 38.6022C36.0165 38.2885 36.3195 38.0451 36.6741 37.9039C37.113 37.7348 37.582 37.6545 38.0531 37.6678C38.767 37.617 39.4759 37.8194 40.0515 38.2383C40.2734 38.4251 40.4511 38.6575 40.5719 38.9192C40.6928 39.1809 40.7539 39.4654 40.7509 39.7528L39.342 39.8119C39.3175 39.6591 39.2625 39.5127 39.1802 39.3811C39.0979 39.2494 38.9899 39.1351 38.8624 39.0447C38.6012 38.8702 38.2881 38.7871 37.9731 38.8087C37.6217 38.7807 37.2706 38.867 36.9739 39.0546C36.9046 39.1017 36.8483 39.165 36.8099 39.2388C36.7715 39.3126 36.7524 39.3946 36.7541 39.4775C36.7545 39.5576 36.7736 39.6365 36.81 39.7081C36.8464 39.7798 36.8991 39.8422 36.9639 39.8905C37.3637 40.1233 37.8043 40.2802 38.2629 40.3528C38.7868 40.4582 39.2965 40.6232 39.7817 40.8445C40.0966 41.0059 40.3622 41.2469 40.5511 41.5428C40.7425 41.8816 40.838 42.2648 40.8274 42.6524C40.8169 43.0399 40.7007 43.4176 40.4911 43.7458C40.267 44.0917 39.9386 44.3599 39.5519 44.5129C39.0666 44.691 38.5507 44.7745 38.0331 44.7588C37.3154 44.8012 36.6061 44.5883 36.0346 44.1589C35.5454 43.7091 35.2458 43.0948 35.1953 42.4378Z" fill="#88652A"/>
<path d="M45.198 37.7754H43.7891V44.6598H45.198V37.7754Z" fill="#88652A"/>
<path d="M49.8743 44.6598V38.9457H47.7959V37.7852H53.3615V38.9457H51.2832V44.6598H49.8743Z" fill="#88652A"/>
<path d="M57.3884 37.7754H55.9795V44.6598H57.3884V37.7754Z" fill="#88652A"/>
<path d="M60.2057 41.258C60.1892 40.6517 60.3015 40.0488 60.5354 39.4877C60.6894 39.1238 60.9095 38.7905 61.1849 38.5042C61.4415 38.2383 61.751 38.0274 62.0942 37.8846C62.573 37.6932 63.0863 37.5996 63.603 37.6092C64.0614 37.5941 64.5179 37.6738 64.9431 37.8432C65.3682 38.0126 65.7525 38.268 66.0711 38.5927C66.6692 39.3376 66.9946 40.2594 66.9946 41.2088C66.9946 42.1583 66.6692 43.08 66.0711 43.8249C65.7544 44.1494 65.3719 44.4047 64.9484 44.5742C64.5249 44.7436 64.0699 44.8234 63.613 44.8084C63.1531 44.8237 62.695 44.7441 62.2682 44.5748C61.8415 44.4054 61.4554 44.15 61.135 43.8249C60.8165 43.4764 60.5713 43.0693 60.4135 42.627C60.2557 42.1848 60.1885 41.7161 60.2157 41.2482M61.6745 41.2482C61.6286 41.8849 61.8245 42.5157 62.2241 43.0184C62.401 43.2074 62.6157 43.3582 62.8547 43.4613C63.0938 43.5645 63.352 43.6178 63.613 43.6178C63.874 43.6178 64.1322 43.5645 64.3713 43.4613C64.6103 43.3582 64.8251 43.2074 65.0019 43.0184C65.4 42.504 65.592 41.8634 65.5415 41.2187C65.5896 40.5878 65.4012 39.9615 65.0119 39.4582C64.6379 39.0948 64.1335 38.8911 63.608 38.8911C63.0825 38.8911 62.5781 39.0948 62.2041 39.4582C61.8109 39.9672 61.6223 40.601 61.6745 41.2383" fill="#88652A"/>
<path d="M69.8682 44.6598V37.7852H71.2371L74.1048 42.3781V37.7852H75.4138V44.6598H73.9949L71.1771 40.175V44.6598H69.8682Z" fill="#88652A"/>
<path d="M84.9666 44.6598H83.4378L82.8283 43.0961H80.0305L79.451 44.6598H77.9521L80.68 37.7754H82.1688L84.9666 44.6598ZM82.3687 41.9356L81.3695 39.3785L80.4302 41.9356H82.3387H82.3687Z" fill="#88652A"/>
<path d="M87.5146 44.6594V37.834H88.9235V43.4989H92.4408V44.6594H87.5146Z" fill="#88652A"/>
<path d="M103.971 42.1336L105.34 42.5565C105.202 43.2066 104.851 43.794 104.34 44.2285C103.709 44.6426 102.951 44.8296 102.196 44.758C101.44 44.6863 100.733 44.3603 100.194 43.8351C99.5655 43.1313 99.2426 42.2133 99.2943 41.278C99.2338 40.3087 99.556 39.3538 100.194 38.6127C100.494 38.2915 100.861 38.0375 101.269 37.8678C101.678 37.6981 102.118 37.6168 102.562 37.6292C103.328 37.5991 104.074 37.8677 104.64 38.3767C104.993 38.7271 105.242 39.1658 105.36 39.6454L103.961 39.97C103.896 39.6351 103.711 39.3344 103.439 39.123C103.168 38.9117 102.828 38.8038 102.482 38.8193C102.243 38.8122 102.006 38.858 101.788 38.9533C101.571 39.0487 101.377 39.1911 101.223 39.37C100.855 39.8895 100.686 40.5197 100.743 41.1501C100.683 41.8055 100.852 42.4614 101.223 43.0089C101.373 43.1875 101.563 43.3298 101.778 43.4253C101.992 43.5207 102.226 43.5667 102.462 43.5597C102.829 43.5745 103.188 43.4474 103.461 43.2056C103.767 42.9037 103.97 42.5152 104.041 42.0943" fill="#88652A"/>
<path d="M114.612 44.6598H113.074L112.464 43.0961H109.666L109.087 44.6598H107.588L110.316 37.7754H111.805L114.612 44.6598ZM112.014 41.9356L111.015 39.3785L110.076 41.9356H111.984H112.014Z" fill="#88652A"/>
<path d="M117.131 44.6611V37.7766H120.129C120.678 37.7521 121.228 37.8152 121.757 37.9635C122.094 38.0878 122.379 38.3198 122.567 38.6224C122.775 38.9457 122.882 39.3217 122.876 39.7043C122.894 40.1725 122.73 40.6298 122.417 40.9828C122.048 41.3495 121.56 41.576 121.038 41.6221C121.319 41.7777 121.574 41.9732 121.797 42.2023C122.096 42.5525 122.364 42.9276 122.597 43.3235L123.456 44.6611H121.767L120.768 43.1662C120.544 42.8227 120.297 42.4942 120.029 42.1827C119.914 42.056 119.77 41.9582 119.609 41.8975C119.378 41.8359 119.139 41.8094 118.899 41.8188H118.61V44.6906H117.201L117.131 44.6611ZM118.54 40.7271H119.539C119.964 40.7469 120.39 40.7171 120.808 40.6386C120.971 40.5867 121.111 40.4829 121.208 40.3435C121.307 40.1878 121.356 40.006 121.348 39.8223C121.358 39.6186 121.29 39.4187 121.158 39.2617C121.018 39.1147 120.831 39.0207 120.628 38.9962C120.518 38.9962 120.168 38.9962 119.629 38.9962H118.53V40.7369L118.54 40.7271Z" fill="#88652A"/>
<path d="M125.934 44.6598V37.7852H131.12V38.9457H127.342V40.4701H130.85V41.6306H127.342V43.4992H131.249V44.6598H125.934Z" fill="#88652A"/>
<path d="M2.97094 44.6598V38.9457H0.892578V37.7852H6.44821V38.9457H4.37983V44.6598H2.97094Z" fill="#88652A"/>
<path d="M9.12598 44.661V37.7766H12.1236C12.6732 37.7523 13.2232 37.8154 13.7523 37.9634C14.0894 38.0878 14.3744 38.3198 14.5617 38.6224C14.7697 38.9456 14.8773 39.3216 14.8715 39.7042C14.8893 40.1725 14.7249 40.6298 14.4118 40.9827C14.0433 41.3495 13.5548 41.5759 13.0329 41.622C13.3136 41.7776 13.5695 41.9732 13.7923 42.2023C14.0914 42.5524 14.3588 42.9276 14.5917 43.3235L15.451 44.661H13.7224L12.7231 43.1661C12.4988 42.8227 12.2518 42.4941 11.9837 42.1826C11.869 42.0559 11.7251 41.9581 11.5641 41.8974C11.333 41.8359 11.0938 41.8093 10.8546 41.8187H10.5349V44.6905H9.12598V44.661ZM10.5349 40.727H11.5341C11.987 40.7435 12.4402 40.7039 12.883 40.609C13.0459 40.5572 13.1865 40.4533 13.2827 40.314C13.3821 40.1582 13.4309 39.9764 13.4226 39.7927C13.4327 39.5891 13.3649 39.3891 13.2327 39.2321C13.0934 39.0851 12.9059 38.9911 12.7032 38.9666C12.5932 38.9666 12.2435 38.9666 11.7039 38.9666H10.6048V40.7074L10.5349 40.727Z" fill="#88652A"/>
<path d="M24.2344 44.6598H22.6956L22.0861 43.0961H19.2883L18.7088 44.6598H17.21L19.9378 37.7754H21.4266L24.2344 44.6598ZM21.6365 41.9356L20.6373 39.3785L19.688 41.9356H21.5965H21.6365Z" fill="#88652A"/>
<path d="M26.752 44.6598V37.7852H28.1309L30.9886 42.3781V37.7852H32.2976V44.6598H30.8887L28.0709 40.175V44.6598H26.752Z" fill="#88652A"/>
<path d="M35.1953 42.4378L36.5642 42.3099C36.6126 42.684 36.7888 43.0309 37.0638 43.2934C37.3484 43.5118 37.7026 43.6234 38.0631 43.6081C38.4193 43.6269 38.7715 43.5264 39.0623 43.3229C39.169 43.2455 39.2561 43.1449 39.3168 43.0289C39.3775 42.9129 39.4101 42.7846 39.412 42.6541C39.414 42.5032 39.3608 42.3566 39.2621 42.2411C39.152 42.1155 39.0157 42.0149 38.8624 41.946C38.6926 41.887 38.3228 41.7887 37.7333 41.651C37.1582 41.5466 36.6149 41.3145 36.1446 40.9724C35.9409 40.8017 35.778 40.589 35.6675 40.3493C35.557 40.1096 35.5015 39.8489 35.5051 39.5856C35.5041 39.2359 35.6084 38.8936 35.8048 38.6022C36.0165 38.2885 36.3195 38.0451 36.6741 37.9039C37.113 37.7348 37.582 37.6545 38.0531 37.6678C38.767 37.617 39.4759 37.8194 40.0515 38.2383C40.2734 38.4251 40.4511 38.6575 40.5719 38.9192C40.6928 39.1809 40.7539 39.4654 40.7509 39.7528L39.342 39.8119C39.3175 39.6591 39.2625 39.5127 39.1802 39.3811C39.0979 39.2494 38.9899 39.1351 38.8624 39.0447C38.6012 38.8702 38.2881 38.7871 37.9731 38.8087C37.6217 38.7807 37.2706 38.867 36.9739 39.0546C36.9046 39.1017 36.8483 39.165 36.8099 39.2388C36.7715 39.3126 36.7524 39.3946 36.7541 39.4775C36.7545 39.5576 36.7736 39.6365 36.81 39.7081C36.8464 39.7798 36.8991 39.8422 36.9639 39.8905C37.3637 40.1233 37.8043 40.2802 38.2629 40.3528C38.7868 40.4582 39.2965 40.6232 39.7817 40.8445C40.0966 41.0059 40.3622 41.2469 40.5511 41.5428C40.7425 41.8816 40.838 42.2648 40.8274 42.6524C40.8169 43.0399 40.7007 43.4176 40.4911 43.7458C40.267 44.0917 39.9386 44.3599 39.5519 44.5129C39.0666 44.691 38.5507 44.7745 38.0331 44.7588C37.3154 44.8012 36.6061 44.5883 36.0346 44.1589C35.5454 43.7091 35.2458 43.0948 35.1953 42.4378Z" fill="#88652A"/>
<path d="M45.198 37.7754H43.7891V44.6598H45.198V37.7754Z" fill="#88652A"/>
<path d="M49.8743 44.6598V38.9457H47.7959V37.7852H53.3615V38.9457H51.2832V44.6598H49.8743Z" fill="#88652A"/>
<path d="M57.3884 37.7754H55.9795V44.6598H57.3884V37.7754Z" fill="#88652A"/>
<path d="M60.2057 41.258C60.1892 40.6517 60.3015 40.0488 60.5354 39.4877C60.6894 39.1238 60.9095 38.7905 61.1849 38.5042C61.4415 38.2383 61.751 38.0274 62.0942 37.8846C62.573 37.6932 63.0863 37.5996 63.603 37.6092C64.0614 37.5941 64.5179 37.6738 64.9431 37.8432C65.3682 38.0126 65.7525 38.268 66.0711 38.5927C66.6692 39.3376 66.9946 40.2594 66.9946 41.2088C66.9946 42.1583 66.6692 43.08 66.0711 43.8249C65.7544 44.1494 65.3719 44.4047 64.9484 44.5742C64.5249 44.7436 64.0699 44.8234 63.613 44.8084C63.1531 44.8237 62.695 44.7441 62.2682 44.5748C61.8415 44.4054 61.4554 44.15 61.135 43.8249C60.8165 43.4764 60.5713 43.0693 60.4135 42.627C60.2557 42.1848 60.1885 41.7161 60.2157 41.2482M61.6745 41.2482C61.6286 41.8849 61.8245 42.5157 62.2241 43.0184C62.401 43.2074 62.6157 43.3582 62.8547 43.4613C63.0938 43.5645 63.352 43.6178 63.613 43.6178C63.874 43.6178 64.1322 43.5645 64.3713 43.4613C64.6103 43.3582 64.8251 43.2074 65.0019 43.0184C65.4 42.504 65.592 41.8634 65.5415 41.2187C65.5896 40.5878 65.4012 39.9615 65.0119 39.4582C64.6379 39.0948 64.1335 38.8911 63.608 38.8911C63.0825 38.8911 62.5781 39.0948 62.2041 39.4582C61.8109 39.9672 61.6223 40.601 61.6745 41.2383" fill="#88652A"/>
<path d="M69.8682 44.6598V37.7852H71.2371L74.1048 42.3781V37.7852H75.4138V44.6598H73.9949L71.1771 40.175V44.6598H69.8682Z" fill="#88652A"/>
<path d="M84.9666 44.6598H83.4378L82.8283 43.0961H80.0305L79.451 44.6598H77.9521L80.68 37.7754H82.1688L84.9666 44.6598ZM82.3687 41.9356L81.3695 39.3785L80.4302 41.9356H82.3387H82.3687Z" fill="#88652A"/>
<path d="M87.5146 44.6594V37.834H88.9235V43.4989H92.4408V44.6594H87.5146Z" fill="#88652A"/>
<path d="M103.971 42.1336L105.34 42.5565C105.202 43.2066 104.851 43.794 104.34 44.2285C103.709 44.6426 102.951 44.8296 102.196 44.758C101.44 44.6863 100.733 44.3603 100.194 43.8351C99.5655 43.1313 99.2426 42.2133 99.2943 41.278C99.2338 40.3087 99.556 39.3538 100.194 38.6127C100.494 38.2915 100.861 38.0375 101.269 37.8678C101.678 37.6981 102.118 37.6168 102.562 37.6292C103.328 37.5991 104.074 37.8677 104.64 38.3767C104.993 38.7271 105.242 39.1658 105.36 39.6454L103.961 39.97C103.896 39.6351 103.711 39.3344 103.439 39.123C103.168 38.9117 102.828 38.8038 102.482 38.8193C102.243 38.8122 102.006 38.858 101.788 38.9533C101.571 39.0487 101.377 39.1911 101.223 39.37C100.855 39.8895 100.686 40.5197 100.743 41.1501C100.683 41.8055 100.852 42.4614 101.223 43.0089C101.373 43.1875 101.563 43.3298 101.778 43.4253C101.992 43.5207 102.226 43.5667 102.462 43.5597C102.829 43.5745 103.188 43.4474 103.461 43.2056C103.767 42.9037 103.97 42.5152 104.041 42.0943" fill="#88652A"/>
<path d="M114.612 44.6598H113.074L112.464 43.0961H109.666L109.087 44.6598H107.588L110.316 37.7754H111.805L114.612 44.6598ZM112.014 41.9356L111.015 39.3785L110.076 41.9356H111.984H112.014Z" fill="#88652A"/>
<path d="M117.131 44.6611V37.7766H120.129C120.678 37.7521 121.228 37.8152 121.757 37.9635C122.094 38.0878 122.379 38.3198 122.567 38.6224C122.775 38.9457 122.882 39.3217 122.876 39.7043C122.894 40.1725 122.73 40.6298 122.417 40.9828C122.048 41.3495 121.56 41.576 121.038 41.6221C121.319 41.7777 121.574 41.9732 121.797 42.2023C122.096 42.5525 122.364 42.9276 122.597 43.3235L123.456 44.6611H121.767L120.768 43.1662C120.544 42.8227 120.297 42.4942 120.029 42.1827C119.914 42.056 119.77 41.9582 119.609 41.8975C119.378 41.8359 119.139 41.8094 118.899 41.8188H118.61V44.6906H117.201L117.131 44.6611ZM118.54 40.7271H119.539C119.964 40.7469 120.39 40.7171 120.808 40.6386C120.971 40.5867 121.111 40.4829 121.208 40.3435C121.307 40.1878 121.356 40.006 121.348 39.8223C121.358 39.6186 121.29 39.4187 121.158 39.2617C121.018 39.1147 120.831 39.0207 120.628 38.9962C120.518 38.9962 120.168 38.9962 119.629 38.9962H118.53V40.7369L118.54 40.7271Z" fill="#88652A"/>
<path d="M125.934 44.6598V37.7852H131.12V38.9457H127.342V40.4701H130.85V41.6306H127.342V43.4992H131.249V44.6598H125.934Z" fill="#88652A"/>
<path d="M19.1084 56.8747V49.9902H20.5273V52.6948H23.2851V49.9902H24.704V56.8747H23.2851V53.8652H20.5273V56.8747H19.1084Z" fill="#88652A"/>
<path d="M32.4975 53.4716C32.4805 52.8694 32.5893 52.2702 32.8173 51.7111C32.9721 51.3476 33.1921 51.0145 33.4668 50.7277C33.7233 50.4618 34.0329 50.2508 34.3761 50.1081C34.8514 49.9327 35.3576 49.8525 35.8649 49.872C36.3233 49.8568 36.7798 49.9365 37.205 50.106C37.6301 50.2754 38.0144 50.5307 38.3329 50.8555C38.9311 51.6004 39.2564 52.5221 39.2564 53.4716C39.2564 54.4211 38.9311 55.3428 38.3329 56.0877C38.0163 56.4122 37.6338 56.6675 37.2103 56.8369C36.7868 57.0064 36.3318 57.0862 35.8749 57.0712C35.415 57.0865 34.9569 57.0069 34.5301 56.8375C34.1033 56.6682 33.7173 56.4127 33.3968 56.0877C33.0784 55.7392 32.8332 55.332 32.6754 54.8898C32.5176 54.4475 32.4504 53.9789 32.4776 53.5109M33.9364 53.5109C33.8905 54.1477 34.0863 54.7785 34.486 55.2812C34.6628 55.4702 34.8776 55.621 35.1166 55.7241C35.3557 55.8273 35.6139 55.8805 35.8749 55.8805C36.1359 55.8805 36.3941 55.8273 36.6331 55.7241C36.8722 55.621 37.0869 55.4702 37.2638 55.2812C37.7027 54.7548 37.9175 54.0816 37.8633 53.4028C37.9114 52.7719 37.723 52.1456 37.3337 51.6423C36.9597 51.2789 36.4554 51.0752 35.9298 51.0752C35.4043 51.0752 34.8999 51.2789 34.5259 51.6423C34.1328 52.1513 33.9442 52.7851 33.9964 53.4224" fill="#88652A"/>
<path d="M46.6465 54.633L48.0154 54.5052C48.0638 54.8793 48.2399 55.2261 48.515 55.4887C48.7995 55.707 49.1537 55.8186 49.5142 55.8034C49.8705 55.8221 50.2227 55.7216 50.5134 55.5182C50.6202 55.4408 50.7073 55.3402 50.768 55.2241C50.8287 55.1081 50.8612 54.9799 50.8632 54.8494C50.866 54.6983 50.8127 54.5514 50.7133 54.4363C50.5725 54.2959 50.3968 54.1942 50.2037 54.1413C50.0338 54.0823 49.6641 53.9839 49.0746 53.8462C48.4995 53.7418 47.9561 53.5097 47.4858 53.1676C47.2858 52.9967 47.126 52.785 47.0173 52.5473C46.9086 52.3096 46.8537 52.0514 46.8563 51.7907C46.8553 51.4409 46.9596 51.0987 47.1561 50.8072C47.3678 50.4936 47.6708 50.2502 48.0254 50.109C48.4643 49.9399 48.9332 49.8596 49.4043 49.8729C50.1183 49.8221 50.8272 50.0244 51.4027 50.4433C51.6247 50.6302 51.8023 50.8626 51.9232 51.1243C52.044 51.3859 52.1051 51.6705 52.1022 51.9579L50.6933 52.0169C50.6625 51.7386 50.5313 51.4804 50.3236 51.2891C50.0624 51.1146 49.7492 51.0315 49.4343 51.0531C49.0828 51.0251 48.7318 51.1115 48.4351 51.299C48.3658 51.3461 48.3094 51.4094 48.2711 51.4832C48.2327 51.557 48.2135 51.639 48.2152 51.7219C48.2156 51.802 48.2348 51.8809 48.2712 51.9525C48.3075 52.0242 48.3602 52.0866 48.4251 52.1349C48.8248 52.3678 49.2655 52.5246 49.7241 52.5972C50.2515 52.7017 50.7646 52.8667 51.2529 53.0889C51.5678 53.2503 51.8334 53.4913 52.0223 53.7872C52.2137 54.126 52.3091 54.5092 52.2986 54.8968C52.288 55.2844 52.1719 55.662 51.9623 55.9902C51.7381 56.3361 51.4097 56.6043 51.023 56.7574C50.5377 56.9354 50.0219 57.0189 49.5042 57.0032C48.7866 57.0456 48.0773 56.8327 47.5058 56.4033C47.0038 55.9454 46.6997 55.3152 46.6565 54.6428" fill="#88652A"/>
<path d="M60.1357 56.865V49.9806H62.404C62.9658 49.9592 63.5284 49.9955 64.0826 50.0887C64.4827 50.1945 64.8348 50.4301 65.0818 50.7575C65.3627 51.1471 65.5034 51.6178 65.4815 52.0951C65.4949 52.4623 65.416 52.8272 65.2517 53.1572C65.1128 53.4264 64.9107 53.659 64.6622 53.8358C64.4438 53.9913 64.1956 54.1017 63.9328 54.1604C63.4505 54.237 62.9622 54.2699 62.4739 54.2587H61.5446V56.8552H60.1357V56.865ZM61.5446 51.1509V53.1179H62.314C62.6905 53.1387 63.068 53.1022 63.4331 53.0097C63.6023 52.9341 63.7448 52.8109 63.8428 52.6556C63.9467 52.4973 64.0022 52.313 64.0027 52.1246C64.0287 51.9057 63.9718 51.6851 63.8428 51.505C63.6927 51.3439 63.4923 51.2366 63.2733 51.2001C62.9407 51.1758 62.6067 51.1758 62.2741 51.2001H61.5446V51.1509Z" fill="#88652A"/>
<path d="M74.4646 49.9902H73.0557V56.8747H74.4646V49.9902Z" fill="#88652A"/>
<path d="M84.0071 56.8747V51.1508H81.9287V49.9902H87.4843V51.1508H85.416V56.8747H84.0071Z" fill="#88652A"/>
<path d="M100.964 56.8649H99.4251L98.8156 55.3012H96.0178L95.4383 56.8649H93.9395L96.6673 49.9805H98.1561L100.964 56.8649ZM98.366 54.1406L97.3668 51.5836L96.4175 54.1406H98.326H98.366Z" fill="#88652A"/>
<path d="M108.008 56.8743V50.0488H109.417V55.7137H112.924V56.8743H108.008Z" fill="#88652A"/>
<path d="M29.3806 23.8789C29.0531 24.7074 28.537 25.451 27.8718 26.0524C27.0667 26.787 26.1702 27.4182 25.2039 27.9309C24.2161 28.4574 23.1744 28.8793 22.0963 29.1897C21.1665 29.4715 20.2012 29.6238 19.2286 29.6421C17.5362 29.6534 15.864 29.2798 14.3424 28.5505C12.8351 27.8205 11.4796 26.8199 10.3455 25.6C9.17786 24.3355 8.25353 22.8725 7.61769 21.2825C6.95837 19.6589 6.61926 17.9266 6.61848 16.1781C6.62803 14.5036 6.91837 12.8421 7.4778 11.2607C8.00246 9.66046 8.81844 8.16748 9.88591 6.85465C10.9415 5.59404 12.2427 4.55407 13.7129 3.796C15.2574 3.01558 16.973 2.62045 18.709 2.64531C20.7412 2.61245 22.7521 3.05752 24.5744 3.94352C26.351 4.90199 27.7927 6.36554 28.7111 8.14303L29.0708 8.80197L31.6288 8.01517L31.1392 7.03168C30.633 6.02529 30.0129 5.07842 29.2906 4.20906C28.5385 3.31864 27.6442 2.55464 26.6427 1.94704C25.5493 1.29206 24.3643 0.79835 23.1255 0.481635C21.6686 0.122757 20.1707 -0.0491402 18.669 -0.0297796C16.5893 -0.0431781 14.5356 0.425118 12.6737 1.33727C10.8665 2.23027 9.26466 3.47884 7.96742 5.00569C5.33522 8.14143 3.89384 12.0811 3.89062 16.1486C3.8993 18.1468 4.27856 20.1265 5.00974 21.9906C5.73509 23.8817 6.7976 25.6303 8.14728 27.1539C9.50435 28.6821 11.1459 29.9406 12.9835 30.8617C14.9188 31.8242 17.0602 32.3166 19.2286 32.2976C20.4604 32.2847 21.6857 32.1195 22.8757 31.8058C24.1716 31.4752 25.4203 30.9862 26.5928 30.3502C27.7667 29.7158 28.8461 28.9248 29.8002 27.9997C30.7469 27.082 31.471 25.9659 31.9186 24.7345L32.2583 23.751L29.6803 23.0822L29.3806 23.8789Z" fill="#0C4A7D"/>
<path d="M59.976 0.177734H57.2881V32.033H59.976V0.177734Z" fill="#0C4A7D"/>
<path d="M37.9037 0.177734H35.2158V32.033H37.9037V0.177734Z" fill="#0C4A7D"/>
<path d="M67.3305 0.216797H64.6426V32.0327H67.3305V0.216797Z" fill="#0C4A7D"/>
<path d="M96.2779 0.177734L84.0575 27.8335L71.7971 0.177734H68.8994L82.9883 32.0428H85.1267L99.2156 0.177734H96.2779Z" fill="#0C4A7D"/>
<path d="M111.346 0.177734H109.208L95.1191 32.0428H98.0568L110.277 4.38707L122.538 32.0428H125.435L111.346 0.177734Z" fill="#0C4A7D"/>
<path d="M29.3806 23.8789C29.0531 24.7074 28.537 25.451 27.8718 26.0524C27.0667 26.787 26.1702 27.4182 25.2039 27.9309C24.2161 28.4574 23.1744 28.8793 22.0963 29.1897C21.1665 29.4715 20.2012 29.6238 19.2286 29.6421C17.5362 29.6534 15.864 29.2798 14.3424 28.5505C12.8351 27.8205 11.4796 26.8199 10.3455 25.6C9.17786 24.3355 8.25353 22.8725 7.61769 21.2825C6.95837 19.6589 6.61926 17.9266 6.61848 16.1781C6.62803 14.5036 6.91837 12.8421 7.4778 11.2607C8.00246 9.66046 8.81844 8.16748 9.88591 6.85465C10.9415 5.59404 12.2427 4.55407 13.7129 3.796C15.2574 3.01558 16.973 2.62045 18.709 2.64531C20.7412 2.61245 22.7521 3.05752 24.5744 3.94352C26.351 4.90199 27.7927 6.36554 28.7111 8.14303L29.0708 8.80197L31.6288 8.01517L31.1392 7.03168C30.633 6.02529 30.0129 5.07842 29.2906 4.20906C28.5385 3.31864 27.6442 2.55464 26.6427 1.94704C25.5493 1.29206 24.3643 0.79835 23.1255 0.481635C21.6686 0.122757 20.1707 -0.0491402 18.669 -0.0297796C16.5893 -0.0431781 14.5356 0.425118 12.6737 1.33727C10.8665 2.23027 9.26466 3.47884 7.96742 5.00569C5.33522 8.14143 3.89384 12.0811 3.89062 16.1486C3.8993 18.1468 4.27856 20.1265 5.00974 21.9906C5.73509 23.8817 6.7976 25.6303 8.14728 27.1539C9.50435 28.6821 11.1459 29.9406 12.9835 30.8617C14.9188 31.8242 17.0602 32.3166 19.2286 32.2976C20.4604 32.2847 21.6857 32.1195 22.8757 31.8058C24.1716 31.4752 25.4203 30.9862 26.5928 30.3502C27.7667 29.7158 28.8461 28.9248 29.8002 27.9997C30.7469 27.082 31.471 25.9659 31.9186 24.7345L32.2583 23.751L29.6803 23.0822L29.3806 23.8789Z" fill="#0C4A7D"/>
<path d="M59.976 0.177734H57.2881V32.033H59.976V0.177734Z" fill="#0C4A7D"/>
<path d="M37.9037 0.177734H35.2158V32.033H37.9037V0.177734Z" fill="#0C4A7D"/>
<path d="M67.3305 0.216797H64.6426V32.0327H67.3305V0.216797Z" fill="#0C4A7D"/>
<path d="M96.2779 0.177734L84.0575 27.8335L71.7971 0.177734H68.8994L82.9883 32.0428H85.1267L99.2156 0.177734H96.2779Z" fill="#0C4A7D"/>
<path d="M111.346 0.177734H109.208L95.1191 32.0428H98.0568L110.277 4.38707L122.538 32.0428H125.435L111.346 0.177734Z" fill="#0C4A7D"/>
<path d="M123.796 26.8105C119.879 23.3486 109.807 20.8506 97.8165 20.7129C95.878 20.7129 93.8196 20.8014 91.7313 20.9784C89.9127 21.1358 88.4039 21.3227 87.2848 21.4702L85.5961 21.7062L77.3026 23.2601C74.9844 23.7027 73.026 24.0568 71.6471 24.2436L67.2305 24.9517C66.2313 25.1091 64.7924 25.3156 63.1138 25.5025C60.222 25.8387 57.3125 26.0061 54.4006 26.0041C52.8918 26.0041 51.403 26.0041 49.9541 25.8664C45.5645 25.63 41.2115 24.9478 36.9643 23.8306C35.8152 23.5158 34.7261 23.1716 33.7968 22.8471C32.7936 22.4997 31.8154 22.0857 30.8691 21.6079C30.9791 21.7259 31.1289 21.8439 31.2588 21.9619C34.1566 24.5878 40.6115 26.663 48.7451 27.5973C49.1348 27.6662 49.4845 27.7153 49.7943 27.7547C52.3638 28.0129 54.9452 28.1409 57.5282 28.1382C59.5266 28.1382 61.525 28.0596 63.3236 27.9219C65.1222 27.7842 66.5211 27.6367 67.5803 27.5285L69.4488 27.3023L72.0667 26.8892C73.4756 26.663 75.4541 26.2991 77.8622 25.8369L83.4378 24.7354L87.6445 23.9781C88.7236 23.7912 90.1825 23.5552 91.9411 23.329C94.0394 23.0733 96.0878 22.9061 98.0463 22.8274C100.205 22.7487 102.613 22.7782 105.041 22.9061C106.48 22.9848 107.939 23.1126 109.387 23.2798C110.127 23.3683 110.866 23.4568 111.586 23.565L111.955 23.624L112.805 23.7519L113.904 23.9387C117.481 24.5162 120.95 25.6167 124.196 27.2039C124.056 27.0564 123.896 26.9187 123.736 26.781" fill="#88652A"/>
</g>
<defs>
<clipPath id="clip0_1908_1023">
<rect width="130.357" height="56.9834" fill="white" transform="translate(0.892578 0.00976562)"/>
</clipPath>
</defs>
</svg>
