<svg width="48" height="48" viewBox="0 0 48 48" fill="none" xmlns="http://www.w3.org/2000/svg">
<g clip-path="url(#clip0_1908_898)">
<path d="M41.7673 21.9747C41.1815 23.7783 40.186 25.2143 39.2645 26.5436C37.8987 28.5158 36.5639 30.3775 36.5639 33.3237V38.0922C36.5639 42.8747 32.6531 47.9957 26.7654 47.9957H25.6133L23.1264 35.5622C22.938 34.6192 22.1028 33.9349 21.141 33.9349C20.1802 33.9349 19.345 34.6192 19.1566 35.5622L16.6697 47.9957H15.5167C9.62991 47.9957 5.72381 42.8747 5.72381 38.0922V33.3237C5.72381 30.3653 4.38241 28.5064 3.01476 26.5389C1.41932 24.2423 -0.390772 21.6391 0.0741726 17.3412C0.593486 12.5352 4.79673 7.3974 9.48368 6.2191C13.7385 5.1486 17.9952 6.22097 21.1429 9.09313C22.5556 7.81172 24.2119 6.87715 25.9958 6.3419C25.6742 7.45458 25.5027 8.62912 25.5027 9.84398C25.5027 16.8219 31.1795 22.4987 38.1574 22.4987C39.4117 22.4987 40.6228 22.315 41.7673 21.9747Z" fill="#2C392C"/>
<path d="M38.157 0.00195312C32.7296 0.00195312 28.3145 4.41705 28.3145 9.84453C28.3145 15.272 32.7296 19.6871 38.157 19.6871C43.5845 19.6871 47.9996 15.272 47.9996 9.84453C47.9996 4.41705 43.5845 0.00195312 38.157 0.00195312ZM42.3753 11.2506H39.5631V14.0628H36.7509V11.2506H33.9388V8.43845H36.7509V5.62628H39.5631V8.43845H42.3753V11.2506Z" fill="#2C392C"/>
</g>
<defs>
<clipPath id="clip0_1908_898">
<rect width="48" height="48" fill="white"/>
</clipPath>
</defs>
</svg>
