<svg width="48" height="58" viewBox="0 0 48 58" fill="none" xmlns="http://www.w3.org/2000/svg">
<path fill-rule="evenodd" clip-rule="evenodd" d="M24.0002 0.875C25.7796 0.875 27.5416 1.22549 29.1856 1.90645C30.8296 2.58742 32.3234 3.58552 33.5816 4.84378C34.8399 6.10204 35.838 7.59581 36.519 9.23981C37.1999 10.8838 37.5504 12.6458 37.5504 14.4253C37.5504 14.4566 37.5495 14.4877 37.5493 14.519L24.0939 27.9744C24.0626 27.9744 24.0316 27.9755 24.0002 27.9755C22.2207 27.9755 20.4587 27.6251 18.8147 26.9441C17.1707 26.2631 15.6769 25.265 14.4187 24.0068C13.1604 22.7485 12.1623 21.2547 11.4813 19.6107C10.8004 17.9667 10.4499 16.2047 10.4499 14.4253C10.4499 12.6458 10.8004 10.8838 11.4813 9.23981C12.1623 7.59581 13.1604 6.10204 14.4187 4.84378C15.6769 3.58552 17.1707 2.58742 18.8147 1.90645C20.4587 1.22549 22.2207 0.875 24.0002 0.875ZM17.6325 36.7558L19.7309 34.6582L24.9537 39.881L22.8554 41.9786C22.7453 42.0882 22.5963 42.1498 22.441 42.1498C22.2857 42.1498 22.1368 42.0882 22.0267 41.9786L17.6322 37.5841C17.5226 37.4741 17.4611 37.3251 17.4611 37.1698C17.4611 37.0145 17.5226 36.8655 17.6322 36.7555L17.6325 36.7558ZM20.8904 33.498L26.1132 38.7208L46.1518 18.6822C46.8431 17.9894 47.2311 17.0504 47.2306 16.0717C47.23 15.0929 46.841 14.1544 46.1489 13.4623C45.4568 12.7702 44.5182 12.3812 43.5395 12.3807C42.5607 12.3801 41.6218 12.7682 40.9289 13.4595L20.8908 33.4975L20.8904 33.498ZM42.827 15.6243L34.5925 23.8589C34.4386 24.0127 34.3522 24.2214 34.3522 24.4389C34.3522 24.6565 34.4386 24.8652 34.5925 25.019C34.7463 25.1729 34.955 25.2593 35.1726 25.2593C35.3901 25.2593 35.5988 25.1729 35.7527 25.019L43.9872 16.7845C44.0634 16.7083 44.1238 16.6179 44.165 16.5183C44.2062 16.4188 44.2275 16.3121 44.2275 16.2044C44.2275 16.0967 44.2062 15.99 44.165 15.8905C44.1238 15.7909 44.0634 15.7005 43.9872 15.6243C43.911 15.5482 43.8206 15.4877 43.721 15.4465C43.6215 15.4053 43.5148 15.3841 43.4071 15.3841C43.2994 15.3841 43.1927 15.4053 43.0932 15.4465C42.9936 15.4877 42.9032 15.5482 42.827 15.6243ZM20.2025 42.4745L17.1367 39.4087L0.771484 55.7739C2.60055 57.603 8.22672 57.7725 10.951 55.0482L16.6326 49.3672C16.7545 49.2453 16.7636 46.5334 16.8637 45.8138L20.2025 42.475V42.4745ZM20.9977 6.66676V11.4228H16.2423V17.4277H20.9983V22.1838H27.0032V17.4277H31.7593V11.4228H27.0026V6.66676H20.9977Z" fill="#2C392C"/>
</svg>
