<svg width="53" height="52" viewBox="0 0 53 52" fill="none" xmlns="http://www.w3.org/2000/svg">
<path d="M50.8132 9.2207H46.2465V45.2044C46.2465 46.9381 47.0137 48.4876 48.2264 49.5726C48.8308 50.1133 49.7532 50.1118 50.3573 49.5709C51.569 48.4861 52.3354 46.9372 52.3354 45.2044V10.7117C52.3354 9.88759 51.6546 9.2207 50.8132 9.2207ZM9.50977 27.1131H18.6432V36.0594H9.50977V27.1131ZM9.50977 9.2207H33.8656V18.1669H9.50977V9.2207Z" fill="#2C392C"/>
<path d="M42.9997 45.2072V1.76838C42.9997 0.944235 42.3188 0.277344 41.4774 0.277344H1.89919C1.0578 0.277344 0.376953 0.944235 0.376953 1.76838V43.7162C0.376953 47.8268 3.79154 51.1714 7.98815 51.1714H45.3752C43.9146 49.585 42.9997 47.5068 42.9997 45.2072ZM6.46591 25.625C6.46591 24.8008 7.14676 24.1339 7.98815 24.1339H20.1661C21.0075 24.1339 21.6883 24.8008 21.6883 25.625V37.5533C21.6883 38.3774 21.0075 39.0443 20.1661 39.0443H7.98815C7.14676 39.0443 6.46591 38.3774 6.46591 37.5533V25.625ZM35.3885 45.2072H7.98815C5.98154 45.2072 5.97332 42.2252 7.98815 42.2252H35.3885C37.3951 42.2252 37.4033 45.2072 35.3885 45.2072ZM35.3885 39.0443H26.255C24.2484 39.0443 24.2402 36.0622 26.255 36.0622H35.3885C37.3951 36.0622 37.4033 39.0443 35.3885 39.0443ZM35.3885 33.0802H26.255C24.2484 33.0802 24.2402 30.0981 26.255 30.0981H35.3885C37.3951 30.0981 37.4033 33.0802 35.3885 33.0802ZM35.3885 27.116H26.255C24.2484 27.116 24.2402 24.1339 26.255 24.1339H35.3885C37.3951 24.1339 37.4033 27.116 35.3885 27.116ZM36.9107 19.6608C36.9107 20.485 36.2299 21.1519 35.3885 21.1519H7.98815C7.14676 21.1519 6.46591 20.485 6.46591 19.6608V7.73253C6.46591 6.90838 7.14676 6.24149 7.98815 6.24149H35.3885C36.2299 6.24149 36.9107 6.90838 36.9107 7.73253V19.6608Z" fill="#2C392C"/>
</svg>
