<svg width="53" height="39" viewBox="0 0 53 39" fill="none" xmlns="http://www.w3.org/2000/svg">
<path d="M0.181641 33.5933V36.7875C0.181641 37.611 0.863198 38.2785 1.70388 38.2785C2.54456 38.2785 3.22612 37.611 3.22612 36.7875V35.0843H49.0963V36.7875C49.0963 37.611 49.7778 38.2785 50.6185 38.2785C51.4592 38.2785 52.1408 37.611 52.1408 36.7875V28.696H0.181641V33.5933ZM46.5424 16.1316H5.78003C2.69313 16.1316 0.181641 18.5916 0.181641 21.6153V25.714H52.1408V21.6153C52.1408 18.5916 49.6293 16.1316 46.5424 16.1316ZM20.4546 9.53125C19.0463 9.53125 17.9005 10.6534 17.9005 12.0328V13.1494H34.4219V12.0328C34.4219 10.6534 33.2762 9.53125 31.868 9.53125H20.4546Z" fill="#2C392C"/>
<path d="M14.8564 12.0321C14.8564 9.00837 17.3679 6.54845 20.455 6.54845H31.8685C34.9555 6.54845 37.4668 9.00837 37.4668 12.0321V13.1487H45.6194V5.64379C45.6194 2.62007 43.1079 0.160156 40.0208 0.160156H12.3025C9.21549 0.160156 6.7041 2.62007 6.7041 5.64379V13.1487H14.8564V12.0321Z" fill="#2C392C"/>
</svg>
