<svg width="53" height="55" viewBox="0 0 53 55" fill="none" xmlns="http://www.w3.org/2000/svg">
<path d="M40.9941 0.665728H46.3473V6.46834C46.3473 6.51909 46.3678 6.56654 46.405 6.60195C46.4421 6.63729 46.491 6.65621 46.543 6.65465C46.6454 6.65188 46.7279 6.56937 46.7279 6.46834V0.292969H40.9941V0.665728Z" fill="#2C392C"/>
<path d="M41.1846 1.9707H45.0155V3.48659H41.1846V1.9707ZM43.6709 4.60487H45.0155V5.72315H43.6709V4.60487Z" fill="#2C392C"/>
<path d="M45.9994 6.65531C45.978 6.59542 45.9671 6.5324 45.9672 6.46893V1.03906H40.2334V6.46893C40.2334 6.5717 40.3188 6.65531 40.4237 6.65531H45.9994ZM45.3963 6.09617H43.2906V4.23237H45.3963V6.09617ZM40.8042 1.5982H45.3963V3.85961H40.8042V1.5982ZM40.8042 4.23237H42.91V4.60513H40.8042V4.23237ZM40.8042 4.97789H42.91V5.35065H40.8042V4.97789ZM40.8042 5.72341H42.91V6.09617H40.8042V5.72341Z" fill="#2C392C"/>
<path d="M7.35792 22.0039H2.07595C1.23527 22.0039 0.553711 22.6715 0.553711 23.4949V54.3701H7.35792V22.0039ZM50.9906 22.0039H45.7086V54.3701H52.5128V23.4949C52.5128 22.6715 51.8313 22.0039 50.9906 22.0039ZM29.1803 44.4072V54.3701H23.8862V44.4072H29.1803Z" fill="#2C392C"/>
<path d="M41.1418 9.60075H36.3494V4.9676C36.3494 4.14415 35.6679 3.47656 34.8272 3.47656H18.4548C17.6141 3.47656 16.9325 4.14415 16.9325 4.9676V9.60075H11.9246C11.0839 9.60075 10.4023 10.2683 10.4023 11.0918V54.3706H20.8417V42.9167C20.8417 42.0932 21.5232 41.4256 22.3639 41.4256H30.7025C31.5432 41.4256 32.2248 42.0932 32.2248 42.9167V54.3706H42.6641V11.0918C42.6641 10.2683 41.9825 9.60075 41.1418 9.60075ZM19.6402 36.2729H18.0009C17.1602 36.2729 16.4786 35.6053 16.4786 34.7819C16.4786 33.9584 17.1602 33.2908 18.0009 33.2908H19.6402C20.4809 33.2908 21.1624 33.9584 21.1624 34.7819C21.1624 35.6053 20.4809 36.2729 19.6402 36.2729ZM19.6402 30.3088H18.0009C17.1602 30.3088 16.4786 29.6412 16.4786 28.8177C16.4786 27.9943 17.1602 27.3267 18.0009 27.3267H19.6402C20.4809 27.3267 21.1624 27.9943 21.1624 28.8177C21.1624 29.6412 20.4809 30.3088 19.6402 30.3088ZM19.6402 24.3446H18.0009C17.1602 24.3446 16.4786 23.677 16.4786 22.8536C16.4786 22.0301 17.1602 21.3625 18.0009 21.3625H19.6402C20.4809 21.3625 21.1624 22.0301 21.1624 22.8536C21.1624 23.677 20.4809 24.3446 19.6402 24.3446ZM27.3529 36.2729H25.7135C24.8729 36.2729 24.1913 35.6053 24.1913 34.7819C24.1913 33.9584 24.8729 33.2908 25.7135 33.2908H27.3529C28.1936 33.2908 28.8751 33.9584 28.8751 34.7819C28.8751 35.6053 28.1936 36.2729 27.3529 36.2729ZM27.3529 30.3088H25.7135C24.8729 30.3088 24.1913 29.6412 24.1913 28.8177C24.1913 27.9943 24.8729 27.3267 25.7135 27.3267H27.3529C28.1936 27.3267 28.8751 27.9943 28.8751 28.8177C28.8751 29.6412 28.1936 30.3088 27.3529 30.3088ZM27.3529 24.3446H25.7135C24.8729 24.3446 24.1913 23.677 24.1913 22.8536C24.1913 22.0301 24.8729 21.3625 25.7135 21.3625H27.3529C28.1936 21.3625 28.8751 22.0301 28.8751 22.8536C28.8751 23.677 28.1936 24.3446 27.3529 24.3446ZM29.6011 15.4278H28.0555V16.9418C28.0555 17.7653 27.3739 18.4329 26.5332 18.4329C25.6925 18.4329 25.011 17.7653 25.011 16.9418V15.4278H23.4653C22.6246 15.4278 21.9431 14.7602 21.9431 13.9368C21.9431 13.1133 22.6246 12.4457 23.4653 12.4457H25.011V10.9317C25.011 10.1083 25.6925 9.44071 26.5332 9.44071C27.3739 9.44071 28.0555 10.1083 28.0555 10.9317V12.4457H29.6011C30.4418 12.4457 31.1234 13.1133 31.1234 13.9368C31.1234 14.7602 30.4418 15.4278 29.6011 15.4278ZM35.0656 36.2729H33.4262C32.5855 36.2729 31.904 35.6053 31.904 34.7819C31.904 33.9584 32.5855 33.2908 33.4262 33.2908H35.0656C35.9063 33.2908 36.5878 33.9584 36.5878 34.7819C36.5878 35.6053 35.9063 36.2729 35.0656 36.2729ZM35.0656 30.3088H33.4262C32.5855 30.3088 31.904 29.6412 31.904 28.8177C31.904 27.9943 32.5855 27.3267 33.4262 27.3267H35.0656C35.9063 27.3267 36.5878 27.9943 36.5878 28.8177C36.5878 29.6412 35.9063 30.3088 35.0656 30.3088ZM35.0656 24.3446H33.4262C32.5855 24.3446 31.904 23.677 31.904 22.8536C31.904 22.0301 32.5855 21.3625 33.4262 21.3625H35.0656C35.9063 21.3625 36.5878 22.0301 36.5878 22.8536C36.5878 23.677 35.9063 24.3446 35.0656 24.3446Z" fill="#2C392C"/>
</svg>
