<svg width="52" height="55" viewBox="0 0 52 55" fill="none" xmlns="http://www.w3.org/2000/svg">
<path d="M45.7616 11.5477C45.7616 5.40881 40.9815 0.308594 35.1059 0.308594C29.2302 0.308594 24.4502 5.40881 24.4502 11.5477C24.4502 13.7105 25.0591 15.8101 26.1551 17.6232L35.1059 31.9688L44.0566 17.6232C45.1527 15.81 45.7616 13.7105 45.7616 11.5477ZM35.1059 16.319C32.5788 16.319 30.5392 14.1876 30.5392 11.5477C30.5392 8.90736 32.5788 6.77638 35.1059 6.77638C37.633 6.77638 39.6726 8.90736 39.6726 11.5477C39.6726 14.1876 37.633 16.319 35.1059 16.319Z" fill="#2C392C"/>
<path d="M35.1052 9.95703C34.2525 9.95703 33.5829 10.6566 33.5829 11.5475C33.5829 12.4379 34.2525 13.1379 35.1052 13.1379C35.9578 13.1379 36.6274 12.4379 36.6274 11.5475C36.6274 10.6566 35.9578 9.95703 35.1052 9.95703ZM-0.0078125 54.5954L15.3161 48.997V13.6469L-0.0078125 20.0086V54.5954ZM21.7399 14.7602L18.3605 13.5832V48.838L33.5829 54.15V35.3403L23.5968 19.3726C22.7445 17.9093 22.1051 16.3508 21.74 14.7604L21.7399 14.7602ZM46.6438 19.3088L36.6274 35.3401V54.0864L51.9513 47.7247V12.3746L48.6227 13.7103C48.3487 15.6826 47.6786 17.5911 46.6438 19.3088Z" fill="#2C392C"/>
</svg>
