<svg width="416" height="125" viewBox="0 0 416 125" fill="none" xmlns="http://www.w3.org/2000/svg">
<g clip-path="url(#clip0_2333_32)">
<path d="M157.416 50.9919C151.481 50.9919 146.965 49.3811 143.847 46.0978C140.734 42.8074 139.172 38.1457 139.172 32.1367C139.172 29.1475 139.66 26.4787 140.598 24.1206C141.539 21.7625 142.853 19.765 144.478 18.1566C146.088 16.541 148.096 15.305 150.343 14.4961C152.737 13.653 155.257 13.2317 157.792 13.2506C159.347 13.2506 160.717 13.3811 161.967 13.5566C163.206 13.8152 164.339 14.0596 165.284 14.3727C166.213 14.6835 167.039 14.9824 167.644 15.3074C168.266 15.6229 168.707 15.8649 169.029 16.0476L166.652 22.6308C165.41 21.9676 164.091 21.4655 162.725 21.1362C161.207 20.7021 159.525 20.5265 157.655 20.5265C156.4 20.5158 155.152 20.722 153.965 21.1362C152.784 21.5767 151.701 22.2509 150.78 23.1195C149.851 24.0542 149.095 25.2308 148.537 26.7183C147.962 28.2152 147.72 29.9494 147.72 32.0679C147.72 33.738 147.91 35.2895 148.286 36.7176C148.666 38.1457 149.222 39.3912 150.104 40.4374C150.904 41.4978 151.953 42.3092 153.351 42.926C154.662 43.5404 156.288 43.8536 158.153 43.8536C159.349 43.8536 160.398 43.7942 161.346 43.6733C162.185 43.5578 163.016 43.3906 163.835 43.1727C164.595 42.9829 165.219 42.7362 165.779 42.4871C166.345 42.2427 166.84 41.9889 167.276 41.8062L169.531 48.3301C168.341 49.011 166.72 49.6207 164.66 50.1829C162.643 50.7309 160.231 50.9919 157.416 50.9919Z" fill="white"/>
<path d="M185.404 50.8202C183.154 50.7324 181.289 50.5569 179.839 50.0658C178.401 49.5747 177.275 48.9651 176.473 48.1395C175.642 47.3448 175.091 46.3436 174.77 45.1598C174.462 43.9927 174.338 42.6784 174.338 41.1838V10.951L182.148 9.70312V39.694C182.148 40.3701 182.213 40.994 182.342 41.5587C182.46 42.1162 182.65 42.6096 182.966 42.9844C183.283 43.3545 183.708 43.67 184.275 43.9191C184.843 44.1658 185.587 44.2939 186.532 44.4173L185.404 50.8202Z" fill="white"/>
<path d="M199.567 14.8656C199.567 16.2984 199.144 17.4063 198.206 18.2153C197.296 19.0378 196.114 19.4856 194.893 19.4702C193.671 19.474 192.49 19.0279 191.569 18.2153C190.647 17.4063 190.211 16.2984 190.211 14.8656C190.211 13.4327 190.65 12.3295 191.569 11.5111C192.519 10.6998 193.587 10.2656 194.893 10.2656C196.134 10.2656 197.265 10.7021 198.206 11.5111C199.074 12.3272 199.567 13.4327 199.567 14.8656ZM198.839 50.3246H191.03V22.8152H198.839V50.3246Z" fill="white"/>
<path d="M206.205 23.7468C207.51 23.372 209.272 23.0067 211.378 22.6959C213.575 22.3658 215.792 22.1985 218.013 22.1953C220.387 22.1953 222.324 22.5108 223.887 23.1205C225.449 23.7492 226.709 24.6222 227.575 25.7372C228.504 26.8593 229.137 28.1688 229.505 29.7085C229.885 31.2552 230.073 32.9372 230.073 34.8659V50.388H222.249V35.7318C222.249 33.2527 221.951 31.4426 221.269 30.3869C220.577 29.3408 219.331 28.8544 217.52 28.8544C216.938 28.8544 216.321 28.8544 215.707 28.9042C215.073 28.9754 214.515 29.0276 214.006 29.1011V50.3263H206.203L206.205 23.7468Z" fill="white"/>
<path d="M245.764 14.8662C245.764 16.2991 245.302 17.407 244.356 18.2159C243.455 19.0401 242.278 19.4885 241.063 19.4709C239.846 19.4732 238.67 19.027 237.755 18.2159C236.823 17.407 236.385 16.2991 236.385 14.8662C236.385 13.4333 236.823 12.3302 237.755 11.5117C238.663 10.6909 239.844 10.2462 241.063 10.2663C242.322 10.2663 243.437 10.7028 244.356 11.5117C245.299 12.3278 245.764 13.4333 245.764 14.8662ZM245.011 50.3253H237.185V22.8159H245.011V50.3253Z" fill="white"/>
<path d="M251.059 36.5333C251.04 34.603 251.379 32.6862 252.059 30.8824C252.667 29.1691 253.623 27.6037 254.867 26.2873C256.131 24.9896 257.558 23.9197 259.366 23.1819C261.272 22.386 263.317 21.9843 265.379 22.0005C266.871 22.0005 268.187 22.1143 269.435 22.3682C270.659 22.6216 271.854 22.9983 273.003 23.4927L271.37 29.701C270.557 29.4254 269.733 29.1785 268.903 28.9609C268.049 28.7118 267.042 28.6501 265.987 28.6501C263.664 28.6501 261.937 29.3902 260.797 30.8255C259.678 32.2536 259.12 34.1064 259.12 36.4716C259.12 38.9531 259.678 40.8841 260.734 42.2482C261.797 43.6052 263.657 44.2932 266.364 44.2932C267.293 44.2932 268.297 44.2244 269.43 44.0465C270.452 43.8707 271.455 43.599 272.426 43.2351L273.54 49.6285C272.432 50.0798 271.28 50.4137 270.104 50.6249C268.724 50.9452 267.235 51.0472 265.604 51.0472C263.115 51.0472 260.936 50.6961 259.115 49.944C257.297 49.192 255.803 48.2051 254.602 46.9051C253.404 45.5966 252.53 44.0205 252.049 42.3052C251.313 40.5117 251.059 38.583 251.059 36.5333Z" fill="white"/>
<path d="M289.194 44.0513C290.367 44.0513 291.301 43.9184 292.04 43.7358C292.805 43.5389 293.433 43.2993 293.863 42.9292C294.294 42.6113 294.602 42.1795 294.792 41.7525C294.975 41.316 295.036 40.8154 295.036 40.2556C295.036 39.0789 294.491 38.0849 293.358 37.2807C292.232 36.4693 290.294 35.658 287.543 34.7399C286.353 34.2939 285.148 33.8622 283.975 33.307C282.83 32.7693 281.762 32.0791 280.798 31.255C279.827 30.4394 279.042 29.4214 278.497 28.2706C277.847 27.1034 277.601 25.6705 277.601 23.998C277.601 22.3161 277.934 20.8334 278.562 19.4622C279.161 18.1166 280.082 16.9432 281.242 16.0484C282.492 15.0707 283.909 14.3326 285.422 13.8706C287.036 13.3843 288.917 13.1328 290.98 13.1328C293.431 13.1328 295.552 13.3819 297.358 13.9394C299.167 14.4281 300.595 15.0544 301.801 15.676L299.423 22.1287C298.337 21.58 297.206 21.1284 296.042 20.7788C294.581 20.3458 293.065 20.1347 291.543 20.1525C289.609 20.1525 288.167 20.3921 287.292 20.9639C286.417 21.5119 285.985 22.3256 285.985 23.4334C285.985 24.1238 286.173 24.6884 286.485 25.1154C286.801 25.5567 287.231 25.9813 287.791 26.3609C288.364 26.7167 289.051 27.0417 289.797 27.3525C290.538 27.6562 291.341 27.9622 292.289 28.2872C294.168 28.9657 295.857 29.6513 297.215 30.3227C298.608 31.0106 299.796 31.8125 300.739 32.6855C301.668 33.6178 302.36 34.6735 302.791 35.8644C303.232 37.1004 303.493 38.5831 303.493 40.3172C303.493 43.6717 302.282 46.3429 299.936 48.21C297.532 50.0651 293.926 50.9951 289.11 50.9951C287.493 50.9951 286.039 50.8765 284.725 50.7009C283.579 50.5232 282.442 50.2928 281.317 50.0106C280.432 49.7997 279.568 49.5083 278.736 49.1399C277.995 48.8196 277.434 48.5018 276.918 48.2693L279.255 41.8047C280.317 42.4239 281.687 42.9316 283.245 43.4179C284.852 43.8591 286.862 44.0513 289.194 44.0513Z" fill="white"/>
<path d="M335.031 36.536C335.031 38.6426 334.771 40.5761 334.208 42.3102C333.746 43.9414 332.963 45.4616 331.906 46.7797C330.888 48.0467 329.582 49.0455 328.099 49.6905C326.59 50.388 324.845 50.7344 322.912 50.7344C321.854 50.7344 320.796 50.6205 319.839 50.4473C318.896 50.2501 317.975 49.9585 317.089 49.5766V59.9508H309.289V23.7373C309.96 23.5594 310.793 23.3032 311.736 23.1205C312.685 22.9236 313.64 22.7606 314.6 22.6318C315.595 22.5108 316.604 22.3827 317.671 22.3163C318.729 22.2523 319.665 22.1953 320.65 22.1953C322.914 22.1953 324.979 22.5108 326.78 23.1917C328.587 23.8726 330.107 24.8001 331.28 26.048C332.56 27.3096 333.522 28.8624 334.088 30.5767C334.717 32.3797 335.031 34.363 335.031 36.536ZM327.041 36.7922C327.041 34.3653 326.468 32.4366 325.406 31.0109C324.348 29.5875 322.713 28.8449 320.594 28.8449C319.902 28.8449 319.215 28.8449 318.675 28.9019C318.046 28.9636 317.603 29.0252 317.171 29.0893V43.1192C317.671 43.4347 318.29 43.6696 319.1 43.921C319.902 44.1701 320.648 44.2271 321.45 44.2271C325.176 44.2294 327.041 41.7551 327.041 36.7922Z" fill="white"/>
<path d="M366.95 36.4766C366.95 38.6425 366.666 40.6376 366.032 42.4359C365.448 44.1478 364.509 45.7137 363.278 47.0287C362.043 48.2872 360.585 49.2995 358.981 50.0131C357.294 50.7034 355.403 51.0545 353.341 51.0545C351.279 51.0545 349.475 50.7034 347.783 50.0131C346.141 49.3617 344.666 48.3412 343.472 47.0287C342.28 45.7951 341.337 44.2293 340.645 42.4359C339.957 40.6376 339.664 38.6425 339.664 36.4766C339.664 34.2964 339.957 32.3084 340.645 30.579C341.271 28.89 342.233 27.3487 343.472 26.0502C344.689 24.7784 346.158 23.7808 347.783 23.1228C349.515 22.4278 351.362 22.072 353.226 22.0742C355.201 22.0742 357.033 22.4443 358.729 23.1228C360.347 23.788 361.81 24.7847 363.027 26.0502C364.228 27.2862 365.171 28.8472 365.831 30.579C366.579 32.3796 366.95 34.3629 366.95 36.4766ZM358.981 36.4766C358.981 34.0616 358.467 32.1993 357.524 30.8305C356.576 29.4521 355.201 28.776 353.395 28.776C351.591 28.776 350.216 29.4521 349.217 30.8305C348.213 32.1993 347.722 34.1114 347.722 36.4766C347.722 38.8987 348.213 40.761 349.217 42.1797C350.216 43.6102 351.595 44.2958 353.395 44.2958C355.201 44.2958 356.571 43.6102 357.524 42.1797C358.469 40.8179 358.981 38.9011 358.981 36.4766Z" fill="white"/>
<path d="M372.709 15.9196L380.53 14.6836V22.7542H389.952V29.2069H380.53V38.8979C380.53 40.5134 380.814 41.804 381.382 42.8075C381.964 43.7967 383.137 44.2949 384.882 44.2949C385.684 44.2949 386.573 44.2261 387.517 44.0482C388.377 43.856 389.213 43.6686 389.949 43.3531L391.073 49.4523C390.042 49.8708 388.979 50.2017 387.894 50.4416C386.5 50.7362 385.079 50.8809 383.655 50.8734C381.534 50.8734 379.7 50.5531 378.328 50.0075C377.021 49.4972 375.859 48.6694 374.945 47.5972C374.1 46.4941 373.506 45.2169 373.204 43.856C372.866 42.269 372.702 40.6493 372.714 39.026L372.709 15.9196Z" fill="white"/>
<path d="M404.337 44.6705C405.74 44.6705 406.742 44.5376 407.375 44.2269C408.009 43.9896 408.26 43.4155 408.26 42.6208C408.26 41.9945 407.889 41.437 407.059 40.9459C406.313 40.4454 405.14 39.9472 403.563 39.328C402.436 38.9256 401.335 38.4486 400.27 37.8999C399.266 37.4112 398.376 36.8537 397.694 36.1562C396.999 35.4732 396.45 34.6528 396.082 33.7459C395.679 32.816 395.512 31.6963 395.512 30.3203C395.512 27.7179 396.457 25.7322 398.376 24.1807C400.3 22.6933 402.935 21.9531 406.313 21.9531C407.976 21.9531 409.611 22.0694 411.129 22.3896C412.677 22.6957 413.883 23.0088 414.798 23.3718L413.419 29.4592C412.447 29.1125 411.45 28.8444 410.437 28.6573C409.241 28.3975 408.021 28.2726 406.798 28.2848C404.396 28.2848 403.132 28.9728 403.132 30.325C403.132 30.6453 403.188 30.9608 403.303 31.1364C403.445 31.4212 403.666 31.6584 403.939 31.8196C404.251 32.0711 404.678 32.3178 405.255 32.5716C405.827 32.8207 406.486 33.1173 407.317 33.4399C409.067 34.0591 410.442 34.6783 411.561 35.2951C412.682 35.9166 413.566 36.6022 414.249 37.2854C414.882 37.9687 415.373 38.78 415.628 39.6412C415.884 40.5094 415.999 41.5082 415.999 42.6801C415.999 45.4178 415 47.4722 412.933 48.8292C410.866 50.2075 407.976 50.9476 404.251 50.9476C401.818 50.9476 399.751 50.7579 398.121 50.3213C396.511 49.8848 395.371 49.5717 394.74 49.268L396.059 42.9268C397.377 43.4321 398.752 43.8639 400.183 44.1675C401.54 44.5181 402.937 44.6872 404.337 44.6705Z" fill="white"/>
<path d="M245.764 14.8662C245.764 16.2991 245.302 17.407 244.356 18.2159C243.455 19.0401 242.278 19.4885 241.063 19.4709C239.846 19.4732 238.67 19.027 237.755 18.2159C236.823 17.407 236.385 16.2991 236.385 14.8662C236.385 13.4333 236.823 12.3302 237.755 11.5117C238.663 10.6909 239.844 10.2462 241.063 10.2663C242.322 10.2663 243.437 10.7028 244.356 11.5117C245.299 12.3278 245.764 13.4333 245.764 14.8662Z" fill="white"/>
<path d="M199.567 14.8656C199.567 16.2984 199.144 17.4063 198.206 18.2153C197.296 19.0378 196.114 19.4856 194.893 19.4702C193.671 19.474 192.49 19.0279 191.569 18.2153C190.647 17.4063 190.211 16.2984 190.211 14.8656C190.211 13.4327 190.65 12.3295 191.569 11.5111C192.519 10.6998 193.587 10.2656 194.893 10.2656C196.134 10.2656 197.265 10.7021 198.206 11.5111C199.074 12.3272 199.567 13.4327 199.567 14.8656Z" fill="white"/>
<path d="M271.839 88.8742V96.627C271.834 97.4241 271.83 97.4241 271.032 97.4288C269.46 97.4597 269.46 97.4597 269.46 95.8394C269.46 93.9771 269.465 92.1124 269.46 90.2454C269.451 89.5741 269.442 89.5551 268.759 89.5551C266.495 89.5503 264.227 89.5503 261.96 89.5551C261.264 89.5551 261.245 89.5693 261.245 90.3213C261.24 92.4185 261.245 94.5132 261.24 96.6033C261.24 97.4193 261.231 97.4193 260.461 97.4288C258.836 97.4644 258.836 97.4644 258.836 95.7919V81.0669C258.854 80.3528 258.859 80.3528 259.514 80.3315C261.24 80.2793 261.24 80.2793 261.24 82.0609C261.24 83.667 261.264 85.2659 261.235 86.8696C261.226 87.3203 261.355 87.4959 261.827 87.4912C264.196 87.4674 266.556 87.4722 268.918 87.4864C269.336 87.4912 269.47 87.3441 269.46 86.9289C269.444 84.9978 269.456 83.0691 269.46 81.1381C269.46 80.3505 269.47 80.3505 270.253 80.3362C271.834 80.3078 271.834 80.3078 271.834 81.9067C271.839 84.2269 271.839 86.547 271.839 88.8742ZM183.761 88.879V96.6365C183.761 97.4193 183.747 97.4193 182.963 97.4288C181.392 97.4597 181.392 97.4597 181.392 95.8441C181.392 93.9771 181.396 92.1172 181.387 90.2502C181.387 89.5741 181.373 89.5551 180.681 89.5551C178.417 89.5503 176.153 89.5503 173.889 89.5551C173.148 89.5551 173.134 89.5693 173.129 90.3071C173.124 92.4042 173.134 94.499 173.129 96.589C173.124 97.4241 173.12 97.4241 172.273 97.4288C170.748 97.4502 170.748 97.4502 170.748 95.8892V81.4512C170.748 81.2211 170.757 80.9957 170.753 80.7656C170.739 80.4928 170.84 80.3267 171.133 80.3362C171.17 80.3362 171.201 80.3362 171.229 80.3315C173.132 80.1678 173.132 80.1678 173.132 82.0728C173.132 83.61 173.127 85.1497 173.132 86.6869C173.136 87.4603 173.146 87.4698 173.852 87.4746C176.148 87.484 178.447 87.4651 180.744 87.4888C181.244 87.4935 181.413 87.3417 181.403 86.8222C181.375 84.9219 181.389 83.0217 181.399 81.1238C181.399 80.3481 181.403 80.3481 182.192 80.3315C183.763 80.3078 183.763 80.3078 183.763 81.9067L183.761 88.879ZM320.942 78.3554V84.7084C322.028 84.4997 323.032 84.2316 324.076 84.2956C324.831 84.3431 325.566 84.4427 326.253 84.7416C327.503 85.2802 328.247 86.2623 328.594 87.5671C328.773 88.229 328.888 88.9098 328.892 89.6002C328.897 91.9582 328.897 94.3092 328.892 96.6673C328.892 97.4122 328.873 97.4122 328.151 97.4264C326.598 97.4691 326.598 97.4692 326.598 95.9082C326.598 94.1455 326.598 92.3805 326.593 90.6108C326.593 89.8564 326.57 89.1091 326.377 88.3737C326.051 87.1448 325.378 86.547 324.132 86.4141C323.295 86.3169 322.464 86.4426 321.636 86.5754C321.05 86.6774 320.921 86.9455 320.921 87.4983C320.949 90.4091 320.944 93.3223 320.93 96.2332C320.93 97.6044 321.099 97.4146 319.752 97.4288C319.588 97.4288 319.426 97.4146 319.267 97.4336C318.739 97.5024 318.624 97.2461 318.629 96.7551C318.638 90.9358 318.638 85.1117 318.624 79.2924C318.624 78.7919 318.781 78.5973 319.267 78.557C319.778 78.5095 320.273 78.334 320.942 78.3554ZM221.782 86.8411C220.792 86.4324 219.729 86.2392 218.661 86.2742C218.209 86.2891 217.764 86.3914 217.35 86.5754C216.379 87.0214 216.177 88.1198 216.918 88.9074C217.336 89.3511 217.878 89.5693 218.422 89.7781C219.325 90.1339 220.25 90.44 221.104 90.9168C222.617 91.7637 223.229 93.1729 222.877 94.8786C222.689 95.8109 222.194 96.4965 221.383 96.9401C221.043 97.1299 220.686 97.3102 220.32 97.3909C218.424 97.8545 216.439 97.793 214.575 97.2129C214.099 97.0658 214.002 96.8286 214.099 96.3565C214.354 95.0185 214.345 95.0091 215.614 95.4171C216.749 95.7824 217.911 95.7563 219.07 95.6496C219.263 95.6244 219.452 95.5742 219.633 95.5001C220.728 95.1016 220.993 93.9107 220.17 93.0756C219.729 92.6272 219.147 92.39 218.589 92.1314C217.737 91.7471 216.857 91.4126 216.018 90.988C214.666 90.2976 214.066 89.1589 214.209 87.6098C214.336 86.2718 215.039 85.3584 216.212 84.8247C218.094 83.973 220.01 84.279 221.92 84.7559C222.183 84.8199 222.279 85.0239 222.192 85.2849C222.037 85.7641 222.061 86.3074 221.782 86.8411ZM227.977 80.5806C227.977 81.7478 227.996 82.8224 227.963 83.8923C227.954 84.3882 228.097 84.5922 228.618 84.5732C229.781 84.5376 230.945 84.5922 232.104 84.5542C232.631 84.5376 232.777 84.7227 232.758 85.2327C232.709 86.7652 232.92 86.4782 231.55 86.5019C230.546 86.5161 229.547 86.5161 228.547 86.5019C228.137 86.4924 227.961 86.6347 227.97 87.0618C227.998 89.1565 227.949 91.2466 228.036 93.3389C228.109 95.0589 228.906 95.7065 230.619 95.6377C231.362 95.6045 232.066 95.372 232.732 95.0945C232.805 95.232 232.859 95.2795 232.873 95.3388C233.363 97.118 233.295 97.2438 231.463 97.5783C230.602 97.7368 229.72 97.7472 228.855 97.6091C227.241 97.3553 226.267 96.3921 225.896 94.7789C225.754 94.1061 225.685 93.4196 225.69 92.7316C225.69 89.0664 225.69 85.4059 225.699 81.7407C225.699 80.9815 225.704 80.9768 226.469 80.8273C226.912 80.7467 227.358 80.6826 227.977 80.5806ZM310.981 80.5806C310.981 81.7573 311 82.8367 310.967 83.9066C310.948 84.4261 311.119 84.5874 311.619 84.5732C312.783 84.5424 313.951 84.5779 315.115 84.5637C315.556 84.5495 315.762 84.6657 315.753 85.1615C315.715 86.8245 315.893 86.4782 314.523 86.5019C313.552 86.5161 312.581 86.5161 311.614 86.5019C311.176 86.4877 310.967 86.5849 310.967 87.0855C311 89.1423 311 91.2015 311.009 93.263C311.014 93.6283 311.101 93.9795 311.216 94.3187C311.306 94.634 311.482 94.9171 311.725 95.1354C311.967 95.3536 312.266 95.4982 312.586 95.5523C313.407 95.7184 314.202 95.6211 314.981 95.3744C315.22 95.3008 315.462 95.2036 315.687 95.1277C315.76 95.1893 315.832 95.2249 315.846 95.2747C316.374 97.1038 316.302 97.2485 314.441 97.5878C313.58 97.7392 312.7 97.7448 311.837 97.6044C310.223 97.3458 309.24 96.3637 308.895 94.7505C308.752 94.0778 308.68 93.3914 308.682 92.7031C308.691 89.0711 308.687 85.4391 308.687 81.8047C308.687 80.9768 308.691 80.972 309.496 80.8273C309.937 80.7419 310.383 80.6778 310.981 80.5806ZM340.69 86.8815C339.7 86.465 338.624 86.2996 337.556 86.3999C336.05 86.5304 335.017 87.3132 334.522 88.7532C334.026 90.1859 334.019 91.7455 334.504 93.1824C334.926 94.4753 335.822 95.2392 337.131 95.5215C338.17 95.7397 339.196 95.6472 340.209 95.3886C340.483 95.3222 340.756 95.2392 341.011 95.1585C341.18 95.3578 341.157 95.5689 341.194 95.7563C341.474 97.2106 341.464 97.1963 340.075 97.4786C339.185 97.6454 338.278 97.7075 337.373 97.6637C334.82 97.5617 332.805 95.9769 332.109 93.4931C331.665 91.9431 331.656 90.2991 332.08 88.7437C332.934 85.6028 335.569 83.9113 338.921 84.3431C339.498 84.4166 340.054 84.5779 340.631 84.6942C341.049 84.7796 341.251 84.9907 341.089 85.451C340.943 85.8898 340.847 86.3358 340.69 86.8815ZM249.919 86.8483C249.01 86.4841 248.034 86.3246 247.059 86.3809C245.309 86.4687 244.15 87.401 243.7 89.1091C243.341 90.409 243.359 91.7857 243.751 93.0756C244.173 94.4516 245.091 95.2581 246.496 95.5357C247.805 95.7919 249.058 95.5452 250.348 95.1419C250.428 95.5215 250.51 95.8655 250.564 96.2166C250.709 97.1346 250.707 97.1536 249.851 97.3577C248.492 97.6993 247.106 97.8226 245.722 97.5379C243.503 97.0706 242.046 95.7184 241.401 93.5074C240.941 91.9637 240.926 90.3197 241.356 88.7675C242.226 85.598 244.819 83.9256 248.173 84.3384C248.818 84.4166 249.452 84.5376 250.071 84.7488C250.369 84.846 250.496 85.0239 250.39 85.3371C250.231 85.8305 250.203 86.3619 249.919 86.8483ZM302.106 86.8364C302.106 84.3478 302.116 81.864 302.097 79.3754C302.092 78.8701 302.203 78.6377 302.751 78.5404C304.424 78.2533 304.419 78.2201 304.419 79.8736V93.1302C304.419 93.422 304.41 93.7232 304.424 94.015C304.473 94.9924 304.731 95.3601 305.684 95.6045C306.165 95.7231 306.313 95.8512 306.212 96.3779C305.951 97.7491 306.259 97.8653 304.595 97.5332C302.991 97.2129 302.249 96.3043 302.139 94.5892C302.076 93.7707 302.106 92.957 302.106 92.1385V86.8364ZM204.311 78.3008C204.457 78.7681 204.403 79.1311 204.403 79.4822C204.408 84.0655 204.408 88.6417 204.408 93.2251C204.408 93.5501 204.403 93.8775 204.431 94.2025C204.499 94.9308 204.849 95.4029 205.58 95.5926C206.301 95.7824 206.291 95.8109 206.19 96.468C205.97 97.8203 205.925 97.8535 204.595 97.5474C203.033 97.1868 202.336 96.404 202.172 94.7908C202.134 94.3672 202.113 93.9422 202.109 93.5169V79.6815C202.109 78.6756 202.109 78.6756 203.127 78.4858C203.509 78.417 203.889 78.3601 204.311 78.3008ZM356.581 91.2703C356.581 89.4412 356.586 87.6098 356.572 85.7831C356.567 85.3395 356.64 85.0524 357.126 84.9219C359.115 84.3597 361.111 84.0821 363.159 84.5092C363.802 84.6515 363.807 84.6444 363.697 85.3466C363.671 85.4771 363.657 85.5981 363.64 85.7333C363.462 86.6632 363.462 86.649 362.5 86.4877C361.574 86.3295 360.627 86.3327 359.701 86.4972C358.88 86.6442 358.876 86.6466 358.876 87.4888C358.871 90.4044 358.871 93.3081 358.871 96.2213C358.871 96.4206 358.857 96.6151 358.876 96.8096C358.913 97.2461 358.794 97.4929 358.289 97.4454C357.936 97.4075 357.58 97.4075 357.226 97.4454C356.699 97.5 356.563 97.2604 356.572 96.7693C356.591 95.1016 356.581 93.4338 356.581 91.7708V91.2703ZM208.82 90.8717C208.82 89.0094 208.811 87.1424 208.82 85.2802C208.82 84.5969 208.839 84.5661 209.522 84.5708C211.504 84.5898 211.105 84.3289 211.124 86.1366C211.147 89.5361 211.129 92.9333 211.129 96.3399L211.124 97.0255C211.129 97.3078 210.988 97.4288 210.716 97.4288C210.286 97.4241 209.869 97.4003 209.451 97.4454C208.914 97.4929 208.813 97.239 208.816 96.7551C208.827 94.7955 208.82 92.8313 208.82 90.8717ZM237.837 91.071C237.837 92.9333 237.842 94.8003 237.832 96.6626C237.832 97.4122 237.818 97.4359 237.096 97.4264C235.261 97.398 235.583 97.7087 235.569 95.8892C235.555 92.4873 235.569 89.0877 235.569 85.6858V84.9955C235.569 84.7227 235.695 84.6064 235.972 84.5637C237.652 84.3099 237.844 84.4617 237.844 86.1627C237.837 87.7996 237.837 89.4341 237.837 91.071ZM235.78 80.7894C235.781 80.5847 235.823 80.3824 235.904 80.1948C235.984 80.0072 236.102 79.8382 236.25 79.6981C236.397 79.558 236.571 79.4498 236.762 79.3801C236.952 79.3103 237.154 79.2805 237.356 79.2924C238.276 79.3161 238.895 80.0207 238.855 80.9744C238.853 81.1791 238.809 81.3813 238.728 81.5687C238.646 81.7561 238.528 81.9249 238.38 82.0651C238.233 82.2053 238.059 82.314 237.869 82.3846C237.679 82.4552 237.476 82.4863 237.274 82.4761C236.352 82.4523 235.742 81.7573 235.78 80.7894ZM210.11 82.4761C209.908 82.4771 209.707 82.4371 209.52 82.3584C209.333 82.2798 209.164 82.1641 209.022 82.0182C208.88 81.8723 208.768 81.6991 208.693 81.5089C208.618 81.3186 208.582 81.1151 208.586 80.9103C208.575 80.6967 208.609 80.4833 208.685 80.2836C208.76 80.0839 208.876 79.9023 209.025 79.7502C209.173 79.5981 209.352 79.4789 209.548 79.4001C209.745 79.3213 209.955 79.2846 210.167 79.2924C211.089 79.3114 211.71 80.0017 211.675 80.9649C211.676 81.1697 211.636 81.3725 211.556 81.5609C211.477 81.7494 211.361 81.9195 211.214 82.061C211.068 82.2024 210.895 82.3122 210.705 82.3835C210.515 82.4549 210.313 82.4864 210.11 82.4761ZM375.586 86.8435C375.339 86.3257 374.993 85.8625 374.567 85.4809C374.142 85.0994 373.646 84.8069 373.108 84.6206C370.087 83.546 366.957 84.967 365.798 87.9799C365.038 89.9774 365.062 92.0104 365.763 94.0222C366.401 95.8607 367.734 96.9781 369.585 97.4454C370.941 97.7912 372.359 97.8042 373.721 97.4834C375.614 97.0397 375.673 97.4217 375.086 95.0684C373.634 95.5689 372.21 95.7919 370.737 95.5286C368.996 95.2226 367.854 93.9581 367.722 92.1931C367.694 91.8254 367.778 91.6498 368.184 91.6641C368.726 91.6783 369.28 91.6641 369.831 91.6641C371.774 91.6641 373.702 91.6688 375.647 91.6641C375.952 91.6593 376.329 91.7566 376.334 91.2323C376.365 89.7259 376.268 88.229 375.586 86.8435ZM367.783 89.7496C367.856 87.6691 369.409 86.1366 371.243 86.2694C372.893 86.3857 373.969 87.7474 373.915 89.7496H367.783ZM285.75 87.4556C285.3 86.2006 284.517 85.2232 283.271 84.7227C280.632 83.667 277.185 84.4688 275.797 87.7308C275.041 89.5147 274.98 91.358 275.421 93.2156C276.036 95.7777 277.781 97.3434 280.369 97.6257C281.595 97.7731 282.837 97.7057 284.04 97.4264C285.415 97.1014 285.415 97.1109 285.164 95.7041C285.054 95.0778 285.054 95.0731 284.451 95.2487C283.25 95.595 282.049 95.7634 280.803 95.5594C278.957 95.2581 277.915 94.2119 277.627 92.371C277.54 91.7518 277.577 91.6807 278.185 91.6759C279.381 91.6593 280.573 91.6712 281.776 91.6712C283.069 91.6712 284.362 91.6593 285.657 91.6759C286.051 91.6807 286.257 91.5739 286.248 91.1303C286.236 89.8848 286.18 88.6417 285.75 87.4556ZM277.666 89.7544C277.739 87.7569 279.224 86.1461 281.127 86.2694C282.79 86.3809 283.848 87.7094 283.813 89.7544H277.666ZM198.698 88.7034C197.968 86.0939 195.899 84.3858 193.372 84.3051C190.585 84.2174 188.434 85.6502 187.536 88.2622C186.854 90.1611 186.894 92.248 187.646 94.1194C188.554 96.4419 190.545 97.7799 193.002 97.7965C195.458 97.8155 197.433 96.4965 198.409 94.2025C198.845 93.1847 198.991 92.1267 198.995 90.9453C198.992 90.1882 198.891 89.4347 198.698 88.7034ZM195.995 93.9012C195.371 95.0589 194.433 95.6947 193.1 95.7136C191.73 95.7326 190.7 95.1443 190.114 93.9154C189.196 92.0057 189.211 90.0461 190.123 88.1459C190.696 86.9503 191.704 86.3762 193.032 86.3714C194.36 86.3667 195.324 86.9645 195.965 88.1174C196.469 89.026 196.614 90.0272 196.6 90.95C196.605 92.0531 196.471 93.021 195.995 93.9012ZM298.442 96.5985C298.447 95.2605 298.447 93.9154 298.447 92.5774H298.4C298.4 91.1398 298.468 89.6998 298.376 88.2669C298.247 86.1034 297.088 84.8508 295.017 84.4356C293.722 84.1794 292.443 84.2933 291.16 84.5139C289.818 84.7488 289.842 84.7535 290.037 86.1271C290.098 86.6134 290.266 86.7415 290.724 86.5992C291.629 86.3456 292.568 86.2376 293.506 86.2789C295.059 86.3216 295.885 87.0404 296.15 88.5872C296.38 89.8753 296.324 89.9204 295.036 89.7211C293.459 89.4768 291.939 89.6381 290.492 90.338C290.078 90.5303 289.708 90.8071 289.406 91.1508C289.103 91.4945 288.874 91.8979 288.732 92.3354C287.939 94.7362 289.173 96.9686 291.62 97.4929C293.783 97.9555 295.932 97.5854 298.076 97.2746C298.524 97.2058 298.442 96.8761 298.442 96.5985ZM295.747 95.6425C294.623 95.6947 293.492 95.8465 292.382 95.5452C291.371 95.2629 290.935 94.7291 290.867 93.766C290.799 92.8763 291.252 92.1314 292.164 91.8017C293.347 91.3699 294.574 91.4553 295.793 91.6593C296.091 91.7092 296.23 91.8894 296.22 92.2026C296.206 92.6937 296.22 93.18 296.22 93.6711C296.22 94.1265 296.206 94.5891 296.225 95.0423C296.227 95.3981 296.112 95.6259 295.747 95.6425ZM352.875 89.2253C352.875 88.8315 352.842 88.4425 352.802 88.0487C352.567 86.0512 351.467 84.8508 349.525 84.4404C348.199 84.1652 346.881 84.2862 345.565 84.5092C344.263 84.7369 344.263 84.7535 344.465 86.0535C344.565 86.7059 344.575 86.7249 345.194 86.5707C346.168 86.3154 347.176 86.217 348.181 86.2789C349.142 86.3406 349.935 86.7391 350.339 87.6881C350.623 88.3594 350.728 89.0593 350.578 89.8042C350.161 89.8658 349.79 89.7496 349.41 89.6927C347.934 89.4887 346.499 89.6286 345.133 90.2264C344.127 90.6677 343.383 91.3984 343.132 92.492C342.7 94.4326 343.118 96.9116 346.142 97.5047C346.494 97.5712 346.848 97.6447 347.2 97.6589C348.887 97.7206 350.559 97.5617 352.232 97.3126C352.786 97.2295 352.901 96.997 352.891 96.487C352.865 94.072 352.879 91.6498 352.875 89.2253ZM350.639 95.0375C350.658 95.3839 350.557 95.6211 350.182 95.6448C349.063 95.6994 347.927 95.8489 346.818 95.5476C345.778 95.2605 345.323 94.684 345.297 93.6758C345.269 92.7862 345.738 92.0911 346.679 91.7756C347.836 91.377 349.034 91.4648 350.217 91.6593C350.519 91.7068 350.658 91.8871 350.646 92.1978C350.63 92.6937 350.646 93.18 350.646 93.6663C350.639 94.1289 350.625 94.582 350.639 95.0375Z" fill="white"/>
<path d="M61.806 0C27.6726 0 0 27.9815 0 62.5012C0 97.0161 27.6726 125.002 61.806 125.002C95.9417 125.002 123.612 97.0161 123.612 62.5012C123.61 27.9815 95.9417 0 61.806 0ZM102.893 89.2088C95.1418 100.805 84.5428 108.294 70.8895 110.693C54.1536 113.622 39.6275 108.757 27.6656 96.5606C20.168 88.917 15.7975 79.6032 14.3571 68.9325C10.9766 43.8666 27.2598 20.2406 51.6927 14.6775C73.0149 9.82615 94.8837 20.0366 105.15 39.6391C106.815 42.8279 108.129 46.1923 109.067 49.6717C109.131 50.2576 109.267 52.4164 107.782 52.4236C104.373 52.4307 100.962 52.4307 97.5534 52.4283C93.3025 52.4164 92.831 50.1983 92.831 50.1983C92.8193 50.2173 92.8193 50.2292 92.8075 50.2458C89.2488 41.4943 83.1657 35.1341 74.3403 31.6135C55.2233 23.9747 34.4149 35.7153 30.2532 55.5693C26.488 73.542 37.6499 91.1138 55.4086 94.9593C67.2462 97.5167 77.4933 94.0649 86.0278 85.4463C88.7983 82.6398 90.8956 79.3684 92.458 75.753L92.4838 75.7862C92.4838 75.7862 93.3776 73.6653 95.686 73.6653H95.6907C99.3128 73.6606 102.93 73.6653 106.557 73.6558C106.557 73.6558 109.147 74.0805 109.086 75.4754C107.716 80.3624 105.715 84.9813 102.893 89.2088ZM86.1076 66.4392C86.8653 66.565 87.3251 66.1807 87.8365 65.7299C88.4394 65.2056 88.796 64.3302 89.7508 64.2852C89.732 66.6527 89.1972 68.9278 88.3597 71.1056C84.5546 81.0266 77.4323 87.0168 67.0773 88.8007C55.4438 90.8125 44.0895 84.9078 38.6516 74.4838C38.6469 74.4838 38.6422 74.4838 38.6376 74.479L38.5273 74.2608C38.5132 74.2276 38.4944 74.2062 38.478 74.173L38.4804 74.1683C38.1684 73.4827 37.6546 71.8932 39.332 71.6844L39.2663 71.6346C42.9869 71.6394 46.7099 71.6512 50.4353 71.6204C51.0851 71.6109 51.5074 71.8386 51.9484 72.287C54.4492 74.8396 57.4215 76.5074 60.9779 76.9676C67.1594 77.7552 73.5568 74.4482 76.3578 68.4605C76.3977 68.3679 76.4587 68.2707 76.3156 68.0761H75.2928C65.7706 68.0761 56.2555 68.0809 46.7381 68.0714C46.7381 68.0714 39.2686 68.6218 37.1268 67.6491C37.0447 67.6159 36.9719 67.5685 36.8969 67.5234L36.8218 67.4807C36.8077 67.4712 36.8124 67.4665 36.8007 67.4522C36.0523 66.8591 35.7849 65.4429 35.7849 65.4429C35.3712 63.1392 35.3 60.786 35.5738 58.4611C36.4723 50.1959 40.2797 43.57 47.0876 38.8966C61.2125 29.1938 79.994 34.5576 87.3415 49.9896C87.4447 50.4332 87.616 51.5672 86.9005 51.9894C83.0696 51.9942 79.241 51.9752 75.4148 52.0108C74.7556 52.0155 74.3357 51.7854 73.897 51.3347C71.666 49.0193 69.0643 47.3065 65.9372 46.4904C59.0636 44.7064 51.3549 48.6872 48.7415 55.3581C48.7063 55.4506 48.7016 55.5574 48.6782 55.6902C49.0441 55.8729 49.4265 55.7851 49.7901 55.7851C61.5855 55.7899 73.3785 55.7899 85.1739 55.7851L85.2513 55.7899L85.1739 55.8231C85.1739 55.8231 85.3099 55.8089 85.4929 55.8017C85.826 55.8112 86.1592 55.8302 86.4923 55.8539C87.6793 56.0247 89.298 56.6748 89.7156 58.9024C89.7883 59.2914 89.8657 59.4955 89.9408 59.6022C89.8933 59.7647 89.8024 59.9109 89.6781 60.0245C88.4464 61.2889 87.3931 62.7218 86.1873 64.0147C85.9575 64.2742 85.6739 64.4792 85.3569 64.6153C85.0398 64.7514 84.697 64.8153 84.3528 64.8023C81.4087 64.7596 78.4668 64.8759 75.525 64.7264C79.0768 65.17 82.5816 65.8746 86.1076 66.4392Z" fill="white"/>
<path d="M35.8106 65.4492H35.7871L35.8129 65.4587L35.8106 65.4492Z" fill="white"/>
<path d="M104.674 63.017L97.6761 57.4468C95.7642 55.9261 93.9789 54.9345 93.7115 55.2429L92.569 56.5714C91.1309 58.2249 87.8185 62.0396 86.3968 63.7073C85.9746 64.2031 85.4937 64.3787 84.8462 64.3739C81.3601 64.3455 77.8741 64.3597 74.388 64.3692H74.1487C73.8742 64.4522 74.8267 64.7488 76.2601 65.0216L77.5621 65.2493C80.6094 65.7689 83.6591 66.2694 86.7065 66.7961C87.3329 66.8981 87.8349 66.7913 88.3064 66.2908L89.0219 65.5411C90.193 64.4021 91.3221 63.2199 92.4071 61.9969L93.3549 60.9507C93.8827 60.3671 93.9132 60.3766 94.4903 60.8676L102.108 67.3417C106.056 70.7009 109.418 73.4718 109.575 73.4931C109.732 73.5169 111.932 69.2443 113.485 64.2648C113.485 64.2648 117.136 52.5622 119.892 42.0385L119.951 41.8108C120.131 41.5688 120.589 45.6326 120.967 50.8375L125.248 109.714C125.626 114.919 126.144 119.296 126.397 119.436C126.651 119.583 127.972 115.64 128.743 110.482L134.533 71.7803C135.305 66.6181 136.445 62.8651 137.067 63.4298C137.688 63.9991 139.455 65.6811 139.809 65.9183C140.161 66.1603 141.278 66.3216 141.296 66.3216C141.315 66.3216 141.855 66.3121 142.451 66.2884L142.995 66.2837C149.822 66.2433 156.646 66.2149 163.47 66.1769C177.457 66.1081 191.441 66.0346 205.427 65.9681C219.228 65.8993 233.025 65.821 246.828 65.7523C262.555 65.6811 278.285 65.6028 294.01 65.5245C306.143 65.4723 318.271 65.4059 330.407 65.3537C336.675 65.3252 342.944 65.3086 349.217 65.2873C358.047 65.2469 366.87 65.2185 375.705 65.1639L377.405 65.1544C379.275 65.0833 380.622 64.9694 380.396 64.9077L380.19 64.903C374.262 64.8271 368.324 64.7488 362.389 64.6657L328.122 64.2387L308.428 63.9849L273.936 63.5531C268.038 63.4796 262.143 63.3965 256.245 63.3159C244.006 63.1688 231.765 63.0193 219.526 62.8628C213.781 62.794 208.029 62.7109 202.281 62.635C190.711 62.4879 179.139 62.348 167.569 62.2009C159.187 62.0965 150.804 61.985 142.422 61.8996C141.909 61.9125 141.41 61.7248 141.029 61.3753L138.836 59.449C136.663 56.9557 134.571 55.0056 134.186 55.1219C133.799 55.2334 132.197 59.7408 131.486 64.9125L129.198 81.4855C128.485 86.6572 127.878 90.8823 127.847 90.8775C127.817 90.8728 127.455 86.6026 127.115 81.3977L123.533 26.7869C123.19 21.5796 122.749 17.3711 122.55 17.4423C122.351 17.5063 120.652 21.8548 119.2 26.8628L110.797 56.7351C109.345 61.7407 107.632 65.4059 106.992 64.884C106.227 64.2522 105.454 63.6299 104.674 63.017Z" fill="#55B34E"/>
</g>
<defs>
<clipPath id="clip0_2333_32">
<rect width="416" height="125" fill="white"/>
</clipPath>
</defs>
</svg>
