<svg width="60" height="60" viewBox="0 0 60 60" fill="none" xmlns="http://www.w3.org/2000/svg">
<g clip-path="url(#clip0_1908_797)">
<path d="M30 0C13.458 0 0 13.458 0 30C0 46.542 13.458 60 30 60C46.542 60 60 46.542 60 30C60 13.458 46.542 0 30 0ZM15.4545 34.5454C12.9482 34.5454 10.9091 32.5064 10.9091 30C10.9091 27.4936 12.9482 25.4545 15.4545 25.4545C17.9609 25.4545 20 27.4936 20 30C20 32.5064 17.9609 34.5454 15.4545 34.5454ZM30 34.5454C27.4936 34.5454 25.4545 32.5064 25.4545 30C25.4545 27.4936 27.4936 25.4545 30 25.4545C32.5064 25.4545 34.5454 27.4936 34.5454 30C34.5454 32.5064 32.5064 34.5454 30 34.5454ZM44.5454 34.5454C42.0391 34.5454 40 32.5064 40 30C40 27.4936 42.0391 25.4545 44.5454 25.4545C47.0518 25.4545 49.0909 27.4936 49.0909 30C49.0909 32.5064 47.0518 34.5454 44.5454 34.5454Z" fill="#2C392C"/>
</g>
<defs>
<clipPath id="clip0_1908_797">
<rect width="60" height="60" fill="white"/>
</clipPath>
</defs>
</svg>
