<svg width="68" height="68" viewBox="0 0 68 68" fill="none" xmlns="http://www.w3.org/2000/svg">
<path fill-rule="evenodd" clip-rule="evenodd" d="M33.9997 2.125C36.0164 2.125 38.0133 2.52222 39.8765 3.29398C41.7397 4.06574 43.4327 5.19693 44.8587 6.62295C46.2847 8.04898 47.4159 9.74192 48.1877 11.6051C48.9594 13.4683 49.3566 15.4653 49.3566 17.482C49.3566 17.5174 49.3556 17.5528 49.3553 17.5882L34.1059 32.8376C34.0704 32.8376 34.0352 32.839 33.9997 32.839C31.983 32.839 29.986 32.4417 28.1228 31.67C26.2596 30.8982 24.5667 29.767 23.1406 28.341C21.7146 26.915 20.5834 25.222 19.8117 23.3588C19.0399 21.4956 18.6427 19.4987 18.6427 17.482C18.6427 15.4653 19.0399 13.4683 19.8117 11.6051C20.5834 9.74192 21.7146 8.04898 23.1406 6.62295C24.5667 5.19693 26.2596 4.06574 28.1228 3.29398C29.986 2.52222 31.983 2.125 33.9997 2.125ZM26.783 42.7899L29.1612 40.4126L35.0804 46.3318L32.7022 48.7091C32.5775 48.8333 32.4087 48.9031 32.2327 48.9031C32.0566 48.9031 31.8878 48.8333 31.7631 48.7091L26.7826 43.7286C26.6584 43.6039 26.5887 43.4351 26.5887 43.2591C26.5887 43.0831 26.6584 42.9142 26.7826 42.7895L26.783 42.7899ZM30.4752 39.0977L36.3944 45.0169L59.1048 22.3065C59.8883 21.5213 60.3281 20.4572 60.3274 19.3479C60.3268 18.2386 59.8859 17.175 59.1015 16.3906C58.3172 15.6062 57.2535 15.1653 56.1442 15.1648C55.035 15.1642 53.9708 15.6039 53.1856 16.3875L30.4757 39.0972L30.4752 39.0977ZM55.3368 18.8409L46.0043 28.1734C45.83 28.3477 45.732 28.5842 45.732 28.8308C45.732 29.0774 45.83 29.3139 46.0043 29.4882C46.1787 29.6626 46.4152 29.7605 46.6617 29.7605C46.9083 29.7605 47.1448 29.6626 47.3192 29.4882L56.6516 20.1558C56.738 20.0694 56.8064 19.9669 56.8532 19.8541C56.8999 19.7413 56.9239 19.6204 56.9239 19.4983C56.9239 19.3762 56.8999 19.2553 56.8532 19.1425C56.8064 19.0297 56.738 18.9272 56.6516 18.8409C56.5653 18.7546 56.4628 18.6861 56.35 18.6394C56.2372 18.5926 56.1163 18.5686 55.9942 18.5686C55.8721 18.5686 55.7512 18.5926 55.6384 18.6394C55.5256 18.6861 55.4231 18.7546 55.3368 18.8409ZM29.6956 49.271L26.2211 45.7965L7.67383 64.3438C9.74677 66.4167 16.1231 66.6088 19.2106 63.5213L25.6497 57.0828C25.7879 56.9447 25.7982 53.8711 25.9116 53.0557L29.6956 49.2717V49.271ZM30.5969 8.68899V14.0792H25.2075V20.8848H30.5975V26.275H37.4031V20.8848H42.7933V14.0792H37.4024V8.68899H30.5969Z" fill="#2C392C"/>
</svg>
