<svg width="60" height="60" viewBox="0 0 60 60" fill="none" xmlns="http://www.w3.org/2000/svg">
<g clip-path="url(#clip0_1908_792)">
<path d="M57.8521 33.707L57.7106 33.5757C57.6235 33.4966 57.5381 33.4157 57.4544 33.3331L43.9762 19.8587C43.9467 19.8292 43.9159 19.801 43.8839 19.7742C43.2176 19.2154 42.4385 18.8072 41.5998 18.5775V15.2765C41.5998 14.893 41.4474 14.5251 41.1763 14.254C40.9051 13.9828 40.5373 13.8304 40.1538 13.8304H33.5983C33.2148 13.8304 32.847 13.9828 32.5758 14.254C32.3046 14.5251 32.1523 14.893 32.1523 15.2765V18.3611H4.27274C1.91657 18.3611 0 20.278 0 22.6339V48.233C0 48.6165 0.15235 48.9843 0.423534 49.2555C0.694718 49.5267 1.06252 49.6791 1.44603 49.6791H5.22307C5.88189 52.552 8.45727 54.7023 11.5275 54.7023C14.5977 54.7023 17.1731 52.552 17.8319 49.6791H42.6158C43.2746 52.552 45.85 54.7023 48.9199 54.7023C51.993 54.7023 54.5707 52.5477 55.2263 49.6704C57.8735 49.5784 60 47.4021 60 44.733V38.6695C59.9985 37.7397 59.8073 36.82 59.4379 35.9667C59.0686 35.1134 58.5289 34.3445 57.8521 33.707ZM35.0446 16.7225H38.708V18.3611H35.0446V16.7225ZM11.5272 51.8102C9.55481 51.8102 7.95001 50.2054 7.95001 48.233C7.95001 46.2606 9.55481 44.6558 11.5272 44.6558C13.4996 44.6558 15.1044 46.2606 15.1044 48.233C15.1044 50.2054 13.4999 51.8102 11.5272 51.8102ZM18.9662 31.0709C18.9662 31.4544 18.8138 31.8222 18.5426 32.0934C18.2715 32.3646 17.9037 32.5169 17.5201 32.5169H15.1735V34.8636C15.1735 35.2471 15.0212 35.6149 14.75 35.8861C14.4788 36.1573 14.111 36.3096 13.7275 36.3096H10.932C10.5485 36.3096 10.1807 36.1573 9.90952 35.8861C9.63833 35.6149 9.48598 35.2471 9.48598 34.8636V32.5169H7.13936C6.75585 32.5169 6.38804 32.3646 6.11686 32.0934C5.84567 31.8222 5.69333 31.4544 5.69333 31.0709V28.2754C5.69333 27.8919 5.84567 27.5241 6.11686 27.2529C6.38804 26.9818 6.75585 26.8294 7.13936 26.8294H9.48598V24.4828C9.48598 24.0993 9.63833 23.7315 9.90952 23.4603C10.1807 23.1891 10.5485 23.0367 10.932 23.0367H13.7278C13.9177 23.0367 14.1057 23.0742 14.2812 23.1468C14.4566 23.2195 14.616 23.326 14.7503 23.4603C14.8846 23.5946 14.9911 23.754 15.0637 23.9294C15.1364 24.1049 15.1738 24.2929 15.1738 24.4828V26.8294H17.5204C17.9039 26.8294 18.2718 26.9818 18.5429 27.2529C18.8141 27.5241 18.9665 27.8919 18.9665 28.2754L18.9662 31.0709ZM36.5876 32.4776C36.2499 32.4772 35.9261 32.3429 35.6874 32.1041C35.4486 31.8654 35.3143 31.5416 35.3139 31.2039V24.379C35.3139 23.9877 35.632 23.6698 36.0233 23.6698H40.5769C41.0266 23.6698 41.4494 23.8448 41.7675 24.1629L48.7247 31.1204C49.0636 31.4593 48.9581 31.839 48.8971 31.9868C48.836 32.1343 48.642 32.4776 48.1622 32.4776H36.5876ZM48.9199 51.8102C46.9475 51.8102 45.3427 50.2054 45.3427 48.233C45.3427 46.2606 46.9472 44.6558 48.9199 44.6558C50.8926 44.6558 52.4971 46.2606 52.4971 48.233C52.4971 50.2054 50.8923 51.8102 48.9199 51.8102ZM36.8762 12.2398C36.4927 12.2398 36.1249 12.0874 35.8537 11.8163C35.5825 11.5451 35.4301 11.1773 35.4301 10.7938V6.74486C35.4301 6.55497 35.4675 6.36693 35.5402 6.19149C35.6129 6.01605 35.7194 5.85664 35.8537 5.72236C35.988 5.58808 36.1474 5.48157 36.3228 5.4089C36.4982 5.33623 36.6863 5.29883 36.8762 5.29883C37.0661 5.29883 37.2541 5.33623 37.4296 5.4089C37.605 5.48157 37.7644 5.58808 37.8987 5.72236C38.033 5.85664 38.1395 6.01605 38.2121 6.19149C38.2848 6.36693 38.3222 6.55497 38.3222 6.74486V10.7938C38.3222 11.1773 38.1699 11.5451 37.8987 11.8163C37.6275 12.0874 37.2597 12.2398 36.8762 12.2398ZM43.8967 13.4689C43.6106 13.4692 43.3308 13.3846 43.0929 13.2257C42.8549 13.0669 42.6694 12.841 42.5599 12.5767C42.4504 12.3124 42.4218 12.0215 42.4777 11.7409C42.5336 11.4604 42.6716 11.2027 42.874 11.0005L45.4251 8.44945C45.5588 8.31237 45.7183 8.20318 45.8944 8.12823C46.0706 8.05328 46.2599 8.01406 46.4513 8.01283C46.6428 8.0116 46.8325 8.0484 47.0096 8.12109C47.1867 8.19378 47.3476 8.3009 47.483 8.43626C47.6184 8.57162 47.7255 8.73251 47.7983 8.9096C47.871 9.08669 47.9078 9.27646 47.9066 9.46789C47.9054 9.65933 47.8662 9.84862 47.7913 10.0248C47.7163 10.201 47.6072 10.3605 47.4701 10.4941L44.919 13.0452C44.785 13.1798 44.6256 13.2865 44.4502 13.3592C44.2747 13.4319 44.0866 13.4692 43.8967 13.4689ZM30.5359 13.4689C30.3459 13.4692 30.1578 13.4319 29.9823 13.3592C29.8068 13.2864 29.6474 13.1798 29.5133 13.0452L26.9622 10.4941C26.8251 10.3605 26.716 10.201 26.641 10.0248C26.5661 9.84862 26.5269 9.65933 26.5257 9.46789C26.5245 9.27646 26.5613 9.08669 26.634 8.9096C26.7067 8.73251 26.8139 8.57162 26.9493 8.43626C27.0847 8.3009 27.2456 8.19378 27.4227 8.12109C27.5998 8.0484 27.7895 8.0116 27.981 8.01283C28.1724 8.01406 28.3617 8.05328 28.5378 8.12823C28.714 8.20318 28.8735 8.31237 29.0072 8.44945L31.5582 11.0005C31.6925 11.1348 31.7991 11.2942 31.8718 11.4696C31.9445 11.645 31.9819 11.833 31.9819 12.0229C31.9819 12.2128 31.9445 12.4008 31.8718 12.5762C31.7991 12.7516 31.6925 12.911 31.5582 13.0452C31.4242 13.1798 31.2649 13.2865 31.0894 13.3592C30.9139 13.4319 30.7258 13.4692 30.5359 13.4689Z" fill="#2C392C"/>
</g>
<defs>
<clipPath id="clip0_1908_792">
<rect width="60" height="60" fill="white"/>
</clipPath>
</defs>
</svg>
