<svg width="158" height="49" viewBox="0 0 158 49" fill="none" xmlns="http://www.w3.org/2000/svg">
<g clip-path="url(#clip0_1908_1077)">
<path d="M40.0122 24.1543H35.5157V28.4817C35.5157 29.2684 34.8163 29.9569 34.0169 29.9569H25.1239C24.3245 29.9569 23.6251 30.6453 23.6251 31.4321V40.1852C23.6251 40.972 22.9256 41.6604 22.1263 41.6604H13.2333C12.4339 41.6604 11.7344 40.972 11.7344 40.1852V31.4321C11.7344 30.6453 11.035 29.9569 10.2356 29.9569H0.143555V47.3647H35.0161H35.216C41.9107 47.2663 47.4064 41.8571 47.4064 35.2677C47.4064 30.3503 44.4087 26.1213 40.0122 24.1543Z" fill="#002D73"/>
<path d="M35.216 0.943359H0.143555V18.3511H10.4355C11.2348 18.3511 11.9343 17.6627 11.9343 16.8759V8.22119C11.9343 7.4344 12.6337 6.74595 13.4331 6.74595H22.3261C23.1255 6.74595 23.8249 7.4344 23.8249 8.22119V16.9743C23.8249 17.761 24.5244 18.4495 25.3237 18.4495H34.1168C34.9162 18.4495 35.6156 19.1379 35.6156 19.9247V24.2521H40.1121C44.4087 22.3835 47.4064 18.0561 47.4064 13.1386C47.4064 6.45091 41.9107 1.04171 35.216 0.943359Z" fill="#B21E28"/>
<path opacity="0.5" d="M10.4355 18.3505C11.2348 18.3505 11.9343 17.662 11.9343 16.8752V8.22051C11.9343 7.82712 12.1341 7.43372 12.4339 7.13867L0.143555 18.3505H10.4355Z" fill="#002D73"/>
<path d="M34.1168 18.3513H25.2238C24.4245 18.3513 23.725 17.6628 23.725 16.876V8.22133C23.725 7.43454 23.0256 6.74609 22.2262 6.74609H13.3332C12.5338 6.74609 11.8344 7.43454 11.8344 8.22133V16.9744C11.8344 17.7612 11.1349 18.4496 10.3355 18.4496H0.143555V30.0548H10.4355C11.2348 30.0548 11.9343 30.7433 11.9343 31.5301V40.2831C11.9343 41.0699 12.6337 41.7584 13.4331 41.7584H22.3261C23.1255 41.7584 23.8249 41.0699 23.8249 40.2831V31.4317C23.8249 30.6449 24.5244 29.9565 25.3237 29.9565H34.1168C34.9162 29.9565 35.6156 29.268 35.6156 28.4812V19.7282C35.6156 19.0397 34.9162 18.3513 34.1168 18.3513Z" fill="white"/>
<path d="M69.9884 13.2366C69.7885 13.0399 69.3889 13.0399 69.189 13.2366C68.1898 14.22 67.2905 14.7118 65.8916 14.7118C63.7933 14.7118 62.1945 13.0399 62.1945 10.7778C62.1945 8.5158 63.7933 6.84387 65.8916 6.84387C67.0907 6.84387 67.99 7.23726 69.0891 8.22076C69.189 8.3191 69.3889 8.41745 69.4888 8.3191C69.6886 8.3191 69.7885 8.22076 69.8885 8.12241L71.3873 6.45047C71.5871 6.25377 71.5871 5.86038 71.3873 5.66368C70.2881 4.58184 68.7893 3.5 65.8916 3.5C61.7948 3.5 58.6973 6.54882 58.6973 10.5811C58.6973 14.6134 61.7948 17.6623 65.7917 17.6623C68.0899 17.6623 69.7885 16.9738 71.3873 15.2035C71.5871 15.0068 71.5871 14.6134 71.3873 14.4167L69.9884 13.2366Z" fill="#B21E28"/>
<path d="M80.9794 4.08997C80.8794 3.89327 80.6796 3.79492 80.4797 3.79492H78.3814C78.1816 3.79492 77.9817 3.89327 77.8818 4.08997L72.1863 16.8753C72.0863 17.072 72.0863 17.2687 72.1863 17.3671C72.2862 17.5638 72.486 17.6621 72.6859 17.6621H74.9841C75.1839 17.6621 75.3838 17.5638 75.4837 17.3671L76.6827 14.6133H81.9786L83.1776 17.3671C83.2775 17.5638 83.4774 17.6621 83.6772 17.6621H86.0753C86.2752 17.6621 86.475 17.5638 86.5749 17.3671C86.6749 17.1704 86.6749 16.9737 86.5749 16.8753L80.9794 4.08997ZM80.6796 11.4661H77.9817L79.3806 8.31898L80.6796 11.4661Z" fill="#B21E28"/>
<path d="M99.7647 3.79492H97.5664C97.2666 3.79492 96.9669 4.08997 96.9669 4.38502V11.5645L91.0715 4.08997C90.9716 3.99162 90.7717 3.89327 90.5719 3.89327H88.4736C88.1738 3.89327 87.874 4.18832 87.874 4.48337V17.1704C87.874 17.4654 88.1738 17.7605 88.4736 17.7605H90.6718C90.9716 17.7605 91.2714 17.4654 91.2714 17.1704V9.69587L97.3666 17.4654C97.4665 17.5638 97.6663 17.6621 97.8662 17.6621H99.7647C100.064 17.6621 100.364 17.3671 100.364 17.072V4.38502C100.364 4.08997 100.064 3.79492 99.7647 3.79492Z" fill="#B21E28"/>
<path d="M113.654 13.2366C113.455 13.0399 113.055 13.0399 112.855 13.2366C111.856 14.22 110.957 14.7118 109.558 14.7118C107.459 14.7118 105.861 13.0399 105.861 10.7778C105.861 8.5158 107.459 6.84387 109.558 6.84387C110.757 6.84387 111.656 7.23726 112.755 8.22076C112.855 8.3191 113.055 8.41745 113.155 8.3191C113.355 8.3191 113.455 8.22076 113.554 8.12241L115.053 6.45047C115.253 6.25377 115.253 5.86038 115.053 5.66368C113.954 4.58184 112.455 3.5 109.558 3.5C105.461 3.5 102.363 6.54882 102.363 10.5811C102.363 14.6134 105.461 17.6623 109.458 17.6623C111.756 17.6623 113.455 16.9738 115.053 15.2035C115.253 15.0068 115.253 14.6134 115.053 14.4167L113.654 13.2366Z" fill="#B21E28"/>
<path d="M127.344 14.515H120.549V12.2529H126.444C126.744 12.2529 127.044 11.9579 127.044 11.6628V9.69587C127.044 9.40082 126.744 9.10577 126.444 9.10577H120.549V6.94209H127.244C127.544 6.94209 127.843 6.64704 127.843 6.352V4.38502C127.843 4.08997 127.544 3.79492 127.244 3.79492H117.651C117.352 3.79492 117.052 4.08997 117.052 4.38502V17.072C117.052 17.3671 117.352 17.6621 117.651 17.6621H127.344C127.643 17.6621 127.943 17.3671 127.943 17.072V15.1051C127.843 14.81 127.643 14.515 127.344 14.515Z" fill="#B21E28"/>
<path d="M141.732 16.777L138.734 12.548C140.433 11.7612 141.432 10.286 141.432 8.41733C141.432 7.13879 141.032 6.05695 140.233 5.27016C139.234 4.28667 137.835 3.79492 136.136 3.79492H130.341C130.041 3.79492 129.741 4.08997 129.741 4.38502V17.072C129.741 17.3671 130.041 17.6621 130.341 17.6621H132.639C132.939 17.6621 133.238 17.3671 133.238 17.072V13.2364H135.237L138.235 17.4654C138.334 17.6621 138.534 17.6621 138.734 17.6621H141.432C141.632 17.6621 141.832 17.5638 141.932 17.3671C141.832 17.1704 141.832 16.9737 141.732 16.777ZM133.139 6.94209H135.836C136.836 6.94209 137.935 7.23714 137.935 8.51568C137.935 9.49917 137.135 10.0893 135.836 10.0893H133.039V6.94209H133.139Z" fill="#B21E28"/>
<path d="M58.5977 40.2832H60.2963L61.7951 45.004L63.3939 40.2832H64.6929L66.2916 45.004L67.7904 40.2832H69.3892L66.9911 47.266H65.5922L63.9934 42.7419L62.3947 47.266H60.9958L58.5977 40.2832Z" fill="#778692"/>
<path d="M72.1868 40.2832H73.5857L76.5833 47.266H75.0845L74.485 45.6924H71.4873L70.8878 47.266H69.2891L72.1868 40.2832ZM73.8854 44.3155L72.9862 42.0535L72.0869 44.3155H73.8854Z" fill="#778692"/>
<path d="M78.8819 41.7584H76.6836V40.2832H82.579V41.6601H80.3807V47.1676H78.7819V41.7584H78.8819Z" fill="#778692"/>
<path d="M85.6768 41.7584H83.4785V40.2832H89.3739V41.6601H87.1756V47.1676H85.5769V41.7584H85.6768Z" fill="#778692"/>
<path d="M92.4713 40.2832H93.8702L96.8678 47.266H95.2691L94.6695 45.6924H91.6719L91.0724 47.266H89.4736L92.4713 40.2832ZM94.1699 44.3155L93.2706 42.0535L92.3714 44.3155H94.1699Z" fill="#778692"/>
<path d="M98.0664 40.2832H99.4653L102.763 44.6106V40.2832H104.262V47.266H102.963L99.5652 42.8403V47.266H98.0664V40.2832Z" fill="#778692"/>
<path d="M105.761 43.8245C105.761 41.8575 107.359 40.1855 109.558 40.1855C111.756 40.1855 113.255 41.7591 113.255 43.7261C113.255 45.6931 111.656 47.365 109.458 47.365C107.26 47.365 105.761 45.7914 105.761 43.8245ZM111.556 43.8245C111.556 42.6443 110.657 41.6608 109.458 41.6608C108.159 41.6608 107.359 42.6443 107.359 43.8245C107.359 45.0047 108.259 45.9881 109.458 45.9881C110.757 45.9881 111.556 45.0047 111.556 43.8245Z" fill="#778692"/>
<path d="M114.054 46.2825L114.953 45.2007C115.553 45.6924 116.252 46.0858 117.051 46.0858C117.651 46.0858 118.051 45.7908 118.051 45.3974C118.051 45.004 117.851 44.8073 116.652 44.5122C115.253 44.1188 114.353 43.7254 114.353 42.3485C114.353 41.07 115.353 40.2832 116.852 40.2832C117.851 40.2832 118.75 40.5783 119.449 41.1683L118.65 42.3485C118.051 41.9551 117.451 41.6601 116.852 41.6601C116.252 41.6601 115.952 41.9551 115.952 42.2502C115.952 42.7419 116.252 42.8403 117.451 43.1353C118.85 43.5287 119.649 44.0205 119.649 45.2007C119.649 46.5775 118.55 47.3643 117.051 47.3643C115.952 47.3643 114.953 46.9709 114.054 46.2825Z" fill="#778692"/>
<path d="M120.648 43.8245C120.648 41.8575 122.247 40.1855 124.445 40.1855C126.644 40.1855 128.143 41.7591 128.143 43.7261C128.143 45.6931 126.544 47.365 124.346 47.365C122.247 47.365 120.648 45.7914 120.648 43.8245ZM126.544 43.8245C126.544 42.6443 125.645 41.6608 124.445 41.6608C123.146 41.6608 122.347 42.6443 122.347 43.8245C122.347 45.0047 123.246 45.9881 124.445 45.9881C125.744 45.9881 126.544 45.0047 126.544 43.8245Z" fill="#778692"/>
<path d="M131.041 41.7584H128.843V40.2832H134.738V41.6601H132.54V47.1676H131.041V41.7584Z" fill="#778692"/>
<path d="M135.837 40.2832H137.436V43.037H140.333V40.2832H141.932V47.266H140.333V44.5122H137.436V47.266H135.837V40.2832Z" fill="#778692"/>
<path d="M70.488 21.9902H68.1898C67.8901 21.9902 67.5903 22.2853 67.5903 22.5803V27.3011H62.4943V22.5803C62.4943 22.2853 62.1946 21.9902 61.8948 21.9902H59.5966C59.2968 21.9902 58.9971 22.2853 58.9971 22.5803V35.2674C58.9971 35.5624 59.2968 35.8575 59.5966 35.8575H61.8948C62.1946 35.8575 62.4943 35.5624 62.4943 35.2674V30.4483H67.5903V35.169C67.5903 35.4641 67.8901 35.7591 68.1898 35.7591H70.488C70.7878 35.7591 71.0876 35.4641 71.0876 35.169V22.5803C70.9876 22.2853 70.7878 21.9902 70.488 21.9902Z" fill="#002D73"/>
<path d="M80.0804 21.793C75.9836 21.793 72.7861 24.9401 72.7861 28.8741C72.7861 32.9064 75.8837 35.9552 80.0804 35.9552C84.1772 35.9552 87.3747 32.8081 87.3747 28.7758C87.3747 24.8418 84.1772 21.793 80.0804 21.793ZM83.8774 28.8741C83.8774 31.1361 82.2787 32.8081 80.0804 32.8081C77.8821 32.8081 76.2834 31.1361 76.2834 28.7758C76.2834 26.5137 77.8821 24.8418 80.0804 24.8418C82.1787 24.9401 83.8774 26.6121 83.8774 28.8741Z" fill="#002D73"/>
<path d="M95.0684 27.3982C92.3705 26.8081 92.3705 26.4147 92.3705 25.9229C92.3705 25.3328 92.97 24.9394 93.9693 24.9394C95.1683 24.9394 96.2674 25.3328 97.2667 26.0213C97.3666 26.1196 97.5664 26.1196 97.6663 26.1196C97.7663 26.1196 97.9661 26.0213 98.066 25.9229L99.1652 24.3494C99.365 24.1527 99.2651 23.7593 99.0652 23.5626C97.5664 22.3824 95.9677 21.8906 93.9693 21.8906C91.0715 21.8906 88.8733 23.6609 88.8733 26.1196C88.8733 29.0701 91.2714 29.8569 93.6695 30.447C96.2674 31.0371 96.2674 31.4305 96.2674 31.9222C96.2674 32.5123 95.4681 33.0041 94.3689 33.0041C92.97 33.0041 91.771 32.5123 90.472 31.5288C90.3721 31.4305 90.1722 31.4305 90.0723 31.4305C89.9724 31.4305 89.7726 31.5288 89.6726 31.6272L88.3737 33.2008C88.1738 33.3975 88.1738 33.7909 88.4736 33.9876C90.0723 35.3644 92.1707 36.1512 94.3689 36.1512C97.5664 36.1512 99.7647 34.381 99.7647 31.7255C99.7647 28.8734 97.3666 27.8899 95.0684 27.3982Z" fill="#002D73"/>
<path d="M107.559 21.9902H102.163C101.863 21.9902 101.563 22.2853 101.563 22.5803V35.2674C101.563 35.5624 101.863 35.8575 102.163 35.8575H104.461C104.761 35.8575 105.061 35.5624 105.061 35.2674V31.7268H107.359C110.756 31.7268 113.154 29.7598 113.154 26.8093C113.054 23.9572 110.856 21.9902 107.559 21.9902ZM109.557 26.9077C109.557 27.9895 108.658 28.5796 107.359 28.5796H105.061V25.1374H107.359C108.358 25.1374 109.557 25.4325 109.557 26.9077Z" fill="#002D73"/>
<path d="M117.751 21.9902H115.453C115.153 21.9902 114.854 22.2853 114.854 22.5803V35.2674C114.854 35.5624 115.153 35.8575 115.453 35.8575H117.751C118.051 35.8575 118.351 35.5624 118.351 35.2674V22.5803C118.351 22.2853 118.051 21.9902 117.751 21.9902Z" fill="#002D73"/>
<path d="M131.54 21.9902H120.948C120.648 21.9902 120.349 22.2853 120.349 22.5803V24.6457C120.349 24.9407 120.648 25.2358 120.948 25.2358H124.345V35.3657C124.345 35.6608 124.645 35.9558 124.945 35.9558H127.243C127.543 35.9558 127.843 35.6608 127.843 35.3657V25.1374H131.64C131.94 25.1374 132.239 24.8424 132.239 24.5473V22.5803C132.039 22.2853 131.84 21.9902 131.54 21.9902Z" fill="#002D73"/>
<path d="M145.129 35.0707L139.433 22.2853C139.334 22.0886 139.134 21.9902 138.934 21.9902H136.836C136.636 21.9902 136.436 22.0886 136.336 22.2853L130.64 35.0707C130.54 35.2674 130.54 35.4641 130.64 35.5624C130.74 35.7591 130.94 35.8575 131.14 35.8575H133.438C133.638 35.8575 133.838 35.7591 133.938 35.5624L135.137 32.8086H140.533L141.732 35.5624C141.832 35.7591 142.031 35.8575 142.231 35.8575H144.629C144.829 35.8575 145.029 35.7591 145.129 35.5624C145.229 35.3657 145.229 35.169 145.129 35.0707ZM139.234 29.6615H136.536L137.935 26.5143L139.234 29.6615Z" fill="#002D73"/>
<path d="M156.121 32.6119H150.026V22.5803C150.026 22.2853 149.726 21.9902 149.426 21.9902H147.128C146.828 21.9902 146.528 22.2853 146.528 22.5803V35.2674C146.528 35.5624 146.828 35.8575 147.128 35.8575H156.021C156.321 35.8575 156.62 35.5624 156.62 35.2674V33.202C156.62 32.907 156.421 32.6119 156.121 32.6119Z" fill="#002D73"/>
</g>
<defs>
<clipPath id="clip0_1908_1077">
<rect width="156.877" height="47.2076" fill="white" transform="translate(0.143555 0.943359)"/>
</clipPath>
</defs>
</svg>
